<?xml version="1.0" encoding="UTF-8" standalone="no"?>
<!DOCTYPE svg PUBLIC "-//W3C//DTD SVG 1.1//EN"
 "http://www.w3.org/Graphics/SVG/1.1/DTD/svg11.dtd">
<!-- Generated by graphviz version 3.0.0 (20220226.1711)
 -->
<!-- Title: dependencies Pages: 1 -->
<svg width="512pt" height="247pt"
 viewBox="0.00 0.00 512.00 246.80" xmlns="http://www.w3.org/2000/svg" xmlns:xlink="http://www.w3.org/1999/xlink">
<g id="graph0" class="graph" transform="scale(1 1) rotate(0) translate(4 242.8)">
<title>dependencies</title>
<polygon fill="white" stroke="transparent" points="-4,4 -4,-242.8 508,-242.8 508,4 -4,4"/>
<text text-anchor="middle" x="252" y="-8.2" font-family="sans-serif" font-size="14.00">dependencies</text>
<g id="clust1" class="cluster">
<title>cluster_PartidaModule</title>
<polygon fill="none" stroke="black" stroke-dasharray="1,5" points="8,-32.8 8,-230.8 496,-230.8 496,-32.8 8,-32.8"/>
</g>
<g id="clust3" class="cluster">
<title>cluster_PartidaModule_imports</title>
<polygon fill="none" stroke="black" points="374,-40.8 374,-92.8 488,-92.8 488,-40.8 374,-40.8"/>
</g>
<g id="clust4" class="cluster">
<title>cluster_PartidaModule_exports</title>
<polygon fill="none" stroke="black" points="140,-170.8 140,-222.8 411,-222.8 411,-170.8 140,-170.8"/>
</g>
<g id="clust6" class="cluster">
<title>cluster_PartidaModule_providers</title>
<polygon fill="none" stroke="black" points="16,-40.8 16,-92.8 366,-92.8 366,-40.8 16,-40.8"/>
</g>
<!-- PessoaModule -->
<g id="node1" class="node">
<title>PessoaModule</title>
<polygon fill="#8dd3c7" stroke="black" points="479.66,-84.8 476.66,-88.8 455.66,-88.8 452.66,-84.8 382.34,-84.8 382.34,-48.8 479.66,-48.8 479.66,-84.8"/>
<text text-anchor="middle" x="431" y="-62.6" font-family="Times,serif" font-size="14.00">PessoaModule</text>
</g>
<!-- PartidaModule -->
<g id="node2" class="node">
<title>PartidaModule</title>
<polygon fill="#8dd3c7" stroke="black" points="316.71,-149.8 313.71,-153.8 292.71,-153.8 289.71,-149.8 217.29,-149.8 217.29,-113.8 316.71,-113.8 316.71,-149.8"/>
<text text-anchor="middle" x="267" y="-127.6" font-family="Times,serif" font-size="14.00">PartidaModule</text>
</g>
<!-- PessoaModule&#45;&gt;PartidaModule -->
<g id="edge1" class="edge">
<title>PessoaModule&#45;&gt;PartidaModule</title>
<path fill="none" stroke="black" d="M392.42,-84.91C392.42,-104.14 392.42,-131.8 392.42,-131.8 392.42,-131.8 326.93,-131.8 326.93,-131.8"/>
<polygon fill="black" stroke="black" points="326.93,-128.3 316.93,-131.8 326.93,-135.3 326.93,-128.3"/>
</g>
<!-- AtletaPartidaService  -->
<g id="node3" class="node">
<title>AtletaPartidaService </title>
<polygon fill="#fb8072" stroke="black" points="402.84,-214.8 267.16,-214.8 267.16,-178.8 402.84,-178.8 402.84,-214.8"/>
<text text-anchor="middle" x="335" y="-192.6" font-family="Times,serif" font-size="14.00">AtletaPartidaService </text>
</g>
<!-- PartidaModule&#45;&gt;AtletaPartidaService  -->
<g id="edge2" class="edge">
<title>PartidaModule&#45;&gt;AtletaPartidaService </title>
<path fill="none" stroke="black" stroke-dasharray="5,2" d="M291.97,-149.91C291.97,-149.91 291.97,-168.79 291.97,-168.79"/>
<polygon fill="black" stroke="black" points="288.47,-168.79 291.97,-178.79 295.47,-168.79 288.47,-168.79"/>
</g>
<!-- PartidaService  -->
<g id="node4" class="node">
<title>PartidaService </title>
<polygon fill="#fb8072" stroke="black" points="249.63,-214.8 148.37,-214.8 148.37,-178.8 249.63,-178.8 249.63,-214.8"/>
<text text-anchor="middle" x="199" y="-192.6" font-family="Times,serif" font-size="14.00">PartidaService </text>
</g>
<!-- PartidaModule&#45;&gt;PartidaService  -->
<g id="edge3" class="edge">
<title>PartidaModule&#45;&gt;PartidaService </title>
<path fill="none" stroke="black" stroke-dasharray="5,2" d="M233.48,-149.91C233.48,-149.91 233.48,-168.79 233.48,-168.79"/>
<polygon fill="black" stroke="black" points="229.98,-168.79 233.48,-178.79 236.98,-168.79 229.98,-168.79"/>
</g>
<!-- AtletaPartidaService -->
<g id="node5" class="node">
<title>AtletaPartidaService</title>
<ellipse fill="#fdb462" stroke="black" cx="267" cy="-66.8" rx="90.88" ry="18"/>
<text text-anchor="middle" x="267" y="-62.6" font-family="Times,serif" font-size="14.00">AtletaPartidaService</text>
</g>
<!-- AtletaPartidaService&#45;&gt;PartidaModule -->
<g id="edge4" class="edge">
<title>AtletaPartidaService&#45;&gt;PartidaModule</title>
<path fill="none" stroke="black" d="M267,-84.91C267,-84.91 267,-103.79 267,-103.79"/>
<polygon fill="black" stroke="black" points="263.5,-103.79 267,-113.79 270.5,-103.79 263.5,-103.79"/>
</g>
<!-- PartidaService -->
<g id="node6" class="node">
<title>PartidaService</title>
<ellipse fill="#fdb462" stroke="black" cx="91" cy="-66.8" rx="67.19" ry="18"/>
<text text-anchor="middle" x="91" y="-62.6" font-family="Times,serif" font-size="14.00">PartidaService</text>
</g>
<!-- PartidaService&#45;&gt;PartidaModule -->
<g id="edge5" class="edge">
<title>PartidaService&#45;&gt;PartidaModule</title>
<path fill="none" stroke="black" d="M153.39,-73.76C153.39,-90.52 153.39,-131.8 153.39,-131.8 153.39,-131.8 207.17,-131.8 207.17,-131.8"/>
<polygon fill="black" stroke="black" points="207.17,-135.3 217.17,-131.8 207.17,-128.3 207.17,-135.3"/>
</g>
</g>
</svg>
