<?xml version="1.0" encoding="UTF-8" standalone="no"?>
<!DOCTYPE svg PUBLIC "-//W3C//DTD SVG 1.1//EN"
 "http://www.w3.org/Graphics/SVG/1.1/DTD/svg11.dtd">
<!-- Generated by graphviz version 3.0.0 (20220226.1711)
 -->
<!-- Title: dependencies Pages: 1 -->
<svg width="663pt" height="247pt"
 viewBox="0.00 0.00 663.00 246.80" xmlns="http://www.w3.org/2000/svg" xmlns:xlink="http://www.w3.org/1999/xlink">
<g id="graph0" class="graph" transform="scale(1 1) rotate(0) translate(4 242.8)">
<title>dependencies</title>
<polygon fill="white" stroke="transparent" points="-4,4 -4,-242.8 659,-242.8 659,4 -4,4"/>
<text text-anchor="middle" x="327.5" y="-8.2" font-family="sans-serif" font-size="14.00">dependencies</text>
<g id="clust1" class="cluster">
<title>cluster_PartidaModule</title>
<polygon fill="none" stroke="black" stroke-dasharray="1,5" points="8,-32.8 8,-230.8 647,-230.8 647,-32.8 8,-32.8"/>
</g>
<g id="clust4" class="cluster">
<title>cluster_PartidaModule_exports</title>
<polygon fill="none" stroke="black" points="149,-170.8 149,-222.8 431,-222.8 431,-170.8 149,-170.8"/>
</g>
<g id="clust6" class="cluster">
<title>cluster_PartidaModule_providers</title>
<polygon fill="none" stroke="black" points="274,-40.8 274,-92.8 639,-92.8 639,-40.8 274,-40.8"/>
</g>
<g id="clust3" class="cluster">
<title>cluster_PartidaModule_imports</title>
<polygon fill="none" stroke="black" points="16,-40.8 16,-92.8 266,-92.8 266,-40.8 16,-40.8"/>
</g>
<!-- PessoaModule -->
<g id="node1" class="node">
<title>PessoaModule</title>
<polygon fill="#8dd3c7" stroke="black" points="257.66,-84.8 254.66,-88.8 233.66,-88.8 230.66,-84.8 160.34,-84.8 160.34,-48.8 257.66,-48.8 257.66,-84.8"/>
<text text-anchor="middle" x="209" y="-62.6" font-family="Times,serif" font-size="14.00">PessoaModule</text>
</g>
<!-- PartidaModule -->
<g id="node3" class="node">
<title>PartidaModule</title>
<polygon fill="#8dd3c7" stroke="black" points="328.71,-149.8 325.71,-153.8 304.71,-153.8 301.71,-149.8 229.29,-149.8 229.29,-113.8 328.71,-113.8 328.71,-149.8"/>
<text text-anchor="middle" x="279" y="-127.6" font-family="Times,serif" font-size="14.00">PartidaModule</text>
</g>
<!-- PessoaModule&#45;&gt;PartidaModule -->
<g id="edge1" class="edge">
<title>PessoaModule&#45;&gt;PartidaModule</title>
<path fill="none" stroke="black" d="M243.61,-84.91C243.61,-84.91 243.61,-103.79 243.61,-103.79"/>
<polygon fill="black" stroke="black" points="240.11,-103.79 243.61,-113.79 247.11,-103.79 240.11,-103.79"/>
</g>
<!-- PontuacaoModule -->
<g id="node2" class="node">
<title>PontuacaoModule</title>
<polygon fill="#8dd3c7" stroke="black" points="141.87,-84.8 138.87,-88.8 117.87,-88.8 114.87,-84.8 24.13,-84.8 24.13,-48.8 141.87,-48.8 141.87,-84.8"/>
<text text-anchor="middle" x="83" y="-62.6" font-family="Times,serif" font-size="14.00">PontuacaoModule</text>
</g>
<!-- PontuacaoModule&#45;&gt;PartidaModule -->
<g id="edge2" class="edge">
<title>PontuacaoModule&#45;&gt;PartidaModule</title>
<path fill="none" stroke="black" d="M83,-84.91C83,-104.14 83,-131.8 83,-131.8 83,-131.8 219.29,-131.8 219.29,-131.8"/>
<polygon fill="black" stroke="black" points="219.29,-135.3 229.29,-131.8 219.29,-128.3 219.29,-135.3"/>
</g>
<!-- AtletaEscaladoService  -->
<g id="node4" class="node">
<title>AtletaEscaladoService </title>
<polygon fill="#fb8072" stroke="black" points="423.22,-214.8 276.78,-214.8 276.78,-178.8 423.22,-178.8 423.22,-214.8"/>
<text text-anchor="middle" x="350" y="-192.6" font-family="Times,serif" font-size="14.00">AtletaEscaladoService </text>
</g>
<!-- PartidaModule&#45;&gt;AtletaEscaladoService  -->
<g id="edge3" class="edge">
<title>PartidaModule&#45;&gt;AtletaEscaladoService </title>
<path fill="none" stroke="black" stroke-dasharray="5,2" d="M302.75,-149.91C302.75,-149.91 302.75,-168.79 302.75,-168.79"/>
<polygon fill="black" stroke="black" points="299.25,-168.79 302.75,-178.79 306.25,-168.79 299.25,-168.79"/>
</g>
<!-- PartidaService  -->
<g id="node5" class="node">
<title>PartidaService </title>
<polygon fill="#fb8072" stroke="black" points="258.63,-214.8 157.37,-214.8 157.37,-178.8 258.63,-178.8 258.63,-214.8"/>
<text text-anchor="middle" x="208" y="-192.6" font-family="Times,serif" font-size="14.00">PartidaService </text>
</g>
<!-- PartidaModule&#45;&gt;PartidaService  -->
<g id="edge4" class="edge">
<title>PartidaModule&#45;&gt;PartidaService </title>
<path fill="none" stroke="black" stroke-dasharray="5,2" d="M243.98,-149.91C243.98,-149.91 243.98,-168.79 243.98,-168.79"/>
<polygon fill="black" stroke="black" points="240.48,-168.79 243.98,-178.79 247.48,-168.79 240.48,-168.79"/>
</g>
<!-- AtletaEscaladoService -->
<g id="node6" class="node">
<title>AtletaEscaladoService</title>
<ellipse fill="#fdb462" stroke="black" cx="533" cy="-66.8" rx="98.39" ry="18"/>
<text text-anchor="middle" x="533" y="-62.6" font-family="Times,serif" font-size="14.00">AtletaEscaladoService</text>
</g>
<!-- AtletaEscaladoService&#45;&gt;PartidaModule -->
<g id="edge5" class="edge">
<title>AtletaEscaladoService&#45;&gt;PartidaModule</title>
<path fill="none" stroke="black" d="M533,-84.91C533,-104.14 533,-131.8 533,-131.8 533,-131.8 338.88,-131.8 338.88,-131.8"/>
<polygon fill="black" stroke="black" points="338.88,-128.3 328.88,-131.8 338.88,-135.3 338.88,-128.3"/>
</g>
<!-- PartidaService -->
<g id="node7" class="node">
<title>PartidaService</title>
<ellipse fill="#fdb462" stroke="black" cx="349" cy="-66.8" rx="67.19" ry="18"/>
<text text-anchor="middle" x="349" y="-62.6" font-family="Times,serif" font-size="14.00">PartidaService</text>
</g>
<!-- PartidaService&#45;&gt;PartidaModule -->
<g id="edge6" class="edge">
<title>PartidaService&#45;&gt;PartidaModule</title>
<path fill="none" stroke="black" d="M305.13,-80.58C305.13,-80.58 305.13,-103.35 305.13,-103.35"/>
<polygon fill="black" stroke="black" points="301.63,-103.35 305.13,-113.35 308.63,-103.35 301.63,-103.35"/>
</g>
</g>
</svg>
