<?xml version="1.0" encoding="UTF-8" standalone="no"?>
<!DOCTYPE svg PUBLIC "-//W3C//DTD SVG 1.1//EN"
 "http://www.w3.org/Graphics/SVG/1.1/DTD/svg11.dtd">
<!-- Generated by graphviz version 3.0.0 (20220226.1711)
 -->
<!-- Title: dependencies Pages: 1 -->
<svg width="312pt" height="174pt"
 viewBox="0.00 0.00 312.00 173.80" xmlns="http://www.w3.org/2000/svg" xmlns:xlink="http://www.w3.org/1999/xlink">
<g id="graph0" class="graph" transform="scale(1 1) rotate(0) translate(4 169.8)">
<title>dependencies</title>
<polygon fill="white" stroke="transparent" points="-4,4 -4,-169.8 308,-169.8 308,4 -4,4"/>
<text text-anchor="middle" x="152" y="-8.2" font-family="sans-serif" font-size="14.00">dependencies</text>
<g id="clust1" class="cluster">
<title>cluster_PartidaModule</title>
<polygon fill="none" stroke="black" stroke-dasharray="1,5" points="8,-32.8 8,-157.8 296,-157.8 296,-32.8 8,-32.8"/>
</g>
<g id="clust3" class="cluster">
<title>cluster_PartidaModule_imports</title>
<polygon fill="none" stroke="black" points="174,-40.8 174,-92.8 288,-92.8 288,-40.8 174,-40.8"/>
</g>
<g id="clust6" class="cluster">
<title>cluster_PartidaModule_providers</title>
<polygon fill="none" stroke="black" points="16,-40.8 16,-92.8 166,-92.8 166,-40.8 16,-40.8"/>
</g>
<!-- PessoaModule -->
<g id="node1" class="node">
<title>PessoaModule</title>
<polygon fill="#8dd3c7" stroke="black" points="279.66,-84.8 276.66,-88.8 255.66,-88.8 252.66,-84.8 182.34,-84.8 182.34,-48.8 279.66,-48.8 279.66,-84.8"/>
<text text-anchor="middle" x="231" y="-62.6" font-family="Times,serif" font-size="14.00">PessoaModule</text>
</g>
<!-- PartidaModule -->
<g id="node2" class="node">
<title>PartidaModule</title>
<polygon fill="#8dd3c7" stroke="black" points="210.71,-149.8 207.71,-153.8 186.71,-153.8 183.71,-149.8 111.29,-149.8 111.29,-113.8 210.71,-113.8 210.71,-149.8"/>
<text text-anchor="middle" x="161" y="-127.6" font-family="Times,serif" font-size="14.00">PartidaModule</text>
</g>
<!-- PessoaModule&#45;&gt;PartidaModule -->
<g id="edge1" class="edge">
<title>PessoaModule&#45;&gt;PartidaModule</title>
<path fill="none" stroke="black" d="M196.39,-84.91C196.39,-84.91 196.39,-103.79 196.39,-103.79"/>
<polygon fill="black" stroke="black" points="192.89,-103.79 196.39,-113.79 199.89,-103.79 192.89,-103.79"/>
</g>
<!-- PartidaService -->
<g id="node3" class="node">
<title>PartidaService</title>
<ellipse fill="#fdb462" stroke="black" cx="91" cy="-66.8" rx="67.19" ry="18"/>
<text text-anchor="middle" x="91" y="-62.6" font-family="Times,serif" font-size="14.00">PartidaService</text>
</g>
<!-- PartidaService&#45;&gt;PartidaModule -->
<g id="edge2" class="edge">
<title>PartidaService&#45;&gt;PartidaModule</title>
<path fill="none" stroke="black" d="M134.87,-80.58C134.87,-80.58 134.87,-103.35 134.87,-103.35"/>
<polygon fill="black" stroke="black" points="131.37,-103.35 134.87,-113.35 138.37,-103.35 131.37,-103.35"/>
</g>
</g>
</svg>
