<?xml version="1.0" encoding="UTF-8" standalone="no"?>
<!DOCTYPE svg PUBLIC "-//W3C//DTD SVG 1.1//EN"
 "http://www.w3.org/Graphics/SVG/1.1/DTD/svg11.dtd">
<!-- Generated by graphviz version 3.0.0 (20220226.1711)
 -->
<!-- Title: dependencies Pages: 1 -->
<svg width="1009pt" height="247pt"
 viewBox="0.00 0.00 1009.00 246.80" xmlns="http://www.w3.org/2000/svg" xmlns:xlink="http://www.w3.org/1999/xlink">
<g id="graph0" class="graph" transform="scale(1 1) rotate(0) translate(4 242.8)">
<title>dependencies</title>
<polygon fill="white" stroke="transparent" points="-4,4 -4,-242.8 1005,-242.8 1005,4 -4,4"/>
<text text-anchor="middle" x="500.5" y="-8.2" font-family="sans-serif" font-size="14.00">dependencies</text>
<g id="clust1" class="cluster">
<title>cluster_PartidaModule</title>
<polygon fill="none" stroke="black" stroke-dasharray="1,5" points="8,-32.8 8,-230.8 993,-230.8 993,-32.8 8,-32.8"/>
</g>
<g id="clust3" class="cluster">
<title>cluster_PartidaModule_imports</title>
<polygon fill="none" stroke="black" points="735,-40.8 735,-92.8 985,-92.8 985,-40.8 735,-40.8"/>
</g>
<g id="clust4" class="cluster">
<title>cluster_PartidaModule_exports</title>
<polygon fill="none" stroke="black" points="262,-170.8 262,-222.8 812,-222.8 812,-170.8 262,-170.8"/>
</g>
<g id="clust6" class="cluster">
<title>cluster_PartidaModule_providers</title>
<polygon fill="none" stroke="black" points="16,-40.8 16,-92.8 727,-92.8 727,-40.8 16,-40.8"/>
</g>
<!-- PessoaModule -->
<g id="node1" class="node">
<title>PessoaModule</title>
<polygon fill="#8dd3c7" stroke="black" points="976.66,-84.8 973.66,-88.8 952.66,-88.8 949.66,-84.8 879.34,-84.8 879.34,-48.8 976.66,-48.8 976.66,-84.8"/>
<text text-anchor="middle" x="928" y="-62.6" font-family="Times,serif" font-size="14.00">PessoaModule</text>
</g>
<!-- PartidaModule -->
<g id="node3" class="node">
<title>PartidaModule</title>
<polygon fill="#8dd3c7" stroke="black" points="578.71,-149.8 575.71,-153.8 554.71,-153.8 551.71,-149.8 479.29,-149.8 479.29,-113.8 578.71,-113.8 578.71,-149.8"/>
<text text-anchor="middle" x="529" y="-127.6" font-family="Times,serif" font-size="14.00">PartidaModule</text>
</g>
<!-- PessoaModule&#45;&gt;PartidaModule -->
<g id="edge1" class="edge">
<title>PessoaModule&#45;&gt;PartidaModule</title>
<path fill="none" stroke="black" d="M928,-84.91C928,-104.14 928,-131.8 928,-131.8 928,-131.8 588.73,-131.8 588.73,-131.8"/>
<polygon fill="black" stroke="black" points="588.73,-128.3 578.73,-131.8 588.73,-135.3 588.73,-128.3"/>
</g>
<!-- PontuacaoModule -->
<g id="node2" class="node">
<title>PontuacaoModule</title>
<polygon fill="#8dd3c7" stroke="black" points="860.87,-84.8 857.87,-88.8 836.87,-88.8 833.87,-84.8 743.13,-84.8 743.13,-48.8 860.87,-48.8 860.87,-84.8"/>
<text text-anchor="middle" x="802" y="-62.6" font-family="Times,serif" font-size="14.00">PontuacaoModule</text>
</g>
<!-- PontuacaoModule&#45;&gt;PartidaModule -->
<g id="edge2" class="edge">
<title>PontuacaoModule&#45;&gt;PartidaModule</title>
<path fill="none" stroke="black" d="M773.59,-84.83C773.59,-101.2 773.59,-122.8 773.59,-122.8 773.59,-122.8 588.79,-122.8 588.79,-122.8"/>
<polygon fill="black" stroke="black" points="588.79,-119.3 578.79,-122.8 588.79,-126.3 588.79,-119.3"/>
</g>
<!-- AtletaEscaladoService  -->
<g id="node4" class="node">
<title>AtletaEscaladoService </title>
<polygon fill="#fb8072" stroke="black" points="804.22,-214.8 657.78,-214.8 657.78,-178.8 804.22,-178.8 804.22,-214.8"/>
<text text-anchor="middle" x="731" y="-192.6" font-family="Times,serif" font-size="14.00">AtletaEscaladoService </text>
</g>
<!-- PartidaModule&#45;&gt;AtletaEscaladoService  -->
<g id="edge3" class="edge">
<title>PartidaModule&#45;&gt;AtletaEscaladoService </title>
<path fill="none" stroke="black" stroke-dasharray="5,2" d="M578.64,-140.8C625.52,-140.8 688.67,-140.8 688.67,-140.8 688.67,-140.8 688.67,-168.77 688.67,-168.77"/>
<polygon fill="black" stroke="black" points="685.17,-168.77 688.67,-178.77 692.17,-168.77 685.17,-168.77"/>
</g>
<!-- PartidaFactory  -->
<g id="node5" class="node">
<title>PartidaFactory </title>
<polygon fill="#fb8072" stroke="black" points="639.92,-214.8 538.08,-214.8 538.08,-178.8 639.92,-178.8 639.92,-214.8"/>
<text text-anchor="middle" x="589" y="-192.6" font-family="Times,serif" font-size="14.00">PartidaFactory </text>
</g>
<!-- PartidaModule&#45;&gt;PartidaFactory  -->
<g id="edge4" class="edge">
<title>PartidaModule&#45;&gt;PartidaFactory </title>
<path fill="none" stroke="black" stroke-dasharray="5,2" d="M558.32,-149.91C558.32,-149.91 558.32,-168.79 558.32,-168.79"/>
<polygon fill="black" stroke="black" points="554.82,-168.79 558.32,-178.79 561.82,-168.79 554.82,-168.79"/>
</g>
<!-- PartidaService  -->
<g id="node6" class="node">
<title>PartidaService </title>
<polygon fill="#fb8072" stroke="black" points="519.63,-214.8 418.37,-214.8 418.37,-178.8 519.63,-178.8 519.63,-214.8"/>
<text text-anchor="middle" x="469" y="-192.6" font-family="Times,serif" font-size="14.00">PartidaService </text>
</g>
<!-- PartidaModule&#45;&gt;PartidaService  -->
<g id="edge5" class="edge">
<title>PartidaModule&#45;&gt;PartidaService </title>
<path fill="none" stroke="black" stroke-dasharray="5,2" d="M499.48,-149.91C499.48,-149.91 499.48,-168.79 499.48,-168.79"/>
<polygon fill="black" stroke="black" points="495.98,-168.79 499.48,-178.79 502.98,-168.79 495.98,-168.79"/>
</g>
<!-- SalvaPartidaFacade  -->
<g id="node7" class="node">
<title>SalvaPartidaFacade </title>
<polygon fill="#fb8072" stroke="black" points="399.9,-214.8 270.1,-214.8 270.1,-178.8 399.9,-178.8 399.9,-214.8"/>
<text text-anchor="middle" x="335" y="-192.6" font-family="Times,serif" font-size="14.00">SalvaPartidaFacade </text>
</g>
<!-- PartidaModule&#45;&gt;SalvaPartidaFacade  -->
<g id="edge6" class="edge">
<title>PartidaModule&#45;&gt;SalvaPartidaFacade </title>
<path fill="none" stroke="black" stroke-dasharray="5,2" d="M479.28,-140.8C437.49,-140.8 384.53,-140.8 384.53,-140.8 384.53,-140.8 384.53,-168.77 384.53,-168.77"/>
<polygon fill="black" stroke="black" points="381.03,-168.77 384.53,-178.77 388.03,-168.77 381.03,-168.77"/>
</g>
<!-- AtletaEscaladoService -->
<g id="node8" class="node">
<title>AtletaEscaladoService</title>
<ellipse fill="#fdb462" stroke="black" cx="621" cy="-66.8" rx="98.39" ry="18"/>
<text text-anchor="middle" x="621" y="-62.6" font-family="Times,serif" font-size="14.00">AtletaEscaladoService</text>
</g>
<!-- AtletaEscaladoService&#45;&gt;PartidaModule -->
<g id="edge7" class="edge">
<title>AtletaEscaladoService&#45;&gt;PartidaModule</title>
<path fill="none" stroke="black" d="M550.58,-79.64C550.58,-79.64 550.58,-103.32 550.58,-103.32"/>
<polygon fill="black" stroke="black" points="547.08,-103.32 550.58,-113.32 554.08,-103.32 547.08,-103.32"/>
</g>
<!-- PartidaFactory -->
<g id="node9" class="node">
<title>PartidaFactory</title>
<ellipse fill="#fdb462" stroke="black" cx="437" cy="-66.8" rx="67.78" ry="18"/>
<text text-anchor="middle" x="437" y="-62.6" font-family="Times,serif" font-size="14.00">PartidaFactory</text>
</g>
<!-- PartidaFactory&#45;&gt;PartidaModule -->
<g id="edge8" class="edge">
<title>PartidaFactory&#45;&gt;PartidaModule</title>
<path fill="none" stroke="black" d="M492.14,-77.53C492.14,-77.53 492.14,-103.67 492.14,-103.67"/>
<polygon fill="black" stroke="black" points="488.64,-103.67 492.14,-113.67 495.64,-103.67 488.64,-103.67"/>
</g>
<!-- PartidaService -->
<g id="node10" class="node">
<title>PartidaService</title>
<ellipse fill="#fdb462" stroke="black" cx="284" cy="-66.8" rx="67.19" ry="18"/>
<text text-anchor="middle" x="284" y="-62.6" font-family="Times,serif" font-size="14.00">PartidaService</text>
</g>
<!-- PartidaService&#45;&gt;PartidaModule -->
<g id="edge9" class="edge">
<title>PartidaService&#45;&gt;PartidaModule</title>
<path fill="none" stroke="black" d="M310.7,-83.6C310.7,-100.1 310.7,-122.8 310.7,-122.8 310.7,-122.8 469.19,-122.8 469.19,-122.8"/>
<polygon fill="black" stroke="black" points="469.19,-126.3 479.19,-122.8 469.19,-119.3 469.19,-126.3"/>
</g>
<!-- SalvaPartidaFacade -->
<g id="node11" class="node">
<title>SalvaPartidaFacade</title>
<ellipse fill="#fdb462" stroke="black" cx="111" cy="-66.8" rx="87.38" ry="18"/>
<text text-anchor="middle" x="111" y="-62.6" font-family="Times,serif" font-size="14.00">SalvaPartidaFacade</text>
</g>
<!-- SalvaPartidaFacade&#45;&gt;PartidaModule -->
<g id="edge10" class="edge">
<title>SalvaPartidaFacade&#45;&gt;PartidaModule</title>
<path fill="none" stroke="black" d="M111,-84.91C111,-104.14 111,-131.8 111,-131.8 111,-131.8 468.99,-131.8 468.99,-131.8"/>
<polygon fill="black" stroke="black" points="468.99,-135.3 478.99,-131.8 468.99,-128.3 468.99,-135.3"/>
</g>
</g>
</svg>
