<?xml version="1.0" encoding="UTF-8" standalone="no"?>
<!DOCTYPE svg PUBLIC "-//W3C//DTD SVG 1.1//EN"
 "http://www.w3.org/Graphics/SVG/1.1/DTD/svg11.dtd">
<!-- Generated by graphviz version 3.0.0 (20220226.1711)
 -->
<!-- Title: dependencies Pages: 1 -->
<svg width="415pt" height="174pt"
 viewBox="0.00 0.00 415.00 173.80" xmlns="http://www.w3.org/2000/svg" xmlns:xlink="http://www.w3.org/1999/xlink">
<g id="graph0" class="graph" transform="scale(1 1) rotate(0) translate(4 169.8)">
<title>dependencies</title>
<polygon fill="white" stroke="transparent" points="-4,4 -4,-169.8 411,-169.8 411,4 -4,4"/>
<text text-anchor="middle" x="203.5" y="-8.2" font-family="sans-serif" font-size="14.00">dependencies</text>
<g id="clust1" class="cluster">
<title>cluster_PartidaModule</title>
<polygon fill="none" stroke="black" stroke-dasharray="1,5" points="8,-32.8 8,-157.8 399,-157.8 399,-32.8 8,-32.8"/>
</g>
<g id="clust6" class="cluster">
<title>cluster_PartidaModule_providers</title>
<polygon fill="none" stroke="black" points="241,-40.8 241,-92.8 391,-92.8 391,-40.8 241,-40.8"/>
</g>
<g id="clust3" class="cluster">
<title>cluster_PartidaModule_imports</title>
<polygon fill="none" stroke="black" points="16,-40.8 16,-92.8 233,-92.8 233,-40.8 16,-40.8"/>
</g>
<!-- LigaModule -->
<g id="node1" class="node">
<title>LigaModule</title>
<polygon fill="#8dd3c7" stroke="black" points="224.71,-84.8 221.71,-88.8 200.71,-88.8 197.71,-84.8 139.29,-84.8 139.29,-48.8 224.71,-48.8 224.71,-84.8"/>
<text text-anchor="middle" x="182" y="-62.6" font-family="Times,serif" font-size="14.00">LigaModule</text>
</g>
<!-- PartidaModule -->
<g id="node3" class="node">
<title>PartidaModule</title>
<polygon fill="#8dd3c7" stroke="black" points="231.71,-149.8 228.71,-153.8 207.71,-153.8 204.71,-149.8 132.29,-149.8 132.29,-113.8 231.71,-113.8 231.71,-149.8"/>
<text text-anchor="middle" x="182" y="-127.6" font-family="Times,serif" font-size="14.00">PartidaModule</text>
</g>
<!-- LigaModule&#45;&gt;PartidaModule -->
<g id="edge1" class="edge">
<title>LigaModule&#45;&gt;PartidaModule</title>
<path fill="none" stroke="black" d="M182,-84.91C182,-84.91 182,-103.79 182,-103.79"/>
<polygon fill="black" stroke="black" points="178.5,-103.79 182,-113.79 185.5,-103.79 178.5,-103.79"/>
</g>
<!-- PessoaModule -->
<g id="node2" class="node">
<title>PessoaModule</title>
<polygon fill="#8dd3c7" stroke="black" points="121.66,-84.8 118.66,-88.8 97.66,-88.8 94.66,-84.8 24.34,-84.8 24.34,-48.8 121.66,-48.8 121.66,-84.8"/>
<text text-anchor="middle" x="73" y="-62.6" font-family="Times,serif" font-size="14.00">PessoaModule</text>
</g>
<!-- PessoaModule&#45;&gt;PartidaModule -->
<g id="edge2" class="edge">
<title>PessoaModule&#45;&gt;PartidaModule</title>
<path fill="none" stroke="black" d="M121.94,-66.8C130.06,-66.8 135.9,-66.8 135.9,-66.8 135.9,-66.8 135.9,-103.69 135.9,-103.69"/>
<polygon fill="black" stroke="black" points="132.4,-103.69 135.9,-113.69 139.4,-103.69 132.4,-103.69"/>
</g>
<!-- PartidaService -->
<g id="node4" class="node">
<title>PartidaService</title>
<ellipse fill="#fdb462" stroke="black" cx="316" cy="-66.8" rx="67.19" ry="18"/>
<text text-anchor="middle" x="316" y="-62.6" font-family="Times,serif" font-size="14.00">PartidaService</text>
</g>
<!-- PartidaService&#45;&gt;PartidaModule -->
<g id="edge3" class="edge">
<title>PartidaService&#45;&gt;PartidaModule</title>
<path fill="none" stroke="black" d="M248.49,-66.8C236.69,-66.8 228.1,-66.8 228.1,-66.8 228.1,-66.8 228.1,-103.69 228.1,-103.69"/>
<polygon fill="black" stroke="black" points="224.6,-103.69 228.1,-113.69 231.6,-103.69 224.6,-103.69"/>
</g>
</g>
</svg>
