<?xml version="1.0" encoding="UTF-8" standalone="no"?>
<!DOCTYPE svg PUBLIC "-//W3C//DTD SVG 1.1//EN"
 "http://www.w3.org/Graphics/SVG/1.1/DTD/svg11.dtd">
<!-- Generated by graphviz version 3.0.0 (20220226.1711)
 -->
<!-- Title: dependencies Pages: 1 -->
<svg width="663pt" height="247pt"
 viewBox="0.00 0.00 663.00 246.80" xmlns="http://www.w3.org/2000/svg" xmlns:xlink="http://www.w3.org/1999/xlink">
<g id="graph0" class="graph" transform="scale(1 1) rotate(0) translate(4 242.8)">
<title>dependencies</title>
<polygon fill="white" stroke="transparent" points="-4,4 -4,-242.8 659,-242.8 659,4 -4,4"/>
<text text-anchor="middle" x="327.5" y="-8.2" font-family="sans-serif" font-size="14.00">dependencies</text>
<g id="clust1" class="cluster">
<title>cluster_PartidaModule</title>
<polygon fill="none" stroke="black" stroke-dasharray="1,5" points="8,-32.8 8,-230.8 647,-230.8 647,-32.8 8,-32.8"/>
</g>
<g id="clust3" class="cluster">
<title>cluster_PartidaModule_imports</title>
<polygon fill="none" stroke="black" points="389,-40.8 389,-92.8 639,-92.8 639,-40.8 389,-40.8"/>
</g>
<g id="clust4" class="cluster">
<title>cluster_PartidaModule_exports</title>
<polygon fill="none" stroke="black" points="215,-170.8 215,-222.8 497,-222.8 497,-170.8 215,-170.8"/>
</g>
<g id="clust6" class="cluster">
<title>cluster_PartidaModule_providers</title>
<polygon fill="none" stroke="black" points="16,-40.8 16,-92.8 381,-92.8 381,-40.8 16,-40.8"/>
</g>
<!-- PessoaModule -->
<g id="node1" class="node">
<title>PessoaModule</title>
<polygon fill="#8dd3c7" stroke="black" points="630.66,-84.8 627.66,-88.8 606.66,-88.8 603.66,-84.8 533.34,-84.8 533.34,-48.8 630.66,-48.8 630.66,-84.8"/>
<text text-anchor="middle" x="582" y="-62.6" font-family="Times,serif" font-size="14.00">PessoaModule</text>
</g>
<!-- PartidaModule -->
<g id="node3" class="node">
<title>PartidaModule</title>
<polygon fill="#8dd3c7" stroke="black" points="394.71,-149.8 391.71,-153.8 370.71,-153.8 367.71,-149.8 295.29,-149.8 295.29,-113.8 394.71,-113.8 394.71,-149.8"/>
<text text-anchor="middle" x="345" y="-127.6" font-family="Times,serif" font-size="14.00">PartidaModule</text>
</g>
<!-- PessoaModule&#45;&gt;PartidaModule -->
<g id="edge1" class="edge">
<title>PessoaModule&#45;&gt;PartidaModule</title>
<path fill="none" stroke="black" d="M582,-84.91C582,-104.14 582,-131.8 582,-131.8 582,-131.8 404.68,-131.8 404.68,-131.8"/>
<polygon fill="black" stroke="black" points="404.68,-128.3 394.68,-131.8 404.68,-135.3 404.68,-128.3"/>
</g>
<!-- PontuacaoModule -->
<g id="node2" class="node">
<title>PontuacaoModule</title>
<polygon fill="#8dd3c7" stroke="black" points="514.87,-84.8 511.87,-88.8 490.87,-88.8 487.87,-84.8 397.13,-84.8 397.13,-48.8 514.87,-48.8 514.87,-84.8"/>
<text text-anchor="middle" x="456" y="-62.6" font-family="Times,serif" font-size="14.00">PontuacaoModule</text>
</g>
<!-- PontuacaoModule&#45;&gt;PartidaModule -->
<g id="edge2" class="edge">
<title>PontuacaoModule&#45;&gt;PartidaModule</title>
<path fill="none" stroke="black" d="M396.89,-66.8C389.25,-66.8 384.02,-66.8 384.02,-66.8 384.02,-66.8 384.02,-103.69 384.02,-103.69"/>
<polygon fill="black" stroke="black" points="380.52,-103.69 384.02,-113.69 387.52,-103.69 380.52,-103.69"/>
</g>
<!-- AtletaEscaladoService  -->
<g id="node4" class="node">
<title>AtletaEscaladoService </title>
<polygon fill="#fb8072" stroke="black" points="489.22,-214.8 342.78,-214.8 342.78,-178.8 489.22,-178.8 489.22,-214.8"/>
<text text-anchor="middle" x="416" y="-192.6" font-family="Times,serif" font-size="14.00">AtletaEscaladoService </text>
</g>
<!-- PartidaModule&#45;&gt;AtletaEscaladoService  -->
<g id="edge3" class="edge">
<title>PartidaModule&#45;&gt;AtletaEscaladoService </title>
<path fill="none" stroke="black" stroke-dasharray="5,2" d="M368.75,-149.91C368.75,-149.91 368.75,-168.79 368.75,-168.79"/>
<polygon fill="black" stroke="black" points="365.25,-168.79 368.75,-178.79 372.25,-168.79 365.25,-168.79"/>
</g>
<!-- PartidaService  -->
<g id="node5" class="node">
<title>PartidaService </title>
<polygon fill="#fb8072" stroke="black" points="324.63,-214.8 223.37,-214.8 223.37,-178.8 324.63,-178.8 324.63,-214.8"/>
<text text-anchor="middle" x="274" y="-192.6" font-family="Times,serif" font-size="14.00">PartidaService </text>
</g>
<!-- PartidaModule&#45;&gt;PartidaService  -->
<g id="edge4" class="edge">
<title>PartidaModule&#45;&gt;PartidaService </title>
<path fill="none" stroke="black" stroke-dasharray="5,2" d="M309.98,-149.91C309.98,-149.91 309.98,-168.79 309.98,-168.79"/>
<polygon fill="black" stroke="black" points="306.48,-168.79 309.98,-178.79 313.48,-168.79 306.48,-168.79"/>
</g>
<!-- AtletaEscaladoService -->
<g id="node6" class="node">
<title>AtletaEscaladoService</title>
<ellipse fill="#fdb462" stroke="black" cx="275" cy="-66.8" rx="98.39" ry="18"/>
<text text-anchor="middle" x="275" y="-62.6" font-family="Times,serif" font-size="14.00">AtletaEscaladoService</text>
</g>
<!-- AtletaEscaladoService&#45;&gt;PartidaModule -->
<g id="edge5" class="edge">
<title>AtletaEscaladoService&#45;&gt;PartidaModule</title>
<path fill="none" stroke="black" d="M334.42,-81.23C334.42,-81.23 334.42,-103.69 334.42,-103.69"/>
<polygon fill="black" stroke="black" points="330.92,-103.69 334.42,-113.69 337.92,-103.69 330.92,-103.69"/>
</g>
<!-- PartidaService -->
<g id="node7" class="node">
<title>PartidaService</title>
<ellipse fill="#fdb462" stroke="black" cx="91" cy="-66.8" rx="67.19" ry="18"/>
<text text-anchor="middle" x="91" y="-62.6" font-family="Times,serif" font-size="14.00">PartidaService</text>
</g>
<!-- PartidaService&#45;&gt;PartidaModule -->
<g id="edge6" class="edge">
<title>PartidaService&#45;&gt;PartidaModule</title>
<path fill="none" stroke="black" d="M91,-84.91C91,-104.14 91,-131.8 91,-131.8 91,-131.8 285.12,-131.8 285.12,-131.8"/>
<polygon fill="black" stroke="black" points="285.12,-135.3 295.12,-131.8 285.12,-128.3 285.12,-135.3"/>
</g>
</g>
</svg>
