<?xml version="1.0" encoding="UTF-8" standalone="no"?>
<!DOCTYPE svg PUBLIC "-//W3C//DTD SVG 1.1//EN"
 "http://www.w3.org/Graphics/SVG/1.1/DTD/svg11.dtd">
<!-- Generated by graphviz version 5.0.0 (20220707.1540)
 -->
<!-- Title: dependencies Pages: 1 -->
<svg width="1009pt" height="247pt"
 viewBox="0.00 0.00 1009.00 246.80" xmlns="http://www.w3.org/2000/svg" xmlns:xlink="http://www.w3.org/1999/xlink">
<g id="graph0" class="graph" transform="scale(1 1) rotate(0) translate(4 242.8)">
<title>dependencies</title>
<polygon fill="white" stroke="transparent" points="-4,4 -4,-242.8 1005,-242.8 1005,4 -4,4"/>
<text text-anchor="middle" x="500.5" y="-8.2" font-family="sans-serif" font-size="14.00">dependencies</text>
<g id="clust1" class="cluster">
<title>cluster_PartidaModule</title>
<polygon fill="none" stroke="black" stroke-dasharray="1,5" points="8,-32.8 8,-230.8 993,-230.8 993,-32.8 8,-32.8"/>
</g>
<g id="clust4" class="cluster">
<title>cluster_PartidaModule_exports</title>
<polygon fill="none" stroke="black" points="188,-170.8 188,-222.8 738,-222.8 738,-170.8 188,-170.8"/>
</g>
<g id="clust6" class="cluster">
<title>cluster_PartidaModule_providers</title>
<polygon fill="none" stroke="black" points="274,-40.8 274,-92.8 985,-92.8 985,-40.8 274,-40.8"/>
</g>
<g id="clust3" class="cluster">
<title>cluster_PartidaModule_imports</title>
<polygon fill="none" stroke="black" points="16,-40.8 16,-92.8 266,-92.8 266,-40.8 16,-40.8"/>
</g>
<!-- PessoaModule -->
<g id="node1" class="node">
<title>PessoaModule</title>
<polygon fill="#8dd3c7" stroke="black" points="257.66,-84.8 254.66,-88.8 233.66,-88.8 230.66,-84.8 160.34,-84.8 160.34,-48.8 257.66,-48.8 257.66,-84.8"/>
<text text-anchor="middle" x="209" y="-62.6" font-family="Times,serif" font-size="14.00">PessoaModule</text>
</g>
<!-- PartidaModule -->
<g id="node3" class="node">
<title>PartidaModule</title>
<polygon fill="#8dd3c7" stroke="black" points="504.71,-149.8 501.71,-153.8 480.71,-153.8 477.71,-149.8 405.29,-149.8 405.29,-113.8 504.71,-113.8 504.71,-149.8"/>
<text text-anchor="middle" x="455" y="-127.6" font-family="Times,serif" font-size="14.00">PartidaModule</text>
</g>
<!-- PessoaModule&#45;&gt;PartidaModule -->
<g id="edge1" class="edge">
<title>PessoaModule&#45;&gt;PartidaModule</title>
<path fill="none" stroke="black" d="M226.94,-84.83C226.94,-101.2 226.94,-122.8 226.94,-122.8 226.94,-122.8 395.23,-122.8 395.23,-122.8"/>
<polygon fill="black" stroke="black" points="395.23,-126.3 405.23,-122.8 395.23,-119.3 395.23,-126.3"/>
</g>
<!-- PontuacaoModule -->
<g id="node2" class="node">
<title>PontuacaoModule</title>
<polygon fill="#8dd3c7" stroke="black" points="141.87,-84.8 138.87,-88.8 117.87,-88.8 114.87,-84.8 24.13,-84.8 24.13,-48.8 141.87,-48.8 141.87,-84.8"/>
<text text-anchor="middle" x="83" y="-62.6" font-family="Times,serif" font-size="14.00">PontuacaoModule</text>
</g>
<!-- PontuacaoModule&#45;&gt;PartidaModule -->
<g id="edge2" class="edge">
<title>PontuacaoModule&#45;&gt;PartidaModule</title>
<path fill="none" stroke="black" d="M83,-84.91C83,-104.14 83,-131.8 83,-131.8 83,-131.8 395.22,-131.8 395.22,-131.8"/>
<polygon fill="black" stroke="black" points="395.22,-135.3 405.22,-131.8 395.22,-128.3 395.22,-135.3"/>
</g>
<!-- AtletaEscaladoService  -->
<g id="node4" class="node">
<title>AtletaEscaladoService </title>
<polygon fill="#fb8072" stroke="black" points="730.22,-214.8 583.78,-214.8 583.78,-178.8 730.22,-178.8 730.22,-214.8"/>
<text text-anchor="middle" x="657" y="-192.6" font-family="Times,serif" font-size="14.00">AtletaEscaladoService </text>
</g>
<!-- PartidaModule&#45;&gt;AtletaEscaladoService  -->
<g id="edge3" class="edge">
<title>PartidaModule&#45;&gt;AtletaEscaladoService </title>
<path fill="none" stroke="black" stroke-dasharray="5,2" d="M504.93,-140.8C545.7,-140.8 596.62,-140.8 596.62,-140.8 596.62,-140.8 596.62,-168.77 596.62,-168.77"/>
<polygon fill="black" stroke="black" points="593.12,-168.77 596.62,-178.77 600.12,-168.77 593.12,-168.77"/>
</g>
<!-- PartidaFactory  -->
<g id="node5" class="node">
<title>PartidaFactory </title>
<polygon fill="#fb8072" stroke="black" points="565.92,-214.8 464.08,-214.8 464.08,-178.8 565.92,-178.8 565.92,-214.8"/>
<text text-anchor="middle" x="515" y="-192.6" font-family="Times,serif" font-size="14.00">PartidaFactory </text>
</g>
<!-- PartidaModule&#45;&gt;PartidaFactory  -->
<g id="edge4" class="edge">
<title>PartidaModule&#45;&gt;PartidaFactory </title>
<path fill="none" stroke="black" stroke-dasharray="5,2" d="M484.32,-149.91C484.32,-149.91 484.32,-168.79 484.32,-168.79"/>
<polygon fill="black" stroke="black" points="480.82,-168.79 484.32,-178.79 487.82,-168.79 480.82,-168.79"/>
</g>
<!-- PartidaService  -->
<g id="node6" class="node">
<title>PartidaService </title>
<polygon fill="#fb8072" stroke="black" points="445.63,-214.8 344.37,-214.8 344.37,-178.8 445.63,-178.8 445.63,-214.8"/>
<text text-anchor="middle" x="395" y="-192.6" font-family="Times,serif" font-size="14.00">PartidaService </text>
</g>
<!-- PartidaModule&#45;&gt;PartidaService  -->
<g id="edge5" class="edge">
<title>PartidaModule&#45;&gt;PartidaService </title>
<path fill="none" stroke="black" stroke-dasharray="5,2" d="M425.48,-149.91C425.48,-149.91 425.48,-168.79 425.48,-168.79"/>
<polygon fill="black" stroke="black" points="421.98,-168.79 425.48,-178.79 428.98,-168.79 421.98,-168.79"/>
</g>
<!-- SalvaPartidaFacade  -->
<g id="node7" class="node">
<title>SalvaPartidaFacade </title>
<polygon fill="#fb8072" stroke="black" points="325.9,-214.8 196.1,-214.8 196.1,-178.8 325.9,-178.8 325.9,-214.8"/>
<text text-anchor="middle" x="261" y="-192.6" font-family="Times,serif" font-size="14.00">SalvaPartidaFacade </text>
</g>
<!-- PartidaModule&#45;&gt;SalvaPartidaFacade  -->
<g id="edge6" class="edge">
<title>PartidaModule&#45;&gt;SalvaPartidaFacade </title>
<path fill="none" stroke="black" stroke-dasharray="5,2" d="M405.1,-140.8C361.08,-140.8 303.88,-140.8 303.88,-140.8 303.88,-140.8 303.88,-168.77 303.88,-168.77"/>
<polygon fill="black" stroke="black" points="300.38,-168.77 303.88,-178.77 307.38,-168.77 300.38,-168.77"/>
</g>
<!-- AtletaEscaladoService -->
<g id="node8" class="node">
<title>AtletaEscaladoService</title>
<ellipse fill="#fdb462" stroke="black" cx="879" cy="-66.8" rx="98.39" ry="18"/>
<text text-anchor="middle" x="879" y="-62.6" font-family="Times,serif" font-size="14.00">AtletaEscaladoService</text>
</g>
<!-- AtletaEscaladoService&#45;&gt;PartidaModule -->
<g id="edge7" class="edge">
<title>AtletaEscaladoService&#45;&gt;PartidaModule</title>
<path fill="none" stroke="black" d="M879,-84.91C879,-104.14 879,-131.8 879,-131.8 879,-131.8 514.89,-131.8 514.89,-131.8"/>
<polygon fill="black" stroke="black" points="514.89,-128.3 504.89,-131.8 514.88,-135.3 514.89,-128.3"/>
</g>
<!-- PartidaFactory -->
<g id="node9" class="node">
<title>PartidaFactory</title>
<ellipse fill="#fdb462" stroke="black" cx="695" cy="-66.8" rx="67.78" ry="18"/>
<text text-anchor="middle" x="695" y="-62.6" font-family="Times,serif" font-size="14.00">PartidaFactory</text>
</g>
<!-- PartidaFactory&#45;&gt;PartidaModule -->
<g id="edge8" class="edge">
<title>PartidaFactory&#45;&gt;PartidaModule</title>
<path fill="none" stroke="black" d="M678.61,-84.52C678.61,-100.93 678.61,-122.8 678.61,-122.8 678.61,-122.8 514.63,-122.8 514.63,-122.8"/>
<polygon fill="black" stroke="black" points="514.63,-119.3 504.63,-122.8 514.63,-126.3 514.63,-119.3"/>
</g>
<!-- PartidaService -->
<g id="node10" class="node">
<title>PartidaService</title>
<ellipse fill="#fdb462" stroke="black" cx="542" cy="-66.8" rx="67.19" ry="18"/>
<text text-anchor="middle" x="542" y="-62.6" font-family="Times,serif" font-size="14.00">PartidaService</text>
</g>
<!-- PartidaService&#45;&gt;PartidaModule -->
<g id="edge9" class="edge">
<title>PartidaService&#45;&gt;PartidaModule</title>
<path fill="none" stroke="black" d="M489.63,-78.12C489.63,-78.12 489.63,-103.74 489.63,-103.74"/>
<polygon fill="black" stroke="black" points="486.13,-103.74 489.63,-113.74 493.13,-103.74 486.13,-103.74"/>
</g>
<!-- SalvaPartidaFacade -->
<g id="node11" class="node">
<title>SalvaPartidaFacade</title>
<ellipse fill="#fdb462" stroke="black" cx="369" cy="-66.8" rx="87.38" ry="18"/>
<text text-anchor="middle" x="369" y="-62.6" font-family="Times,serif" font-size="14.00">SalvaPartidaFacade</text>
</g>
<!-- SalvaPartidaFacade&#45;&gt;PartidaModule -->
<g id="edge10" class="edge">
<title>SalvaPartidaFacade&#45;&gt;PartidaModule</title>
<path fill="none" stroke="black" d="M430.79,-79.64C430.79,-79.64 430.79,-103.32 430.79,-103.32"/>
<polygon fill="black" stroke="black" points="427.29,-103.32 430.79,-113.32 434.29,-103.32 427.29,-103.32"/>
</g>
</g>
</svg>
