<?xml version="1.0" encoding="UTF-8" standalone="no"?>
<!DOCTYPE svg PUBLIC "-//W3C//DTD SVG 1.1//EN"
 "http://www.w3.org/Graphics/SVG/1.1/DTD/svg11.dtd">
<!-- Generated by graphviz version 3.0.0 (20220226.1711)
 -->
<!-- Title: dependencies Pages: 1 -->
<svg width="1163pt" height="174pt"
 viewBox="0.00 0.00 1163.00 173.80" xmlns="http://www.w3.org/2000/svg" xmlns:xlink="http://www.w3.org/1999/xlink">
<g id="graph0" class="graph" transform="scale(1 1) rotate(0) translate(4 169.8)">
<title>dependencies</title>
<polygon fill="white" stroke="transparent" points="-4,4 -4,-169.8 1159,-169.8 1159,4 -4,4"/>
<text text-anchor="middle" x="577.5" y="-8.2" font-family="sans-serif" font-size="14.00">dependencies</text>
<g id="clust1" class="cluster">
<title>cluster_PessoaModule</title>
<polygon fill="none" stroke="black" stroke-dasharray="1,5" points="8,-32.8 8,-157.8 1147,-157.8 1147,-32.8 8,-32.8"/>
</g>
<g id="clust6" class="cluster">
<title>cluster_PessoaModule_providers</title>
<polygon fill="none" stroke="black" points="347,-40.8 347,-92.8 1139,-92.8 1139,-40.8 347,-40.8"/>
</g>
<g id="clust3" class="cluster">
<title>cluster_PessoaModule_imports</title>
<polygon fill="none" stroke="black" points="16,-40.8 16,-92.8 339,-92.8 339,-40.8 16,-40.8"/>
</g>
<!-- CoreModule -->
<g id="node1" class="node">
<title>CoreModule</title>
<polygon fill="#8dd3c7" stroke="black" points="331.27,-84.8 328.27,-88.8 307.27,-88.8 304.27,-84.8 244.73,-84.8 244.73,-48.8 331.27,-48.8 331.27,-84.8"/>
<text text-anchor="middle" x="288" y="-62.6" font-family="Times,serif" font-size="14.00">CoreModule</text>
</g>
<!-- PessoaModule -->
<g id="node4" class="node">
<title>PessoaModule</title>
<polygon fill="#8dd3c7" stroke="black" points="557.66,-149.8 554.66,-153.8 533.66,-153.8 530.66,-149.8 460.34,-149.8 460.34,-113.8 557.66,-113.8 557.66,-149.8"/>
<text text-anchor="middle" x="509" y="-127.6" font-family="Times,serif" font-size="14.00">PessoaModule</text>
</g>
<!-- CoreModule&#45;&gt;PessoaModule -->
<g id="edge1" class="edge">
<title>CoreModule&#45;&gt;PessoaModule</title>
<path fill="none" stroke="black" d="M288,-84.83C288,-101.2 288,-122.8 288,-122.8 288,-122.8 450.23,-122.8 450.23,-122.8"/>
<polygon fill="black" stroke="black" points="450.23,-126.3 460.23,-122.8 450.23,-119.3 450.23,-126.3"/>
</g>
<!-- EquipeModule -->
<g id="node2" class="node">
<title>EquipeModule</title>
<polygon fill="#8dd3c7" stroke="black" points="226.71,-84.8 223.71,-88.8 202.71,-88.8 199.71,-84.8 127.29,-84.8 127.29,-48.8 226.71,-48.8 226.71,-84.8"/>
<text text-anchor="middle" x="177" y="-62.6" font-family="Times,serif" font-size="14.00">EquipeModule</text>
</g>
<!-- EquipeModule&#45;&gt;PessoaModule -->
<g id="edge2" class="edge">
<title>EquipeModule&#45;&gt;PessoaModule</title>
<path fill="none" stroke="black" d="M177,-84.91C177,-104.14 177,-131.8 177,-131.8 177,-131.8 450.01,-131.8 450.01,-131.8"/>
<polygon fill="black" stroke="black" points="450.01,-135.3 460.01,-131.8 450.01,-128.3 450.01,-135.3"/>
</g>
<!-- LigaModule -->
<g id="node3" class="node">
<title>LigaModule</title>
<polygon fill="#8dd3c7" stroke="black" points="109.71,-84.8 106.71,-88.8 85.71,-88.8 82.71,-84.8 24.29,-84.8 24.29,-48.8 109.71,-48.8 109.71,-84.8"/>
<text text-anchor="middle" x="67" y="-62.6" font-family="Times,serif" font-size="14.00">LigaModule</text>
</g>
<!-- LigaModule&#45;&gt;PessoaModule -->
<g id="edge3" class="edge">
<title>LigaModule&#45;&gt;PessoaModule</title>
<path fill="none" stroke="black" d="M67,-85.09C67,-107.01 67,-140.8 67,-140.8 67,-140.8 450.01,-140.8 450.01,-140.8"/>
<polygon fill="black" stroke="black" points="450.01,-144.3 460.01,-140.8 450.01,-137.3 450.01,-144.3"/>
</g>
<!-- ArbitroService -->
<g id="node5" class="node">
<title>ArbitroService</title>
<ellipse fill="#fdb462" stroke="black" cx="1063" cy="-66.8" rx="68.34" ry="18"/>
<text text-anchor="middle" x="1063" y="-62.6" font-family="Times,serif" font-size="14.00">ArbitroService</text>
</g>
<!-- ArbitroService&#45;&gt;PessoaModule -->
<g id="edge4" class="edge">
<title>ArbitroService&#45;&gt;PessoaModule</title>
<path fill="none" stroke="black" d="M1063,-85.09C1063,-107.01 1063,-140.8 1063,-140.8 1063,-140.8 567.68,-140.8 567.68,-140.8"/>
<polygon fill="black" stroke="black" points="567.68,-137.3 557.68,-140.8 567.68,-144.3 567.68,-137.3"/>
</g>
<!-- AtletaService -->
<g id="node6" class="node">
<title>AtletaService</title>
<ellipse fill="#fdb462" stroke="black" cx="913" cy="-66.8" rx="63.68" ry="18"/>
<text text-anchor="middle" x="913" y="-62.6" font-family="Times,serif" font-size="14.00">AtletaService</text>
</g>
<!-- AtletaService&#45;&gt;PessoaModule -->
<g id="edge5" class="edge">
<title>AtletaService&#45;&gt;PessoaModule</title>
<path fill="none" stroke="black" d="M913,-84.91C913,-104.14 913,-131.8 913,-131.8 913,-131.8 567.73,-131.8 567.73,-131.8"/>
<polygon fill="black" stroke="black" points="567.73,-128.3 557.73,-131.8 567.73,-135.3 567.73,-128.3"/>
</g>
<!-- AuxiliarService -->
<g id="node7" class="node">
<title>AuxiliarService</title>
<ellipse fill="#fdb462" stroke="black" cx="759" cy="-66.8" rx="72.35" ry="18"/>
<text text-anchor="middle" x="759" y="-62.6" font-family="Times,serif" font-size="14.00">AuxiliarService</text>
</g>
<!-- AuxiliarService&#45;&gt;PessoaModule -->
<g id="edge6" class="edge">
<title>AuxiliarService&#45;&gt;PessoaModule</title>
<path fill="none" stroke="black" d="M759,-84.83C759,-101.2 759,-122.8 759,-122.8 759,-122.8 567.8,-122.8 567.8,-122.8"/>
<polygon fill="black" stroke="black" points="567.8,-119.3 557.8,-122.8 567.8,-126.3 567.8,-119.3"/>
</g>
<!-- DelegadoService -->
<g id="node8" class="node">
<title>DelegadoService</title>
<ellipse fill="#fdb462" stroke="black" cx="592" cy="-66.8" rx="76.99" ry="18"/>
<text text-anchor="middle" x="592" y="-62.6" font-family="Times,serif" font-size="14.00">DelegadoService</text>
</g>
<!-- DelegadoService&#45;&gt;PessoaModule -->
<g id="edge7" class="edge">
<title>DelegadoService&#45;&gt;PessoaModule</title>
<path fill="none" stroke="black" d="M536.42,-79.33C536.42,-79.33 536.42,-103.65 536.42,-103.65"/>
<polygon fill="black" stroke="black" points="532.92,-103.65 536.42,-113.65 539.92,-103.65 532.92,-103.65"/>
</g>
<!-- TecnicoService -->
<g id="node9" class="node">
<title>TecnicoService</title>
<ellipse fill="#fdb462" stroke="black" cx="426" cy="-66.8" rx="71.18" ry="18"/>
<text text-anchor="middle" x="426" y="-62.6" font-family="Times,serif" font-size="14.00">TecnicoService</text>
</g>
<!-- TecnicoService&#45;&gt;PessoaModule -->
<g id="edge8" class="edge">
<title>TecnicoService&#45;&gt;PessoaModule</title>
<path fill="none" stroke="black" d="M478.63,-79.03C478.63,-79.03 478.63,-103.48 478.63,-103.48"/>
<polygon fill="black" stroke="black" points="475.13,-103.48 478.63,-113.48 482.13,-103.48 475.13,-103.48"/>
</g>
</g>
</svg>
