<?xml version="1.0" encoding="UTF-8" standalone="no"?>
<!DOCTYPE svg PUBLIC "-//W3C//DTD SVG 1.1//EN"
 "http://www.w3.org/Graphics/SVG/1.1/DTD/svg11.dtd">
<!-- Generated by graphviz version 3.0.0 (20220226.1711)
 -->
<!-- Title: dependencies Pages: 1 -->
<svg width="1163pt" height="174pt"
 viewBox="0.00 0.00 1163.00 173.80" xmlns="http://www.w3.org/2000/svg" xmlns:xlink="http://www.w3.org/1999/xlink">
<g id="graph0" class="graph" transform="scale(1 1) rotate(0) translate(4 169.8)">
<title>dependencies</title>
<polygon fill="white" stroke="transparent" points="-4,4 -4,-169.8 1159,-169.8 1159,4 -4,4"/>
<text text-anchor="middle" x="577.5" y="-8.2" font-family="sans-serif" font-size="14.00">dependencies</text>
<g id="clust1" class="cluster">
<title>cluster_PessoaModule</title>
<polygon fill="none" stroke="black" stroke-dasharray="1,5" points="8,-32.8 8,-157.8 1147,-157.8 1147,-32.8 8,-32.8"/>
</g>
<g id="clust3" class="cluster">
<title>cluster_PessoaModule_imports</title>
<polygon fill="none" stroke="black" points="816,-40.8 816,-92.8 1139,-92.8 1139,-40.8 816,-40.8"/>
</g>
<g id="clust6" class="cluster">
<title>cluster_PessoaModule_providers</title>
<polygon fill="none" stroke="black" points="16,-40.8 16,-92.8 808,-92.8 808,-40.8 16,-40.8"/>
</g>
<!-- CoreModule -->
<g id="node1" class="node">
<title>CoreModule</title>
<polygon fill="#8dd3c7" stroke="black" points="1131.27,-84.8 1128.27,-88.8 1107.27,-88.8 1104.27,-84.8 1044.73,-84.8 1044.73,-48.8 1131.27,-48.8 1131.27,-84.8"/>
<text text-anchor="middle" x="1088" y="-62.6" font-family="Times,serif" font-size="14.00">CoreModule</text>
</g>
<!-- PessoaModule -->
<g id="node4" class="node">
<title>PessoaModule</title>
<polygon fill="#8dd3c7" stroke="black" points="705.66,-149.8 702.66,-153.8 681.66,-153.8 678.66,-149.8 608.34,-149.8 608.34,-113.8 705.66,-113.8 705.66,-149.8"/>
<text text-anchor="middle" x="657" y="-127.6" font-family="Times,serif" font-size="14.00">PessoaModule</text>
</g>
<!-- CoreModule&#45;&gt;PessoaModule -->
<g id="edge1" class="edge">
<title>CoreModule&#45;&gt;PessoaModule</title>
<path fill="none" stroke="black" d="M1088,-85.09C1088,-107.01 1088,-140.8 1088,-140.8 1088,-140.8 716.02,-140.8 716.02,-140.8"/>
<polygon fill="black" stroke="black" points="716.02,-137.3 706.02,-140.8 716.02,-144.3 716.02,-137.3"/>
</g>
<!-- EquipeModule -->
<g id="node2" class="node">
<title>EquipeModule</title>
<polygon fill="#8dd3c7" stroke="black" points="1026.71,-84.8 1023.71,-88.8 1002.71,-88.8 999.71,-84.8 927.29,-84.8 927.29,-48.8 1026.71,-48.8 1026.71,-84.8"/>
<text text-anchor="middle" x="977" y="-62.6" font-family="Times,serif" font-size="14.00">EquipeModule</text>
</g>
<!-- EquipeModule&#45;&gt;PessoaModule -->
<g id="edge2" class="edge">
<title>EquipeModule&#45;&gt;PessoaModule</title>
<path fill="none" stroke="black" d="M977,-84.91C977,-104.14 977,-131.8 977,-131.8 977,-131.8 715.95,-131.8 715.95,-131.8"/>
<polygon fill="black" stroke="black" points="715.95,-128.3 705.95,-131.8 715.95,-135.3 715.95,-128.3"/>
</g>
<!-- LigaModule -->
<g id="node3" class="node">
<title>LigaModule</title>
<polygon fill="#8dd3c7" stroke="black" points="909.71,-84.8 906.71,-88.8 885.71,-88.8 882.71,-84.8 824.29,-84.8 824.29,-48.8 909.71,-48.8 909.71,-84.8"/>
<text text-anchor="middle" x="867" y="-62.6" font-family="Times,serif" font-size="14.00">LigaModule</text>
</g>
<!-- LigaModule&#45;&gt;PessoaModule -->
<g id="edge3" class="edge">
<title>LigaModule&#45;&gt;PessoaModule</title>
<path fill="none" stroke="black" d="M867,-84.83C867,-101.2 867,-122.8 867,-122.8 867,-122.8 715.71,-122.8 715.71,-122.8"/>
<polygon fill="black" stroke="black" points="715.71,-119.3 705.71,-122.8 715.71,-126.3 715.71,-119.3"/>
</g>
<!-- ArbitroService -->
<g id="node5" class="node">
<title>ArbitroService</title>
<ellipse fill="#fdb462" stroke="black" cx="732" cy="-66.8" rx="68.34" ry="18"/>
<text text-anchor="middle" x="732" y="-62.6" font-family="Times,serif" font-size="14.00">ArbitroService</text>
</g>
<!-- ArbitroService&#45;&gt;PessoaModule -->
<g id="edge4" class="edge">
<title>ArbitroService&#45;&gt;PessoaModule</title>
<path fill="none" stroke="black" d="M684.7,-79.95C684.7,-79.95 684.7,-103.49 684.7,-103.49"/>
<polygon fill="black" stroke="black" points="681.2,-103.49 684.7,-113.49 688.2,-103.49 681.2,-103.49"/>
</g>
<!-- AtletaService -->
<g id="node6" class="node">
<title>AtletaService</title>
<ellipse fill="#fdb462" stroke="black" cx="582" cy="-66.8" rx="63.68" ry="18"/>
<text text-anchor="middle" x="582" y="-62.6" font-family="Times,serif" font-size="14.00">AtletaService</text>
</g>
<!-- AtletaService&#45;&gt;PessoaModule -->
<g id="edge5" class="edge">
<title>AtletaService&#45;&gt;PessoaModule</title>
<path fill="none" stroke="black" d="M626.88,-79.64C626.88,-79.64 626.88,-103.32 626.88,-103.32"/>
<polygon fill="black" stroke="black" points="623.38,-103.32 626.88,-113.32 630.38,-103.32 623.38,-103.32"/>
</g>
<!-- AuxiliarService -->
<g id="node7" class="node">
<title>AuxiliarService</title>
<ellipse fill="#fdb462" stroke="black" cx="428" cy="-66.8" rx="72.35" ry="18"/>
<text text-anchor="middle" x="428" y="-62.6" font-family="Times,serif" font-size="14.00">AuxiliarService</text>
</g>
<!-- AuxiliarService&#45;&gt;PessoaModule -->
<g id="edge6" class="edge">
<title>AuxiliarService&#45;&gt;PessoaModule</title>
<path fill="none" stroke="black" d="M428,-84.83C428,-101.2 428,-122.8 428,-122.8 428,-122.8 598.15,-122.8 598.15,-122.8"/>
<polygon fill="black" stroke="black" points="598.15,-126.3 608.15,-122.8 598.15,-119.3 598.15,-126.3"/>
</g>
<!-- DelegadoService -->
<g id="node8" class="node">
<title>DelegadoService</title>
<ellipse fill="#fdb462" stroke="black" cx="261" cy="-66.8" rx="76.99" ry="18"/>
<text text-anchor="middle" x="261" y="-62.6" font-family="Times,serif" font-size="14.00">DelegadoService</text>
</g>
<!-- DelegadoService&#45;&gt;PessoaModule -->
<g id="edge7" class="edge">
<title>DelegadoService&#45;&gt;PessoaModule</title>
<path fill="none" stroke="black" d="M261,-84.91C261,-104.14 261,-131.8 261,-131.8 261,-131.8 598.05,-131.8 598.05,-131.8"/>
<polygon fill="black" stroke="black" points="598.05,-135.3 608.05,-131.8 598.05,-128.3 598.05,-135.3"/>
</g>
<!-- TecnicoService -->
<g id="node9" class="node">
<title>TecnicoService</title>
<ellipse fill="#fdb462" stroke="black" cx="95" cy="-66.8" rx="71.18" ry="18"/>
<text text-anchor="middle" x="95" y="-62.6" font-family="Times,serif" font-size="14.00">TecnicoService</text>
</g>
<!-- TecnicoService&#45;&gt;PessoaModule -->
<g id="edge8" class="edge">
<title>TecnicoService&#45;&gt;PessoaModule</title>
<path fill="none" stroke="black" d="M95,-85.09C95,-107.01 95,-140.8 95,-140.8 95,-140.8 598.11,-140.8 598.11,-140.8"/>
<polygon fill="black" stroke="black" points="598.11,-144.3 608.11,-140.8 598.11,-137.3 598.11,-144.3"/>
</g>
</g>
</svg>
