<?xml version="1.0" encoding="UTF-8" standalone="no"?>
<!DOCTYPE svg PUBLIC "-//W3C//DTD SVG 1.1//EN"
 "http://www.w3.org/Graphics/SVG/1.1/DTD/svg11.dtd">
<!-- Generated by graphviz version 3.0.0 (20220226.1711)
 -->
<!-- Title: dependencies Pages: 1 -->
<svg width="1060pt" height="247pt"
 viewBox="0.00 0.00 1060.00 246.80" xmlns="http://www.w3.org/2000/svg" xmlns:xlink="http://www.w3.org/1999/xlink">
<g id="graph0" class="graph" transform="scale(1 1) rotate(0) translate(4 242.8)">
<title>dependencies</title>
<polygon fill="white" stroke="transparent" points="-4,4 -4,-242.8 1056,-242.8 1056,4 -4,4"/>
<text text-anchor="middle" x="526" y="-8.2" font-family="sans-serif" font-size="14.00">dependencies</text>
<g id="clust1" class="cluster">
<title>cluster_PessoaModule</title>
<polygon fill="none" stroke="black" stroke-dasharray="1,5" points="8,-32.8 8,-230.8 1044,-230.8 1044,-32.8 8,-32.8"/>
</g>
<g id="clust6" class="cluster">
<title>cluster_PessoaModule_providers</title>
<polygon fill="none" stroke="black" points="244,-40.8 244,-92.8 1036,-92.8 1036,-40.8 244,-40.8"/>
</g>
<g id="clust3" class="cluster">
<title>cluster_PessoaModule_imports</title>
<polygon fill="none" stroke="black" points="16,-40.8 16,-92.8 236,-92.8 236,-40.8 16,-40.8"/>
</g>
<g id="clust4" class="cluster">
<title>cluster_PessoaModule_exports</title>
<polygon fill="none" stroke="black" points="300,-170.8 300,-222.8 665,-222.8 665,-170.8 300,-170.8"/>
</g>
<!-- CoreModule -->
<g id="node1" class="node">
<title>CoreModule</title>
<polygon fill="#8dd3c7" stroke="black" points="228.27,-84.8 225.27,-88.8 204.27,-88.8 201.27,-84.8 141.73,-84.8 141.73,-48.8 228.27,-48.8 228.27,-84.8"/>
<text text-anchor="middle" x="185" y="-62.6" font-family="Times,serif" font-size="14.00">CoreModule</text>
</g>
<!-- PessoaModule -->
<g id="node3" class="node">
<title>PessoaModule</title>
<polygon fill="#8dd3c7" stroke="black" points="537.66,-149.8 534.66,-153.8 513.66,-153.8 510.66,-149.8 440.34,-149.8 440.34,-113.8 537.66,-113.8 537.66,-149.8"/>
<text text-anchor="middle" x="489" y="-127.6" font-family="Times,serif" font-size="14.00">PessoaModule</text>
</g>
<!-- CoreModule&#45;&gt;PessoaModule -->
<g id="edge1" class="edge">
<title>CoreModule&#45;&gt;PessoaModule</title>
<path fill="none" stroke="black" d="M185,-85.07C185,-103.36 185,-128.8 185,-128.8 185,-128.8 430.16,-128.8 430.16,-128.8"/>
<polygon fill="black" stroke="black" points="430.16,-132.3 440.16,-128.8 430.16,-125.3 430.16,-132.3"/>
</g>
<!-- EquipeModule -->
<g id="node2" class="node">
<title>EquipeModule</title>
<polygon fill="#8dd3c7" stroke="black" points="123.71,-84.8 120.71,-88.8 99.71,-88.8 96.71,-84.8 24.29,-84.8 24.29,-48.8 123.71,-48.8 123.71,-84.8"/>
<text text-anchor="middle" x="74" y="-62.6" font-family="Times,serif" font-size="14.00">EquipeModule</text>
</g>
<!-- EquipeModule&#45;&gt;PessoaModule -->
<g id="edge2" class="edge">
<title>EquipeModule&#45;&gt;PessoaModule</title>
<path fill="none" stroke="black" d="M74,-84.93C74,-105.37 74,-135.8 74,-135.8 74,-135.8 430.17,-135.8 430.17,-135.8"/>
<polygon fill="black" stroke="black" points="430.17,-139.3 440.17,-135.8 430.17,-132.3 430.17,-139.3"/>
</g>
<!-- ArbitroService  -->
<g id="node4" class="node">
<title>ArbitroService </title>
<polygon fill="#fb8072" stroke="black" points="657.19,-214.8 554.81,-214.8 554.81,-178.8 657.19,-178.8 657.19,-214.8"/>
<text text-anchor="middle" x="606" y="-192.6" font-family="Times,serif" font-size="14.00">ArbitroService </text>
</g>
<!-- PessoaModule&#45;&gt;ArbitroService  -->
<g id="edge3" class="edge">
<title>PessoaModule&#45;&gt;ArbitroService </title>
<path fill="none" stroke="black" stroke-dasharray="5,2" d="M537.76,-142.8C550.29,-142.8 560.32,-142.8 560.32,-142.8 560.32,-142.8 560.32,-168.52 560.32,-168.52"/>
<polygon fill="black" stroke="black" points="556.82,-168.52 560.32,-178.52 563.82,-168.52 556.82,-168.52"/>
</g>
<!-- AtletaService  -->
<g id="node5" class="node">
<title>AtletaService </title>
<polygon fill="#fb8072" stroke="black" points="536.69,-214.8 441.31,-214.8 441.31,-178.8 536.69,-178.8 536.69,-214.8"/>
<text text-anchor="middle" x="489" y="-192.6" font-family="Times,serif" font-size="14.00">AtletaService </text>
</g>
<!-- PessoaModule&#45;&gt;AtletaService  -->
<g id="edge4" class="edge">
<title>PessoaModule&#45;&gt;AtletaService </title>
<path fill="none" stroke="black" stroke-dasharray="5,2" d="M489,-149.91C489,-149.91 489,-168.79 489,-168.79"/>
<polygon fill="black" stroke="black" points="485.5,-168.79 489,-178.79 492.5,-168.79 485.5,-168.79"/>
</g>
<!-- DelegadoService  -->
<g id="node6" class="node">
<title>DelegadoService </title>
<polygon fill="#fb8072" stroke="black" points="423.62,-214.8 308.38,-214.8 308.38,-178.8 423.62,-178.8 423.62,-214.8"/>
<text text-anchor="middle" x="366" y="-192.6" font-family="Times,serif" font-size="14.00">DelegadoService </text>
</g>
<!-- PessoaModule&#45;&gt;DelegadoService  -->
<g id="edge5" class="edge">
<title>PessoaModule&#45;&gt;DelegadoService </title>
<path fill="none" stroke="black" stroke-dasharray="5,2" d="M440.32,-142.8C427.8,-142.8 417.78,-142.8 417.78,-142.8 417.78,-142.8 417.78,-168.52 417.78,-168.52"/>
<polygon fill="black" stroke="black" points="414.28,-168.52 417.78,-178.52 421.28,-168.52 414.28,-168.52"/>
</g>
<!-- ArbitroService -->
<g id="node7" class="node">
<title>ArbitroService</title>
<ellipse fill="#fdb462" stroke="black" cx="960" cy="-66.8" rx="68.34" ry="18"/>
<text text-anchor="middle" x="960" y="-62.6" font-family="Times,serif" font-size="14.00">ArbitroService</text>
</g>
<!-- ArbitroService&#45;&gt;PessoaModule -->
<g id="edge6" class="edge">
<title>ArbitroService&#45;&gt;PessoaModule</title>
<path fill="none" stroke="black" d="M960,-84.93C960,-105.37 960,-135.8 960,-135.8 960,-135.8 548.07,-135.8 548.07,-135.8"/>
<polygon fill="black" stroke="black" points="548.07,-132.3 538.07,-135.8 548.07,-139.3 548.07,-132.3"/>
</g>
<!-- AtletaService -->
<g id="node8" class="node">
<title>AtletaService</title>
<ellipse fill="#fdb462" stroke="black" cx="810" cy="-66.8" rx="63.68" ry="18"/>
<text text-anchor="middle" x="810" y="-62.6" font-family="Times,serif" font-size="14.00">AtletaService</text>
</g>
<!-- AtletaService&#45;&gt;PessoaModule -->
<g id="edge7" class="edge">
<title>AtletaService&#45;&gt;PessoaModule</title>
<path fill="none" stroke="black" d="M810,-85.07C810,-103.36 810,-128.8 810,-128.8 810,-128.8 547.75,-128.8 547.75,-128.8"/>
<polygon fill="black" stroke="black" points="547.75,-125.3 537.75,-128.8 547.75,-132.3 547.75,-125.3"/>
</g>
<!-- AuxiliarService -->
<g id="node9" class="node">
<title>AuxiliarService</title>
<ellipse fill="#fdb462" stroke="black" cx="656" cy="-66.8" rx="72.35" ry="18"/>
<text text-anchor="middle" x="656" y="-62.6" font-family="Times,serif" font-size="14.00">AuxiliarService</text>
</g>
<!-- AuxiliarService&#45;&gt;PessoaModule -->
<g id="edge8" class="edge">
<title>AuxiliarService&#45;&gt;PessoaModule</title>
<path fill="none" stroke="black" d="M620.59,-82.71C620.59,-98.95 620.59,-121.8 620.59,-121.8 620.59,-121.8 548,-121.8 548,-121.8"/>
<polygon fill="black" stroke="black" points="548,-118.3 538,-121.8 548,-125.3 548,-118.3"/>
</g>
<!-- DelegadoService -->
<g id="node10" class="node">
<title>DelegadoService</title>
<ellipse fill="#fdb462" stroke="black" cx="489" cy="-66.8" rx="76.99" ry="18"/>
<text text-anchor="middle" x="489" y="-62.6" font-family="Times,serif" font-size="14.00">DelegadoService</text>
</g>
<!-- DelegadoService&#45;&gt;PessoaModule -->
<g id="edge9" class="edge">
<title>DelegadoService&#45;&gt;PessoaModule</title>
<path fill="none" stroke="black" d="M489,-84.91C489,-84.91 489,-103.79 489,-103.79"/>
<polygon fill="black" stroke="black" points="485.5,-103.79 489,-113.79 492.5,-103.79 485.5,-103.79"/>
</g>
<!-- TecnicoService -->
<g id="node11" class="node">
<title>TecnicoService</title>
<ellipse fill="#fdb462" stroke="black" cx="323" cy="-66.8" rx="71.18" ry="18"/>
<text text-anchor="middle" x="323" y="-62.6" font-family="Times,serif" font-size="14.00">TecnicoService</text>
</g>
<!-- TecnicoService&#45;&gt;PessoaModule -->
<g id="edge10" class="edge">
<title>TecnicoService&#45;&gt;PessoaModule</title>
<path fill="none" stroke="black" d="M351.27,-83.6C351.27,-99.78 351.27,-121.8 351.27,-121.8 351.27,-121.8 430.05,-121.8 430.05,-121.8"/>
<polygon fill="black" stroke="black" points="430.05,-125.3 440.05,-121.8 430.05,-118.3 430.05,-125.3"/>
</g>
</g>
</svg>
