<?xml version="1.0" encoding="UTF-8" standalone="no"?>
<!DOCTYPE svg PUBLIC "-//W3C//DTD SVG 1.1//EN"
 "http://www.w3.org/Graphics/SVG/1.1/DTD/svg11.dtd">
<!-- Generated by graphviz version 5.0.0 (20220707.1540)
 -->
<!-- Title: dependencies Pages: 1 -->
<svg width="1060pt" height="247pt"
 viewBox="0.00 0.00 1060.00 246.80" xmlns="http://www.w3.org/2000/svg" xmlns:xlink="http://www.w3.org/1999/xlink">
<g id="graph0" class="graph" transform="scale(1 1) rotate(0) translate(4 242.8)">
<title>dependencies</title>
<polygon fill="white" stroke="transparent" points="-4,4 -4,-242.8 1056,-242.8 1056,4 -4,4"/>
<text text-anchor="middle" x="526" y="-8.2" font-family="sans-serif" font-size="14.00">dependencies</text>
<g id="clust1" class="cluster">
<title>cluster_PessoaModule</title>
<polygon fill="none" stroke="black" stroke-dasharray="1,5" points="8,-32.8 8,-230.8 1044,-230.8 1044,-32.8 8,-32.8"/>
</g>
<g id="clust3" class="cluster">
<title>cluster_PessoaModule_imports</title>
<polygon fill="none" stroke="black" points="816,-40.8 816,-92.8 1036,-92.8 1036,-40.8 816,-40.8"/>
</g>
<g id="clust4" class="cluster">
<title>cluster_PessoaModule_exports</title>
<polygon fill="none" stroke="black" points="393,-170.8 393,-222.8 758,-222.8 758,-170.8 393,-170.8"/>
</g>
<g id="clust6" class="cluster">
<title>cluster_PessoaModule_providers</title>
<polygon fill="none" stroke="black" points="16,-40.8 16,-92.8 808,-92.8 808,-40.8 16,-40.8"/>
</g>
<!-- CoreModule -->
<g id="node1" class="node">
<title>CoreModule</title>
<polygon fill="#8dd3c7" stroke="black" points="1028.27,-84.8 1025.27,-88.8 1004.27,-88.8 1001.27,-84.8 941.73,-84.8 941.73,-48.8 1028.27,-48.8 1028.27,-84.8"/>
<text text-anchor="middle" x="985" y="-62.6" font-family="Times,serif" font-size="14.00">CoreModule</text>
</g>
<!-- PessoaModule -->
<g id="node3" class="node">
<title>PessoaModule</title>
<polygon fill="#8dd3c7" stroke="black" points="630.66,-149.8 627.66,-153.8 606.66,-153.8 603.66,-149.8 533.34,-149.8 533.34,-113.8 630.66,-113.8 630.66,-149.8"/>
<text text-anchor="middle" x="582" y="-127.6" font-family="Times,serif" font-size="14.00">PessoaModule</text>
</g>
<!-- CoreModule&#45;&gt;PessoaModule -->
<g id="edge1" class="edge">
<title>CoreModule&#45;&gt;PessoaModule</title>
<path fill="none" stroke="black" d="M985,-84.93C985,-105.37 985,-135.8 985,-135.8 985,-135.8 641.01,-135.8 641.01,-135.8"/>
<polygon fill="black" stroke="black" points="641.01,-132.3 631.01,-135.8 641.01,-139.3 641.01,-132.3"/>
</g>
<!-- EquipeModule -->
<g id="node2" class="node">
<title>EquipeModule</title>
<polygon fill="#8dd3c7" stroke="black" points="923.71,-84.8 920.71,-88.8 899.71,-88.8 896.71,-84.8 824.29,-84.8 824.29,-48.8 923.71,-48.8 923.71,-84.8"/>
<text text-anchor="middle" x="874" y="-62.6" font-family="Times,serif" font-size="14.00">EquipeModule</text>
</g>
<!-- EquipeModule&#45;&gt;PessoaModule -->
<g id="edge2" class="edge">
<title>EquipeModule&#45;&gt;PessoaModule</title>
<path fill="none" stroke="black" d="M874,-85.07C874,-103.36 874,-128.8 874,-128.8 874,-128.8 640.87,-128.8 640.87,-128.8"/>
<polygon fill="black" stroke="black" points="640.87,-125.3 630.87,-128.8 640.87,-132.3 640.87,-125.3"/>
</g>
<!-- ArbitroService  -->
<g id="node4" class="node">
<title>ArbitroService </title>
<polygon fill="#fb8072" stroke="black" points="750.19,-214.8 647.81,-214.8 647.81,-178.8 750.19,-178.8 750.19,-214.8"/>
<text text-anchor="middle" x="699" y="-192.6" font-family="Times,serif" font-size="14.00">ArbitroService </text>
</g>
<!-- PessoaModule&#45;&gt;ArbitroService  -->
<g id="edge3" class="edge">
<title>PessoaModule&#45;&gt;ArbitroService </title>
<path fill="none" stroke="black" stroke-dasharray="5,2" d="M630.69,-142.8C644.38,-142.8 655.62,-142.8 655.62,-142.8 655.62,-142.8 655.62,-168.52 655.62,-168.52"/>
<polygon fill="black" stroke="black" points="652.12,-168.52 655.62,-178.52 659.12,-168.52 652.12,-168.52"/>
</g>
<!-- AtletaService  -->
<g id="node5" class="node">
<title>AtletaService </title>
<polygon fill="#fb8072" stroke="black" points="629.69,-214.8 534.31,-214.8 534.31,-178.8 629.69,-178.8 629.69,-214.8"/>
<text text-anchor="middle" x="582" y="-192.6" font-family="Times,serif" font-size="14.00">AtletaService </text>
</g>
<!-- PessoaModule&#45;&gt;AtletaService  -->
<g id="edge4" class="edge">
<title>PessoaModule&#45;&gt;AtletaService </title>
<path fill="none" stroke="black" stroke-dasharray="5,2" d="M582,-149.91C582,-149.91 582,-168.79 582,-168.79"/>
<polygon fill="black" stroke="black" points="578.5,-168.79 582,-178.79 585.5,-168.79 578.5,-168.79"/>
</g>
<!-- DelegadoService  -->
<g id="node6" class="node">
<title>DelegadoService </title>
<polygon fill="#fb8072" stroke="black" points="516.62,-214.8 401.38,-214.8 401.38,-178.8 516.62,-178.8 516.62,-214.8"/>
<text text-anchor="middle" x="459" y="-192.6" font-family="Times,serif" font-size="14.00">DelegadoService </text>
</g>
<!-- PessoaModule&#45;&gt;DelegadoService  -->
<g id="edge5" class="edge">
<title>PessoaModule&#45;&gt;DelegadoService </title>
<path fill="none" stroke="black" stroke-dasharray="5,2" d="M533.3,-142.8C519.6,-142.8 508.37,-142.8 508.37,-142.8 508.37,-142.8 508.37,-168.52 508.37,-168.52"/>
<polygon fill="black" stroke="black" points="504.87,-168.52 508.37,-178.52 511.87,-168.52 504.87,-168.52"/>
</g>
<!-- ArbitroService -->
<g id="node7" class="node">
<title>ArbitroService</title>
<ellipse fill="#fdb462" stroke="black" cx="732" cy="-66.8" rx="68.34" ry="18"/>
<text text-anchor="middle" x="732" y="-62.6" font-family="Times,serif" font-size="14.00">ArbitroService</text>
</g>
<!-- ArbitroService&#45;&gt;PessoaModule -->
<g id="edge6" class="edge">
<title>ArbitroService&#45;&gt;PessoaModule</title>
<path fill="none" stroke="black" d="M706.96,-83.6C706.96,-99.78 706.96,-121.8 706.96,-121.8 706.96,-121.8 640.67,-121.8 640.67,-121.8"/>
<polygon fill="black" stroke="black" points="640.67,-118.3 630.67,-121.8 640.67,-125.3 640.67,-118.3"/>
</g>
<!-- AtletaService -->
<g id="node8" class="node">
<title>AtletaService</title>
<ellipse fill="#fdb462" stroke="black" cx="582" cy="-66.8" rx="63.68" ry="18"/>
<text text-anchor="middle" x="582" y="-62.6" font-family="Times,serif" font-size="14.00">AtletaService</text>
</g>
<!-- AtletaService&#45;&gt;PessoaModule -->
<g id="edge7" class="edge">
<title>AtletaService&#45;&gt;PessoaModule</title>
<path fill="none" stroke="black" d="M582,-84.91C582,-84.91 582,-103.79 582,-103.79"/>
<polygon fill="black" stroke="black" points="578.5,-103.79 582,-113.79 585.5,-103.79 578.5,-103.79"/>
</g>
<!-- AuxiliarService -->
<g id="node9" class="node">
<title>AuxiliarService</title>
<ellipse fill="#fdb462" stroke="black" cx="428" cy="-66.8" rx="72.35" ry="18"/>
<text text-anchor="middle" x="428" y="-62.6" font-family="Times,serif" font-size="14.00">AuxiliarService</text>
</g>
<!-- AuxiliarService&#45;&gt;PessoaModule -->
<g id="edge8" class="edge">
<title>AuxiliarService&#45;&gt;PessoaModule</title>
<path fill="none" stroke="black" d="M450.81,-83.9C450.81,-100.05 450.81,-121.8 450.81,-121.8 450.81,-121.8 523.15,-121.8 523.15,-121.8"/>
<polygon fill="black" stroke="black" points="523.15,-125.3 533.15,-121.8 523.15,-118.3 523.15,-125.3"/>
</g>
<!-- DelegadoService -->
<g id="node10" class="node">
<title>DelegadoService</title>
<ellipse fill="#fdb462" stroke="black" cx="261" cy="-66.8" rx="76.99" ry="18"/>
<text text-anchor="middle" x="261" y="-62.6" font-family="Times,serif" font-size="14.00">DelegadoService</text>
</g>
<!-- DelegadoService&#45;&gt;PessoaModule -->
<g id="edge9" class="edge">
<title>DelegadoService&#45;&gt;PessoaModule</title>
<path fill="none" stroke="black" d="M261,-85.07C261,-103.36 261,-128.8 261,-128.8 261,-128.8 523.25,-128.8 523.25,-128.8"/>
<polygon fill="black" stroke="black" points="523.25,-132.3 533.25,-128.8 523.25,-125.3 523.25,-132.3"/>
</g>
<!-- TecnicoService -->
<g id="node11" class="node">
<title>TecnicoService</title>
<ellipse fill="#fdb462" stroke="black" cx="95" cy="-66.8" rx="71.18" ry="18"/>
<text text-anchor="middle" x="95" y="-62.6" font-family="Times,serif" font-size="14.00">TecnicoService</text>
</g>
<!-- TecnicoService&#45;&gt;PessoaModule -->
<g id="edge10" class="edge">
<title>TecnicoService&#45;&gt;PessoaModule</title>
<path fill="none" stroke="black" d="M95,-84.93C95,-105.37 95,-135.8 95,-135.8 95,-135.8 523.07,-135.8 523.07,-135.8"/>
<polygon fill="black" stroke="black" points="523.07,-139.3 533.07,-135.8 523.07,-132.3 523.07,-139.3"/>
</g>
</g>
</svg>
