<?xml version="1.0" encoding="UTF-8" standalone="no"?>
<!DOCTYPE svg PUBLIC "-//W3C//DTD SVG 1.1//EN"
 "http://www.w3.org/Graphics/SVG/1.1/DTD/svg11.dtd">
<!-- Generated by graphviz version 3.0.0 (20220226.1711)
 -->
<!-- Title: dependencies Pages: 1 -->
<svg width="750pt" height="247pt"
 viewBox="0.00 0.00 750.00 246.80" xmlns="http://www.w3.org/2000/svg" xmlns:xlink="http://www.w3.org/1999/xlink">
<g id="graph0" class="graph" transform="scale(1 1) rotate(0) translate(4 242.8)">
<title>dependencies</title>
<polygon fill="white" stroke="transparent" points="-4,4 -4,-242.8 746,-242.8 746,4 -4,4"/>
<text text-anchor="middle" x="371" y="-8.2" font-family="sans-serif" font-size="14.00">dependencies</text>
<g id="clust1" class="cluster">
<title>cluster_PontuacaoModule</title>
<polygon fill="none" stroke="black" stroke-dasharray="1,5" points="8,-32.8 8,-230.8 734,-230.8 734,-32.8 8,-32.8"/>
</g>
<g id="clust4" class="cluster">
<title>cluster_PontuacaoModule_exports</title>
<polygon fill="none" stroke="black" points="180,-170.8 180,-222.8 506,-222.8 506,-170.8 180,-170.8"/>
</g>
<g id="clust6" class="cluster">
<title>cluster_PontuacaoModule_providers</title>
<polygon fill="none" stroke="black" points="16,-40.8 16,-92.8 726,-92.8 726,-40.8 16,-40.8"/>
</g>
<!-- PontuacaoService  -->
<g id="node1" class="node">
<title>PontuacaoService </title>
<polygon fill="#fb8072" stroke="black" points="497.8,-214.8 378.2,-214.8 378.2,-178.8 497.8,-178.8 497.8,-214.8"/>
<text text-anchor="middle" x="438" y="-192.6" font-family="Times,serif" font-size="14.00">PontuacaoService </text>
</g>
<!-- RegistraDesistenciaService  -->
<g id="node2" class="node">
<title>RegistraDesistenciaService </title>
<polygon fill="#fb8072" stroke="black" points="360.17,-214.8 187.83,-214.8 187.83,-178.8 360.17,-178.8 360.17,-214.8"/>
<text text-anchor="middle" x="274" y="-192.6" font-family="Times,serif" font-size="14.00">RegistraDesistenciaService </text>
</g>
<!-- PontuacaoModule -->
<g id="node3" class="node">
<title>PontuacaoModule</title>
<polygon fill="#8dd3c7" stroke="black" points="414.87,-149.8 411.87,-153.8 390.87,-153.8 387.87,-149.8 297.13,-149.8 297.13,-113.8 414.87,-113.8 414.87,-149.8"/>
<text text-anchor="middle" x="356" y="-127.6" font-family="Times,serif" font-size="14.00">PontuacaoModule</text>
</g>
<!-- PontuacaoModule&#45;&gt;PontuacaoService  -->
<g id="edge1" class="edge">
<title>PontuacaoModule&#45;&gt;PontuacaoService </title>
<path fill="none" stroke="black" stroke-dasharray="5,2" d="M396.52,-149.91C396.52,-149.91 396.52,-168.79 396.52,-168.79"/>
<polygon fill="black" stroke="black" points="393.02,-168.79 396.52,-178.79 400.02,-168.79 393.02,-168.79"/>
</g>
<!-- PontuacaoModule&#45;&gt;RegistraDesistenciaService  -->
<g id="edge2" class="edge">
<title>PontuacaoModule&#45;&gt;RegistraDesistenciaService </title>
<path fill="none" stroke="black" stroke-dasharray="5,2" d="M328.7,-149.91C328.7,-149.91 328.7,-168.79 328.7,-168.79"/>
<polygon fill="black" stroke="black" points="325.2,-168.79 328.7,-178.79 332.2,-168.79 325.2,-168.79"/>
</g>
<!-- AplicaRegraDesempateService -->
<g id="node4" class="node">
<title>AplicaRegraDesempateService</title>
<ellipse fill="#fdb462" stroke="black" cx="586" cy="-66.8" rx="131.88" ry="18"/>
<text text-anchor="middle" x="586" y="-62.6" font-family="Times,serif" font-size="14.00">AplicaRegraDesempateService</text>
</g>
<!-- AplicaRegraDesempateService&#45;&gt;PontuacaoModule -->
<g id="edge3" class="edge">
<title>AplicaRegraDesempateService&#45;&gt;PontuacaoModule</title>
<path fill="none" stroke="black" d="M476.1,-76.96C476.1,-95.24 476.1,-131.8 476.1,-131.8 476.1,-131.8 425,-131.8 425,-131.8"/>
<polygon fill="black" stroke="black" points="425,-128.3 415,-131.8 425,-135.3 425,-128.3"/>
</g>
<!-- PontuacaoService -->
<g id="node5" class="node">
<title>PontuacaoService</title>
<ellipse fill="#fdb462" stroke="black" cx="356" cy="-66.8" rx="80.44" ry="18"/>
<text text-anchor="middle" x="356" y="-62.6" font-family="Times,serif" font-size="14.00">PontuacaoService</text>
</g>
<!-- PontuacaoService&#45;&gt;PontuacaoModule -->
<g id="edge4" class="edge">
<title>PontuacaoService&#45;&gt;PontuacaoModule</title>
<path fill="none" stroke="black" d="M356,-84.91C356,-84.91 356,-103.79 356,-103.79"/>
<polygon fill="black" stroke="black" points="352.5,-103.79 356,-113.79 359.5,-103.79 352.5,-103.79"/>
</g>
<!-- RegistraDesistenciaService -->
<g id="node6" class="node">
<title>RegistraDesistenciaService</title>
<ellipse fill="#fdb462" stroke="black" cx="141" cy="-66.8" rx="116.88" ry="18"/>
<text text-anchor="middle" x="141" y="-62.6" font-family="Times,serif" font-size="14.00">RegistraDesistenciaService</text>
</g>
<!-- RegistraDesistenciaService&#45;&gt;PontuacaoModule -->
<g id="edge5" class="edge">
<title>RegistraDesistenciaService&#45;&gt;PontuacaoModule</title>
<path fill="none" stroke="black" d="M222.68,-79.95C222.68,-98.95 222.68,-131.8 222.68,-131.8 222.68,-131.8 286.75,-131.8 286.75,-131.8"/>
<polygon fill="black" stroke="black" points="286.75,-135.3 296.75,-131.8 286.75,-128.3 286.75,-135.3"/>
</g>
</g>
</svg>
