<?xml version="1.0" encoding="UTF-8" standalone="no"?>
<!DOCTYPE svg PUBLIC "-//W3C//DTD SVG 1.1//EN"
 "http://www.w3.org/Graphics/SVG/1.1/DTD/svg11.dtd">
<!-- Generated by graphviz version 3.0.0 (20220226.1711)
 -->
<!-- Title: dependencies Pages: 1 -->
<svg width="216pt" height="247pt"
 viewBox="0.00 0.00 216.00 246.80" xmlns="http://www.w3.org/2000/svg" xmlns:xlink="http://www.w3.org/1999/xlink">
<g id="graph0" class="graph" transform="scale(1 1) rotate(0) translate(4 242.8)">
<title>dependencies</title>
<polygon fill="white" stroke="transparent" points="-4,4 -4,-242.8 212,-242.8 212,4 -4,4"/>
<text text-anchor="middle" x="104" y="-8.2" font-family="sans-serif" font-size="14.00">dependencies</text>
<g id="clust1" class="cluster">
<title>cluster_PontuacaoModule</title>
<polygon fill="none" stroke="black" stroke-dasharray="1,5" points="8,-32.8 8,-230.8 200,-230.8 200,-32.8 8,-32.8"/>
</g>
<g id="clust4" class="cluster">
<title>cluster_PontuacaoModule_exports</title>
<polygon fill="none" stroke="black" points="36,-170.8 36,-222.8 172,-222.8 172,-170.8 36,-170.8"/>
</g>
<g id="clust6" class="cluster">
<title>cluster_PontuacaoModule_providers</title>
<polygon fill="none" stroke="black" points="16,-40.8 16,-92.8 192,-92.8 192,-40.8 16,-40.8"/>
</g>
<!-- PontuacaoService  -->
<g id="node1" class="node">
<title>PontuacaoService </title>
<polygon fill="#fb8072" stroke="black" points="163.8,-214.8 44.2,-214.8 44.2,-178.8 163.8,-178.8 163.8,-214.8"/>
<text text-anchor="middle" x="104" y="-192.6" font-family="Times,serif" font-size="14.00">PontuacaoService </text>
</g>
<!-- PontuacaoModule -->
<g id="node2" class="node">
<title>PontuacaoModule</title>
<polygon fill="#8dd3c7" stroke="black" points="162.87,-149.8 159.87,-153.8 138.87,-153.8 135.87,-149.8 45.13,-149.8 45.13,-113.8 162.87,-113.8 162.87,-149.8"/>
<text text-anchor="middle" x="104" y="-127.6" font-family="Times,serif" font-size="14.00">PontuacaoModule</text>
</g>
<!-- PontuacaoModule&#45;&gt;PontuacaoService  -->
<g id="edge1" class="edge">
<title>PontuacaoModule&#45;&gt;PontuacaoService </title>
<path fill="none" stroke="black" stroke-dasharray="5,2" d="M104,-149.91C104,-149.91 104,-168.79 104,-168.79"/>
<polygon fill="black" stroke="black" points="100.5,-168.79 104,-178.79 107.5,-168.79 100.5,-168.79"/>
</g>
<!-- PontuacaoService -->
<g id="node3" class="node">
<title>PontuacaoService</title>
<ellipse fill="#fdb462" stroke="black" cx="104" cy="-66.8" rx="80.44" ry="18"/>
<text text-anchor="middle" x="104" y="-62.6" font-family="Times,serif" font-size="14.00">PontuacaoService</text>
</g>
<!-- PontuacaoService&#45;&gt;PontuacaoModule -->
<g id="edge2" class="edge">
<title>PontuacaoService&#45;&gt;PontuacaoModule</title>
<path fill="none" stroke="black" d="M104,-84.91C104,-84.91 104,-103.79 104,-103.79"/>
<polygon fill="black" stroke="black" points="100.5,-103.79 104,-113.79 107.5,-103.79 100.5,-103.79"/>
</g>
</g>
</svg>
