<?xml version="1.0" encoding="UTF-8" standalone="no"?>
<!DOCTYPE svg PUBLIC "-//W3C//DTD SVG 1.1//EN"
 "http://www.w3.org/Graphics/SVG/1.1/DTD/svg11.dtd">
<!-- Generated by graphviz version 3.0.0 (20220226.1711)
 -->
<!-- Title: dependencies Pages: 1 -->
<svg width="1041pt" height="247pt"
 viewBox="0.00 0.00 1041.00 246.80" xmlns="http://www.w3.org/2000/svg" xmlns:xlink="http://www.w3.org/1999/xlink">
<g id="graph0" class="graph" transform="scale(1 1) rotate(0) translate(4 242.8)">
<title>dependencies</title>
<polygon fill="white" stroke="transparent" points="-4,4 -4,-242.8 1037,-242.8 1037,4 -4,4"/>
<text text-anchor="middle" x="516.5" y="-8.2" font-family="sans-serif" font-size="14.00">dependencies</text>
<g id="clust1" class="cluster">
<title>cluster_PontuacaoModule</title>
<polygon fill="none" stroke="black" stroke-dasharray="1,5" points="8,-32.8 8,-230.8 1025,-230.8 1025,-32.8 8,-32.8"/>
</g>
<g id="clust4" class="cluster">
<title>cluster_PontuacaoModule_exports</title>
<polygon fill="none" stroke="black" points="225,-170.8 225,-222.8 771,-222.8 771,-170.8 225,-170.8"/>
</g>
<g id="clust6" class="cluster">
<title>cluster_PontuacaoModule_providers</title>
<polygon fill="none" stroke="black" points="16,-40.8 16,-92.8 1017,-92.8 1017,-40.8 16,-40.8"/>
</g>
<!-- PontuacaoService  -->
<g id="node1" class="node">
<title>PontuacaoService </title>
<polygon fill="#fb8072" stroke="black" points="762.8,-214.8 643.2,-214.8 643.2,-178.8 762.8,-178.8 762.8,-214.8"/>
<text text-anchor="middle" x="703" y="-192.6" font-family="Times,serif" font-size="14.00">PontuacaoService </text>
</g>
<!-- RegistraDesistenciaService  -->
<g id="node2" class="node">
<title>RegistraDesistenciaService </title>
<polygon fill="#fb8072" stroke="black" points="625.17,-214.8 452.83,-214.8 452.83,-178.8 625.17,-178.8 625.17,-214.8"/>
<text text-anchor="middle" x="539" y="-192.6" font-family="Times,serif" font-size="14.00">RegistraDesistenciaService </text>
</g>
<!-- RegistraResultadoPartidaFacade  -->
<g id="node3" class="node">
<title>RegistraResultadoPartidaFacade </title>
<polygon fill="#fb8072" stroke="black" points="434.95,-214.8 233.05,-214.8 233.05,-178.8 434.95,-178.8 434.95,-214.8"/>
<text text-anchor="middle" x="334" y="-192.6" font-family="Times,serif" font-size="14.00">RegistraResultadoPartidaFacade </text>
</g>
<!-- PontuacaoModule -->
<g id="node4" class="node">
<title>PontuacaoModule</title>
<polygon fill="#8dd3c7" stroke="black" points="597.87,-149.8 594.87,-153.8 573.87,-153.8 570.87,-149.8 480.13,-149.8 480.13,-113.8 597.87,-113.8 597.87,-149.8"/>
<text text-anchor="middle" x="539" y="-127.6" font-family="Times,serif" font-size="14.00">PontuacaoModule</text>
</g>
<!-- PontuacaoModule&#45;&gt;PontuacaoService  -->
<g id="edge1" class="edge">
<title>PontuacaoModule&#45;&gt;PontuacaoService </title>
<path fill="none" stroke="black" stroke-dasharray="5,2" d="M598.03,-137.8C638.59,-137.8 685.16,-137.8 685.16,-137.8 685.16,-137.8 685.16,-168.78 685.16,-168.78"/>
<polygon fill="black" stroke="black" points="681.66,-168.78 685.16,-178.78 688.66,-168.78 681.66,-168.78"/>
</g>
<!-- PontuacaoModule&#45;&gt;RegistraDesistenciaService  -->
<g id="edge2" class="edge">
<title>PontuacaoModule&#45;&gt;RegistraDesistenciaService </title>
<path fill="none" stroke="black" stroke-dasharray="5,2" d="M539,-149.91C539,-149.91 539,-168.79 539,-168.79"/>
<polygon fill="black" stroke="black" points="535.5,-168.79 539,-178.79 542.5,-168.79 535.5,-168.79"/>
</g>
<!-- PontuacaoModule&#45;&gt;RegistraResultadoPartidaFacade  -->
<g id="edge3" class="edge">
<title>PontuacaoModule&#45;&gt;RegistraResultadoPartidaFacade </title>
<path fill="none" stroke="black" stroke-dasharray="5,2" d="M479.8,-137.8C432.83,-137.8 375.02,-137.8 375.02,-137.8 375.02,-137.8 375.02,-168.78 375.02,-168.78"/>
<polygon fill="black" stroke="black" points="371.52,-168.78 375.02,-178.78 378.52,-168.78 371.52,-168.78"/>
</g>
<!-- AplicaRegraDesempateService -->
<g id="node5" class="node">
<title>AplicaRegraDesempateService</title>
<ellipse fill="#fdb462" stroke="black" cx="877" cy="-66.8" rx="131.88" ry="18"/>
<text text-anchor="middle" x="877" y="-62.6" font-family="Times,serif" font-size="14.00">AplicaRegraDesempateService</text>
</g>
<!-- AplicaRegraDesempateService&#45;&gt;PontuacaoModule -->
<g id="edge4" class="edge">
<title>AplicaRegraDesempateService&#45;&gt;PontuacaoModule</title>
<path fill="none" stroke="black" d="M754.1,-73.57C754.1,-89.07 754.1,-125.8 754.1,-125.8 754.1,-125.8 608.06,-125.8 608.06,-125.8"/>
<polygon fill="black" stroke="black" points="608.06,-122.3 598.06,-125.8 608.06,-129.3 608.06,-122.3"/>
</g>
<!-- PontuacaoService -->
<g id="node6" class="node">
<title>PontuacaoService</title>
<ellipse fill="#fdb462" stroke="black" cx="647" cy="-66.8" rx="80.44" ry="18"/>
<text text-anchor="middle" x="647" y="-62.6" font-family="Times,serif" font-size="14.00">PontuacaoService</text>
</g>
<!-- PontuacaoService&#45;&gt;PontuacaoModule -->
<g id="edge5" class="edge">
<title>PontuacaoService&#45;&gt;PontuacaoModule</title>
<path fill="none" stroke="black" d="M582.36,-77.53C582.36,-77.53 582.36,-103.67 582.36,-103.67"/>
<polygon fill="black" stroke="black" points="578.86,-103.67 582.36,-113.67 585.86,-103.67 578.86,-103.67"/>
</g>
<!-- RegistraDesistenciaService -->
<g id="node7" class="node">
<title>RegistraDesistenciaService</title>
<ellipse fill="#fdb462" stroke="black" cx="432" cy="-66.8" rx="116.88" ry="18"/>
<text text-anchor="middle" x="432" y="-62.6" font-family="Times,serif" font-size="14.00">RegistraDesistenciaService</text>
</g>
<!-- RegistraDesistenciaService&#45;&gt;PontuacaoModule -->
<g id="edge6" class="edge">
<title>RegistraDesistenciaService&#45;&gt;PontuacaoModule</title>
<path fill="none" stroke="black" d="M514.38,-79.64C514.38,-79.64 514.38,-103.32 514.38,-103.32"/>
<polygon fill="black" stroke="black" points="510.88,-103.32 514.38,-113.32 517.88,-103.32 510.88,-103.32"/>
</g>
<!-- RegistraResultadoPartidaFacade -->
<g id="node8" class="node">
<title>RegistraResultadoPartidaFacade</title>
<ellipse fill="#fdb462" stroke="black" cx="161" cy="-66.8" rx="136.58" ry="18"/>
<text text-anchor="middle" x="161" y="-62.6" font-family="Times,serif" font-size="14.00">RegistraResultadoPartidaFacade</text>
</g>
<!-- RegistraResultadoPartidaFacade&#45;&gt;PontuacaoModule -->
<g id="edge7" class="edge">
<title>RegistraResultadoPartidaFacade&#45;&gt;PontuacaoModule</title>
<path fill="none" stroke="black" d="M265.41,-78.46C265.41,-95.65 265.41,-125.8 265.41,-125.8 265.41,-125.8 469.97,-125.8 469.97,-125.8"/>
<polygon fill="black" stroke="black" points="469.97,-129.3 479.97,-125.8 469.97,-122.3 469.97,-129.3"/>
</g>
</g>
</svg>
