<?xml version="1.0" encoding="UTF-8" standalone="no"?>
<!DOCTYPE svg PUBLIC "-//W3C//DTD SVG 1.1//EN"
 "http://www.w3.org/Graphics/SVG/1.1/DTD/svg11.dtd">
<!-- Generated by graphviz version 5.0.0 (20220707.1540)
 -->
<!-- Title: dependencies Pages: 1 -->
<svg width="306pt" height="247pt"
 viewBox="0.00 0.00 306.00 246.80" xmlns="http://www.w3.org/2000/svg" xmlns:xlink="http://www.w3.org/1999/xlink">
<g id="graph0" class="graph" transform="scale(1 1) rotate(0) translate(4 242.8)">
<title>dependencies</title>
<polygon fill="white" stroke="transparent" points="-4,4 -4,-242.8 302,-242.8 302,4 -4,4"/>
<text text-anchor="middle" x="149" y="-8.2" font-family="sans-serif" font-size="14.00">dependencies</text>
<g id="clust1" class="cluster">
<title>cluster_GinasioModule</title>
<polygon fill="none" stroke="black" stroke-dasharray="1,5" points="8,-32.8 8,-230.8 290,-230.8 290,-32.8 8,-32.8"/>
</g>
<g id="clust4" class="cluster">
<title>cluster_GinasioModule_exports</title>
<polygon fill="none" stroke="black" points="96,-170.8 96,-222.8 218,-222.8 218,-170.8 96,-170.8"/>
</g>
<g id="clust3" class="cluster">
<title>cluster_GinasioModule_imports</title>
<polygon fill="none" stroke="black" points="180,-40.8 180,-92.8 282,-92.8 282,-40.8 180,-40.8"/>
</g>
<g id="clust6" class="cluster">
<title>cluster_GinasioModule_providers</title>
<polygon fill="none" stroke="black" points="16,-40.8 16,-92.8 172,-92.8 172,-40.8 16,-40.8"/>
</g>
<!-- CoreModule -->
<g id="node1" class="node">
<title>CoreModule</title>
<polygon fill="#8dd3c7" stroke="black" points="274.27,-84.8 271.27,-88.8 250.27,-88.8 247.27,-84.8 187.73,-84.8 187.73,-48.8 274.27,-48.8 274.27,-84.8"/>
<text text-anchor="middle" x="231" y="-62.6" font-family="Times,serif" font-size="14.00">CoreModule</text>
</g>
<!-- GinasioModule -->
<g id="node2" class="node">
<title>GinasioModule</title>
<polygon fill="#8dd3c7" stroke="black" points="208.6,-149.8 205.6,-153.8 184.6,-153.8 181.6,-149.8 105.4,-149.8 105.4,-113.8 208.6,-113.8 208.6,-149.8"/>
<text text-anchor="middle" x="157" y="-127.6" font-family="Times,serif" font-size="14.00">GinasioModule</text>
</g>
<!-- CoreModule&#45;&gt;GinasioModule -->
<g id="edge1" class="edge">
<title>CoreModule&#45;&gt;GinasioModule</title>
<path fill="none" stroke="black" d="M198.08,-84.91C198.08,-84.91 198.08,-103.79 198.08,-103.79"/>
<polygon fill="black" stroke="black" points="194.58,-103.79 198.08,-113.79 201.58,-103.79 194.58,-103.79"/>
</g>
<!-- GinasioService  -->
<g id="node3" class="node">
<title>GinasioService </title>
<polygon fill="#fb8072" stroke="black" points="209.53,-214.8 104.47,-214.8 104.47,-178.8 209.53,-178.8 209.53,-214.8"/>
<text text-anchor="middle" x="157" y="-192.6" font-family="Times,serif" font-size="14.00">GinasioService </text>
</g>
<!-- GinasioModule&#45;&gt;GinasioService  -->
<g id="edge2" class="edge">
<title>GinasioModule&#45;&gt;GinasioService </title>
<path fill="none" stroke="black" stroke-dasharray="5,2" d="M157,-149.91C157,-149.91 157,-168.79 157,-168.79"/>
<polygon fill="black" stroke="black" points="153.5,-168.79 157,-178.79 160.5,-168.79 153.5,-168.79"/>
</g>
<!-- GinasioService -->
<g id="node4" class="node">
<title>GinasioService</title>
<ellipse fill="#fdb462" stroke="black" cx="94" cy="-66.8" rx="70.07" ry="18"/>
<text text-anchor="middle" x="94" y="-62.6" font-family="Times,serif" font-size="14.00">GinasioService</text>
</g>
<!-- GinasioService&#45;&gt;GinasioModule -->
<g id="edge3" class="edge">
<title>GinasioService&#45;&gt;GinasioModule</title>
<path fill="none" stroke="black" d="M134.74,-81.55C134.74,-81.55 134.74,-103.39 134.74,-103.39"/>
<polygon fill="black" stroke="black" points="131.24,-103.39 134.74,-113.39 138.24,-103.39 131.24,-103.39"/>
</g>
</g>
</svg>
