<?xml version="1.0" encoding="UTF-8" standalone="no"?>
<!DOCTYPE svg PUBLIC "-//W3C//DTD SVG 1.1//EN"
 "http://www.w3.org/Graphics/SVG/1.1/DTD/svg11.dtd">
<!-- Generated by graphviz version 3.0.0 (20220226.1711)
 -->
<!-- Title: dependencies Pages: 1 -->
<svg width="306pt" height="247pt"
 viewBox="0.00 0.00 306.00 246.80" xmlns="http://www.w3.org/2000/svg" xmlns:xlink="http://www.w3.org/1999/xlink">
<g id="graph0" class="graph" transform="scale(1 1) rotate(0) translate(4 242.8)">
<title>dependencies</title>
<polygon fill="white" stroke="transparent" points="-4,4 -4,-242.8 302,-242.8 302,4 -4,4"/>
<text text-anchor="middle" x="149" y="-8.2" font-family="sans-serif" font-size="14.00">dependencies</text>
<g id="clust1" class="cluster">
<title>cluster_GinasioModule</title>
<polygon fill="none" stroke="black" stroke-dasharray="1,5" points="8,-32.8 8,-230.8 290,-230.8 290,-32.8 8,-32.8"/>
</g>
<g id="clust6" class="cluster">
<title>cluster_GinasioModule_providers</title>
<polygon fill="none" stroke="black" points="126,-40.8 126,-92.8 282,-92.8 282,-40.8 126,-40.8"/>
</g>
<g id="clust4" class="cluster">
<title>cluster_GinasioModule_exports</title>
<polygon fill="none" stroke="black" points="79,-170.8 79,-222.8 201,-222.8 201,-170.8 79,-170.8"/>
</g>
<g id="clust3" class="cluster">
<title>cluster_GinasioModule_imports</title>
<polygon fill="none" stroke="black" points="16,-40.8 16,-92.8 118,-92.8 118,-40.8 16,-40.8"/>
</g>
<!-- CoreModule -->
<g id="node1" class="node">
<title>CoreModule</title>
<polygon fill="#8dd3c7" stroke="black" points="110.27,-84.8 107.27,-88.8 86.27,-88.8 83.27,-84.8 23.73,-84.8 23.73,-48.8 110.27,-48.8 110.27,-84.8"/>
<text text-anchor="middle" x="67" y="-62.6" font-family="Times,serif" font-size="14.00">CoreModule</text>
</g>
<!-- GinasioModule -->
<g id="node2" class="node">
<title>GinasioModule</title>
<polygon fill="#8dd3c7" stroke="black" points="191.6,-149.8 188.6,-153.8 167.6,-153.8 164.6,-149.8 88.4,-149.8 88.4,-113.8 191.6,-113.8 191.6,-149.8"/>
<text text-anchor="middle" x="140" y="-127.6" font-family="Times,serif" font-size="14.00">GinasioModule</text>
</g>
<!-- CoreModule&#45;&gt;GinasioModule -->
<g id="edge1" class="edge">
<title>CoreModule&#45;&gt;GinasioModule</title>
<path fill="none" stroke="black" d="M99.42,-84.91C99.42,-84.91 99.42,-103.79 99.42,-103.79"/>
<polygon fill="black" stroke="black" points="95.92,-103.79 99.42,-113.79 102.92,-103.79 95.92,-103.79"/>
</g>
<!-- GinasioService  -->
<g id="node3" class="node">
<title>GinasioService </title>
<polygon fill="#fb8072" stroke="black" points="192.53,-214.8 87.47,-214.8 87.47,-178.8 192.53,-178.8 192.53,-214.8"/>
<text text-anchor="middle" x="140" y="-192.6" font-family="Times,serif" font-size="14.00">GinasioService </text>
</g>
<!-- GinasioModule&#45;&gt;GinasioService  -->
<g id="edge2" class="edge">
<title>GinasioModule&#45;&gt;GinasioService </title>
<path fill="none" stroke="black" stroke-dasharray="5,2" d="M140,-149.91C140,-149.91 140,-168.79 140,-168.79"/>
<polygon fill="black" stroke="black" points="136.5,-168.79 140,-178.79 143.5,-168.79 136.5,-168.79"/>
</g>
<!-- GinasioService -->
<g id="node4" class="node">
<title>GinasioService</title>
<ellipse fill="#fdb462" stroke="black" cx="204" cy="-66.8" rx="70.07" ry="18"/>
<text text-anchor="middle" x="204" y="-62.6" font-family="Times,serif" font-size="14.00">GinasioService</text>
</g>
<!-- GinasioService&#45;&gt;GinasioModule -->
<g id="edge3" class="edge">
<title>GinasioService&#45;&gt;GinasioModule</title>
<path fill="none" stroke="black" d="M162.76,-81.55C162.76,-81.55 162.76,-103.39 162.76,-103.39"/>
<polygon fill="black" stroke="black" points="159.26,-103.39 162.76,-113.39 166.26,-103.39 159.26,-103.39"/>
</g>
</g>
</svg>
