<?xml version="1.0" encoding="UTF-8" standalone="no"?>
<!DOCTYPE svg PUBLIC "-//W3C//DTD SVG 1.1//EN"
 "http://www.w3.org/Graphics/SVG/1.1/DTD/svg11.dtd">
<!-- Generated by graphviz version 3.0.0 (20220226.1711)
 -->
<!-- Title: dependencies Pages: 1 -->
<svg width="611pt" height="174pt"
 viewBox="0.00 0.00 611.00 173.80" xmlns="http://www.w3.org/2000/svg" xmlns:xlink="http://www.w3.org/1999/xlink">
<g id="graph0" class="graph" transform="scale(1 1) rotate(0) translate(4 169.8)">
<title>dependencies</title>
<polygon fill="white" stroke="transparent" points="-4,4 -4,-169.8 607,-169.8 607,4 -4,4"/>
<text text-anchor="middle" x="301.5" y="-8.2" font-family="sans-serif" font-size="14.00">dependencies</text>
<g id="clust1" class="cluster">
<title>cluster_EstatisticaModule</title>
<polygon fill="none" stroke="black" stroke-dasharray="1,5" points="8,-32.8 8,-157.8 595,-157.8 595,-32.8 8,-32.8"/>
</g>
<g id="clust3" class="cluster">
<title>cluster_EstatisticaModule_imports</title>
<polygon fill="none" stroke="black" points="264,-40.8 264,-92.8 587,-92.8 587,-40.8 264,-40.8"/>
</g>
<g id="clust6" class="cluster">
<title>cluster_EstatisticaModule_providers</title>
<polygon fill="none" stroke="black" points="16,-40.8 16,-92.8 256,-92.8 256,-40.8 16,-40.8"/>
</g>
<!-- CoreModule -->
<g id="node1" class="node">
<title>CoreModule</title>
<polygon fill="#8dd3c7" stroke="black" points="579.27,-84.8 576.27,-88.8 555.27,-88.8 552.27,-84.8 492.73,-84.8 492.73,-48.8 579.27,-48.8 579.27,-84.8"/>
<text text-anchor="middle" x="536" y="-62.6" font-family="Times,serif" font-size="14.00">CoreModule</text>
</g>
<!-- EstatisticaModule -->
<g id="node4" class="node">
<title>EstatisticaModule</title>
<polygon fill="#8dd3c7" stroke="black" points="435.59,-149.8 432.59,-153.8 411.59,-153.8 408.59,-149.8 318.41,-149.8 318.41,-113.8 435.59,-113.8 435.59,-149.8"/>
<text text-anchor="middle" x="377" y="-127.6" font-family="Times,serif" font-size="14.00">EstatisticaModule</text>
</g>
<!-- CoreModule&#45;&gt;EstatisticaModule -->
<g id="edge1" class="edge">
<title>CoreModule&#45;&gt;EstatisticaModule</title>
<path fill="none" stroke="black" d="M536,-84.91C536,-104.14 536,-131.8 536,-131.8 536,-131.8 445.75,-131.8 445.75,-131.8"/>
<polygon fill="black" stroke="black" points="445.75,-128.3 435.75,-131.8 445.75,-135.3 445.75,-128.3"/>
</g>
<!-- LigaModule -->
<g id="node2" class="node">
<title>LigaModule</title>
<polygon fill="#8dd3c7" stroke="black" points="474.71,-84.8 471.71,-88.8 450.71,-88.8 447.71,-84.8 389.29,-84.8 389.29,-48.8 474.71,-48.8 474.71,-84.8"/>
<text text-anchor="middle" x="432" y="-62.6" font-family="Times,serif" font-size="14.00">LigaModule</text>
</g>
<!-- LigaModule&#45;&gt;EstatisticaModule -->
<g id="edge2" class="edge">
<title>LigaModule&#45;&gt;EstatisticaModule</title>
<path fill="none" stroke="black" d="M412.47,-84.91C412.47,-84.91 412.47,-103.79 412.47,-103.79"/>
<polygon fill="black" stroke="black" points="408.97,-103.79 412.47,-113.79 415.97,-103.79 408.97,-103.79"/>
</g>
<!-- PartidaModule -->
<g id="node3" class="node">
<title>PartidaModule</title>
<polygon fill="#8dd3c7" stroke="black" points="371.71,-84.8 368.71,-88.8 347.71,-88.8 344.71,-84.8 272.29,-84.8 272.29,-48.8 371.71,-48.8 371.71,-84.8"/>
<text text-anchor="middle" x="322" y="-62.6" font-family="Times,serif" font-size="14.00">PartidaModule</text>
</g>
<!-- PartidaModule&#45;&gt;EstatisticaModule -->
<g id="edge3" class="edge">
<title>PartidaModule&#45;&gt;EstatisticaModule</title>
<path fill="none" stroke="black" d="M345.03,-84.91C345.03,-84.91 345.03,-103.79 345.03,-103.79"/>
<polygon fill="black" stroke="black" points="341.53,-103.79 345.03,-113.79 348.53,-103.79 341.53,-103.79"/>
</g>
<!-- FundamentoAtletaService -->
<g id="node5" class="node">
<title>FundamentoAtletaService</title>
<ellipse fill="#fdb462" stroke="black" cx="136" cy="-66.8" rx="111.74" ry="18"/>
<text text-anchor="middle" x="136" y="-62.6" font-family="Times,serif" font-size="14.00">FundamentoAtletaService</text>
</g>
<!-- FundamentoAtletaService&#45;&gt;EstatisticaModule -->
<g id="edge4" class="edge">
<title>FundamentoAtletaService&#45;&gt;EstatisticaModule</title>
<path fill="none" stroke="black" d="M136,-84.91C136,-104.14 136,-131.8 136,-131.8 136,-131.8 308.35,-131.8 308.35,-131.8"/>
<polygon fill="black" stroke="black" points="308.35,-135.3 318.35,-131.8 308.35,-128.3 308.35,-135.3"/>
</g>
</g>
</svg>
