<?xml version="1.0" encoding="UTF-8" standalone="no"?>
<!DOCTYPE svg PUBLIC "-//W3C//DTD SVG 1.1//EN"
 "http://www.w3.org/Graphics/SVG/1.1/DTD/svg11.dtd">
<!-- Generated by graphviz version 3.0.0 (20220226.1711)
 -->
<!-- Title: dependencies Pages: 1 -->
<svg width="1895pt" height="174pt"
 viewBox="0.00 0.00 1895.00 173.80" xmlns="http://www.w3.org/2000/svg" xmlns:xlink="http://www.w3.org/1999/xlink">
<g id="graph0" class="graph" transform="scale(1 1) rotate(0) translate(4 169.8)">
<title>dependencies</title>
<polygon fill="white" stroke="transparent" points="-4,4 -4,-169.8 1891,-169.8 1891,4 -4,4"/>
<text text-anchor="middle" x="943.5" y="-8.2" font-family="sans-serif" font-size="14.00">dependencies</text>
<g id="clust1" class="cluster">
<title>cluster_EstatisticaModule</title>
<polygon fill="none" stroke="black" stroke-dasharray="1,5" points="8,-32.8 8,-157.8 1879,-157.8 1879,-32.8 8,-32.8"/>
</g>
<g id="clust3" class="cluster">
<title>cluster_EstatisticaModule_imports</title>
<polygon fill="none" stroke="black" points="1331,-40.8 1331,-92.8 1871,-92.8 1871,-40.8 1331,-40.8"/>
</g>
<g id="clust6" class="cluster">
<title>cluster_EstatisticaModule_providers</title>
<polygon fill="none" stroke="black" points="16,-40.8 16,-92.8 1323,-92.8 1323,-40.8 16,-40.8"/>
</g>
<!-- CoreModule -->
<g id="node1" class="node">
<title>CoreModule</title>
<polygon fill="#8dd3c7" stroke="black" points="1863.27,-84.8 1860.27,-88.8 1839.27,-88.8 1836.27,-84.8 1776.73,-84.8 1776.73,-48.8 1863.27,-48.8 1863.27,-84.8"/>
<text text-anchor="middle" x="1820" y="-62.6" font-family="Times,serif" font-size="14.00">CoreModule</text>
</g>
<!-- EstatisticaModule -->
<g id="node6" class="node">
<title>EstatisticaModule</title>
<polygon fill="#8dd3c7" stroke="black" points="1268.59,-149.8 1265.59,-153.8 1244.59,-153.8 1241.59,-149.8 1151.41,-149.8 1151.41,-113.8 1268.59,-113.8 1268.59,-149.8"/>
<text text-anchor="middle" x="1210" y="-127.6" font-family="Times,serif" font-size="14.00">EstatisticaModule</text>
</g>
<!-- CoreModule&#45;&gt;EstatisticaModule -->
<g id="edge1" class="edge">
<title>CoreModule&#45;&gt;EstatisticaModule</title>
<path fill="none" stroke="black" d="M1820,-84.89C1820,-107.93 1820,-144.8 1820,-144.8 1820,-144.8 1278.77,-144.8 1278.77,-144.8"/>
<polygon fill="black" stroke="black" points="1278.77,-141.3 1268.77,-144.8 1278.77,-148.3 1278.77,-141.3"/>
</g>
<!-- LigaModule -->
<g id="node2" class="node">
<title>LigaModule</title>
<polygon fill="#8dd3c7" stroke="black" points="1758.71,-84.8 1755.71,-88.8 1734.71,-88.8 1731.71,-84.8 1673.29,-84.8 1673.29,-48.8 1758.71,-48.8 1758.71,-84.8"/>
<text text-anchor="middle" x="1716" y="-62.6" font-family="Times,serif" font-size="14.00">LigaModule</text>
</g>
<!-- LigaModule&#45;&gt;EstatisticaModule -->
<g id="edge2" class="edge">
<title>LigaModule&#45;&gt;EstatisticaModule</title>
<path fill="none" stroke="black" d="M1716,-85.08C1716,-106.12 1716,-137.8 1716,-137.8 1716,-137.8 1279.03,-137.8 1279.03,-137.8"/>
<polygon fill="black" stroke="black" points="1279.03,-134.3 1269.03,-137.8 1279.03,-141.3 1279.03,-134.3"/>
</g>
<!-- PartidaModule -->
<g id="node3" class="node">
<title>PartidaModule</title>
<polygon fill="#8dd3c7" stroke="black" points="1655.71,-84.8 1652.71,-88.8 1631.71,-88.8 1628.71,-84.8 1556.29,-84.8 1556.29,-48.8 1655.71,-48.8 1655.71,-84.8"/>
<text text-anchor="middle" x="1606" y="-62.6" font-family="Times,serif" font-size="14.00">PartidaModule</text>
</g>
<!-- PartidaModule&#45;&gt;EstatisticaModule -->
<g id="edge3" class="edge">
<title>PartidaModule&#45;&gt;EstatisticaModule</title>
<path fill="none" stroke="black" d="M1606,-84.91C1606,-104.14 1606,-131.8 1606,-131.8 1606,-131.8 1278.86,-131.8 1278.86,-131.8"/>
<polygon fill="black" stroke="black" points="1278.86,-128.3 1268.86,-131.8 1278.86,-135.3 1278.86,-128.3"/>
</g>
<!-- PessoaModule -->
<g id="node4" class="node">
<title>PessoaModule</title>
<polygon fill="#8dd3c7" stroke="black" points="1538.66,-84.8 1535.66,-88.8 1514.66,-88.8 1511.66,-84.8 1441.34,-84.8 1441.34,-48.8 1538.66,-48.8 1538.66,-84.8"/>
<text text-anchor="middle" x="1490" y="-62.6" font-family="Times,serif" font-size="14.00">PessoaModule</text>
</g>
<!-- PessoaModule&#45;&gt;EstatisticaModule -->
<g id="edge4" class="edge">
<title>PessoaModule&#45;&gt;EstatisticaModule</title>
<path fill="none" stroke="black" d="M1490,-84.82C1490,-102.17 1490,-125.8 1490,-125.8 1490,-125.8 1278.7,-125.8 1278.7,-125.8"/>
<polygon fill="black" stroke="black" points="1278.7,-122.3 1268.7,-125.8 1278.7,-129.3 1278.7,-122.3"/>
</g>
<!-- SmsModule -->
<g id="node5" class="node">
<title>SmsModule</title>
<polygon fill="#8dd3c7" stroke="black" points="1422.68,-84.8 1419.68,-88.8 1398.68,-88.8 1395.68,-84.8 1339.32,-84.8 1339.32,-48.8 1422.68,-48.8 1422.68,-84.8"/>
<text text-anchor="middle" x="1381" y="-62.6" font-family="Times,serif" font-size="14.00">SmsModule</text>
</g>
<!-- SmsModule&#45;&gt;EstatisticaModule -->
<g id="edge5" class="edge">
<title>SmsModule&#45;&gt;EstatisticaModule</title>
<path fill="none" stroke="black" d="M1381,-85.04C1381,-100.37 1381,-119.8 1381,-119.8 1381,-119.8 1278.85,-119.8 1278.85,-119.8"/>
<polygon fill="black" stroke="black" points="1278.85,-116.3 1268.85,-119.8 1278.85,-123.3 1278.85,-116.3"/>
</g>
<!-- CraqueDaGaleraService -->
<g id="node7" class="node">
<title>CraqueDaGaleraService</title>
<ellipse fill="#fdb462" stroke="black" cx="1210" cy="-66.8" rx="104.74" ry="18"/>
<text text-anchor="middle" x="1210" y="-62.6" font-family="Times,serif" font-size="14.00">CraqueDaGaleraService</text>
</g>
<!-- CraqueDaGaleraService&#45;&gt;EstatisticaModule -->
<g id="edge6" class="edge">
<title>CraqueDaGaleraService&#45;&gt;EstatisticaModule</title>
<path fill="none" stroke="black" d="M1210,-84.91C1210,-84.91 1210,-103.79 1210,-103.79"/>
<polygon fill="black" stroke="black" points="1206.5,-103.79 1210,-113.79 1213.5,-103.79 1206.5,-103.79"/>
</g>
<!-- FundamentoAtletaService -->
<g id="node8" class="node">
<title>FundamentoAtletaService</title>
<ellipse fill="#fdb462" stroke="black" cx="975" cy="-66.8" rx="111.74" ry="18"/>
<text text-anchor="middle" x="975" y="-62.6" font-family="Times,serif" font-size="14.00">FundamentoAtletaService</text>
</g>
<!-- FundamentoAtletaService&#45;&gt;EstatisticaModule -->
<g id="edge7" class="edge">
<title>FundamentoAtletaService&#45;&gt;EstatisticaModule</title>
<path fill="none" stroke="black" d="M975,-85.04C975,-100.37 975,-119.8 975,-119.8 975,-119.8 1141.31,-119.8 1141.31,-119.8"/>
<polygon fill="black" stroke="black" points="1141.31,-123.3 1151.31,-119.8 1141.31,-116.3 1141.31,-123.3"/>
</g>
<!-- MelhorCentralService -->
<g id="node9" class="node">
<title>MelhorCentralService</title>
<ellipse fill="#fdb462" stroke="black" cx="748" cy="-66.8" rx="96.69" ry="18"/>
<text text-anchor="middle" x="748" y="-62.6" font-family="Times,serif" font-size="14.00">MelhorCentralService</text>
</g>
<!-- MelhorCentralService&#45;&gt;EstatisticaModule -->
<g id="edge8" class="edge">
<title>MelhorCentralService&#45;&gt;EstatisticaModule</title>
<path fill="none" stroke="black" d="M748,-84.82C748,-102.17 748,-125.8 748,-125.8 748,-125.8 1141.02,-125.8 1141.02,-125.8"/>
<polygon fill="black" stroke="black" points="1141.02,-129.3 1151.02,-125.8 1141.02,-122.3 1141.02,-129.3"/>
</g>
<!-- MelhorLiberoService -->
<g id="node10" class="node">
<title>MelhorLiberoService</title>
<ellipse fill="#fdb462" stroke="black" cx="539" cy="-66.8" rx="94.33" ry="18"/>
<text text-anchor="middle" x="539" y="-62.6" font-family="Times,serif" font-size="14.00">MelhorLiberoService</text>
</g>
<!-- MelhorLiberoService&#45;&gt;EstatisticaModule -->
<g id="edge9" class="edge">
<title>MelhorLiberoService&#45;&gt;EstatisticaModule</title>
<path fill="none" stroke="black" d="M539,-84.91C539,-104.14 539,-131.8 539,-131.8 539,-131.8 1141.33,-131.8 1141.33,-131.8"/>
<polygon fill="black" stroke="black" points="1141.33,-135.3 1151.33,-131.8 1141.33,-128.3 1141.33,-135.3"/>
</g>
<!-- MelhorOpostoService -->
<g id="node11" class="node">
<title>MelhorOpostoService</title>
<ellipse fill="#fdb462" stroke="black" cx="331" cy="-66.8" rx="96.14" ry="18"/>
<text text-anchor="middle" x="331" y="-62.6" font-family="Times,serif" font-size="14.00">MelhorOpostoService</text>
</g>
<!-- MelhorOpostoService&#45;&gt;EstatisticaModule -->
<g id="edge10" class="edge">
<title>MelhorOpostoService&#45;&gt;EstatisticaModule</title>
<path fill="none" stroke="black" d="M331,-85.08C331,-106.12 331,-137.8 331,-137.8 331,-137.8 1141.3,-137.8 1141.3,-137.8"/>
<polygon fill="black" stroke="black" points="1141.3,-141.3 1151.3,-137.8 1141.3,-134.3 1141.3,-141.3"/>
</g>
<!-- VotoDaGaleraService -->
<g id="node12" class="node">
<title>VotoDaGaleraService</title>
<ellipse fill="#fdb462" stroke="black" cx="120" cy="-66.8" rx="96.1" ry="18"/>
<text text-anchor="middle" x="120" y="-62.6" font-family="Times,serif" font-size="14.00">VotoDaGaleraService</text>
</g>
<!-- VotoDaGaleraService&#45;&gt;EstatisticaModule -->
<g id="edge11" class="edge">
<title>VotoDaGaleraService&#45;&gt;EstatisticaModule</title>
<path fill="none" stroke="black" d="M120,-84.89C120,-107.93 120,-144.8 120,-144.8 120,-144.8 1141.4,-144.8 1141.4,-144.8"/>
<polygon fill="black" stroke="black" points="1141.4,-148.3 1151.4,-144.8 1141.4,-141.3 1141.4,-148.3"/>
</g>
</g>
</svg>
