<?xml version="1.0" encoding="UTF-8" standalone="no"?>
<!DOCTYPE svg PUBLIC "-//W3C//DTD SVG 1.1//EN"
 "http://www.w3.org/Graphics/SVG/1.1/DTD/svg11.dtd">
<!-- Generated by graphviz version 3.0.0 (20220226.1711)
 -->
<!-- Title: dependencies Pages: 1 -->
<svg width="1029pt" height="174pt"
 viewBox="0.00 0.00 1029.00 173.80" xmlns="http://www.w3.org/2000/svg" xmlns:xlink="http://www.w3.org/1999/xlink">
<g id="graph0" class="graph" transform="scale(1 1) rotate(0) translate(4 169.8)">
<title>dependencies</title>
<polygon fill="white" stroke="transparent" points="-4,4 -4,-169.8 1025,-169.8 1025,4 -4,4"/>
<text text-anchor="middle" x="510.5" y="-8.2" font-family="sans-serif" font-size="14.00">dependencies</text>
<g id="clust1" class="cluster">
<title>cluster_EstatisticaModule</title>
<polygon fill="none" stroke="black" stroke-dasharray="1,5" points="8,-32.8 8,-157.8 1013,-157.8 1013,-32.8 8,-32.8"/>
</g>
<g id="clust3" class="cluster">
<title>cluster_EstatisticaModule_imports</title>
<polygon fill="none" stroke="black" points="682,-40.8 682,-92.8 1005,-92.8 1005,-40.8 682,-40.8"/>
</g>
<g id="clust6" class="cluster">
<title>cluster_EstatisticaModule_providers</title>
<polygon fill="none" stroke="black" points="16,-40.8 16,-92.8 674,-92.8 674,-40.8 16,-40.8"/>
</g>
<!-- CoreModule -->
<g id="node1" class="node">
<title>CoreModule</title>
<polygon fill="#8dd3c7" stroke="black" points="997.27,-84.8 994.27,-88.8 973.27,-88.8 970.27,-84.8 910.73,-84.8 910.73,-48.8 997.27,-48.8 997.27,-84.8"/>
<text text-anchor="middle" x="954" y="-62.6" font-family="Times,serif" font-size="14.00">CoreModule</text>
</g>
<!-- EstatisticaModule -->
<g id="node4" class="node">
<title>EstatisticaModule</title>
<polygon fill="#8dd3c7" stroke="black" points="705.59,-149.8 702.59,-153.8 681.59,-153.8 678.59,-149.8 588.41,-149.8 588.41,-113.8 705.59,-113.8 705.59,-149.8"/>
<text text-anchor="middle" x="647" y="-127.6" font-family="Times,serif" font-size="14.00">EstatisticaModule</text>
</g>
<!-- CoreModule&#45;&gt;EstatisticaModule -->
<g id="edge1" class="edge">
<title>CoreModule&#45;&gt;EstatisticaModule</title>
<path fill="none" stroke="black" d="M954,-85.08C954,-106.12 954,-137.8 954,-137.8 954,-137.8 715.83,-137.8 715.83,-137.8"/>
<polygon fill="black" stroke="black" points="715.83,-134.3 705.83,-137.8 715.83,-141.3 715.83,-134.3"/>
</g>
<!-- LigaModule -->
<g id="node2" class="node">
<title>LigaModule</title>
<polygon fill="#8dd3c7" stroke="black" points="892.71,-84.8 889.71,-88.8 868.71,-88.8 865.71,-84.8 807.29,-84.8 807.29,-48.8 892.71,-48.8 892.71,-84.8"/>
<text text-anchor="middle" x="850" y="-62.6" font-family="Times,serif" font-size="14.00">LigaModule</text>
</g>
<!-- LigaModule&#45;&gt;EstatisticaModule -->
<g id="edge2" class="edge">
<title>LigaModule&#45;&gt;EstatisticaModule</title>
<path fill="none" stroke="black" d="M850,-84.82C850,-102.17 850,-125.8 850,-125.8 850,-125.8 715.72,-125.8 715.72,-125.8"/>
<polygon fill="black" stroke="black" points="715.72,-122.3 705.72,-125.8 715.72,-129.3 715.72,-122.3"/>
</g>
<!-- PartidaModule -->
<g id="node3" class="node">
<title>PartidaModule</title>
<polygon fill="#8dd3c7" stroke="black" points="789.71,-84.8 786.71,-88.8 765.71,-88.8 762.71,-84.8 690.29,-84.8 690.29,-48.8 789.71,-48.8 789.71,-84.8"/>
<text text-anchor="middle" x="740" y="-62.6" font-family="Times,serif" font-size="14.00">PartidaModule</text>
</g>
<!-- PartidaModule&#45;&gt;EstatisticaModule -->
<g id="edge3" class="edge">
<title>PartidaModule&#45;&gt;EstatisticaModule</title>
<path fill="none" stroke="black" d="M697.97,-84.91C697.97,-84.91 697.97,-103.79 697.97,-103.79"/>
<polygon fill="black" stroke="black" points="694.47,-103.79 697.97,-113.79 701.47,-103.79 694.47,-103.79"/>
</g>
<!-- FundamentoAtletaService -->
<g id="node5" class="node">
<title>FundamentoAtletaService</title>
<ellipse fill="#fdb462" stroke="black" cx="554" cy="-66.8" rx="111.74" ry="18"/>
<text text-anchor="middle" x="554" y="-62.6" font-family="Times,serif" font-size="14.00">FundamentoAtletaService</text>
</g>
<!-- FundamentoAtletaService&#45;&gt;EstatisticaModule -->
<g id="edge4" class="edge">
<title>FundamentoAtletaService&#45;&gt;EstatisticaModule</title>
<path fill="none" stroke="black" d="M627.16,-80.58C627.16,-80.58 627.16,-103.35 627.16,-103.35"/>
<polygon fill="black" stroke="black" points="623.66,-103.35 627.16,-113.35 630.66,-103.35 623.66,-103.35"/>
</g>
<!-- MelhorCentralService -->
<g id="node6" class="node">
<title>MelhorCentralService</title>
<ellipse fill="#fdb462" stroke="black" cx="327" cy="-66.8" rx="96.69" ry="18"/>
<text text-anchor="middle" x="327" y="-62.6" font-family="Times,serif" font-size="14.00">MelhorCentralService</text>
</g>
<!-- MelhorCentralService&#45;&gt;EstatisticaModule -->
<g id="edge5" class="edge">
<title>MelhorCentralService&#45;&gt;EstatisticaModule</title>
<path fill="none" stroke="black" d="M327,-84.82C327,-102.17 327,-125.8 327,-125.8 327,-125.8 578.31,-125.8 578.31,-125.8"/>
<polygon fill="black" stroke="black" points="578.31,-129.3 588.31,-125.8 578.31,-122.3 578.31,-129.3"/>
</g>
<!-- MelhorLiberoService -->
<g id="node7" class="node">
<title>MelhorLiberoService</title>
<ellipse fill="#fdb462" stroke="black" cx="118" cy="-66.8" rx="94.33" ry="18"/>
<text text-anchor="middle" x="118" y="-62.6" font-family="Times,serif" font-size="14.00">MelhorLiberoService</text>
</g>
<!-- MelhorLiberoService&#45;&gt;EstatisticaModule -->
<g id="edge6" class="edge">
<title>MelhorLiberoService&#45;&gt;EstatisticaModule</title>
<path fill="none" stroke="black" d="M118,-85.08C118,-106.12 118,-137.8 118,-137.8 118,-137.8 578.37,-137.8 578.37,-137.8"/>
<polygon fill="black" stroke="black" points="578.37,-141.3 588.37,-137.8 578.37,-134.3 578.37,-141.3"/>
</g>
</g>
</svg>
