<?xml version="1.0" encoding="UTF-8" standalone="no"?>
<!DOCTYPE svg PUBLIC "-//W3C//DTD SVG 1.1//EN"
 "http://www.w3.org/Graphics/SVG/1.1/DTD/svg11.dtd">
<!-- Generated by graphviz version 5.0.0 (20220707.1540)
 -->
<!-- Title: dependencies Pages: 1 -->
<svg width="1895pt" height="174pt"
 viewBox="0.00 0.00 1895.00 173.80" xmlns="http://www.w3.org/2000/svg" xmlns:xlink="http://www.w3.org/1999/xlink">
<g id="graph0" class="graph" transform="scale(1 1) rotate(0) translate(4 169.8)">
<title>dependencies</title>
<polygon fill="white" stroke="transparent" points="-4,4 -4,-169.8 1891,-169.8 1891,4 -4,4"/>
<text text-anchor="middle" x="943.5" y="-8.2" font-family="sans-serif" font-size="14.00">dependencies</text>
<g id="clust1" class="cluster">
<title>cluster_EstatisticaModule</title>
<polygon fill="none" stroke="black" stroke-dasharray="1,5" points="8,-32.8 8,-157.8 1879,-157.8 1879,-32.8 8,-32.8"/>
</g>
<g id="clust6" class="cluster">
<title>cluster_EstatisticaModule_providers</title>
<polygon fill="none" stroke="black" points="564,-40.8 564,-92.8 1871,-92.8 1871,-40.8 564,-40.8"/>
</g>
<g id="clust3" class="cluster">
<title>cluster_EstatisticaModule_imports</title>
<polygon fill="none" stroke="black" points="16,-40.8 16,-92.8 556,-92.8 556,-40.8 16,-40.8"/>
</g>
<!-- CoreModule -->
<g id="node1" class="node">
<title>CoreModule</title>
<polygon fill="#8dd3c7" stroke="black" points="548.27,-84.8 545.27,-88.8 524.27,-88.8 521.27,-84.8 461.73,-84.8 461.73,-48.8 548.27,-48.8 548.27,-84.8"/>
<text text-anchor="middle" x="505" y="-62.6" font-family="Times,serif" font-size="14.00">CoreModule</text>
</g>
<!-- EstatisticaModule -->
<g id="node6" class="node">
<title>EstatisticaModule</title>
<polygon fill="#8dd3c7" stroke="black" points="726.59,-149.8 723.59,-153.8 702.59,-153.8 699.59,-149.8 609.41,-149.8 609.41,-113.8 726.59,-113.8 726.59,-149.8"/>
<text text-anchor="middle" x="668" y="-127.6" font-family="Times,serif" font-size="14.00">EstatisticaModule</text>
</g>
<!-- CoreModule&#45;&gt;EstatisticaModule -->
<g id="edge1" class="edge">
<title>CoreModule&#45;&gt;EstatisticaModule</title>
<path fill="none" stroke="black" d="M505,-85.04C505,-100.37 505,-119.8 505,-119.8 505,-119.8 599.15,-119.8 599.15,-119.8"/>
<polygon fill="black" stroke="black" points="599.15,-123.3 609.15,-119.8 599.15,-116.3 599.15,-123.3"/>
</g>
<!-- LigaModule -->
<g id="node2" class="node">
<title>LigaModule</title>
<polygon fill="#8dd3c7" stroke="black" points="443.71,-84.8 440.71,-88.8 419.71,-88.8 416.71,-84.8 358.29,-84.8 358.29,-48.8 443.71,-48.8 443.71,-84.8"/>
<text text-anchor="middle" x="401" y="-62.6" font-family="Times,serif" font-size="14.00">LigaModule</text>
</g>
<!-- LigaModule&#45;&gt;EstatisticaModule -->
<g id="edge2" class="edge">
<title>LigaModule&#45;&gt;EstatisticaModule</title>
<path fill="none" stroke="black" d="M401,-84.82C401,-102.17 401,-125.8 401,-125.8 401,-125.8 599.41,-125.8 599.41,-125.8"/>
<polygon fill="black" stroke="black" points="599.41,-129.3 609.41,-125.8 599.41,-122.3 599.41,-129.3"/>
</g>
<!-- PartidaModule -->
<g id="node3" class="node">
<title>PartidaModule</title>
<polygon fill="#8dd3c7" stroke="black" points="340.71,-84.8 337.71,-88.8 316.71,-88.8 313.71,-84.8 241.29,-84.8 241.29,-48.8 340.71,-48.8 340.71,-84.8"/>
<text text-anchor="middle" x="291" y="-62.6" font-family="Times,serif" font-size="14.00">PartidaModule</text>
</g>
<!-- PartidaModule&#45;&gt;EstatisticaModule -->
<g id="edge3" class="edge">
<title>PartidaModule&#45;&gt;EstatisticaModule</title>
<path fill="none" stroke="black" d="M291,-84.91C291,-104.14 291,-131.8 291,-131.8 291,-131.8 599.09,-131.8 599.09,-131.8"/>
<polygon fill="black" stroke="black" points="599.09,-135.3 609.09,-131.8 599.09,-128.3 599.09,-135.3"/>
</g>
<!-- PessoaModule -->
<g id="node4" class="node">
<title>PessoaModule</title>
<polygon fill="#8dd3c7" stroke="black" points="223.66,-84.8 220.66,-88.8 199.66,-88.8 196.66,-84.8 126.34,-84.8 126.34,-48.8 223.66,-48.8 223.66,-84.8"/>
<text text-anchor="middle" x="175" y="-62.6" font-family="Times,serif" font-size="14.00">PessoaModule</text>
</g>
<!-- PessoaModule&#45;&gt;EstatisticaModule -->
<g id="edge4" class="edge">
<title>PessoaModule&#45;&gt;EstatisticaModule</title>
<path fill="none" stroke="black" d="M175,-85.08C175,-106.12 175,-137.8 175,-137.8 175,-137.8 599.02,-137.8 599.02,-137.8"/>
<polygon fill="black" stroke="black" points="599.02,-141.3 609.02,-137.8 599.02,-134.3 599.02,-141.3"/>
</g>
<!-- SmsModule -->
<g id="node5" class="node">
<title>SmsModule</title>
<polygon fill="#8dd3c7" stroke="black" points="107.68,-84.8 104.68,-88.8 83.68,-88.8 80.68,-84.8 24.32,-84.8 24.32,-48.8 107.68,-48.8 107.68,-84.8"/>
<text text-anchor="middle" x="66" y="-62.6" font-family="Times,serif" font-size="14.00">SmsModule</text>
</g>
<!-- SmsModule&#45;&gt;EstatisticaModule -->
<g id="edge5" class="edge">
<title>SmsModule&#45;&gt;EstatisticaModule</title>
<path fill="none" stroke="black" d="M66,-84.89C66,-107.93 66,-144.8 66,-144.8 66,-144.8 599.18,-144.8 599.18,-144.8"/>
<polygon fill="black" stroke="black" points="599.18,-148.3 609.18,-144.8 599.18,-141.3 599.18,-148.3"/>
</g>
<!-- CraqueDaGaleraService -->
<g id="node7" class="node">
<title>CraqueDaGaleraService</title>
<ellipse fill="#fdb462" stroke="black" cx="1758" cy="-66.8" rx="104.74" ry="18"/>
<text text-anchor="middle" x="1758" y="-62.6" font-family="Times,serif" font-size="14.00">CraqueDaGaleraService</text>
</g>
<!-- CraqueDaGaleraService&#45;&gt;EstatisticaModule -->
<g id="edge6" class="edge">
<title>CraqueDaGaleraService&#45;&gt;EstatisticaModule</title>
<path fill="none" stroke="black" d="M1758,-84.89C1758,-107.93 1758,-144.8 1758,-144.8 1758,-144.8 736.6,-144.8 736.6,-144.8"/>
<polygon fill="black" stroke="black" points="736.6,-141.3 726.6,-144.8 736.6,-148.3 736.6,-141.3"/>
</g>
<!-- FundamentoAtletaService -->
<g id="node8" class="node">
<title>FundamentoAtletaService</title>
<ellipse fill="#fdb462" stroke="black" cx="1523" cy="-66.8" rx="111.74" ry="18"/>
<text text-anchor="middle" x="1523" y="-62.6" font-family="Times,serif" font-size="14.00">FundamentoAtletaService</text>
</g>
<!-- FundamentoAtletaService&#45;&gt;EstatisticaModule -->
<g id="edge7" class="edge">
<title>FundamentoAtletaService&#45;&gt;EstatisticaModule</title>
<path fill="none" stroke="black" d="M1523,-85.08C1523,-106.12 1523,-137.8 1523,-137.8 1523,-137.8 736.77,-137.8 736.77,-137.8"/>
<polygon fill="black" stroke="black" points="736.77,-134.3 726.77,-137.8 736.77,-141.3 736.77,-134.3"/>
</g>
<!-- MelhorCentralService -->
<g id="node9" class="node">
<title>MelhorCentralService</title>
<ellipse fill="#fdb462" stroke="black" cx="1296" cy="-66.8" rx="96.69" ry="18"/>
<text text-anchor="middle" x="1296" y="-62.6" font-family="Times,serif" font-size="14.00">MelhorCentralService</text>
</g>
<!-- MelhorCentralService&#45;&gt;EstatisticaModule -->
<g id="edge8" class="edge">
<title>MelhorCentralService&#45;&gt;EstatisticaModule</title>
<path fill="none" stroke="black" d="M1296,-84.91C1296,-104.14 1296,-131.8 1296,-131.8 1296,-131.8 736.8,-131.8 736.8,-131.8"/>
<polygon fill="black" stroke="black" points="736.8,-128.3 726.8,-131.8 736.8,-135.3 736.8,-128.3"/>
</g>
<!-- MelhorLiberoService -->
<g id="node10" class="node">
<title>MelhorLiberoService</title>
<ellipse fill="#fdb462" stroke="black" cx="1087" cy="-66.8" rx="94.33" ry="18"/>
<text text-anchor="middle" x="1087" y="-62.6" font-family="Times,serif" font-size="14.00">MelhorLiberoService</text>
</g>
<!-- MelhorLiberoService&#45;&gt;EstatisticaModule -->
<g id="edge9" class="edge">
<title>MelhorLiberoService&#45;&gt;EstatisticaModule</title>
<path fill="none" stroke="black" d="M1087,-84.82C1087,-102.17 1087,-125.8 1087,-125.8 1087,-125.8 736.7,-125.8 736.7,-125.8"/>
<polygon fill="black" stroke="black" points="736.7,-122.3 726.7,-125.8 736.7,-129.3 736.7,-122.3"/>
</g>
<!-- MelhorOpostoService -->
<g id="node11" class="node">
<title>MelhorOpostoService</title>
<ellipse fill="#fdb462" stroke="black" cx="879" cy="-66.8" rx="96.14" ry="18"/>
<text text-anchor="middle" x="879" y="-62.6" font-family="Times,serif" font-size="14.00">MelhorOpostoService</text>
</g>
<!-- MelhorOpostoService&#45;&gt;EstatisticaModule -->
<g id="edge10" class="edge">
<title>MelhorOpostoService&#45;&gt;EstatisticaModule</title>
<path fill="none" stroke="black" d="M879,-85.04C879,-100.37 879,-119.8 879,-119.8 879,-119.8 736.78,-119.8 736.78,-119.8"/>
<polygon fill="black" stroke="black" points="736.78,-116.3 726.78,-119.8 736.78,-123.3 736.78,-116.3"/>
</g>
<!-- VotoDaGaleraService -->
<g id="node12" class="node">
<title>VotoDaGaleraService</title>
<ellipse fill="#fdb462" stroke="black" cx="668" cy="-66.8" rx="96.1" ry="18"/>
<text text-anchor="middle" x="668" y="-62.6" font-family="Times,serif" font-size="14.00">VotoDaGaleraService</text>
</g>
<!-- VotoDaGaleraService&#45;&gt;EstatisticaModule -->
<g id="edge11" class="edge">
<title>VotoDaGaleraService&#45;&gt;EstatisticaModule</title>
<path fill="none" stroke="black" d="M668,-84.91C668,-84.91 668,-103.79 668,-103.79"/>
<polygon fill="black" stroke="black" points="664.5,-103.79 668,-113.79 671.5,-103.79 664.5,-103.79"/>
</g>
</g>
</svg>
