<?xml version="1.0" encoding="UTF-8" standalone="no"?>
<!DOCTYPE svg PUBLIC "-//W3C//DTD SVG 1.1//EN"
 "http://www.w3.org/Graphics/SVG/1.1/DTD/svg11.dtd">
<!-- Generated by graphviz version 3.0.0 (20220226.1711)
 -->
<!-- Title: dependencies Pages: 1 -->
<svg width="1884pt" height="174pt"
 viewBox="0.00 0.00 1884.00 173.80" xmlns="http://www.w3.org/2000/svg" xmlns:xlink="http://www.w3.org/1999/xlink">
<g id="graph0" class="graph" transform="scale(1 1) rotate(0) translate(4 169.8)">
<title>dependencies</title>
<polygon fill="white" stroke="transparent" points="-4,4 -4,-169.8 1880,-169.8 1880,4 -4,4"/>
<text text-anchor="middle" x="938" y="-8.2" font-family="sans-serif" font-size="14.00">dependencies</text>
<g id="clust1" class="cluster">
<title>cluster_EstatisticaModule</title>
<polygon fill="none" stroke="black" stroke-dasharray="1,5" points="8,-32.8 8,-157.8 1868,-157.8 1868,-32.8 8,-32.8"/>
</g>
<g id="clust3" class="cluster">
<title>cluster_EstatisticaModule_imports</title>
<polygon fill="none" stroke="black" points="1320,-40.8 1320,-92.8 1860,-92.8 1860,-40.8 1320,-40.8"/>
</g>
<g id="clust6" class="cluster">
<title>cluster_EstatisticaModule_providers</title>
<polygon fill="none" stroke="black" points="16,-40.8 16,-92.8 1312,-92.8 1312,-40.8 16,-40.8"/>
</g>
<!-- CoreModule -->
<g id="node1" class="node">
<title>CoreModule</title>
<polygon fill="#8dd3c7" stroke="black" points="1852.27,-84.8 1849.27,-88.8 1828.27,-88.8 1825.27,-84.8 1765.73,-84.8 1765.73,-48.8 1852.27,-48.8 1852.27,-84.8"/>
<text text-anchor="middle" x="1809" y="-62.6" font-family="Times,serif" font-size="14.00">CoreModule</text>
</g>
<!-- EstatisticaModule -->
<g id="node6" class="node">
<title>EstatisticaModule</title>
<polygon fill="#8dd3c7" stroke="black" points="1257.59,-149.8 1254.59,-153.8 1233.59,-153.8 1230.59,-149.8 1140.41,-149.8 1140.41,-113.8 1257.59,-113.8 1257.59,-149.8"/>
<text text-anchor="middle" x="1199" y="-127.6" font-family="Times,serif" font-size="14.00">EstatisticaModule</text>
</g>
<!-- CoreModule&#45;&gt;EstatisticaModule -->
<g id="edge1" class="edge">
<title>CoreModule&#45;&gt;EstatisticaModule</title>
<path fill="none" stroke="black" d="M1809,-84.89C1809,-107.93 1809,-144.8 1809,-144.8 1809,-144.8 1267.77,-144.8 1267.77,-144.8"/>
<polygon fill="black" stroke="black" points="1267.77,-141.3 1257.77,-144.8 1267.77,-148.3 1267.77,-141.3"/>
</g>
<!-- LigaModule -->
<g id="node2" class="node">
<title>LigaModule</title>
<polygon fill="#8dd3c7" stroke="black" points="1747.71,-84.8 1744.71,-88.8 1723.71,-88.8 1720.71,-84.8 1662.29,-84.8 1662.29,-48.8 1747.71,-48.8 1747.71,-84.8"/>
<text text-anchor="middle" x="1705" y="-62.6" font-family="Times,serif" font-size="14.00">LigaModule</text>
</g>
<!-- LigaModule&#45;&gt;EstatisticaModule -->
<g id="edge2" class="edge">
<title>LigaModule&#45;&gt;EstatisticaModule</title>
<path fill="none" stroke="black" d="M1705,-85.08C1705,-106.12 1705,-137.8 1705,-137.8 1705,-137.8 1268.03,-137.8 1268.03,-137.8"/>
<polygon fill="black" stroke="black" points="1268.03,-134.3 1258.03,-137.8 1268.03,-141.3 1268.03,-134.3"/>
</g>
<!-- PartidaModule -->
<g id="node3" class="node">
<title>PartidaModule</title>
<polygon fill="#8dd3c7" stroke="black" points="1644.71,-84.8 1641.71,-88.8 1620.71,-88.8 1617.71,-84.8 1545.29,-84.8 1545.29,-48.8 1644.71,-48.8 1644.71,-84.8"/>
<text text-anchor="middle" x="1595" y="-62.6" font-family="Times,serif" font-size="14.00">PartidaModule</text>
</g>
<!-- PartidaModule&#45;&gt;EstatisticaModule -->
<g id="edge3" class="edge">
<title>PartidaModule&#45;&gt;EstatisticaModule</title>
<path fill="none" stroke="black" d="M1595,-84.91C1595,-104.14 1595,-131.8 1595,-131.8 1595,-131.8 1267.86,-131.8 1267.86,-131.8"/>
<polygon fill="black" stroke="black" points="1267.86,-128.3 1257.86,-131.8 1267.86,-135.3 1267.86,-128.3"/>
</g>
<!-- PessoaModule -->
<g id="node4" class="node">
<title>PessoaModule</title>
<polygon fill="#8dd3c7" stroke="black" points="1527.66,-84.8 1524.66,-88.8 1503.66,-88.8 1500.66,-84.8 1430.34,-84.8 1430.34,-48.8 1527.66,-48.8 1527.66,-84.8"/>
<text text-anchor="middle" x="1479" y="-62.6" font-family="Times,serif" font-size="14.00">PessoaModule</text>
</g>
<!-- PessoaModule&#45;&gt;EstatisticaModule -->
<g id="edge4" class="edge">
<title>PessoaModule&#45;&gt;EstatisticaModule</title>
<path fill="none" stroke="black" d="M1479,-84.82C1479,-102.17 1479,-125.8 1479,-125.8 1479,-125.8 1267.7,-125.8 1267.7,-125.8"/>
<polygon fill="black" stroke="black" points="1267.7,-122.3 1257.7,-125.8 1267.7,-129.3 1267.7,-122.3"/>
</g>
<!-- SmsModule -->
<g id="node5" class="node">
<title>SmsModule</title>
<polygon fill="#8dd3c7" stroke="black" points="1411.68,-84.8 1408.68,-88.8 1387.68,-88.8 1384.68,-84.8 1328.32,-84.8 1328.32,-48.8 1411.68,-48.8 1411.68,-84.8"/>
<text text-anchor="middle" x="1370" y="-62.6" font-family="Times,serif" font-size="14.00">SmsModule</text>
</g>
<!-- SmsModule&#45;&gt;EstatisticaModule -->
<g id="edge5" class="edge">
<title>SmsModule&#45;&gt;EstatisticaModule</title>
<path fill="none" stroke="black" d="M1370,-85.04C1370,-100.37 1370,-119.8 1370,-119.8 1370,-119.8 1267.85,-119.8 1267.85,-119.8"/>
<polygon fill="black" stroke="black" points="1267.85,-116.3 1257.85,-119.8 1267.85,-123.3 1267.85,-116.3"/>
</g>
<!-- CraqueDaGaleraService -->
<g id="node7" class="node">
<title>CraqueDaGaleraService</title>
<ellipse fill="#fdb462" stroke="black" cx="1199" cy="-66.8" rx="104.74" ry="18"/>
<text text-anchor="middle" x="1199" y="-62.6" font-family="Times,serif" font-size="14.00">CraqueDaGaleraService</text>
</g>
<!-- CraqueDaGaleraService&#45;&gt;EstatisticaModule -->
<g id="edge6" class="edge">
<title>CraqueDaGaleraService&#45;&gt;EstatisticaModule</title>
<path fill="none" stroke="black" d="M1199,-84.91C1199,-84.91 1199,-103.79 1199,-103.79"/>
<polygon fill="black" stroke="black" points="1195.5,-103.79 1199,-113.79 1202.5,-103.79 1195.5,-103.79"/>
</g>
<!-- FundamentoAtletaService -->
<g id="node8" class="node">
<title>FundamentoAtletaService</title>
<ellipse fill="#fdb462" stroke="black" cx="964" cy="-66.8" rx="111.74" ry="18"/>
<text text-anchor="middle" x="964" y="-62.6" font-family="Times,serif" font-size="14.00">FundamentoAtletaService</text>
</g>
<!-- FundamentoAtletaService&#45;&gt;EstatisticaModule -->
<g id="edge7" class="edge">
<title>FundamentoAtletaService&#45;&gt;EstatisticaModule</title>
<path fill="none" stroke="black" d="M964,-85.04C964,-100.37 964,-119.8 964,-119.8 964,-119.8 1130.31,-119.8 1130.31,-119.8"/>
<polygon fill="black" stroke="black" points="1130.31,-123.3 1140.31,-119.8 1130.31,-116.3 1130.31,-123.3"/>
</g>
<!-- MelhorCentralService -->
<g id="node9" class="node">
<title>MelhorCentralService</title>
<ellipse fill="#fdb462" stroke="black" cx="737" cy="-66.8" rx="96.69" ry="18"/>
<text text-anchor="middle" x="737" y="-62.6" font-family="Times,serif" font-size="14.00">MelhorCentralService</text>
</g>
<!-- MelhorCentralService&#45;&gt;EstatisticaModule -->
<g id="edge8" class="edge">
<title>MelhorCentralService&#45;&gt;EstatisticaModule</title>
<path fill="none" stroke="black" d="M737,-84.82C737,-102.17 737,-125.8 737,-125.8 737,-125.8 1130.02,-125.8 1130.02,-125.8"/>
<polygon fill="black" stroke="black" points="1130.02,-129.3 1140.02,-125.8 1130.02,-122.3 1130.02,-129.3"/>
</g>
<!-- MelhorLiberoService -->
<g id="node10" class="node">
<title>MelhorLiberoService</title>
<ellipse fill="#fdb462" stroke="black" cx="528" cy="-66.8" rx="94.33" ry="18"/>
<text text-anchor="middle" x="528" y="-62.6" font-family="Times,serif" font-size="14.00">MelhorLiberoService</text>
</g>
<!-- MelhorLiberoService&#45;&gt;EstatisticaModule -->
<g id="edge9" class="edge">
<title>MelhorLiberoService&#45;&gt;EstatisticaModule</title>
<path fill="none" stroke="black" d="M528,-84.91C528,-104.14 528,-131.8 528,-131.8 528,-131.8 1130.33,-131.8 1130.33,-131.8"/>
<polygon fill="black" stroke="black" points="1130.33,-135.3 1140.33,-131.8 1130.33,-128.3 1130.33,-135.3"/>
</g>
<!-- MelhorPontaService -->
<g id="node11" class="node">
<title>MelhorPontaService</title>
<ellipse fill="#fdb462" stroke="black" cx="325" cy="-66.8" rx="90.34" ry="18"/>
<text text-anchor="middle" x="325" y="-62.6" font-family="Times,serif" font-size="14.00">MelhorPontaService</text>
</g>
<!-- MelhorPontaService&#45;&gt;EstatisticaModule -->
<g id="edge10" class="edge">
<title>MelhorPontaService&#45;&gt;EstatisticaModule</title>
<path fill="none" stroke="black" d="M325,-85.08C325,-106.12 325,-137.8 325,-137.8 325,-137.8 1130.3,-137.8 1130.3,-137.8"/>
<polygon fill="black" stroke="black" points="1130.3,-141.3 1140.3,-137.8 1130.3,-134.3 1130.3,-141.3"/>
</g>
<!-- VotoDaGaleraService -->
<g id="node12" class="node">
<title>VotoDaGaleraService</title>
<ellipse fill="#fdb462" stroke="black" cx="120" cy="-66.8" rx="96.1" ry="18"/>
<text text-anchor="middle" x="120" y="-62.6" font-family="Times,serif" font-size="14.00">VotoDaGaleraService</text>
</g>
<!-- VotoDaGaleraService&#45;&gt;EstatisticaModule -->
<g id="edge11" class="edge">
<title>VotoDaGaleraService&#45;&gt;EstatisticaModule</title>
<path fill="none" stroke="black" d="M120,-84.89C120,-107.93 120,-144.8 120,-144.8 120,-144.8 1130.22,-144.8 1130.22,-144.8"/>
<polygon fill="black" stroke="black" points="1130.22,-148.3 1140.22,-144.8 1130.22,-141.3 1130.22,-148.3"/>
</g>
</g>
</svg>
