<?xml version="1.0" encoding="UTF-8" standalone="no"?>
<!DOCTYPE svg PUBLIC "-//W3C//DTD SVG 1.1//EN"
 "http://www.w3.org/Graphics/SVG/1.1/DTD/svg11.dtd">
<!-- Generated by graphviz version 5.0.0 (20220707.1540)
 -->
<!-- Title: dependencies Pages: 1 -->
<svg width="448pt" height="247pt"
 viewBox="0.00 0.00 448.00 246.80" xmlns="http://www.w3.org/2000/svg" xmlns:xlink="http://www.w3.org/1999/xlink">
<g id="graph0" class="graph" transform="scale(1 1) rotate(0) translate(4 242.8)">
<title>dependencies</title>
<polygon fill="white" stroke="transparent" points="-4,4 -4,-242.8 444,-242.8 444,4 -4,4"/>
<text text-anchor="middle" x="220" y="-8.2" font-family="sans-serif" font-size="14.00">dependencies</text>
<g id="clust1" class="cluster">
<title>cluster_CoreModule</title>
<polygon fill="none" stroke="black" stroke-dasharray="1,5" points="8,-32.8 8,-230.8 432,-230.8 432,-32.8 8,-32.8"/>
</g>
<g id="clust4" class="cluster">
<title>cluster_CoreModule_exports</title>
<polygon fill="none" stroke="black" points="45,-170.8 45,-222.8 357,-222.8 357,-170.8 45,-170.8"/>
</g>
<g id="clust6" class="cluster">
<title>cluster_CoreModule_providers</title>
<polygon fill="none" stroke="black" points="16,-40.8 16,-92.8 424,-92.8 424,-40.8 16,-40.8"/>
</g>
<!-- TypeORMFilterService  -->
<g id="node1" class="node">
<title>TypeORMFilterService </title>
<polygon fill="#fb8072" stroke="black" points="349.47,-214.8 196.53,-214.8 196.53,-178.8 349.47,-178.8 349.47,-214.8"/>
<text text-anchor="middle" x="273" y="-192.6" font-family="Times,serif" font-size="14.00">TypeORMFilterService </text>
</g>
<!-- VerificaUrlService  -->
<g id="node2" class="node">
<title>VerificaUrlService </title>
<polygon fill="#fb8072" stroke="black" points="179,-214.8 53,-214.8 53,-178.8 179,-178.8 179,-214.8"/>
<text text-anchor="middle" x="116" y="-192.6" font-family="Times,serif" font-size="14.00">VerificaUrlService </text>
</g>
<!-- CoreModule -->
<g id="node3" class="node">
<title>CoreModule</title>
<polygon fill="#8dd3c7" stroke="black" points="188.27,-149.8 185.27,-153.8 164.27,-153.8 161.27,-149.8 101.73,-149.8 101.73,-113.8 188.27,-113.8 188.27,-149.8"/>
<text text-anchor="middle" x="145" y="-127.6" font-family="Times,serif" font-size="14.00">CoreModule</text>
</g>
<!-- CoreModule&#45;&gt;TypeORMFilterService  -->
<g id="edge1" class="edge">
<title>CoreModule&#45;&gt;TypeORMFilterService </title>
<path fill="none" stroke="black" stroke-dasharray="5,2" d="M183.69,-149.91C183.69,-169.14 183.69,-196.8 183.69,-196.8 183.69,-196.8 186.49,-196.8 186.49,-196.8"/>
<polygon fill="black" stroke="black" points="186.49,-200.3 196.49,-196.8 186.49,-193.3 186.49,-200.3"/>
</g>
<!-- CoreModule&#45;&gt;VerificaUrlService  -->
<g id="edge2" class="edge">
<title>CoreModule&#45;&gt;VerificaUrlService </title>
<path fill="none" stroke="black" stroke-dasharray="5,2" d="M140.31,-149.91C140.31,-149.91 140.31,-168.79 140.31,-168.79"/>
<polygon fill="black" stroke="black" points="136.81,-168.79 140.31,-178.79 143.81,-168.79 136.81,-168.79"/>
</g>
<!-- TypeORMFilterService -->
<g id="node4" class="node">
<title>TypeORMFilterService</title>
<ellipse fill="#fdb462" stroke="black" cx="313" cy="-66.8" rx="102.52" ry="18"/>
<text text-anchor="middle" x="313" y="-62.6" font-family="Times,serif" font-size="14.00">TypeORMFilterService</text>
</g>
<!-- TypeORMFilterService&#45;&gt;CoreModule -->
<g id="edge3" class="edge">
<title>TypeORMFilterService&#45;&gt;CoreModule</title>
<path fill="none" stroke="black" d="M279.74,-83.88C279.74,-103.14 279.74,-131.8 279.74,-131.8 279.74,-131.8 198.37,-131.8 198.37,-131.8"/>
<polygon fill="black" stroke="black" points="198.37,-128.3 188.37,-131.8 198.37,-135.3 198.37,-128.3"/>
</g>
<!-- VerificaUrlService -->
<g id="node5" class="node">
<title>VerificaUrlService</title>
<ellipse fill="#fdb462" stroke="black" cx="108" cy="-66.8" rx="84.49" ry="18"/>
<text text-anchor="middle" x="108" y="-62.6" font-family="Times,serif" font-size="14.00">VerificaUrlService</text>
</g>
<!-- VerificaUrlService&#45;&gt;CoreModule -->
<g id="edge4" class="edge">
<title>VerificaUrlService&#45;&gt;CoreModule</title>
<path fill="none" stroke="black" d="M145,-83.2C145,-83.2 145,-103.34 145,-103.34"/>
<polygon fill="black" stroke="black" points="141.5,-103.34 145,-113.34 148.5,-103.34 141.5,-103.34"/>
</g>
</g>
</svg>
