<?xml version="1.0" encoding="UTF-8" standalone="no"?>
<!DOCTYPE svg PUBLIC "-//W3C//DTD SVG 1.1//EN"
 "http://www.w3.org/Graphics/SVG/1.1/DTD/svg11.dtd">
<!-- Generated by graphviz version 3.0.0 (20220226.1711)
 -->
<!-- Title: dependencies Pages: 1 -->
<svg width="1925pt" height="532pt"
 viewBox="0.00 0.00 1925.00 531.80" xmlns="http://www.w3.org/2000/svg" xmlns:xlink="http://www.w3.org/1999/xlink">
<g id="graph0" class="graph" transform="scale(1 1) rotate(0) translate(4 527.8)">
<title>dependencies</title>
<polygon fill="white" stroke="transparent" points="-4,4 -4,-527.8 1921,-527.8 1921,4 -4,4"/>
<text text-anchor="middle" x="958.5" y="-8.2" font-family="sans-serif" font-size="14.00">dependencies</text>
<g id="clust1" class="cluster">
<title>cluster_AppModule</title>
<polygon fill="none" stroke="black" stroke-dasharray="1,5" points="308,-32.8 308,-515.8 530,-515.8 530,-32.8 308,-32.8"/>
</g>
<g id="clust3" class="cluster">
<title>cluster_AppModule_imports</title>
<polygon fill="none" stroke="black" points="316,-40.8 316,-450.8 496,-450.8 496,-40.8 316,-40.8"/>
</g>
<g id="clust7" class="cluster">
<title>cluster_CoreModule</title>
<polygon fill="none" stroke="black" stroke-dasharray="1,5" points="538,-97.8 538,-165.8 1282,-165.8 1282,-97.8 538,-97.8"/>
</g>
<g id="clust10" class="cluster">
<title>cluster_CoreModule_exports</title>
<polygon fill="none" stroke="black" points="962,-105.8 962,-157.8 1274,-157.8 1274,-105.8 962,-105.8"/>
</g>
<g id="clust12" class="cluster">
<title>cluster_CoreModule_providers</title>
<polygon fill="none" stroke="black" points="546,-105.8 546,-157.8 954,-157.8 954,-105.8 546,-105.8"/>
</g>
<g id="clust13" class="cluster">
<title>cluster_EquipeModule</title>
<polygon fill="none" stroke="black" stroke-dasharray="1,5" points="8,-249.8 8,-317.8 300,-317.8 300,-249.8 8,-249.8"/>
</g>
<g id="clust16" class="cluster">
<title>cluster_EquipeModule_exports</title>
<polygon fill="none" stroke="black" points="174,-257.8 174,-309.8 292,-309.8 292,-257.8 174,-257.8"/>
</g>
<g id="clust18" class="cluster">
<title>cluster_EquipeModule_providers</title>
<polygon fill="none" stroke="black" points="16,-257.8 16,-309.8 166,-309.8 166,-257.8 16,-257.8"/>
</g>
<g id="clust19" class="cluster">
<title>cluster_GinasioModule</title>
<polygon fill="none" stroke="black" stroke-dasharray="1,5" points="538,-173.8 538,-241.8 840,-241.8 840,-173.8 538,-173.8"/>
</g>
<g id="clust22" class="cluster">
<title>cluster_GinasioModule_exports</title>
<polygon fill="none" stroke="black" points="710,-181.8 710,-233.8 832,-233.8 832,-181.8 710,-181.8"/>
</g>
<g id="clust24" class="cluster">
<title>cluster_GinasioModule_providers</title>
<polygon fill="none" stroke="black" points="546,-181.8 546,-233.8 702,-233.8 702,-181.8 546,-181.8"/>
</g>
<g id="clust25" class="cluster">
<title>cluster_LigaModule</title>
<polygon fill="none" stroke="black" stroke-dasharray="1,5" points="848,-173.8 848,-241.8 1909,-241.8 1909,-173.8 848,-173.8"/>
</g>
<g id="clust28" class="cluster">
<title>cluster_LigaModule_exports</title>
<polygon fill="none" stroke="black" points="1797,-181.8 1797,-233.8 1901,-233.8 1901,-181.8 1797,-181.8"/>
</g>
<g id="clust30" class="cluster">
<title>cluster_LigaModule_providers</title>
<polygon fill="none" stroke="black" points="856,-181.8 856,-233.8 1789,-233.8 1789,-181.8 856,-181.8"/>
</g>
<g id="clust31" class="cluster">
<title>cluster_PartidaModule</title>
<polygon fill="none" stroke="black" stroke-dasharray="1,5" points="538,-325.8 538,-393.8 704,-393.8 704,-325.8 538,-325.8"/>
</g>
<g id="clust36" class="cluster">
<title>cluster_PartidaModule_providers</title>
<polygon fill="none" stroke="black" points="546,-333.8 546,-385.8 696,-385.8 696,-333.8 546,-333.8"/>
</g>
<g id="clust37" class="cluster">
<title>cluster_PessoaModule</title>
<polygon fill="none" stroke="black" stroke-dasharray="1,5" points="538,-249.8 538,-317.8 1720,-317.8 1720,-249.8 538,-249.8"/>
</g>
<g id="clust40" class="cluster">
<title>cluster_PessoaModule_exports</title>
<polygon fill="none" stroke="black" points="1347,-257.8 1347,-309.8 1712,-309.8 1712,-257.8 1347,-257.8"/>
</g>
<g id="clust42" class="cluster">
<title>cluster_PessoaModule_providers</title>
<polygon fill="none" stroke="black" points="546,-257.8 546,-309.8 1339,-309.8 1339,-257.8 546,-257.8"/>
</g>
<!-- CoreModule -->
<g id="node1" class="node">
<title>CoreModule</title>
<polygon fill="#8dd3c7" stroke="black" points="488.27,-84.8 485.27,-88.8 464.27,-88.8 461.27,-84.8 401.73,-84.8 401.73,-48.8 488.27,-48.8 488.27,-84.8"/>
<text text-anchor="middle" x="445" y="-62.6" font-family="Times,serif" font-size="14.00">CoreModule</text>
</g>
<!-- EquipeModule -->
<g id="node2" class="node">
<title>EquipeModule</title>
<polygon fill="#8dd3c7" stroke="black" points="443.71,-225.8 440.71,-229.8 419.71,-229.8 416.71,-225.8 344.29,-225.8 344.29,-189.8 443.71,-189.8 443.71,-225.8"/>
<text text-anchor="middle" x="394" y="-203.6" font-family="Times,serif" font-size="14.00">EquipeModule</text>
</g>
<!-- CoreModule&#45;&gt;EquipeModule -->
<g id="edge11" class="edge">
<title>CoreModule&#45;&gt;EquipeModule</title>
<path fill="none" stroke="black" d="M401.41,-66.8C382.42,-66.8 364.42,-66.8 364.42,-66.8 364.42,-66.8 364.42,-179.66 364.42,-179.66"/>
<polygon fill="black" stroke="black" points="360.92,-179.66 364.42,-189.66 367.92,-179.66 360.92,-179.66"/>
</g>
<!-- GinasioModule -->
<g id="node3" class="node">
<title>GinasioModule</title>
<polygon fill="#8dd3c7" stroke="black" points="487.6,-149.8 484.6,-153.8 463.6,-153.8 460.6,-149.8 384.4,-149.8 384.4,-113.8 487.6,-113.8 487.6,-149.8"/>
<text text-anchor="middle" x="436" y="-127.6" font-family="Times,serif" font-size="14.00">GinasioModule</text>
</g>
<!-- CoreModule&#45;&gt;GinasioModule -->
<g id="edge15" class="edge">
<title>CoreModule&#45;&gt;GinasioModule</title>
<path fill="none" stroke="black" d="M444.58,-84.91C444.58,-84.91 444.58,-103.79 444.58,-103.79"/>
<polygon fill="black" stroke="black" points="441.08,-103.79 444.58,-113.79 448.08,-103.79 441.08,-103.79"/>
</g>
<!-- LigaModule -->
<g id="node4" class="node">
<title>LigaModule</title>
<polygon fill="#8dd3c7" stroke="black" points="461.71,-301.8 458.71,-305.8 437.71,-305.8 434.71,-301.8 376.29,-301.8 376.29,-265.8 461.71,-265.8 461.71,-301.8"/>
<text text-anchor="middle" x="419" y="-279.6" font-family="Times,serif" font-size="14.00">LigaModule</text>
</g>
<!-- CoreModule&#45;&gt;LigaModule -->
<g id="edge18" class="edge">
<title>CoreModule&#45;&gt;LigaModule</title>
<path fill="none" stroke="black" d="M488.6,-75.8C492.05,-75.8 494.24,-75.8 494.24,-75.8 494.24,-75.8 494.24,-289.8 494.24,-289.8 494.24,-289.8 471.9,-289.8 471.9,-289.8"/>
<polygon fill="black" stroke="black" points="471.9,-286.3 461.9,-289.8 471.9,-293.3 471.9,-286.3"/>
</g>
<!-- PessoaModule -->
<g id="node6" class="node">
<title>PessoaModule</title>
<polygon fill="#8dd3c7" stroke="black" points="441.66,-377.8 438.66,-381.8 417.66,-381.8 414.66,-377.8 344.34,-377.8 344.34,-341.8 441.66,-341.8 441.66,-377.8"/>
<text text-anchor="middle" x="393" y="-355.6" font-family="Times,serif" font-size="14.00">PessoaModule</text>
</g>
<!-- CoreModule&#45;&gt;PessoaModule -->
<g id="edge28" class="edge">
<title>CoreModule&#45;&gt;PessoaModule</title>
<path fill="none" stroke="black" d="M488.42,-71.8C495.25,-71.8 500.11,-71.8 500.11,-71.8 500.11,-71.8 500.11,-350.8 500.11,-350.8 500.11,-350.8 451.85,-350.8 451.85,-350.8"/>
<polygon fill="black" stroke="black" points="451.85,-347.3 441.85,-350.8 451.85,-354.3 451.85,-347.3"/>
</g>
<!-- AppModule -->
<g id="node7" class="node">
<title>AppModule</title>
<polygon fill="#8dd3c7" stroke="black" points="511.66,-507.8 508.66,-511.8 487.66,-511.8 484.66,-507.8 428.34,-507.8 428.34,-471.8 511.66,-471.8 511.66,-507.8"/>
<text text-anchor="middle" x="470" y="-485.6" font-family="Times,serif" font-size="14.00">AppModule</text>
</g>
<!-- CoreModule&#45;&gt;AppModule -->
<g id="edge1" class="edge">
<title>CoreModule&#45;&gt;AppModule</title>
<path fill="none" stroke="black" d="M488.33,-62.8C498.27,-62.8 505.97,-62.8 505.97,-62.8 505.97,-62.8 505.97,-461.73 505.97,-461.73"/>
<polygon fill="black" stroke="black" points="502.47,-461.73 505.97,-471.73 509.47,-461.73 502.47,-461.73"/>
</g>
<!-- TypeORMFilterService  -->
<g id="node8" class="node">
<title>TypeORMFilterService </title>
<polygon fill="#fb8072" stroke="black" points="1266.47,-149.8 1113.53,-149.8 1113.53,-113.8 1266.47,-113.8 1266.47,-149.8"/>
<text text-anchor="middle" x="1190" y="-127.6" font-family="Times,serif" font-size="14.00">TypeORMFilterService </text>
</g>
<!-- CoreModule&#45;&gt;TypeORMFilterService  -->
<g id="edge7" class="edge">
<title>CoreModule&#45;&gt;TypeORMFilterService </title>
<path fill="none" stroke="black" stroke-dasharray="5,2" d="M488.27,-53.8C647.28,-53.8 1190,-53.8 1190,-53.8 1190,-53.8 1190,-103.71 1190,-103.71"/>
<polygon fill="black" stroke="black" points="1186.5,-103.71 1190,-113.71 1193.5,-103.71 1186.5,-103.71"/>
</g>
<!-- VerificaUrlService  -->
<g id="node9" class="node">
<title>VerificaUrlService </title>
<polygon fill="#fb8072" stroke="black" points="1096,-149.8 970,-149.8 970,-113.8 1096,-113.8 1096,-149.8"/>
<text text-anchor="middle" x="1033" y="-127.6" font-family="Times,serif" font-size="14.00">VerificaUrlService </text>
</g>
<!-- CoreModule&#45;&gt;VerificaUrlService  -->
<g id="edge8" class="edge">
<title>CoreModule&#45;&gt;VerificaUrlService </title>
<path fill="none" stroke="black" stroke-dasharray="5,2" d="M488.72,-57.8C624.99,-57.8 1033,-57.8 1033,-57.8 1033,-57.8 1033,-103.51 1033,-103.51"/>
<polygon fill="black" stroke="black" points="1029.5,-103.51 1033,-113.51 1036.5,-103.51 1029.5,-103.51"/>
</g>
<!-- EquipeModule&#45;&gt;LigaModule -->
<g id="edge19" class="edge">
<title>EquipeModule&#45;&gt;LigaModule</title>
<path fill="none" stroke="black" d="M410,-225.81C410,-225.81 410,-255.65 410,-255.65"/>
<polygon fill="black" stroke="black" points="406.5,-255.65 410,-265.65 413.5,-255.65 406.5,-255.65"/>
</g>
<!-- EquipeModule&#45;&gt;PessoaModule -->
<g id="edge29" class="edge">
<title>EquipeModule&#45;&gt;PessoaModule</title>
<path fill="none" stroke="black" d="M365.73,-225.83C365.73,-225.83 365.73,-331.79 365.73,-331.79"/>
<polygon fill="black" stroke="black" points="362.23,-331.79 365.73,-341.79 369.23,-331.79 362.23,-331.79"/>
</g>
<!-- EquipeModule&#45;&gt;AppModule -->
<g id="edge2" class="edge">
<title>EquipeModule&#45;&gt;AppModule</title>
<path fill="none" stroke="black" d="M443.76,-213.8C456.56,-213.8 466.79,-213.8 466.79,-213.8 466.79,-213.8 466.79,-461.69 466.79,-461.69"/>
<polygon fill="black" stroke="black" points="463.29,-461.69 466.79,-471.69 470.29,-461.69 463.29,-461.69"/>
</g>
<!-- EquipeService  -->
<g id="node12" class="node">
<title>EquipeService </title>
<polygon fill="#fb8072" stroke="black" points="283.63,-301.8 182.37,-301.8 182.37,-265.8 283.63,-265.8 283.63,-301.8"/>
<text text-anchor="middle" x="233" y="-279.6" font-family="Times,serif" font-size="14.00">EquipeService </text>
</g>
<!-- EquipeModule&#45;&gt;EquipeService  -->
<g id="edge13" class="edge">
<title>EquipeModule&#45;&gt;EquipeService </title>
<path fill="none" stroke="black" stroke-dasharray="5,2" d="M355.06,-225.81C355.06,-248.29 355.06,-283.8 355.06,-283.8 355.06,-283.8 293.71,-283.8 293.71,-283.8"/>
<polygon fill="black" stroke="black" points="293.71,-280.3 283.71,-283.8 293.71,-287.3 293.71,-280.3"/>
</g>
<!-- GinasioModule&#45;&gt;EquipeModule -->
<g id="edge12" class="edge">
<title>GinasioModule&#45;&gt;EquipeModule</title>
<path fill="none" stroke="black" d="M414.03,-149.81C414.03,-149.81 414.03,-179.65 414.03,-179.65"/>
<polygon fill="black" stroke="black" points="410.53,-179.65 414.03,-189.65 417.53,-179.65 410.53,-179.65"/>
</g>
<!-- GinasioModule&#45;&gt;AppModule -->
<g id="edge3" class="edge">
<title>GinasioModule&#45;&gt;AppModule</title>
<path fill="none" stroke="black" d="M471.98,-150.05C471.98,-150.05 471.98,-461.59 471.98,-461.59"/>
<polygon fill="black" stroke="black" points="468.48,-461.59 471.98,-471.59 475.48,-461.59 468.48,-461.59"/>
</g>
<!-- GinasioService  -->
<g id="node14" class="node">
<title>GinasioService </title>
<polygon fill="#fb8072" stroke="black" points="823.53,-225.8 718.47,-225.8 718.47,-189.8 823.53,-189.8 823.53,-225.8"/>
<text text-anchor="middle" x="771" y="-203.6" font-family="Times,serif" font-size="14.00">GinasioService </text>
</g>
<!-- GinasioModule&#45;&gt;GinasioService  -->
<g id="edge16" class="edge">
<title>GinasioModule&#45;&gt;GinasioService </title>
<path fill="none" stroke="black" stroke-dasharray="5,2" d="M477.17,-149.91C477.17,-159.7 477.17,-169.8 477.17,-169.8 477.17,-169.8 731.37,-169.8 731.37,-169.8 731.37,-169.8 731.37,-179.69 731.37,-179.69"/>
<polygon fill="black" stroke="black" points="727.87,-179.69 731.37,-189.69 734.87,-179.69 727.87,-179.69"/>
</g>
<!-- PartidaModule -->
<g id="node5" class="node">
<title>PartidaModule</title>
<polygon fill="#8dd3c7" stroke="black" points="441.71,-442.8 438.71,-446.8 417.71,-446.8 414.71,-442.8 342.29,-442.8 342.29,-406.8 441.71,-406.8 441.71,-442.8"/>
<text text-anchor="middle" x="392" y="-420.6" font-family="Times,serif" font-size="14.00">PartidaModule</text>
</g>
<!-- LigaModule&#45;&gt;PartidaModule -->
<g id="edge25" class="edge">
<title>LigaModule&#45;&gt;PartidaModule</title>
<path fill="none" stroke="black" d="M451.72,-302.01C451.72,-338.86 451.72,-418.8 451.72,-418.8 451.72,-418.8 450.73,-418.8 450.73,-418.8"/>
<polygon fill="black" stroke="black" points="451.86,-415.3 441.86,-418.8 451.86,-422.3 451.86,-415.3"/>
</g>
<!-- LigaModule&#45;&gt;PessoaModule -->
<g id="edge30" class="edge">
<title>LigaModule&#45;&gt;PessoaModule</title>
<path fill="none" stroke="black" d="M383.67,-301.81C383.67,-301.81 383.67,-331.65 383.67,-331.65"/>
<polygon fill="black" stroke="black" points="380.17,-331.65 383.67,-341.65 387.17,-331.65 380.17,-331.65"/>
</g>
<!-- LigaModule&#45;&gt;AppModule -->
<g id="edge4" class="edge">
<title>LigaModule&#45;&gt;AppModule</title>
<path fill="none" stroke="black" d="M456.66,-302.08C456.66,-302.08 456.66,-461.56 456.66,-461.56"/>
<polygon fill="black" stroke="black" points="453.16,-461.56 456.66,-471.56 460.16,-461.56 453.16,-461.56"/>
</g>
<!-- LigaService  -->
<g id="node16" class="node">
<title>LigaService </title>
<polygon fill="#fb8072" stroke="black" points="1892.63,-225.8 1805.37,-225.8 1805.37,-189.8 1892.63,-189.8 1892.63,-225.8"/>
<text text-anchor="middle" x="1849" y="-203.6" font-family="Times,serif" font-size="14.00">LigaService </text>
</g>
<!-- LigaModule&#45;&gt;LigaService  -->
<g id="edge20" class="edge">
<title>LigaModule&#45;&gt;LigaService </title>
<path fill="none" stroke="black" stroke-dasharray="5,2" d="M446.6,-265.61C446.6,-262.26 446.6,-259.8 446.6,-259.8 446.6,-259.8 1849,-259.8 1849,-259.8 1849,-259.8 1849,-235.99 1849,-235.99"/>
<polygon fill="black" stroke="black" points="1852.5,-235.99 1849,-225.99 1845.5,-235.99 1852.5,-235.99"/>
</g>
<!-- PartidaModule&#45;&gt;AppModule -->
<g id="edge5" class="edge">
<title>PartidaModule&#45;&gt;AppModule</title>
<path fill="none" stroke="black" d="M434.89,-442.91C434.89,-442.91 434.89,-461.79 434.89,-461.79"/>
<polygon fill="black" stroke="black" points="431.39,-461.79 434.89,-471.79 438.39,-461.79 431.39,-461.79"/>
</g>
<!-- PessoaModule&#45;&gt;PartidaModule -->
<g id="edge26" class="edge">
<title>PessoaModule&#45;&gt;PartidaModule</title>
<path fill="none" stroke="black" d="M392.89,-377.91C392.89,-377.91 392.89,-396.79 392.89,-396.79"/>
<polygon fill="black" stroke="black" points="389.39,-396.79 392.89,-406.79 396.39,-396.79 389.39,-396.79"/>
</g>
<!-- PessoaModule&#45;&gt;AppModule -->
<g id="edge6" class="edge">
<title>PessoaModule&#45;&gt;AppModule</title>
<path fill="none" stroke="black" d="M441.81,-368.8C444.88,-368.8 446.77,-368.8 446.77,-368.8 446.77,-368.8 446.77,-461.69 446.77,-461.69"/>
<polygon fill="black" stroke="black" points="443.27,-461.69 446.77,-471.69 450.27,-461.69 443.27,-461.69"/>
</g>
<!-- ArbitroService  -->
<g id="node22" class="node">
<title>ArbitroService </title>
<polygon fill="#fb8072" stroke="black" points="1457.19,-301.8 1354.81,-301.8 1354.81,-265.8 1457.19,-265.8 1457.19,-301.8"/>
<text text-anchor="middle" x="1406" y="-279.6" font-family="Times,serif" font-size="14.00">ArbitroService </text>
</g>
<!-- PessoaModule&#45;&gt;ArbitroService  -->
<g id="edge31" class="edge">
<title>PessoaModule&#45;&gt;ArbitroService </title>
<path fill="none" stroke="black" stroke-dasharray="5,2" d="M390.94,-341.76C390.94,-334.05 390.94,-326.8 390.94,-326.8 390.94,-326.8 1406,-326.8 1406,-326.8 1406,-326.8 1406,-312.29 1406,-312.29"/>
<polygon fill="black" stroke="black" points="1409.5,-312.29 1406,-302.29 1402.5,-312.29 1409.5,-312.29"/>
</g>
<!-- AtletaService  -->
<g id="node23" class="node">
<title>AtletaService </title>
<polygon fill="#fb8072" stroke="black" points="1703.69,-301.8 1608.31,-301.8 1608.31,-265.8 1703.69,-265.8 1703.69,-301.8"/>
<text text-anchor="middle" x="1656" y="-279.6" font-family="Times,serif" font-size="14.00">AtletaService </text>
</g>
<!-- PessoaModule&#45;&gt;AtletaService  -->
<g id="edge32" class="edge">
<title>PessoaModule&#45;&gt;AtletaService </title>
<path fill="none" stroke="black" stroke-dasharray="5,2" d="M405.48,-341.68C405.48,-338.83 405.48,-336.8 405.48,-336.8 405.48,-336.8 1656,-336.8 1656,-336.8 1656,-336.8 1656,-312.04 1656,-312.04"/>
<polygon fill="black" stroke="black" points="1659.5,-312.04 1656,-302.04 1652.5,-312.04 1659.5,-312.04"/>
</g>
<!-- DelegadoService  -->
<g id="node24" class="node">
<title>DelegadoService </title>
<polygon fill="#fb8072" stroke="black" points="1590.62,-301.8 1475.38,-301.8 1475.38,-265.8 1590.62,-265.8 1590.62,-301.8"/>
<text text-anchor="middle" x="1533" y="-279.6" font-family="Times,serif" font-size="14.00">DelegadoService </text>
</g>
<!-- PessoaModule&#45;&gt;DelegadoService  -->
<g id="edge33" class="edge">
<title>PessoaModule&#45;&gt;DelegadoService </title>
<path fill="none" stroke="black" stroke-dasharray="5,2" d="M398.21,-341.59C398.21,-336.25 398.21,-331.8 398.21,-331.8 398.21,-331.8 1533,-331.8 1533,-331.8 1533,-331.8 1533,-311.95 1533,-311.95"/>
<polygon fill="black" stroke="black" points="1536.5,-311.95 1533,-301.95 1529.5,-311.95 1536.5,-311.95"/>
</g>
<!-- TypeORMFilterService -->
<g id="node10" class="node">
<title>TypeORMFilterService</title>
<ellipse fill="#fdb462" stroke="black" cx="843" cy="-131.8" rx="102.52" ry="18"/>
<text text-anchor="middle" x="843" y="-127.6" font-family="Times,serif" font-size="14.00">TypeORMFilterService</text>
</g>
<!-- TypeORMFilterService&#45;&gt;CoreModule -->
<g id="edge9" class="edge">
<title>TypeORMFilterService&#45;&gt;CoreModule</title>
<path fill="none" stroke="black" d="M843,-113.69C843,-94.46 843,-66.8 843,-66.8 843,-66.8 498.35,-66.8 498.35,-66.8"/>
<polygon fill="black" stroke="black" points="498.35,-63.3 488.35,-66.8 498.35,-70.3 498.35,-63.3"/>
</g>
<!-- VerificaUrlService -->
<g id="node11" class="node">
<title>VerificaUrlService</title>
<ellipse fill="#fdb462" stroke="black" cx="638" cy="-131.8" rx="84.49" ry="18"/>
<text text-anchor="middle" x="638" y="-127.6" font-family="Times,serif" font-size="14.00">VerificaUrlService</text>
</g>
<!-- VerificaUrlService&#45;&gt;CoreModule -->
<g id="edge10" class="edge">
<title>VerificaUrlService&#45;&gt;CoreModule</title>
<path fill="none" stroke="black" d="M638,-113.68C638,-99.02 638,-80.8 638,-80.8 638,-80.8 498.31,-80.8 498.31,-80.8"/>
<polygon fill="black" stroke="black" points="498.31,-77.3 488.31,-80.8 498.31,-84.3 498.31,-77.3"/>
</g>
<!-- EquipeService -->
<g id="node13" class="node">
<title>EquipeService</title>
<ellipse fill="#fdb462" stroke="black" cx="91" cy="-283.8" rx="67.19" ry="18"/>
<text text-anchor="middle" x="91" y="-279.6" font-family="Times,serif" font-size="14.00">EquipeService</text>
</g>
<!-- EquipeService&#45;&gt;EquipeModule -->
<g id="edge14" class="edge">
<title>EquipeService&#45;&gt;EquipeModule</title>
<path fill="none" stroke="black" d="M91,-265.79C91,-243.31 91,-207.8 91,-207.8 91,-207.8 334.31,-207.8 334.31,-207.8"/>
<polygon fill="black" stroke="black" points="334.31,-211.3 344.31,-207.8 334.3,-204.3 334.31,-211.3"/>
</g>
<!-- GinasioService -->
<g id="node15" class="node">
<title>GinasioService</title>
<ellipse fill="#fdb462" stroke="black" cx="624" cy="-207.8" rx="70.07" ry="18"/>
<text text-anchor="middle" x="624" y="-203.6" font-family="Times,serif" font-size="14.00">GinasioService</text>
</g>
<!-- GinasioService&#45;&gt;GinasioModule -->
<g id="edge17" class="edge">
<title>GinasioService&#45;&gt;GinasioModule</title>
<path fill="none" stroke="black" d="M557.74,-201.8C520.88,-201.8 482.36,-201.8 482.36,-201.8 482.36,-201.8 482.36,-159.83 482.36,-159.83"/>
<polygon fill="black" stroke="black" points="485.86,-159.83 482.36,-149.83 478.86,-159.83 485.86,-159.83"/>
</g>
<!-- ClassificacaoGeneratorService -->
<g id="node17" class="node">
<title>ClassificacaoGeneratorService</title>
<ellipse fill="#fdb462" stroke="black" cx="1651" cy="-207.8" rx="130.16" ry="18"/>
<text text-anchor="middle" x="1651" y="-203.6" font-family="Times,serif" font-size="14.00">ClassificacaoGeneratorService</text>
</g>
<!-- ClassificacaoGeneratorService&#45;&gt;LigaModule -->
<g id="edge21" class="edge">
<title>ClassificacaoGeneratorService&#45;&gt;LigaModule</title>
<path fill="none" stroke="black" d="M1555.74,-220.1C1555.74,-233.42 1555.74,-252.8 1555.74,-252.8 1555.74,-252.8 458.6,-252.8 458.6,-252.8 458.6,-252.8 458.6,-255.77 458.6,-255.77"/>
<polygon fill="black" stroke="black" points="455.1,-255.77 458.6,-265.77 462.1,-255.77 455.1,-255.77"/>
</g>
<!-- LigaService -->
<g id="node18" class="node">
<title>LigaService</title>
<ellipse fill="#fdb462" stroke="black" cx="1445" cy="-207.8" rx="57.88" ry="18"/>
<text text-anchor="middle" x="1445" y="-203.6" font-family="Times,serif" font-size="14.00">LigaService</text>
</g>
<!-- LigaService&#45;&gt;LigaModule -->
<g id="edge22" class="edge">
<title>LigaService&#45;&gt;LigaModule</title>
<path fill="none" stroke="black" d="M1422.33,-224.58C1422.33,-234.76 1422.33,-245.8 1422.33,-245.8 1422.33,-245.8 455.6,-245.8 455.6,-245.8 455.6,-245.8 455.6,-255.69 455.6,-255.69"/>
<polygon fill="black" stroke="black" points="452.1,-255.69 455.6,-265.69 459.1,-255.69 452.1,-255.69"/>
</g>
<!-- PontuacaoEquipeService -->
<g id="node19" class="node">
<title>PontuacaoEquipeService</title>
<ellipse fill="#fdb462" stroke="black" cx="1262" cy="-207.8" rx="107.65" ry="18"/>
<text text-anchor="middle" x="1262" y="-203.6" font-family="Times,serif" font-size="14.00">PontuacaoEquipeService</text>
</g>
<!-- PontuacaoEquipeService&#45;&gt;LigaModule -->
<g id="edge23" class="edge">
<title>PontuacaoEquipeService&#45;&gt;LigaModule</title>
<path fill="none" stroke="black" d="M1168.05,-216.88C1168.05,-226.34 1168.05,-239.8 1168.05,-239.8 1168.05,-239.8 452.6,-239.8 452.6,-239.8 452.6,-239.8 452.6,-255.65 452.6,-255.65"/>
<polygon fill="black" stroke="black" points="449.1,-255.65 452.6,-265.65 456.1,-255.65 449.1,-255.65"/>
</g>
<!-- QuartaDeFinalGeneratorService -->
<g id="node20" class="node">
<title>QuartaDeFinalGeneratorService</title>
<ellipse fill="#fdb462" stroke="black" cx="1000" cy="-207.8" rx="135.97" ry="18"/>
<text text-anchor="middle" x="1000" y="-203.6" font-family="Times,serif" font-size="14.00">QuartaDeFinalGeneratorService</text>
</g>
<!-- QuartaDeFinalGeneratorService&#45;&gt;LigaModule -->
<g id="edge24" class="edge">
<title>QuartaDeFinalGeneratorService&#45;&gt;LigaModule</title>
<path fill="none" stroke="black" d="M931.22,-223.49C931.22,-228.51 931.22,-232.8 931.22,-232.8 931.22,-232.8 449.6,-232.8 449.6,-232.8 449.6,-232.8 449.6,-255.68 449.6,-255.68"/>
<polygon fill="black" stroke="black" points="446.1,-255.68 449.6,-265.68 453.1,-255.68 446.1,-255.68"/>
</g>
<!-- PartidaService -->
<g id="node21" class="node">
<title>PartidaService</title>
<ellipse fill="#fdb462" stroke="black" cx="621" cy="-359.8" rx="67.19" ry="18"/>
<text text-anchor="middle" x="621" y="-355.6" font-family="Times,serif" font-size="14.00">PartidaService</text>
</g>
<!-- PartidaService&#45;&gt;PartidaModule -->
<g id="edge27" class="edge">
<title>PartidaService&#45;&gt;PartidaModule</title>
<path fill="none" stroke="black" d="M621,-378.08C621,-399.12 621,-430.8 621,-430.8 621,-430.8 451.69,-430.8 451.69,-430.8"/>
<polygon fill="black" stroke="black" points="451.69,-427.3 441.69,-430.8 451.69,-434.3 451.69,-427.3"/>
</g>
<!-- ArbitroService -->
<g id="node25" class="node">
<title>ArbitroService</title>
<ellipse fill="#fdb462" stroke="black" cx="930" cy="-283.8" rx="68.34" ry="18"/>
<text text-anchor="middle" x="930" y="-279.6" font-family="Times,serif" font-size="14.00">ArbitroService</text>
</g>
<!-- ArbitroService&#45;&gt;PessoaModule -->
<g id="edge34" class="edge">
<title>ArbitroService&#45;&gt;PessoaModule</title>
<path fill="none" stroke="black" d="M930,-302.01C930,-307.35 930,-311.8 930,-311.8 930,-311.8 420.02,-311.8 420.02,-311.8 420.02,-311.8 420.02,-331.65 420.02,-331.65"/>
<polygon fill="black" stroke="black" points="416.52,-331.65 420.02,-341.65 423.52,-331.65 416.52,-331.65"/>
</g>
<!-- AtletaService -->
<g id="node26" class="node">
<title>AtletaService</title>
<ellipse fill="#fdb462" stroke="black" cx="780" cy="-283.8" rx="63.68" ry="18"/>
<text text-anchor="middle" x="780" y="-279.6" font-family="Times,serif" font-size="14.00">AtletaService</text>
</g>
<!-- AtletaService&#45;&gt;PessoaModule -->
<g id="edge35" class="edge">
<title>AtletaService&#45;&gt;PessoaModule</title>
<path fill="none" stroke="black" d="M780,-301.92C780,-304.77 780,-306.8 780,-306.8 780,-306.8 412.75,-306.8 412.75,-306.8 412.75,-306.8 412.75,-331.56 412.75,-331.56"/>
<polygon fill="black" stroke="black" points="409.25,-331.56 412.75,-341.56 416.25,-331.56 409.25,-331.56"/>
</g>
<!-- AuxiliarService -->
<g id="node27" class="node">
<title>AuxiliarService</title>
<ellipse fill="#fdb462" stroke="black" cx="626" cy="-283.8" rx="72.35" ry="18"/>
<text text-anchor="middle" x="626" y="-279.6" font-family="Times,serif" font-size="14.00">AuxiliarService</text>
</g>
<!-- AuxiliarService&#45;&gt;PessoaModule -->
<g id="edge36" class="edge">
<title>AuxiliarService&#45;&gt;PessoaModule</title>
<path fill="none" stroke="black" d="M557.68,-277.8C543.45,-277.8 532.67,-277.8 532.67,-277.8 532.67,-277.8 532.67,-359.8 532.67,-359.8 532.67,-359.8 451.85,-359.8 451.85,-359.8"/>
<polygon fill="black" stroke="black" points="451.85,-356.3 441.85,-359.8 451.85,-363.3 451.85,-356.3"/>
</g>
<!-- DelegadoService -->
<g id="node28" class="node">
<title>DelegadoService</title>
<ellipse fill="#fdb462" stroke="black" cx="1254" cy="-283.8" rx="76.99" ry="18"/>
<text text-anchor="middle" x="1254" y="-279.6" font-family="Times,serif" font-size="14.00">DelegadoService</text>
</g>
<!-- DelegadoService&#45;&gt;PessoaModule -->
<g id="edge37" class="edge">
<title>DelegadoService&#45;&gt;PessoaModule</title>
<path fill="none" stroke="black" d="M1254,-301.91C1254,-311.7 1254,-321.8 1254,-321.8 1254,-321.8 434.56,-321.8 434.56,-321.8 434.56,-321.8 434.56,-331.69 434.56,-331.69"/>
<polygon fill="black" stroke="black" points="431.06,-331.69 434.56,-341.69 438.06,-331.69 431.06,-331.69"/>
</g>
<!-- TecnicoService -->
<g id="node29" class="node">
<title>TecnicoService</title>
<ellipse fill="#fdb462" stroke="black" cx="1088" cy="-283.8" rx="71.18" ry="18"/>
<text text-anchor="middle" x="1088" y="-279.6" font-family="Times,serif" font-size="14.00">TecnicoService</text>
</g>
<!-- TecnicoService&#45;&gt;PessoaModule -->
<g id="edge38" class="edge">
<title>TecnicoService&#45;&gt;PessoaModule</title>
<path fill="none" stroke="black" d="M1088,-301.84C1088,-309.55 1088,-316.8 1088,-316.8 1088,-316.8 427.29,-316.8 427.29,-316.8 427.29,-316.8 427.29,-331.31 427.29,-331.31"/>
<polygon fill="black" stroke="black" points="423.79,-331.31 427.29,-341.31 430.79,-331.31 423.79,-331.31"/>
</g>
</g>
</svg>
