<?xml version="1.0" encoding="UTF-8" standalone="no"?>
<!DOCTYPE svg PUBLIC "-//W3C//DTD SVG 1.1//EN"
 "http://www.w3.org/Graphics/SVG/1.1/DTD/svg11.dtd">
<!-- Generated by graphviz version 3.0.0 (20220226.1711)
 -->
<!-- Title: dependencies Pages: 1 -->
<svg width="2467pt" height="608pt"
 viewBox="0.00 0.00 2467.00 607.80" xmlns="http://www.w3.org/2000/svg" xmlns:xlink="http://www.w3.org/1999/xlink">
<g id="graph0" class="graph" transform="scale(1 1) rotate(0) translate(4 603.8)">
<title>dependencies</title>
<polygon fill="white" stroke="transparent" points="-4,4 -4,-603.8 2463,-603.8 2463,4 -4,4"/>
<text text-anchor="middle" x="1229.5" y="-8.2" font-family="sans-serif" font-size="14.00">dependencies</text>
<g id="clust1" class="cluster">
<title>cluster_AppModule</title>
<polygon fill="none" stroke="black" stroke-dasharray="1,5" points="687,-32.8 687,-591.8 951,-591.8 951,-32.8 687,-32.8"/>
</g>
<g id="clust3" class="cluster">
<title>cluster_AppModule_imports</title>
<polygon fill="none" stroke="black" points="695,-40.8 695,-526.8 895,-526.8 895,-40.8 695,-40.8"/>
</g>
<g id="clust7" class="cluster">
<title>cluster_CoreModule</title>
<polygon fill="none" stroke="black" stroke-dasharray="1,5" points="959,-97.8 959,-165.8 1703,-165.8 1703,-97.8 959,-97.8"/>
</g>
<g id="clust10" class="cluster">
<title>cluster_CoreModule_exports</title>
<polygon fill="none" stroke="black" points="1383,-105.8 1383,-157.8 1695,-157.8 1695,-105.8 1383,-105.8"/>
</g>
<g id="clust12" class="cluster">
<title>cluster_CoreModule_providers</title>
<polygon fill="none" stroke="black" points="967,-105.8 967,-157.8 1375,-157.8 1375,-105.8 967,-105.8"/>
</g>
<g id="clust13" class="cluster">
<title>cluster_EquipeModule</title>
<polygon fill="none" stroke="black" stroke-dasharray="1,5" points="387,-249.8 387,-317.8 679,-317.8 679,-249.8 387,-249.8"/>
</g>
<g id="clust16" class="cluster">
<title>cluster_EquipeModule_exports</title>
<polygon fill="none" stroke="black" points="553,-257.8 553,-309.8 671,-309.8 671,-257.8 553,-257.8"/>
</g>
<g id="clust18" class="cluster">
<title>cluster_EquipeModule_providers</title>
<polygon fill="none" stroke="black" points="395,-257.8 395,-309.8 545,-309.8 545,-257.8 395,-257.8"/>
</g>
<g id="clust19" class="cluster">
<title>cluster_EstatisticaModule</title>
<polygon fill="none" stroke="black" stroke-dasharray="1,5" points="959,-401.8 959,-469.8 1215,-469.8 1215,-401.8 959,-401.8"/>
</g>
<g id="clust24" class="cluster">
<title>cluster_EstatisticaModule_providers</title>
<polygon fill="none" stroke="black" points="967,-409.8 967,-461.8 1207,-461.8 1207,-409.8 967,-409.8"/>
</g>
<g id="clust25" class="cluster">
<title>cluster_GinasioModule</title>
<polygon fill="none" stroke="black" stroke-dasharray="1,5" points="959,-173.8 959,-241.8 1261,-241.8 1261,-173.8 959,-173.8"/>
</g>
<g id="clust28" class="cluster">
<title>cluster_GinasioModule_exports</title>
<polygon fill="none" stroke="black" points="1131,-181.8 1131,-233.8 1253,-233.8 1253,-181.8 1131,-181.8"/>
</g>
<g id="clust30" class="cluster">
<title>cluster_GinasioModule_providers</title>
<polygon fill="none" stroke="black" points="967,-181.8 967,-233.8 1123,-233.8 1123,-181.8 967,-181.8"/>
</g>
<g id="clust31" class="cluster">
<title>cluster_LigaModule</title>
<polygon fill="none" stroke="black" stroke-dasharray="1,5" points="959,-325.8 959,-393.8 2394,-393.8 2394,-325.8 959,-325.8"/>
</g>
<g id="clust33" class="cluster">
<title>cluster_LigaModule_imports</title>
<polygon fill="none" stroke="black" points="2252,-333.8 2252,-385.8 2386,-385.8 2386,-333.8 2252,-333.8"/>
</g>
<g id="clust34" class="cluster">
<title>cluster_LigaModule_exports</title>
<polygon fill="none" stroke="black" points="2140,-333.8 2140,-385.8 2244,-385.8 2244,-333.8 2140,-333.8"/>
</g>
<g id="clust36" class="cluster">
<title>cluster_LigaModule_providers</title>
<polygon fill="none" stroke="black" points="967,-333.8 967,-385.8 2132,-385.8 2132,-333.8 967,-333.8"/>
</g>
<g id="clust37" class="cluster">
<title>cluster_PartidaModule</title>
<polygon fill="none" stroke="black" stroke-dasharray="1,5" points="8,-401.8 8,-469.8 679,-469.8 679,-401.8 8,-401.8"/>
</g>
<g id="clust40" class="cluster">
<title>cluster_PartidaModule_exports</title>
<polygon fill="none" stroke="black" points="389,-409.8 389,-461.8 671,-461.8 671,-409.8 389,-409.8"/>
</g>
<g id="clust42" class="cluster">
<title>cluster_PartidaModule_providers</title>
<polygon fill="none" stroke="black" points="16,-409.8 16,-461.8 381,-461.8 381,-409.8 16,-409.8"/>
</g>
<g id="clust43" class="cluster">
<title>cluster_PessoaModule</title>
<polygon fill="none" stroke="black" stroke-dasharray="1,5" points="1269,-173.8 1269,-241.8 2451,-241.8 2451,-173.8 1269,-173.8"/>
</g>
<g id="clust46" class="cluster">
<title>cluster_PessoaModule_exports</title>
<polygon fill="none" stroke="black" points="2078,-181.8 2078,-233.8 2443,-233.8 2443,-181.8 2078,-181.8"/>
</g>
<g id="clust48" class="cluster">
<title>cluster_PessoaModule_providers</title>
<polygon fill="none" stroke="black" points="1277,-181.8 1277,-233.8 2070,-233.8 2070,-181.8 1277,-181.8"/>
</g>
<g id="clust49" class="cluster">
<title>cluster_PontuacaoModule</title>
<polygon fill="none" stroke="black" stroke-dasharray="1,5" points="2087,-249.8 2087,-317.8 2423,-317.8 2423,-249.8 2087,-249.8"/>
</g>
<g id="clust52" class="cluster">
<title>cluster_PontuacaoModule_exports</title>
<polygon fill="none" stroke="black" points="2279,-257.8 2279,-309.8 2415,-309.8 2415,-257.8 2279,-257.8"/>
</g>
<g id="clust54" class="cluster">
<title>cluster_PontuacaoModule_providers</title>
<polygon fill="none" stroke="black" points="2095,-257.8 2095,-309.8 2271,-309.8 2271,-257.8 2095,-257.8"/>
</g>
<!-- CoreModule -->
<g id="node1" class="node">
<title>CoreModule</title>
<polygon fill="#8dd3c7" stroke="black" points="882.27,-84.8 879.27,-88.8 858.27,-88.8 855.27,-84.8 795.73,-84.8 795.73,-48.8 882.27,-48.8 882.27,-84.8"/>
<text text-anchor="middle" x="839" y="-62.6" font-family="Times,serif" font-size="14.00">CoreModule</text>
</g>
<!-- EquipeModule -->
<g id="node2" class="node">
<title>EquipeModule</title>
<polygon fill="#8dd3c7" stroke="black" points="842.71,-225.8 839.71,-229.8 818.71,-229.8 815.71,-225.8 743.29,-225.8 743.29,-189.8 842.71,-189.8 842.71,-225.8"/>
<text text-anchor="middle" x="793" y="-203.6" font-family="Times,serif" font-size="14.00">EquipeModule</text>
</g>
<!-- CoreModule&#45;&gt;EquipeModule -->
<g id="edge12" class="edge">
<title>CoreModule&#45;&gt;EquipeModule</title>
<path fill="none" stroke="black" d="M795.47,-66.8C778.67,-66.8 763.42,-66.8 763.42,-66.8 763.42,-66.8 763.42,-179.66 763.42,-179.66"/>
<polygon fill="black" stroke="black" points="759.92,-179.66 763.42,-189.66 766.92,-179.66 759.92,-179.66"/>
</g>
<!-- EstatisticaModule -->
<g id="node3" class="node">
<title>EstatisticaModule</title>
<polygon fill="#8dd3c7" stroke="black" points="842.59,-518.8 839.59,-522.8 818.59,-522.8 815.59,-518.8 725.41,-518.8 725.41,-482.8 842.59,-482.8 842.59,-518.8"/>
<text text-anchor="middle" x="784" y="-496.6" font-family="Times,serif" font-size="14.00">EstatisticaModule</text>
</g>
<!-- CoreModule&#45;&gt;EstatisticaModule -->
<g id="edge16" class="edge">
<title>CoreModule&#45;&gt;EstatisticaModule</title>
<path fill="none" stroke="black" d="M882.58,-72.8C898.73,-72.8 913.18,-72.8 913.18,-72.8 913.18,-72.8 913.18,-491.8 913.18,-491.8 913.18,-491.8 852.92,-491.8 852.92,-491.8"/>
<polygon fill="black" stroke="black" points="852.92,-488.3 842.92,-491.8 852.92,-495.3 852.92,-488.3"/>
</g>
<!-- GinasioModule -->
<g id="node4" class="node">
<title>GinasioModule</title>
<polygon fill="#8dd3c7" stroke="black" points="886.6,-149.8 883.6,-153.8 862.6,-153.8 859.6,-149.8 783.4,-149.8 783.4,-113.8 886.6,-113.8 886.6,-149.8"/>
<text text-anchor="middle" x="835" y="-127.6" font-family="Times,serif" font-size="14.00">GinasioModule</text>
</g>
<!-- CoreModule&#45;&gt;GinasioModule -->
<g id="edge20" class="edge">
<title>CoreModule&#45;&gt;GinasioModule</title>
<path fill="none" stroke="black" d="M839,-84.91C839,-84.91 839,-103.79 839,-103.79"/>
<polygon fill="black" stroke="black" points="835.5,-103.79 839,-113.79 842.5,-103.79 835.5,-103.79"/>
</g>
<!-- LigaModule -->
<g id="node5" class="node">
<title>LigaModule</title>
<polygon fill="#8dd3c7" stroke="black" points="842.71,-453.8 839.71,-457.8 818.71,-457.8 815.71,-453.8 757.29,-453.8 757.29,-417.8 842.71,-417.8 842.71,-453.8"/>
<text text-anchor="middle" x="800" y="-431.6" font-family="Times,serif" font-size="14.00">LigaModule</text>
</g>
<!-- CoreModule&#45;&gt;LigaModule -->
<g id="edge23" class="edge">
<title>CoreModule&#45;&gt;LigaModule</title>
<path fill="none" stroke="black" d="M882.61,-76.8C896.27,-76.8 907.85,-76.8 907.85,-76.8 907.85,-76.8 907.85,-429.8 907.85,-429.8 907.85,-429.8 852.63,-429.8 852.63,-429.8"/>
<polygon fill="black" stroke="black" points="852.63,-426.3 842.63,-429.8 852.63,-433.3 852.63,-426.3"/>
</g>
<!-- PessoaModule -->
<g id="node7" class="node">
<title>PessoaModule</title>
<polygon fill="#8dd3c7" stroke="black" points="882.66,-301.8 879.66,-305.8 858.66,-305.8 855.66,-301.8 785.34,-301.8 785.34,-265.8 882.66,-265.8 882.66,-301.8"/>
<text text-anchor="middle" x="834" y="-279.6" font-family="Times,serif" font-size="14.00">PessoaModule</text>
</g>
<!-- CoreModule&#45;&gt;PessoaModule -->
<g id="edge39" class="edge">
<title>CoreModule&#45;&gt;PessoaModule</title>
<path fill="none" stroke="black" d="M882.43,-80.8C893.59,-80.8 902.53,-80.8 902.53,-80.8 902.53,-80.8 902.53,-270.8 902.53,-270.8 902.53,-270.8 892.71,-270.8 892.71,-270.8"/>
<polygon fill="black" stroke="black" points="892.71,-267.3 882.71,-270.8 892.71,-274.3 892.71,-267.3"/>
</g>
<!-- AppModule -->
<g id="node8" class="node">
<title>AppModule</title>
<polygon fill="#8dd3c7" stroke="black" points="923.66,-583.8 920.66,-587.8 899.66,-587.8 896.66,-583.8 840.34,-583.8 840.34,-547.8 923.66,-547.8 923.66,-583.8"/>
<text text-anchor="middle" x="882" y="-561.6" font-family="Times,serif" font-size="14.00">AppModule</text>
</g>
<!-- CoreModule&#45;&gt;AppModule -->
<g id="edge1" class="edge">
<title>CoreModule&#45;&gt;AppModule</title>
<path fill="none" stroke="black" d="M882.47,-68.8C901.04,-68.8 918.51,-68.8 918.51,-68.8 918.51,-68.8 918.51,-537.52 918.51,-537.52"/>
<polygon fill="black" stroke="black" points="915.01,-537.52 918.51,-547.52 922.01,-537.52 915.01,-537.52"/>
</g>
<!-- TypeORMFilterService  -->
<g id="node9" class="node">
<title>TypeORMFilterService </title>
<polygon fill="#fb8072" stroke="black" points="1687.47,-149.8 1534.53,-149.8 1534.53,-113.8 1687.47,-113.8 1687.47,-149.8"/>
<text text-anchor="middle" x="1611" y="-127.6" font-family="Times,serif" font-size="14.00">TypeORMFilterService </text>
</g>
<!-- CoreModule&#45;&gt;TypeORMFilterService  -->
<g id="edge8" class="edge">
<title>CoreModule&#45;&gt;TypeORMFilterService </title>
<path fill="none" stroke="black" stroke-dasharray="5,2" d="M882.44,-52.8C1045.38,-52.8 1611,-52.8 1611,-52.8 1611,-52.8 1611,-103.48 1611,-103.48"/>
<polygon fill="black" stroke="black" points="1607.5,-103.48 1611,-113.48 1614.5,-103.48 1607.5,-103.48"/>
</g>
<!-- VerificaUrlService  -->
<g id="node10" class="node">
<title>VerificaUrlService </title>
<polygon fill="#fb8072" stroke="black" points="1517,-149.8 1391,-149.8 1391,-113.8 1517,-113.8 1517,-149.8"/>
<text text-anchor="middle" x="1454" y="-127.6" font-family="Times,serif" font-size="14.00">VerificaUrlService </text>
</g>
<!-- CoreModule&#45;&gt;VerificaUrlService  -->
<g id="edge9" class="edge">
<title>CoreModule&#45;&gt;VerificaUrlService </title>
<path fill="none" stroke="black" stroke-dasharray="5,2" d="M882.74,-56.8C1023.24,-56.8 1454,-56.8 1454,-56.8 1454,-56.8 1454,-103.64 1454,-103.64"/>
<polygon fill="black" stroke="black" points="1450.5,-103.64 1454,-113.64 1457.5,-103.64 1450.5,-103.64"/>
</g>
<!-- EquipeModule&#45;&gt;LigaModule -->
<g id="edge24" class="edge">
<title>EquipeModule&#45;&gt;LigaModule</title>
<path fill="none" stroke="black" d="M771.24,-225.85C771.24,-260.69 771.24,-333.8 771.24,-333.8 771.24,-333.8 811.49,-333.8 811.49,-333.8 811.49,-333.8 811.49,-407.56 811.49,-407.56"/>
<polygon fill="black" stroke="black" points="807.99,-407.56 811.49,-417.56 814.99,-407.56 807.99,-407.56"/>
</g>
<!-- EquipeModule&#45;&gt;PessoaModule -->
<g id="edge40" class="edge">
<title>EquipeModule&#45;&gt;PessoaModule</title>
<path fill="none" stroke="black" d="M813.89,-225.81C813.89,-225.81 813.89,-255.65 813.89,-255.65"/>
<polygon fill="black" stroke="black" points="810.39,-255.65 813.89,-265.65 817.39,-255.65 810.39,-255.65"/>
</g>
<!-- EquipeModule&#45;&gt;AppModule -->
<g id="edge2" class="edge">
<title>EquipeModule&#45;&gt;AppModule</title>
<path fill="none" stroke="black" d="M842.73,-201.8C867.35,-201.8 891.88,-201.8 891.88,-201.8 891.88,-201.8 891.88,-537.75 891.88,-537.75"/>
<polygon fill="black" stroke="black" points="888.38,-537.75 891.88,-547.75 895.38,-537.75 888.38,-537.75"/>
</g>
<!-- EquipeService  -->
<g id="node13" class="node">
<title>EquipeService </title>
<polygon fill="#fb8072" stroke="black" points="662.63,-301.8 561.37,-301.8 561.37,-265.8 662.63,-265.8 662.63,-301.8"/>
<text text-anchor="middle" x="612" y="-279.6" font-family="Times,serif" font-size="14.00">EquipeService </text>
</g>
<!-- EquipeModule&#45;&gt;EquipeService  -->
<g id="edge14" class="edge">
<title>EquipeModule&#45;&gt;EquipeService </title>
<path fill="none" stroke="black" stroke-dasharray="5,2" d="M757.32,-225.81C757.32,-248.29 757.32,-283.8 757.32,-283.8 757.32,-283.8 672.83,-283.8 672.83,-283.8"/>
<polygon fill="black" stroke="black" points="672.83,-280.3 662.83,-283.8 672.83,-287.3 672.83,-280.3"/>
</g>
<!-- EstatisticaModule&#45;&gt;AppModule -->
<g id="edge3" class="edge">
<title>EstatisticaModule&#45;&gt;AppModule</title>
<path fill="none" stroke="black" d="M842.74,-509.8C847.57,-509.8 850.65,-509.8 850.65,-509.8 850.65,-509.8 850.65,-537.77 850.65,-537.77"/>
<polygon fill="black" stroke="black" points="847.15,-537.77 850.65,-547.77 854.15,-537.77 847.15,-537.77"/>
</g>
<!-- GinasioModule&#45;&gt;EquipeModule -->
<g id="edge13" class="edge">
<title>GinasioModule&#45;&gt;EquipeModule</title>
<path fill="none" stroke="black" d="M813.03,-149.81C813.03,-149.81 813.03,-179.65 813.03,-179.65"/>
<polygon fill="black" stroke="black" points="809.53,-179.65 813.03,-189.65 816.53,-179.65 809.53,-179.65"/>
</g>
<!-- GinasioModule&#45;&gt;AppModule -->
<g id="edge4" class="edge">
<title>GinasioModule&#45;&gt;AppModule</title>
<path fill="none" stroke="black" d="M886.65,-131.8C892.94,-131.8 897.2,-131.8 897.2,-131.8 897.2,-131.8 897.2,-537.7 897.2,-537.7"/>
<polygon fill="black" stroke="black" points="893.7,-537.7 897.2,-547.7 900.7,-537.7 893.7,-537.7"/>
</g>
<!-- GinasioService  -->
<g id="node16" class="node">
<title>GinasioService </title>
<polygon fill="#fb8072" stroke="black" points="1244.53,-225.8 1139.47,-225.8 1139.47,-189.8 1244.53,-189.8 1244.53,-225.8"/>
<text text-anchor="middle" x="1192" y="-203.6" font-family="Times,serif" font-size="14.00">GinasioService </text>
</g>
<!-- GinasioModule&#45;&gt;GinasioService  -->
<g id="edge21" class="edge">
<title>GinasioModule&#45;&gt;GinasioService </title>
<path fill="none" stroke="black" stroke-dasharray="5,2" d="M866.74,-149.91C866.74,-159.7 866.74,-169.8 866.74,-169.8 866.74,-169.8 1152.37,-169.8 1152.37,-169.8 1152.37,-169.8 1152.37,-179.69 1152.37,-179.69"/>
<polygon fill="black" stroke="black" points="1148.87,-179.69 1152.37,-189.69 1155.87,-179.69 1148.87,-179.69"/>
</g>
<!-- LigaModule&#45;&gt;EstatisticaModule -->
<g id="edge17" class="edge">
<title>LigaModule&#45;&gt;EstatisticaModule</title>
<path fill="none" stroke="black" d="M799.97,-453.91C799.97,-453.91 799.97,-472.79 799.97,-472.79"/>
<polygon fill="black" stroke="black" points="796.47,-472.79 799.97,-482.79 803.47,-472.79 796.47,-472.79"/>
</g>
<!-- LigaModule&#45;&gt;AppModule -->
<g id="edge5" class="edge">
<title>LigaModule&#45;&gt;AppModule</title>
<path fill="none" stroke="black" d="M842.66,-441.8C851.76,-441.8 858.69,-441.8 858.69,-441.8 858.69,-441.8 858.69,-537.77 858.69,-537.77"/>
<polygon fill="black" stroke="black" points="855.19,-537.77 858.69,-547.77 862.19,-537.77 855.19,-537.77"/>
</g>
<!-- LigaService  -->
<g id="node19" class="node">
<title>LigaService </title>
<polygon fill="#fb8072" stroke="black" points="2235.63,-377.8 2148.37,-377.8 2148.37,-341.8 2235.63,-341.8 2235.63,-377.8"/>
<text text-anchor="middle" x="2192" y="-355.6" font-family="Times,serif" font-size="14.00">LigaService </text>
</g>
<!-- LigaModule&#45;&gt;LigaService  -->
<g id="edge27" class="edge">
<title>LigaModule&#45;&gt;LigaService </title>
<path fill="none" stroke="black" stroke-dasharray="5,2" d="M807.05,-417.61C807.05,-409.52 807.05,-401.8 807.05,-401.8 807.05,-401.8 2192,-401.8 2192,-401.8 2192,-401.8 2192,-387.86 2192,-387.86"/>
<polygon fill="black" stroke="black" points="2195.5,-387.86 2192,-377.86 2188.5,-387.86 2195.5,-387.86"/>
</g>
<!-- PartidaModule -->
<g id="node6" class="node">
<title>PartidaModule</title>
<polygon fill="#8dd3c7" stroke="black" points="802.71,-377.8 799.71,-381.8 778.71,-381.8 775.71,-377.8 703.29,-377.8 703.29,-341.8 802.71,-341.8 802.71,-377.8"/>
<text text-anchor="middle" x="753" y="-355.6" font-family="Times,serif" font-size="14.00">PartidaModule</text>
</g>
<!-- PartidaModule&#45;&gt;EstatisticaModule -->
<g id="edge18" class="edge">
<title>PartidaModule&#45;&gt;EstatisticaModule</title>
<path fill="none" stroke="black" d="M741.43,-377.94C741.43,-377.94 741.43,-472.73 741.43,-472.73"/>
<polygon fill="black" stroke="black" points="737.93,-472.72 741.43,-482.73 744.93,-472.73 737.93,-472.72"/>
</g>
<!-- PartidaModule&#45;&gt;LigaModule -->
<g id="edge25" class="edge">
<title>PartidaModule&#45;&gt;LigaModule</title>
<path fill="none" stroke="black" d="M780,-377.81C780,-377.81 780,-407.65 780,-407.65"/>
<polygon fill="black" stroke="black" points="776.5,-407.65 780,-417.65 783.5,-407.65 776.5,-407.65"/>
</g>
<!-- PartidaModule&#45;&gt;AppModule -->
<g id="edge6" class="edge">
<title>PartidaModule&#45;&gt;AppModule</title>
<path fill="none" stroke="black" d="M802.89,-365.8C833.45,-365.8 866.74,-365.8 866.74,-365.8 866.74,-365.8 866.74,-537.7 866.74,-537.7"/>
<polygon fill="black" stroke="black" points="863.24,-537.7 866.74,-547.7 870.24,-537.7 863.24,-537.7"/>
</g>
<!-- AtletaEscaladoService  -->
<g id="node25" class="node">
<title>AtletaEscaladoService </title>
<polygon fill="#fb8072" stroke="black" points="663.22,-453.8 516.78,-453.8 516.78,-417.8 663.22,-417.8 663.22,-453.8"/>
<text text-anchor="middle" x="590" y="-431.6" font-family="Times,serif" font-size="14.00">AtletaEscaladoService </text>
</g>
<!-- PartidaModule&#45;&gt;AtletaEscaladoService  -->
<g id="edge35" class="edge">
<title>PartidaModule&#45;&gt;AtletaEscaladoService </title>
<path fill="none" stroke="black" stroke-dasharray="5,2" d="M714.43,-377.81C714.43,-400.29 714.43,-435.8 714.43,-435.8 714.43,-435.8 673.46,-435.8 673.46,-435.8"/>
<polygon fill="black" stroke="black" points="673.46,-432.3 663.46,-435.8 673.46,-439.3 673.46,-432.3"/>
</g>
<!-- PartidaService  -->
<g id="node26" class="node">
<title>PartidaService </title>
<polygon fill="#fb8072" stroke="black" points="498.63,-453.8 397.37,-453.8 397.37,-417.8 498.63,-417.8 498.63,-453.8"/>
<text text-anchor="middle" x="448" y="-431.6" font-family="Times,serif" font-size="14.00">PartidaService </text>
</g>
<!-- PartidaModule&#45;&gt;PartidaService  -->
<g id="edge36" class="edge">
<title>PartidaModule&#45;&gt;PartidaService </title>
<path fill="none" stroke="black" stroke-dasharray="5,2" d="M703.07,-368.8C617.18,-368.8 450.61,-368.8 450.61,-368.8 450.61,-368.8 450.61,-407.49 450.61,-407.49"/>
<polygon fill="black" stroke="black" points="447.11,-407.49 450.61,-417.49 454.11,-407.49 447.11,-407.49"/>
</g>
<!-- PessoaModule&#45;&gt;PartidaModule -->
<g id="edge33" class="edge">
<title>PessoaModule&#45;&gt;PartidaModule</title>
<path fill="none" stroke="black" d="M790.98,-301.81C790.98,-301.81 790.98,-331.65 790.98,-331.65"/>
<polygon fill="black" stroke="black" points="787.48,-331.65 790.98,-341.65 794.48,-331.65 787.48,-331.65"/>
</g>
<!-- PessoaModule&#45;&gt;AppModule -->
<g id="edge7" class="edge">
<title>PessoaModule&#45;&gt;AppModule</title>
<path fill="none" stroke="black" d="M874.79,-301.87C874.79,-301.87 874.79,-537.52 874.79,-537.52"/>
<polygon fill="black" stroke="black" points="871.29,-537.52 874.79,-547.52 878.29,-537.52 871.29,-537.52"/>
</g>
<!-- ArbitroService  -->
<g id="node29" class="node">
<title>ArbitroService </title>
<polygon fill="#fb8072" stroke="black" points="2188.19,-225.8 2085.81,-225.8 2085.81,-189.8 2188.19,-189.8 2188.19,-225.8"/>
<text text-anchor="middle" x="2137" y="-203.6" font-family="Times,serif" font-size="14.00">ArbitroService </text>
</g>
<!-- PessoaModule&#45;&gt;ArbitroService  -->
<g id="edge41" class="edge">
<title>PessoaModule&#45;&gt;ArbitroService </title>
<path fill="none" stroke="black" stroke-dasharray="5,2" d="M883.02,-297.8C1115.31,-297.8 2094.22,-297.8 2094.22,-297.8 2094.22,-297.8 2094.22,-236.01 2094.22,-236.01"/>
<polygon fill="black" stroke="black" points="2097.72,-236.01 2094.22,-226.01 2090.72,-236.01 2097.72,-236.01"/>
</g>
<!-- AtletaService  -->
<g id="node30" class="node">
<title>AtletaService </title>
<polygon fill="#fb8072" stroke="black" points="2434.69,-225.8 2339.31,-225.8 2339.31,-189.8 2434.69,-189.8 2434.69,-225.8"/>
<text text-anchor="middle" x="2387" y="-203.6" font-family="Times,serif" font-size="14.00">AtletaService </text>
</g>
<!-- PessoaModule&#45;&gt;AtletaService  -->
<g id="edge42" class="edge">
<title>PessoaModule&#45;&gt;AtletaService </title>
<path fill="none" stroke="black" stroke-dasharray="5,2" d="M858.69,-265.77C858.69,-258.95 858.69,-252.8 858.69,-252.8 858.69,-252.8 2373.03,-252.8 2373.03,-252.8 2373.03,-252.8 2373.03,-235.84 2373.03,-235.84"/>
<polygon fill="black" stroke="black" points="2376.53,-235.84 2373.03,-225.84 2369.53,-235.84 2376.53,-235.84"/>
</g>
<!-- DelegadoService  -->
<g id="node31" class="node">
<title>DelegadoService </title>
<polygon fill="#fb8072" stroke="black" points="2321.62,-225.8 2206.38,-225.8 2206.38,-189.8 2321.62,-189.8 2321.62,-225.8"/>
<text text-anchor="middle" x="2264" y="-203.6" font-family="Times,serif" font-size="14.00">DelegadoService </text>
</g>
<!-- PessoaModule&#45;&gt;DelegadoService  -->
<g id="edge43" class="edge">
<title>PessoaModule&#45;&gt;DelegadoService </title>
<path fill="none" stroke="black" stroke-dasharray="5,2" d="M850.65,-265.65C850.65,-253.53 850.65,-239.8 850.65,-239.8 850.65,-239.8 2234.83,-239.8 2234.83,-239.8 2234.83,-239.8 2234.83,-236.04 2234.83,-236.04"/>
<polygon fill="black" stroke="black" points="2238.33,-236.04 2234.83,-226.04 2231.33,-236.04 2238.33,-236.04"/>
</g>
<!-- TypeORMFilterService -->
<g id="node11" class="node">
<title>TypeORMFilterService</title>
<ellipse fill="#fdb462" stroke="black" cx="1264" cy="-131.8" rx="102.52" ry="18"/>
<text text-anchor="middle" x="1264" y="-127.6" font-family="Times,serif" font-size="14.00">TypeORMFilterService</text>
</g>
<!-- TypeORMFilterService&#45;&gt;CoreModule -->
<g id="edge10" class="edge">
<title>TypeORMFilterService&#45;&gt;CoreModule</title>
<path fill="none" stroke="black" d="M1264,-113.52C1264,-92.48 1264,-60.8 1264,-60.8 1264,-60.8 892.49,-60.8 892.49,-60.8"/>
<polygon fill="black" stroke="black" points="892.49,-57.3 882.49,-60.8 892.49,-64.3 892.49,-57.3"/>
</g>
<!-- VerificaUrlService -->
<g id="node12" class="node">
<title>VerificaUrlService</title>
<ellipse fill="#fdb462" stroke="black" cx="1059" cy="-131.8" rx="84.49" ry="18"/>
<text text-anchor="middle" x="1059" y="-127.6" font-family="Times,serif" font-size="14.00">VerificaUrlService</text>
</g>
<!-- VerificaUrlService&#45;&gt;CoreModule -->
<g id="edge11" class="edge">
<title>VerificaUrlService&#45;&gt;CoreModule</title>
<path fill="none" stroke="black" d="M1059,-113.49C1059,-93.65 1059,-64.8 1059,-64.8 1059,-64.8 892.46,-64.8 892.46,-64.8"/>
<polygon fill="black" stroke="black" points="892.46,-61.3 882.46,-64.8 892.46,-68.3 892.46,-61.3"/>
</g>
<!-- EquipeService -->
<g id="node14" class="node">
<title>EquipeService</title>
<ellipse fill="#fdb462" stroke="black" cx="470" cy="-283.8" rx="67.19" ry="18"/>
<text text-anchor="middle" x="470" y="-279.6" font-family="Times,serif" font-size="14.00">EquipeService</text>
</g>
<!-- EquipeService&#45;&gt;EquipeModule -->
<g id="edge15" class="edge">
<title>EquipeService&#45;&gt;EquipeModule</title>
<path fill="none" stroke="black" d="M470,-265.79C470,-243.31 470,-207.8 470,-207.8 470,-207.8 733.24,-207.8 733.24,-207.8"/>
<polygon fill="black" stroke="black" points="733.24,-211.3 743.24,-207.8 733.24,-204.3 733.24,-211.3"/>
</g>
<!-- FundamentoAtletaService -->
<g id="node15" class="node">
<title>FundamentoAtletaService</title>
<ellipse fill="#fdb462" stroke="black" cx="1087" cy="-435.8" rx="111.74" ry="18"/>
<text text-anchor="middle" x="1087" y="-431.6" font-family="Times,serif" font-size="14.00">FundamentoAtletaService</text>
</g>
<!-- FundamentoAtletaService&#45;&gt;EstatisticaModule -->
<g id="edge19" class="edge">
<title>FundamentoAtletaService&#45;&gt;EstatisticaModule</title>
<path fill="none" stroke="black" d="M1087,-453.91C1087,-473.14 1087,-500.8 1087,-500.8 1087,-500.8 852.78,-500.8 852.78,-500.8"/>
<polygon fill="black" stroke="black" points="852.78,-497.3 842.78,-500.8 852.78,-504.3 852.78,-497.3"/>
</g>
<!-- GinasioService -->
<g id="node17" class="node">
<title>GinasioService</title>
<ellipse fill="#fdb462" stroke="black" cx="1045" cy="-207.8" rx="70.07" ry="18"/>
<text text-anchor="middle" x="1045" y="-203.6" font-family="Times,serif" font-size="14.00">GinasioService</text>
</g>
<!-- GinasioService&#45;&gt;GinasioModule -->
<g id="edge22" class="edge">
<title>GinasioService&#45;&gt;GinasioModule</title>
<path fill="none" stroke="black" d="M978.7,-213.8C930.91,-213.8 874.79,-213.8 874.79,-213.8 874.79,-213.8 874.79,-160 874.79,-160"/>
<polygon fill="black" stroke="black" points="878.29,-160 874.79,-150 871.29,-160 878.29,-160"/>
</g>
<!-- PontuacaoModule -->
<g id="node18" class="node">
<title>PontuacaoModule</title>
<polygon fill="#8dd3c7" stroke="black" points="2377.87,-377.8 2374.87,-381.8 2353.87,-381.8 2350.87,-377.8 2260.13,-377.8 2260.13,-341.8 2377.87,-341.8 2377.87,-377.8"/>
<text text-anchor="middle" x="2319" y="-355.6" font-family="Times,serif" font-size="14.00">PontuacaoModule</text>
</g>
<!-- PontuacaoModule&#45;&gt;LigaModule -->
<g id="edge26" class="edge">
<title>PontuacaoModule&#45;&gt;LigaModule</title>
<path fill="none" stroke="black" d="M2319,-377.85C2319,-392.17 2319,-409.8 2319,-409.8 2319,-409.8 838.16,-409.8 838.16,-409.8 838.16,-409.8 838.16,-410.59 838.16,-410.59"/>
<polygon fill="black" stroke="black" points="834.66,-407.74 838.16,-417.74 841.66,-407.74 834.66,-407.74"/>
</g>
<!-- PontuacaoModule&#45;&gt;PartidaModule -->
<g id="edge34" class="edge">
<title>PontuacaoModule&#45;&gt;PartidaModule</title>
<path fill="none" stroke="black" d="M2279.14,-341.75C2279.14,-327.43 2279.14,-309.8 2279.14,-309.8 2279.14,-309.8 796.79,-309.8 796.79,-309.8 796.79,-309.8 796.79,-331.75 796.79,-331.75"/>
<polygon fill="black" stroke="black" points="793.29,-331.75 796.79,-341.75 800.29,-331.75 793.29,-331.75"/>
</g>
<!-- PontuacaoService  -->
<g id="node37" class="node">
<title>PontuacaoService </title>
<polygon fill="#fb8072" stroke="black" points="2406.8,-301.8 2287.2,-301.8 2287.2,-265.8 2406.8,-265.8 2406.8,-301.8"/>
<text text-anchor="middle" x="2347" y="-279.6" font-family="Times,serif" font-size="14.00">PontuacaoService </text>
</g>
<!-- PontuacaoModule&#45;&gt;PontuacaoService  -->
<g id="edge49" class="edge">
<title>PontuacaoModule&#45;&gt;PontuacaoService </title>
<path fill="none" stroke="black" stroke-dasharray="5,2" d="M2332.52,-341.79C2332.52,-341.79 2332.52,-311.95 2332.52,-311.95"/>
<polygon fill="black" stroke="black" points="2336.02,-311.95 2332.52,-301.95 2329.02,-311.95 2336.02,-311.95"/>
</g>
<!-- ClassificacaoGeneratorService -->
<g id="node20" class="node">
<title>ClassificacaoGeneratorService</title>
<ellipse fill="#fdb462" stroke="black" cx="1994" cy="-359.8" rx="130.16" ry="18"/>
<text text-anchor="middle" x="1994" y="-355.6" font-family="Times,serif" font-size="14.00">ClassificacaoGeneratorService</text>
</g>
<!-- ClassificacaoGeneratorService&#45;&gt;LigaModule -->
<g id="edge28" class="edge">
<title>ClassificacaoGeneratorService&#45;&gt;LigaModule</title>
<path fill="none" stroke="black" d="M1877.01,-351.7C1877.01,-339.5 1877.01,-317.8 1877.01,-317.8 1877.01,-317.8 815.94,-317.8 815.94,-317.8 815.94,-317.8 815.94,-407.62 815.94,-407.62"/>
<polygon fill="black" stroke="black" points="812.44,-407.62 815.94,-417.62 819.44,-407.62 812.44,-407.62"/>
</g>
<!-- FinalGeneratorService -->
<g id="node21" class="node">
<title>FinalGeneratorService</title>
<ellipse fill="#fdb462" stroke="black" cx="1747" cy="-359.8" rx="98.4" ry="18"/>
<text text-anchor="middle" x="1747" y="-355.6" font-family="Times,serif" font-size="14.00">FinalGeneratorService</text>
</g>
<!-- FinalGeneratorService&#45;&gt;LigaModule -->
<g id="edge29" class="edge">
<title>FinalGeneratorService&#45;&gt;LigaModule</title>
<path fill="none" stroke="black" d="M1747,-377.99C1747,-386.08 1747,-393.8 1747,-393.8 1747,-393.8 833.71,-393.8 833.71,-393.8 833.71,-393.8 833.71,-407.74 833.71,-407.74"/>
<polygon fill="black" stroke="black" points="830.21,-407.74 833.71,-417.74 837.21,-407.74 830.21,-407.74"/>
</g>
<!-- LigaService -->
<g id="node22" class="node">
<title>LigaService</title>
<ellipse fill="#fdb462" stroke="black" cx="1573" cy="-359.8" rx="57.88" ry="18"/>
<text text-anchor="middle" x="1573" y="-355.6" font-family="Times,serif" font-size="14.00">LigaService</text>
</g>
<!-- LigaService&#45;&gt;LigaModule -->
<g id="edge30" class="edge">
<title>LigaService&#45;&gt;LigaModule</title>
<path fill="none" stroke="black" d="M1573,-377.86C1573,-382.29 1573,-385.8 1573,-385.8 1573,-385.8 829.27,-385.8 829.27,-385.8 829.27,-385.8 829.27,-407.75 829.27,-407.75"/>
<polygon fill="black" stroke="black" points="825.77,-407.75 829.27,-417.75 832.77,-407.75 825.77,-407.75"/>
</g>
<!-- QuartaDeFinalGeneratorService -->
<g id="node23" class="node">
<title>QuartaDeFinalGeneratorService</title>
<ellipse fill="#fdb462" stroke="black" cx="1361" cy="-359.8" rx="135.97" ry="18"/>
<text text-anchor="middle" x="1361" y="-355.6" font-family="Times,serif" font-size="14.00">QuartaDeFinalGeneratorService</text>
</g>
<!-- QuartaDeFinalGeneratorService&#45;&gt;LigaModule -->
<g id="edge31" class="edge">
<title>QuartaDeFinalGeneratorService&#45;&gt;LigaModule</title>
<path fill="none" stroke="black" d="M1234.77,-352.92C1234.77,-342.98 1234.77,-325.8 1234.77,-325.8 1234.77,-325.8 820.38,-325.8 820.38,-325.8 820.38,-325.8 820.38,-407.64 820.38,-407.64"/>
<polygon fill="black" stroke="black" points="816.88,-407.64 820.38,-417.64 823.88,-407.64 816.88,-407.64"/>
</g>
<!-- SemifinalGeneratorService -->
<g id="node24" class="node">
<title>SemifinalGeneratorService</title>
<ellipse fill="#fdb462" stroke="black" cx="1091" cy="-359.8" rx="116.29" ry="18"/>
<text text-anchor="middle" x="1091" y="-355.6" font-family="Times,serif" font-size="14.00">SemifinalGeneratorService</text>
</g>
<!-- SemifinalGeneratorService&#45;&gt;LigaModule -->
<g id="edge32" class="edge">
<title>SemifinalGeneratorService&#45;&gt;LigaModule</title>
<path fill="none" stroke="black" d="M981.2,-353.8C907.88,-353.8 824.83,-353.8 824.83,-353.8 824.83,-353.8 824.83,-407.6 824.83,-407.6"/>
<polygon fill="black" stroke="black" points="821.33,-407.6 824.83,-417.6 828.33,-407.6 821.33,-407.6"/>
</g>
<!-- AtletaEscaladoService -->
<g id="node27" class="node">
<title>AtletaEscaladoService</title>
<ellipse fill="#fdb462" stroke="black" cx="275" cy="-435.8" rx="98.39" ry="18"/>
<text text-anchor="middle" x="275" y="-431.6" font-family="Times,serif" font-size="14.00">AtletaEscaladoService</text>
</g>
<!-- AtletaEscaladoService&#45;&gt;PartidaModule -->
<g id="edge37" class="edge">
<title>AtletaEscaladoService&#45;&gt;PartidaModule</title>
<path fill="none" stroke="black" d="M275,-417.79C275,-395.31 275,-359.8 275,-359.8 275,-359.8 693.2,-359.8 693.2,-359.8"/>
<polygon fill="black" stroke="black" points="693.2,-363.3 703.2,-359.8 693.2,-356.3 693.2,-363.3"/>
</g>
<!-- PartidaService -->
<g id="node28" class="node">
<title>PartidaService</title>
<ellipse fill="#fdb462" stroke="black" cx="91" cy="-435.8" rx="67.19" ry="18"/>
<text text-anchor="middle" x="91" y="-431.6" font-family="Times,serif" font-size="14.00">PartidaService</text>
</g>
<!-- PartidaService&#45;&gt;PartidaModule -->
<g id="edge38" class="edge">
<title>PartidaService&#45;&gt;PartidaModule</title>
<path fill="none" stroke="black" d="M91,-417.77C91,-392.82 91,-350.8 91,-350.8 91,-350.8 693.24,-350.8 693.24,-350.8"/>
<polygon fill="black" stroke="black" points="693.24,-354.3 703.24,-350.8 693.24,-347.3 693.24,-354.3"/>
</g>
<!-- ArbitroService -->
<g id="node32" class="node">
<title>ArbitroService</title>
<ellipse fill="#fdb462" stroke="black" cx="1661" cy="-207.8" rx="68.34" ry="18"/>
<text text-anchor="middle" x="1661" y="-203.6" font-family="Times,serif" font-size="14.00">ArbitroService</text>
</g>
<!-- ArbitroService&#45;&gt;PessoaModule -->
<g id="edge44" class="edge">
<title>ArbitroService&#45;&gt;PessoaModule</title>
<path fill="none" stroke="black" d="M1611.63,-220.35C1611.63,-241.94 1611.63,-283.8 1611.63,-283.8 1611.63,-283.8 892.94,-283.8 892.94,-283.8"/>
<polygon fill="black" stroke="black" points="892.94,-280.3 882.94,-283.8 892.94,-287.3 892.94,-280.3"/>
</g>
<!-- AtletaService -->
<g id="node33" class="node">
<title>AtletaService</title>
<ellipse fill="#fdb462" stroke="black" cx="1511" cy="-207.8" rx="63.68" ry="18"/>
<text text-anchor="middle" x="1511" y="-203.6" font-family="Times,serif" font-size="14.00">AtletaService</text>
</g>
<!-- AtletaService&#45;&gt;PessoaModule -->
<g id="edge45" class="edge">
<title>AtletaService&#45;&gt;PessoaModule</title>
<path fill="none" stroke="black" d="M1472.2,-222.37C1472.2,-243.41 1472.2,-279.8 1472.2,-279.8 1472.2,-279.8 892.76,-279.8 892.76,-279.8"/>
<polygon fill="black" stroke="black" points="892.76,-276.3 882.76,-279.8 892.76,-283.3 892.76,-276.3"/>
</g>
<!-- AuxiliarService -->
<g id="node34" class="node">
<title>AuxiliarService</title>
<ellipse fill="#fdb462" stroke="black" cx="1357" cy="-207.8" rx="72.35" ry="18"/>
<text text-anchor="middle" x="1357" y="-203.6" font-family="Times,serif" font-size="14.00">AuxiliarService</text>
</g>
<!-- AuxiliarService&#45;&gt;PessoaModule -->
<g id="edge46" class="edge">
<title>AuxiliarService&#45;&gt;PessoaModule</title>
<path fill="none" stroke="black" d="M1357,-226.11C1357,-245.95 1357,-274.8 1357,-274.8 1357,-274.8 892.73,-274.8 892.73,-274.8"/>
<polygon fill="black" stroke="black" points="892.73,-271.3 882.73,-274.8 892.73,-278.3 892.73,-271.3"/>
</g>
<!-- DelegadoService -->
<g id="node35" class="node">
<title>DelegadoService</title>
<ellipse fill="#fdb462" stroke="black" cx="1985" cy="-207.8" rx="76.99" ry="18"/>
<text text-anchor="middle" x="1985" y="-203.6" font-family="Times,serif" font-size="14.00">DelegadoService</text>
</g>
<!-- DelegadoService&#45;&gt;PessoaModule -->
<g id="edge47" class="edge">
<title>DelegadoService&#45;&gt;PessoaModule</title>
<path fill="none" stroke="black" d="M1985,-225.83C1985,-250.78 1985,-292.8 1985,-292.8 1985,-292.8 892.72,-292.8 892.72,-292.8"/>
<polygon fill="black" stroke="black" points="892.72,-289.3 882.72,-292.8 892.72,-296.3 892.72,-289.3"/>
</g>
<!-- TecnicoService -->
<g id="node36" class="node">
<title>TecnicoService</title>
<ellipse fill="#fdb462" stroke="black" cx="1819" cy="-207.8" rx="71.18" ry="18"/>
<text text-anchor="middle" x="1819" y="-203.6" font-family="Times,serif" font-size="14.00">TecnicoService</text>
</g>
<!-- TecnicoService&#45;&gt;PessoaModule -->
<g id="edge48" class="edge">
<title>TecnicoService&#45;&gt;PessoaModule</title>
<path fill="none" stroke="black" d="M1796.68,-224.98C1796.68,-248.75 1796.68,-288.8 1796.68,-288.8 1796.68,-288.8 892.73,-288.8 892.73,-288.8"/>
<polygon fill="black" stroke="black" points="892.73,-285.3 882.73,-288.8 892.73,-292.3 892.73,-285.3"/>
</g>
<!-- PontuacaoService -->
<g id="node38" class="node">
<title>PontuacaoService</title>
<ellipse fill="#fdb462" stroke="black" cx="2183" cy="-283.8" rx="80.44" ry="18"/>
<text text-anchor="middle" x="2183" y="-279.6" font-family="Times,serif" font-size="14.00">PontuacaoService</text>
</g>
<!-- PontuacaoService&#45;&gt;PontuacaoModule -->
<g id="edge50" class="edge">
<title>PontuacaoService&#45;&gt;PontuacaoModule</title>
<path fill="none" stroke="black" d="M2263.35,-283.8C2268.21,-283.8 2271.18,-283.8 2271.18,-283.8 2271.18,-283.8 2271.18,-331.79 2271.18,-331.79"/>
<polygon fill="black" stroke="black" points="2267.68,-331.79 2271.18,-341.79 2274.68,-331.79 2267.68,-331.79"/>
</g>
</g>
</svg>
