<?xml version="1.0" encoding="UTF-8" standalone="no"?>
<!DOCTYPE svg PUBLIC "-//W3C//DTD SVG 1.1//EN"
 "http://www.w3.org/Graphics/SVG/1.1/DTD/svg11.dtd">
<!-- Generated by graphviz version 3.0.0 (20220226.1711)
 -->
<!-- Title: dependencies Pages: 1 -->
<svg width="1829pt" height="543pt"
 viewBox="0.00 0.00 1829.00 542.80" xmlns="http://www.w3.org/2000/svg" xmlns:xlink="http://www.w3.org/1999/xlink">
<g id="graph0" class="graph" transform="scale(1 1) rotate(0) translate(4 538.8)">
<title>dependencies</title>
<polygon fill="white" stroke="transparent" points="-4,4 -4,-538.8 1825,-538.8 1825,4 -4,4"/>
<text text-anchor="middle" x="910.5" y="-8.2" font-family="sans-serif" font-size="14.00">dependencies</text>
<g id="clust1" class="cluster">
<title>cluster_AppModule</title>
<polygon fill="none" stroke="black" stroke-dasharray="1,5" points="825,-108.8 825,-526.8 1061,-526.8 1061,-108.8 825,-108.8"/>
</g>
<g id="clust3" class="cluster">
<title>cluster_AppModule_imports</title>
<polygon fill="none" stroke="black" points="833,-116.8 833,-461.8 1053,-461.8 1053,-116.8 833,-116.8"/>
</g>
<g id="clust7" class="cluster">
<title>cluster_CoreModule</title>
<polygon fill="none" stroke="black" stroke-dasharray="1,5" points="1069,-173.8 1069,-241.8 1813,-241.8 1813,-173.8 1069,-173.8"/>
</g>
<g id="clust10" class="cluster">
<title>cluster_CoreModule_exports</title>
<polygon fill="none" stroke="black" points="1493,-181.8 1493,-233.8 1805,-233.8 1805,-181.8 1493,-181.8"/>
</g>
<g id="clust12" class="cluster">
<title>cluster_CoreModule_providers</title>
<polygon fill="none" stroke="black" points="1077,-181.8 1077,-233.8 1485,-233.8 1485,-181.8 1077,-181.8"/>
</g>
<g id="clust13" class="cluster">
<title>cluster_EquipeModule</title>
<polygon fill="none" stroke="black" stroke-dasharray="1,5" points="1069,-325.8 1069,-393.8 1361,-393.8 1361,-325.8 1069,-325.8"/>
</g>
<g id="clust16" class="cluster">
<title>cluster_EquipeModule_exports</title>
<polygon fill="none" stroke="black" points="1235,-333.8 1235,-385.8 1353,-385.8 1353,-333.8 1235,-333.8"/>
</g>
<g id="clust18" class="cluster">
<title>cluster_EquipeModule_providers</title>
<polygon fill="none" stroke="black" points="1077,-333.8 1077,-385.8 1227,-385.8 1227,-333.8 1077,-333.8"/>
</g>
<g id="clust19" class="cluster">
<title>cluster_GinasioModule</title>
<polygon fill="none" stroke="black" stroke-dasharray="1,5" points="1069,-249.8 1069,-317.8 1371,-317.8 1371,-249.8 1069,-249.8"/>
</g>
<g id="clust22" class="cluster">
<title>cluster_GinasioModule_exports</title>
<polygon fill="none" stroke="black" points="1241,-257.8 1241,-309.8 1363,-309.8 1363,-257.8 1241,-257.8"/>
</g>
<g id="clust24" class="cluster">
<title>cluster_GinasioModule_providers</title>
<polygon fill="none" stroke="black" points="1077,-257.8 1077,-309.8 1233,-309.8 1233,-257.8 1077,-257.8"/>
</g>
<g id="clust25" class="cluster">
<title>cluster_LigaModule</title>
<polygon fill="none" stroke="black" stroke-dasharray="1,5" points="1069,-401.8 1069,-469.8 1329,-469.8 1329,-401.8 1069,-401.8"/>
</g>
<g id="clust28" class="cluster">
<title>cluster_LigaModule_exports</title>
<polygon fill="none" stroke="black" points="1217,-409.8 1217,-461.8 1321,-461.8 1321,-409.8 1217,-409.8"/>
</g>
<g id="clust30" class="cluster">
<title>cluster_LigaModule_providers</title>
<polygon fill="none" stroke="black" points="1077,-409.8 1077,-461.8 1209,-461.8 1209,-409.8 1077,-409.8"/>
</g>
<g id="clust31" class="cluster">
<title>cluster_PartidaModule</title>
<polygon fill="none" stroke="black" stroke-dasharray="1,5" points="912,-32.8 912,-100.8 1078,-100.8 1078,-32.8 912,-32.8"/>
</g>
<g id="clust36" class="cluster">
<title>cluster_PartidaModule_providers</title>
<polygon fill="none" stroke="black" points="920,-40.8 920,-92.8 1070,-92.8 1070,-40.8 920,-40.8"/>
</g>
<g id="clust37" class="cluster">
<title>cluster_PessoaModule</title>
<polygon fill="none" stroke="black" stroke-dasharray="1,5" points="8,-325.8 8,-393.8 817,-393.8 817,-325.8 8,-325.8"/>
</g>
<g id="clust42" class="cluster">
<title>cluster_PessoaModule_providers</title>
<polygon fill="none" stroke="black" points="16,-333.8 16,-385.8 809,-385.8 809,-333.8 16,-333.8"/>
</g>
<!-- CoreModule -->
<g id="node1" class="node">
<title>CoreModule</title>
<polygon fill="#8dd3c7" stroke="black" points="927.27,-160.8 924.27,-164.8 903.27,-164.8 900.27,-160.8 840.73,-160.8 840.73,-124.8 927.27,-124.8 927.27,-160.8"/>
<text text-anchor="middle" x="884" y="-138.6" font-family="Times,serif" font-size="14.00">CoreModule</text>
</g>
<!-- EquipeModule -->
<g id="node2" class="node">
<title>EquipeModule</title>
<polygon fill="#8dd3c7" stroke="black" points="992.71,-301.8 989.71,-305.8 968.71,-305.8 965.71,-301.8 893.29,-301.8 893.29,-265.8 992.71,-265.8 992.71,-301.8"/>
<text text-anchor="middle" x="943" y="-279.6" font-family="Times,serif" font-size="14.00">EquipeModule</text>
</g>
<!-- CoreModule&#45;&gt;EquipeModule -->
<g id="edge11" class="edge">
<title>CoreModule&#45;&gt;EquipeModule</title>
<path fill="none" stroke="black" d="M901.42,-160.94C901.42,-160.94 901.42,-255.73 901.42,-255.73"/>
<polygon fill="black" stroke="black" points="897.92,-255.72 901.42,-265.73 904.92,-255.73 897.92,-255.72"/>
</g>
<!-- GinasioModule -->
<g id="node3" class="node">
<title>GinasioModule</title>
<polygon fill="#8dd3c7" stroke="black" points="1012.6,-225.8 1009.6,-229.8 988.6,-229.8 985.6,-225.8 909.4,-225.8 909.4,-189.8 1012.6,-189.8 1012.6,-225.8"/>
<text text-anchor="middle" x="961" y="-203.6" font-family="Times,serif" font-size="14.00">GinasioModule</text>
</g>
<!-- CoreModule&#45;&gt;GinasioModule -->
<g id="edge15" class="edge">
<title>CoreModule&#45;&gt;GinasioModule</title>
<path fill="none" stroke="black" d="M912.44,-160.91C912.44,-160.91 912.44,-179.79 912.44,-179.79"/>
<polygon fill="black" stroke="black" points="908.94,-179.79 912.44,-189.79 915.94,-179.79 908.94,-179.79"/>
</g>
<!-- LigaModule -->
<g id="node4" class="node">
<title>LigaModule</title>
<polygon fill="#8dd3c7" stroke="black" points="972.71,-377.8 969.71,-381.8 948.71,-381.8 945.71,-377.8 887.29,-377.8 887.29,-341.8 972.71,-341.8 972.71,-377.8"/>
<text text-anchor="middle" x="930" y="-355.6" font-family="Times,serif" font-size="14.00">LigaModule</text>
</g>
<!-- CoreModule&#45;&gt;LigaModule -->
<g id="edge18" class="edge">
<title>CoreModule&#45;&gt;LigaModule</title>
<path fill="none" stroke="black" d="M871.99,-161.16C871.99,-212.49 871.99,-353.8 871.99,-353.8 871.99,-353.8 877.23,-353.8 877.23,-353.8"/>
<polygon fill="black" stroke="black" points="877.23,-357.3 887.23,-353.8 877.23,-350.3 877.23,-357.3"/>
</g>
<!-- PessoaModule -->
<g id="node6" class="node">
<title>PessoaModule</title>
<polygon fill="#8dd3c7" stroke="black" points="938.66,-453.8 935.66,-457.8 914.66,-457.8 911.66,-453.8 841.34,-453.8 841.34,-417.8 938.66,-417.8 938.66,-453.8"/>
<text text-anchor="middle" x="890" y="-431.6" font-family="Times,serif" font-size="14.00">PessoaModule</text>
</g>
<!-- CoreModule&#45;&gt;PessoaModule -->
<g id="edge23" class="edge">
<title>CoreModule&#45;&gt;PessoaModule</title>
<path fill="none" stroke="black" d="M856.58,-161.13C856.58,-161.13 856.58,-407.48 856.58,-407.48"/>
<polygon fill="black" stroke="black" points="853.08,-407.48 856.58,-417.48 860.08,-407.48 853.08,-407.48"/>
</g>
<!-- AppModule -->
<g id="node7" class="node">
<title>AppModule</title>
<polygon fill="#8dd3c7" stroke="black" points="1042.66,-518.8 1039.66,-522.8 1018.66,-522.8 1015.66,-518.8 959.34,-518.8 959.34,-482.8 1042.66,-482.8 1042.66,-518.8"/>
<text text-anchor="middle" x="1001" y="-496.6" font-family="Times,serif" font-size="14.00">AppModule</text>
</g>
<!-- CoreModule&#45;&gt;AppModule -->
<g id="edge1" class="edge">
<title>CoreModule&#45;&gt;AppModule</title>
<path fill="none" stroke="black" d="M864.28,-160.81C864.28,-220 864.28,-404.8 864.28,-404.8 864.28,-404.8 963.65,-404.8 963.65,-404.8 963.65,-404.8 963.65,-472.74 963.65,-472.74"/>
<polygon fill="black" stroke="black" points="960.15,-472.74 963.65,-482.74 967.15,-472.74 960.15,-472.74"/>
</g>
<!-- TypeORMFilterService  -->
<g id="node8" class="node">
<title>TypeORMFilterService </title>
<polygon fill="#fb8072" stroke="black" points="1797.47,-225.8 1644.53,-225.8 1644.53,-189.8 1797.47,-189.8 1797.47,-225.8"/>
<text text-anchor="middle" x="1721" y="-203.6" font-family="Times,serif" font-size="14.00">TypeORMFilterService </text>
</g>
<!-- CoreModule&#45;&gt;TypeORMFilterService  -->
<g id="edge7" class="edge">
<title>CoreModule&#45;&gt;TypeORMFilterService </title>
<path fill="none" stroke="black" stroke-dasharray="5,2" d="M918.42,-160.99C918.42,-164.34 918.42,-166.8 918.42,-166.8 918.42,-166.8 1721,-166.8 1721,-166.8 1721,-166.8 1721,-179.7 1721,-179.7"/>
<polygon fill="black" stroke="black" points="1717.5,-179.7 1721,-189.7 1724.5,-179.7 1717.5,-179.7"/>
</g>
<!-- VerificaUrlService  -->
<g id="node9" class="node">
<title>VerificaUrlService </title>
<polygon fill="#fb8072" stroke="black" points="1627,-225.8 1501,-225.8 1501,-189.8 1627,-189.8 1627,-225.8"/>
<text text-anchor="middle" x="1564" y="-203.6" font-family="Times,serif" font-size="14.00">VerificaUrlService </text>
</g>
<!-- CoreModule&#45;&gt;VerificaUrlService  -->
<g id="edge8" class="edge">
<title>CoreModule&#45;&gt;VerificaUrlService </title>
<path fill="none" stroke="black" stroke-dasharray="5,2" d="M915.43,-160.94C915.43,-167.26 915.43,-172.8 915.43,-172.8 915.43,-172.8 1564,-172.8 1564,-172.8 1564,-172.8 1564,-179.48 1564,-179.48"/>
<polygon fill="black" stroke="black" points="1560.5,-179.48 1564,-189.48 1567.5,-179.48 1560.5,-179.48"/>
</g>
<!-- EquipeModule&#45;&gt;LigaModule -->
<g id="edge19" class="edge">
<title>EquipeModule&#45;&gt;LigaModule</title>
<path fill="none" stroke="black" d="M933,-301.81C933,-301.81 933,-331.65 933,-331.65"/>
<polygon fill="black" stroke="black" points="929.5,-331.65 933,-341.65 936.5,-331.65 929.5,-331.65"/>
</g>
<!-- EquipeModule&#45;&gt;PessoaModule -->
<g id="edge24" class="edge">
<title>EquipeModule&#45;&gt;PessoaModule</title>
<path fill="none" stroke="black" d="M893.12,-283.8C885.27,-283.8 879.69,-283.8 879.69,-283.8 879.69,-283.8 879.69,-407.77 879.69,-407.77"/>
<polygon fill="black" stroke="black" points="876.19,-407.77 879.69,-417.77 883.19,-407.77 876.19,-407.77"/>
</g>
<!-- EquipeModule&#45;&gt;AppModule -->
<g id="edge2" class="edge">
<title>EquipeModule&#45;&gt;AppModule</title>
<path fill="none" stroke="black" d="M982.6,-301.93C982.6,-301.93 982.6,-472.57 982.6,-472.57"/>
<polygon fill="black" stroke="black" points="979.1,-472.57 982.6,-482.57 986.1,-472.57 979.1,-472.57"/>
</g>
<!-- EquipeService  -->
<g id="node12" class="node">
<title>EquipeService </title>
<polygon fill="#fb8072" stroke="black" points="1344.63,-377.8 1243.37,-377.8 1243.37,-341.8 1344.63,-341.8 1344.63,-377.8"/>
<text text-anchor="middle" x="1294" y="-355.6" font-family="Times,serif" font-size="14.00">EquipeService </text>
</g>
<!-- EquipeModule&#45;&gt;EquipeService  -->
<g id="edge13" class="edge">
<title>EquipeModule&#45;&gt;EquipeService </title>
<path fill="none" stroke="black" stroke-dasharray="5,2" d="M977.6,-301.91C977.6,-311.7 977.6,-321.8 977.6,-321.8 977.6,-321.8 1297.03,-321.8 1297.03,-321.8 1297.03,-321.8 1297.03,-331.69 1297.03,-331.69"/>
<polygon fill="black" stroke="black" points="1293.53,-331.69 1297.03,-341.69 1300.53,-331.69 1293.53,-331.69"/>
</g>
<!-- GinasioModule&#45;&gt;EquipeModule -->
<g id="edge12" class="edge">
<title>GinasioModule&#45;&gt;EquipeModule</title>
<path fill="none" stroke="black" d="M951.03,-225.81C951.03,-225.81 951.03,-255.65 951.03,-255.65"/>
<polygon fill="black" stroke="black" points="947.53,-255.65 951.03,-265.65 954.53,-255.65 947.53,-255.65"/>
</g>
<!-- GinasioModule&#45;&gt;AppModule -->
<g id="edge3" class="edge">
<title>GinasioModule&#45;&gt;AppModule</title>
<path fill="none" stroke="black" d="M1002.58,-226.13C1002.58,-226.13 1002.58,-472.48 1002.58,-472.48"/>
<polygon fill="black" stroke="black" points="999.08,-472.48 1002.58,-482.48 1006.08,-472.48 999.08,-472.48"/>
</g>
<!-- GinasioService  -->
<g id="node14" class="node">
<title>GinasioService </title>
<polygon fill="#fb8072" stroke="black" points="1354.53,-301.8 1249.47,-301.8 1249.47,-265.8 1354.53,-265.8 1354.53,-301.8"/>
<text text-anchor="middle" x="1302" y="-279.6" font-family="Times,serif" font-size="14.00">GinasioService </text>
</g>
<!-- GinasioModule&#45;&gt;GinasioService  -->
<g id="edge16" class="edge">
<title>GinasioModule&#45;&gt;GinasioService </title>
<path fill="none" stroke="black" stroke-dasharray="5,2" d="M997.59,-225.91C997.59,-235.7 997.59,-245.8 997.59,-245.8 997.59,-245.8 1262.37,-245.8 1262.37,-245.8 1262.37,-245.8 1262.37,-255.69 1262.37,-255.69"/>
<polygon fill="black" stroke="black" points="1258.87,-255.69 1262.37,-265.69 1265.87,-255.69 1258.87,-255.69"/>
</g>
<!-- LigaModule&#45;&gt;PessoaModule -->
<g id="edge25" class="edge">
<title>LigaModule&#45;&gt;PessoaModule</title>
<path fill="none" stroke="black" d="M913.11,-377.81C913.11,-377.81 913.11,-407.65 913.11,-407.65"/>
<polygon fill="black" stroke="black" points="909.61,-407.65 913.11,-417.65 916.61,-407.65 909.61,-407.65"/>
</g>
<!-- LigaModule&#45;&gt;AppModule -->
<g id="edge4" class="edge">
<title>LigaModule&#45;&gt;AppModule</title>
<path fill="none" stroke="black" d="M968.13,-377.94C968.13,-377.94 968.13,-472.73 968.13,-472.73"/>
<polygon fill="black" stroke="black" points="964.63,-472.72 968.13,-482.73 971.63,-472.73 964.63,-472.72"/>
</g>
<!-- LigaService  -->
<g id="node16" class="node">
<title>LigaService </title>
<polygon fill="#fb8072" stroke="black" points="1312.63,-453.8 1225.37,-453.8 1225.37,-417.8 1312.63,-417.8 1312.63,-453.8"/>
<text text-anchor="middle" x="1269" y="-431.6" font-family="Times,serif" font-size="14.00">LigaService </text>
</g>
<!-- LigaModule&#45;&gt;LigaService  -->
<g id="edge20" class="edge">
<title>LigaModule&#45;&gt;LigaService </title>
<path fill="none" stroke="black" stroke-dasharray="5,2" d="M965.89,-378.04C965.89,-385.23 965.89,-391.8 965.89,-391.8 965.89,-391.8 1234.43,-391.8 1234.43,-391.8 1234.43,-391.8 1234.43,-407.65 1234.43,-407.65"/>
<polygon fill="black" stroke="black" points="1230.93,-407.65 1234.43,-417.65 1237.93,-407.65 1230.93,-407.65"/>
</g>
<!-- PartidaModule -->
<g id="node5" class="node">
<title>PartidaModule</title>
<polygon fill="#8dd3c7" stroke="black" points="1044.71,-160.8 1041.71,-164.8 1020.71,-164.8 1017.71,-160.8 945.29,-160.8 945.29,-124.8 1044.71,-124.8 1044.71,-160.8"/>
<text text-anchor="middle" x="995" y="-138.6" font-family="Times,serif" font-size="14.00">PartidaModule</text>
</g>
<!-- PartidaModule&#45;&gt;AppModule -->
<g id="edge5" class="edge">
<title>PartidaModule&#45;&gt;AppModule</title>
<path fill="none" stroke="black" d="M1027.69,-161.05C1027.69,-161.05 1027.69,-472.59 1027.69,-472.59"/>
<polygon fill="black" stroke="black" points="1024.19,-472.59 1027.69,-482.59 1031.19,-472.59 1024.19,-472.59"/>
</g>
<!-- PessoaModule&#45;&gt;AppModule -->
<g id="edge6" class="edge">
<title>PessoaModule&#45;&gt;AppModule</title>
<path fill="none" stroke="black" d="M938.81,-441.8C951.37,-441.8 961.41,-441.8 961.41,-441.8 961.41,-441.8 961.41,-472.78 961.41,-472.78"/>
<polygon fill="black" stroke="black" points="957.91,-472.78 961.41,-482.78 964.91,-472.78 957.91,-472.78"/>
</g>
<!-- TypeORMFilterService -->
<g id="node10" class="node">
<title>TypeORMFilterService</title>
<ellipse fill="#fdb462" stroke="black" cx="1374" cy="-207.8" rx="102.52" ry="18"/>
<text text-anchor="middle" x="1374" y="-203.6" font-family="Times,serif" font-size="14.00">TypeORMFilterService</text>
</g>
<!-- TypeORMFilterService&#45;&gt;CoreModule -->
<g id="edge9" class="edge">
<title>TypeORMFilterService&#45;&gt;CoreModule</title>
<path fill="none" stroke="black" d="M1374,-189.6C1374,-183.77 1374,-178.8 1374,-178.8 1374,-178.8 924.39,-178.8 924.39,-178.8 924.39,-178.8 924.39,-171.22 924.39,-171.22"/>
<polygon fill="black" stroke="black" points="927.89,-171.22 924.39,-161.22 920.89,-171.22 927.89,-171.22"/>
</g>
<!-- VerificaUrlService -->
<g id="node11" class="node">
<title>VerificaUrlService</title>
<ellipse fill="#fdb462" stroke="black" cx="1169" cy="-207.8" rx="84.49" ry="18"/>
<text text-anchor="middle" x="1169" y="-203.6" font-family="Times,serif" font-size="14.00">VerificaUrlService</text>
</g>
<!-- VerificaUrlService&#45;&gt;CoreModule -->
<g id="edge10" class="edge">
<title>VerificaUrlService&#45;&gt;CoreModule</title>
<path fill="none" stroke="black" d="M1169,-189.68C1169,-186.83 1169,-184.8 1169,-184.8 1169,-184.8 921.4,-184.8 921.4,-184.8 921.4,-184.8 921.4,-170.86 921.4,-170.86"/>
<polygon fill="black" stroke="black" points="924.9,-170.86 921.4,-160.86 917.9,-170.86 924.9,-170.86"/>
</g>
<!-- EquipeService -->
<g id="node13" class="node">
<title>EquipeService</title>
<ellipse fill="#fdb462" stroke="black" cx="1152" cy="-359.8" rx="67.19" ry="18"/>
<text text-anchor="middle" x="1152" y="-355.6" font-family="Times,serif" font-size="14.00">EquipeService</text>
</g>
<!-- EquipeService&#45;&gt;EquipeModule -->
<g id="edge14" class="edge">
<title>EquipeService&#45;&gt;EquipeModule</title>
<path fill="none" stroke="black" d="M1084.18,-359.8C1038.9,-359.8 987.6,-359.8 987.6,-359.8 987.6,-359.8 987.6,-311.81 987.6,-311.81"/>
<polygon fill="black" stroke="black" points="991.1,-311.81 987.6,-301.81 984.1,-311.81 991.1,-311.81"/>
</g>
<!-- GinasioService -->
<g id="node15" class="node">
<title>GinasioService</title>
<ellipse fill="#fdb462" stroke="black" cx="1155" cy="-283.8" rx="70.07" ry="18"/>
<text text-anchor="middle" x="1155" y="-279.6" font-family="Times,serif" font-size="14.00">GinasioService</text>
</g>
<!-- GinasioService&#45;&gt;GinasioModule -->
<g id="edge17" class="edge">
<title>GinasioService&#45;&gt;GinasioModule</title>
<path fill="none" stroke="black" d="M1084.74,-283.8C1046.76,-283.8 1007.56,-283.8 1007.56,-283.8 1007.56,-283.8 1007.56,-235.81 1007.56,-235.81"/>
<polygon fill="black" stroke="black" points="1011.06,-235.81 1007.56,-225.81 1004.06,-235.81 1011.06,-235.81"/>
</g>
<!-- LigaService -->
<g id="node17" class="node">
<title>LigaService</title>
<ellipse fill="#fdb462" stroke="black" cx="1143" cy="-435.8" rx="57.88" ry="18"/>
<text text-anchor="middle" x="1143" y="-431.6" font-family="Times,serif" font-size="14.00">LigaService</text>
</g>
<!-- LigaService&#45;&gt;LigaModule -->
<g id="edge21" class="edge">
<title>LigaService&#45;&gt;LigaModule</title>
<path fill="none" stroke="black" d="M1088.38,-429.8C1037.8,-429.8 970.36,-429.8 970.36,-429.8 970.36,-429.8 970.36,-387.83 970.36,-387.83"/>
<polygon fill="black" stroke="black" points="973.86,-387.83 970.36,-377.83 966.86,-387.83 973.86,-387.83"/>
</g>
<!-- PartidaService -->
<g id="node18" class="node">
<title>PartidaService</title>
<ellipse fill="#fdb462" stroke="black" cx="995" cy="-66.8" rx="67.19" ry="18"/>
<text text-anchor="middle" x="995" y="-62.6" font-family="Times,serif" font-size="14.00">PartidaService</text>
</g>
<!-- PartidaService&#45;&gt;PartidaModule -->
<g id="edge22" class="edge">
<title>PartidaService&#45;&gt;PartidaModule</title>
<path fill="none" stroke="black" d="M995,-84.81C995,-84.81 995,-114.65 995,-114.65"/>
<polygon fill="black" stroke="black" points="991.5,-114.65 995,-124.65 998.5,-114.65 991.5,-114.65"/>
</g>
<!-- ArbitroService -->
<g id="node19" class="node">
<title>ArbitroService</title>
<ellipse fill="#fdb462" stroke="black" cx="238" cy="-359.8" rx="68.34" ry="18"/>
<text text-anchor="middle" x="238" y="-355.6" font-family="Times,serif" font-size="14.00">ArbitroService</text>
</g>
<!-- ArbitroService&#45;&gt;PessoaModule -->
<g id="edge26" class="edge">
<title>ArbitroService&#45;&gt;PessoaModule</title>
<path fill="none" stroke="black" d="M238,-377.95C238,-401.56 238,-439.8 238,-439.8 238,-439.8 831.26,-439.8 831.26,-439.8"/>
<polygon fill="black" stroke="black" points="831.26,-443.3 841.26,-439.8 831.26,-436.3 831.26,-443.3"/>
</g>
<!-- AtletaService -->
<g id="node20" class="node">
<title>AtletaService</title>
<ellipse fill="#fdb462" stroke="black" cx="88" cy="-359.8" rx="63.68" ry="18"/>
<text text-anchor="middle" x="88" y="-355.6" font-family="Times,serif" font-size="14.00">AtletaService</text>
</g>
<!-- AtletaService&#45;&gt;PessoaModule -->
<g id="edge27" class="edge">
<title>AtletaService&#45;&gt;PessoaModule</title>
<path fill="none" stroke="black" d="M88,-377.83C88,-403.31 88,-446.8 88,-446.8 88,-446.8 831.04,-446.8 831.04,-446.8"/>
<polygon fill="black" stroke="black" points="831.04,-450.3 841.04,-446.8 831.04,-443.3 831.04,-450.3"/>
</g>
<!-- AuxiliarService -->
<g id="node21" class="node">
<title>AuxiliarService</title>
<ellipse fill="#fdb462" stroke="black" cx="729" cy="-359.8" rx="72.35" ry="18"/>
<text text-anchor="middle" x="729" y="-355.6" font-family="Times,serif" font-size="14.00">AuxiliarService</text>
</g>
<!-- AuxiliarService&#45;&gt;PessoaModule -->
<g id="edge28" class="edge">
<title>AuxiliarService&#45;&gt;PessoaModule</title>
<path fill="none" stroke="black" d="M797.34,-365.8C824.26,-365.8 848.87,-365.8 848.87,-365.8 848.87,-365.8 848.87,-407.77 848.87,-407.77"/>
<polygon fill="black" stroke="black" points="845.37,-407.77 848.87,-417.77 852.37,-407.77 845.37,-407.77"/>
</g>
<!-- DelegadoService -->
<g id="node22" class="node">
<title>DelegadoService</title>
<ellipse fill="#fdb462" stroke="black" cx="562" cy="-359.8" rx="76.99" ry="18"/>
<text text-anchor="middle" x="562" y="-355.6" font-family="Times,serif" font-size="14.00">DelegadoService</text>
</g>
<!-- DelegadoService&#45;&gt;PessoaModule -->
<g id="edge29" class="edge">
<title>DelegadoService&#45;&gt;PessoaModule</title>
<path fill="none" stroke="black" d="M562,-377.83C562,-397.38 562,-425.8 562,-425.8 562,-425.8 831.25,-425.8 831.25,-425.8"/>
<polygon fill="black" stroke="black" points="831.25,-429.3 841.25,-425.8 831.25,-422.3 831.25,-429.3"/>
</g>
<!-- TecnicoService -->
<g id="node23" class="node">
<title>TecnicoService</title>
<ellipse fill="#fdb462" stroke="black" cx="396" cy="-359.8" rx="71.18" ry="18"/>
<text text-anchor="middle" x="396" y="-355.6" font-family="Times,serif" font-size="14.00">TecnicoService</text>
</g>
<!-- TecnicoService&#45;&gt;PessoaModule -->
<g id="edge30" class="edge">
<title>TecnicoService&#45;&gt;PessoaModule</title>
<path fill="none" stroke="black" d="M396,-377.84C396,-399.46 396,-432.8 396,-432.8 396,-432.8 831.28,-432.8 831.28,-432.8"/>
<polygon fill="black" stroke="black" points="831.28,-436.3 841.28,-432.8 831.28,-429.3 831.28,-436.3"/>
</g>
</g>
</svg>
