<?xml version="1.0" encoding="UTF-8" standalone="no"?>
<!DOCTYPE svg PUBLIC "-//W3C//DTD SVG 1.1//EN"
 "http://www.w3.org/Graphics/SVG/1.1/DTD/svg11.dtd">
<!-- Generated by graphviz version 5.0.0 (20220707.1540)
 -->
<!-- Title: dependencies Pages: 1 -->
<svg width="556pt" height="247pt"
 viewBox="0.00 0.00 556.00 246.80" xmlns="http://www.w3.org/2000/svg" xmlns:xlink="http://www.w3.org/1999/xlink">
<g id="graph0" class="graph" transform="scale(1 1) rotate(0) translate(4 242.8)">
<title>dependencies</title>
<polygon fill="white" stroke="transparent" points="-4,4 -4,-242.8 552,-242.8 552,4 -4,4"/>
<text text-anchor="middle" x="274" y="-8.2" font-family="sans-serif" font-size="14.00">dependencies</text>
<g id="clust1" class="cluster">
<title>cluster_SmsModule</title>
<polygon fill="none" stroke="black" stroke-dasharray="1,5" points="8,-32.8 8,-230.8 540,-230.8 540,-32.8 8,-32.8"/>
</g>
<g id="clust4" class="cluster">
<title>cluster_SmsModule_exports</title>
<polygon fill="none" stroke="black" points="55,-170.8 55,-222.8 445,-222.8 445,-170.8 55,-170.8"/>
</g>
<g id="clust6" class="cluster">
<title>cluster_SmsModule_providers</title>
<polygon fill="none" stroke="black" points="16,-40.8 16,-92.8 532,-92.8 532,-40.8 16,-40.8"/>
</g>
<!-- EnviaVerificacaoSmsService  -->
<g id="node1" class="node">
<title>EnviaVerificacaoSmsService </title>
<polygon fill="#fb8072" stroke="black" points="436.54,-214.8 253.46,-214.8 253.46,-178.8 436.54,-178.8 436.54,-214.8"/>
<text text-anchor="middle" x="345" y="-192.6" font-family="Times,serif" font-size="14.00">EnviaVerificacaoSmsService </text>
</g>
<!-- VerificaCodigoSmsService  -->
<g id="node2" class="node">
<title>VerificaCodigoSmsService </title>
<polygon fill="#fb8072" stroke="black" points="235.19,-214.8 62.81,-214.8 62.81,-178.8 235.19,-178.8 235.19,-214.8"/>
<text text-anchor="middle" x="149" y="-192.6" font-family="Times,serif" font-size="14.00">VerificaCodigoSmsService </text>
</g>
<!-- SmsModule -->
<g id="node3" class="node">
<title>SmsModule</title>
<polygon fill="#8dd3c7" stroke="black" points="229.68,-149.8 226.68,-153.8 205.68,-153.8 202.68,-149.8 146.32,-149.8 146.32,-113.8 229.68,-113.8 229.68,-149.8"/>
<text text-anchor="middle" x="188" y="-127.6" font-family="Times,serif" font-size="14.00">SmsModule</text>
</g>
<!-- SmsModule&#45;&gt;EnviaVerificacaoSmsService  -->
<g id="edge1" class="edge">
<title>SmsModule&#45;&gt;EnviaVerificacaoSmsService </title>
<path fill="none" stroke="black" stroke-dasharray="5,2" d="M229.68,-137.8C248.58,-137.8 266.76,-137.8 266.76,-137.8 266.76,-137.8 266.76,-168.78 266.76,-168.78"/>
<polygon fill="black" stroke="black" points="263.26,-168.78 266.76,-178.78 270.26,-168.78 263.26,-168.78"/>
</g>
<!-- SmsModule&#45;&gt;VerificaCodigoSmsService  -->
<g id="edge2" class="edge">
<title>SmsModule&#45;&gt;VerificaCodigoSmsService </title>
<path fill="none" stroke="black" stroke-dasharray="5,2" d="M188,-149.91C188,-149.91 188,-168.79 188,-168.79"/>
<polygon fill="black" stroke="black" points="184.5,-168.79 188,-178.79 191.5,-168.79 184.5,-168.79"/>
</g>
<!-- EnviaVerificacaoSmsService -->
<g id="node4" class="node">
<title>EnviaVerificacaoSmsService</title>
<ellipse fill="#fdb462" stroke="black" cx="400" cy="-66.8" rx="124.38" ry="18"/>
<text text-anchor="middle" x="400" y="-62.6" font-family="Times,serif" font-size="14.00">EnviaVerificacaoSmsService</text>
</g>
<!-- EnviaVerificacaoSmsService&#45;&gt;SmsModule -->
<g id="edge3" class="edge">
<title>EnviaVerificacaoSmsService&#45;&gt;SmsModule</title>
<path fill="none" stroke="black" d="M356.29,-83.87C356.29,-101.29 356.29,-125.8 356.29,-125.8 356.29,-125.8 240.03,-125.8 240.03,-125.8"/>
<polygon fill="black" stroke="black" points="240.03,-122.3 230.03,-125.8 240.03,-129.3 240.03,-122.3"/>
</g>
<!-- VerificaCodigoSmsService -->
<g id="node5" class="node">
<title>VerificaCodigoSmsService</title>
<ellipse fill="#fdb462" stroke="black" cx="141" cy="-66.8" rx="116.9" ry="18"/>
<text text-anchor="middle" x="141" y="-62.6" font-family="Times,serif" font-size="14.00">VerificaCodigoSmsService</text>
</g>
<!-- VerificaCodigoSmsService&#45;&gt;SmsModule -->
<g id="edge4" class="edge">
<title>VerificaCodigoSmsService&#45;&gt;SmsModule</title>
<path fill="none" stroke="black" d="M188,-83.54C188,-83.54 188,-103.52 188,-103.52"/>
<polygon fill="black" stroke="black" points="184.5,-103.52 188,-113.52 191.5,-103.52 184.5,-103.52"/>
</g>
</g>
</svg>
