<?xml version="1.0" encoding="UTF-8" standalone="no"?><svg xmlns="http://www.w3.org/2000/svg" xmlns:xlink="http://www.w3.org/1999/xlink" contentScriptType="application/ecmascript" contentStyleType="text/css" height="856px" preserveAspectRatio="none" style="width:892px;height:856px;background:#FFFFFF;" version="1.1" viewBox="0 0 892 856" width="892px" zoomAndPan="magnify"><defs><filter height="300%" id="f3sh2s41jbcr8" width="300%" x="-1" y="-1"><feGaussianBlur result="blurOut" stdDeviation="2.0"/><feColorMatrix in="blurOut" result="blurOut2" type="matrix" values="0 0 0 0 0 0 0 0 0 0 0 0 0 0 0 0 0 0 .4 0"/><feOffset dx="4.0" dy="4.0" in="blurOut2" result="blurOut3"/><feBlend in="SourceGraphic" in2="blurOut3" mode="normal"/></filter></defs><g><text fill="#000000" font-family="sans-serif" font-size="18" lengthAdjust="spacing" textLength="106" x="386.75" y="18.6855">ER - Equipes</text><!--MD5=[dc233d59e62d3f8990ee27cfbfaa6f65]
class genero--><rect codeLine="3" fill="#FEFECE" filter="url(#f3sh2s41jbcr8)" height="75.6719" id="genero" style="stroke:#A80036;stroke-width:1.5;" width="71" x="13" y="71.1406"/><ellipse cx="28" cy="87.1406" fill="#EB937F" rx="11" ry="11" style="stroke:#A80036;stroke-width:1.0;"/><path d="M26.8594,87.9375 L26.8594,90.4375 L31.1875,90.4375 L31.1875,89.5156 Q31.1875,88.9063 31.4219,88.6406 Q31.6719,88.375 32.0469,88.375 Q32.4219,88.375 32.6563,88.6406 Q32.8906,88.9063 32.8906,89.5156 L32.8906,92.1406 L24.8906,92.1406 Q24.2656,92.1406 24,91.9063 Q23.75,91.6719 23.75,91.2813 Q23.75,90.9063 24.0156,90.6719 Q24.2813,90.4375 24.8906,90.4375 L25.1563,90.4375 L25.1563,83.7813 L24.8906,83.7813 Q24.2656,83.7813 24,83.5469 Q23.75,83.3125 23.75,82.9219 Q23.75,82.5469 24,82.3125 Q24.2656,82.0781 24.8906,82.0781 L32.5156,82.0781 L32.5156,84.6719 Q32.5156,85.2813 32.2813,85.5469 Q32.0625,85.7969 31.6719,85.7969 Q31.2969,85.7969 31.0625,85.5469 Q30.8281,85.2813 30.8281,84.6719 L30.8281,83.7813 L26.8594,83.7813 L26.8594,86.2344 L28.3438,86.2344 Q28.3438,85.5781 28.4688,85.3906 Q28.7344,84.9844 29.2031,84.9844 Q29.5781,84.9844 29.8125,85.25 Q30.0469,85.5 30.0469,86.1094 L30.0469,88.0781 Q30.0469,88.625 29.9219,88.8125 Q29.6563,89.2031 29.2031,89.2031 Q28.7344,89.2031 28.4688,88.7969 Q28.3438,88.6094 28.3438,87.9375 L26.8594,87.9375 Z " fill="#000000"/><text fill="#000000" font-family="sans-serif" font-size="12" lengthAdjust="spacing" textLength="39" x="42" y="92.0508">genero</text><line style="stroke:#A80036;stroke-width:1.5;" x1="14" x2="83" y1="103.1406" y2="103.1406"/><text fill="#000000" font-family="sans-serif" font-size="11" lengthAdjust="spacing" textLength="48" x="19" y="118.5596">masculino</text><text fill="#000000" font-family="sans-serif" font-size="11" lengthAdjust="spacing" textLength="40" x="19" y="132.3955">feminino</text><line style="stroke:#A80036;stroke-width:1.5;" x1="14" x2="83" y1="138.8125" y2="138.8125"/><!--MD5=[83cfebc3c035bca8cb152800980d79fe]
class competicoes--><rect codeLine="8" fill="#FEFECE" filter="url(#f3sh2s41jbcr8)" height="117.1797" id="competicoes" style="stroke:#A80036;stroke-width:1.5;" width="141" x="255" y="50.6406"/><ellipse cx="287.1" cy="66.6406" fill="#ADD1B2" rx="11" ry="11" style="stroke:#A80036;stroke-width:1.0;"/><path d="M285.9594,67.4375 L285.9594,69.9375 L290.2875,69.9375 L290.2875,69.0156 Q290.2875,68.4063 290.5219,68.1406 Q290.7719,67.875 291.1469,67.875 Q291.5219,67.875 291.7563,68.1406 Q291.9906,68.4063 291.9906,69.0156 L291.9906,71.6406 L283.9906,71.6406 Q283.3656,71.6406 283.1,71.4063 Q282.85,71.1719 282.85,70.7813 Q282.85,70.4063 283.1156,70.1719 Q283.3813,69.9375 283.9906,69.9375 L284.2563,69.9375 L284.2563,63.2813 L283.9906,63.2813 Q283.3656,63.2813 283.1,63.0469 Q282.85,62.8125 282.85,62.4219 Q282.85,62.0469 283.1,61.8125 Q283.3656,61.5781 283.9906,61.5781 L291.6156,61.5781 L291.6156,64.1719 Q291.6156,64.7813 291.3813,65.0469 Q291.1625,65.2969 290.7719,65.2969 Q290.3969,65.2969 290.1625,65.0469 Q289.9281,64.7813 289.9281,64.1719 L289.9281,63.2813 L285.9594,63.2813 L285.9594,65.7344 L287.4438,65.7344 Q287.4438,65.0781 287.5688,64.8906 Q287.8344,64.4844 288.3031,64.4844 Q288.6781,64.4844 288.9125,64.75 Q289.1469,65 289.1469,65.6094 L289.1469,67.5781 Q289.1469,68.125 289.0219,68.3125 Q288.7563,68.7031 288.3031,68.7031 Q287.8344,68.7031 287.5688,68.2969 Q287.4438,68.1094 287.4438,67.4375 L285.9594,67.4375 Z " fill="#000000"/><text fill="#000000" font-family="sans-serif" font-size="12" lengthAdjust="spacing" textLength="71" x="304.9" y="71.5508">competicoes</text><line style="stroke:#A80036;stroke-width:1.5;" x1="256" x2="395" y1="82.6406" y2="82.6406"/><ellipse cx="266" cy="93.6406" fill="#000000" rx="3" ry="3" style="stroke:#000000;stroke-width:1.0;"/><text fill="#000000" font-family="sans-serif" font-size="11" lengthAdjust="spacing" textLength="101" x="275" y="98.0596">id : uuid «generated»</text><line style="stroke:#A80036;stroke-width:1.0;" x1="256" x2="395" y1="104.4766" y2="104.4766"/><ellipse cx="266" cy="115.4766" fill="#000000" rx="3" ry="3" style="stroke:#000000;stroke-width:1.0;"/><text fill="#000000" font-family="sans-serif" font-size="11" lengthAdjust="spacing" textLength="77" x="275" y="119.8955">genero : genero</text><ellipse cx="266" cy="129.3125" fill="#000000" rx="3" ry="3" style="stroke:#000000;stroke-width:1.0;"/><text fill="#000000" font-family="sans-serif" font-size="11" lengthAdjust="spacing" textLength="115" x="275" y="133.7314">comeca_em : timestamp</text><text fill="#000000" font-family="sans-serif" font-size="11" lengthAdjust="spacing" textLength="53" x="275" y="147.5674">nome : text</text><text fill="#000000" font-family="sans-serif" font-size="11" lengthAdjust="spacing" textLength="71" x="275" y="161.4033">serie : text = A</text><!--MD5=[8c96a0ccc357c8d238b00fbcc6caf691]
class times--><rect codeLine="17" fill="#FEFECE" filter="url(#f3sh2s41jbcr8)" height="131.0156" id="times" style="stroke:#A80036;stroke-width:1.5;" width="144" x="303.5" y="266.6406"/><ellipse cx="355.75" cy="282.6406" fill="#ADD1B2" rx="11" ry="11" style="stroke:#A80036;stroke-width:1.0;"/><path d="M354.6094,283.4375 L354.6094,285.9375 L358.9375,285.9375 L358.9375,285.0156 Q358.9375,284.4063 359.1719,284.1406 Q359.4219,283.875 359.7969,283.875 Q360.1719,283.875 360.4063,284.1406 Q360.6406,284.4063 360.6406,285.0156 L360.6406,287.6406 L352.6406,287.6406 Q352.0156,287.6406 351.75,287.4063 Q351.5,287.1719 351.5,286.7813 Q351.5,286.4063 351.7656,286.1719 Q352.0313,285.9375 352.6406,285.9375 L352.9063,285.9375 L352.9063,279.2813 L352.6406,279.2813 Q352.0156,279.2813 351.75,279.0469 Q351.5,278.8125 351.5,278.4219 Q351.5,278.0469 351.75,277.8125 Q352.0156,277.5781 352.6406,277.5781 L360.2656,277.5781 L360.2656,280.1719 Q360.2656,280.7813 360.0313,281.0469 Q359.8125,281.2969 359.4219,281.2969 Q359.0469,281.2969 358.8125,281.0469 Q358.5781,280.7813 358.5781,280.1719 L358.5781,279.2813 L354.6094,279.2813 L354.6094,281.7344 L356.0938,281.7344 Q356.0938,281.0781 356.2188,280.8906 Q356.4844,280.4844 356.9531,280.4844 Q357.3281,280.4844 357.5625,280.75 Q357.7969,281 357.7969,281.6094 L357.7969,283.5781 Q357.7969,284.125 357.6719,284.3125 Q357.4063,284.7031 356.9531,284.7031 Q356.4844,284.7031 356.2188,284.2969 Q356.0938,284.1094 356.0938,283.4375 L354.6094,283.4375 Z " fill="#000000"/><text fill="#000000" font-family="sans-serif" font-size="12" lengthAdjust="spacing" textLength="31" x="376.25" y="287.5508">times</text><line style="stroke:#A80036;stroke-width:1.5;" x1="304.5" x2="446.5" y1="298.6406" y2="298.6406"/><ellipse cx="314.5" cy="309.6406" fill="#000000" rx="3" ry="3" style="stroke:#000000;stroke-width:1.0;"/><text fill="#000000" font-family="sans-serif" font-size="11" lengthAdjust="spacing" textLength="101" x="323.5" y="314.0596">id : uuid «generated»</text><line style="stroke:#A80036;stroke-width:1.0;" x1="304.5" x2="446.5" y1="320.4766" y2="320.4766"/><ellipse cx="314.5" cy="331.4766" fill="#000000" rx="3" ry="3" style="stroke:#000000;stroke-width:1.0;"/><text fill="#000000" font-family="sans-serif" font-size="11" lengthAdjust="spacing" textLength="53" x="323.5" y="335.8955">nome : text</text><text fill="#000000" font-family="sans-serif" font-size="11" lengthAdjust="spacing" textLength="79" x="323.5" y="349.7314">url_brasao : text</text><ellipse cx="314.5" cy="359.1484" fill="#000000" rx="3" ry="3" style="stroke:#000000;stroke-width:1.0;"/><text fill="#000000" font-family="sans-serif" font-size="11" lengthAdjust="spacing" textLength="105" x="323.5" y="363.5674">id_ginasio : uuid «FK»</text><ellipse cx="314.5" cy="372.9844" fill="#000000" rx="3" ry="3" style="stroke:#000000;stroke-width:1.0;"/><text fill="#000000" font-family="sans-serif" font-size="11" lengthAdjust="spacing" textLength="104" x="323.5" y="377.4033">apta : boolean = false</text><text fill="#000000" font-family="sans-serif" font-size="11" lengthAdjust="spacing" textLength="118" x="323.5" y="391.2393">descricao_aptidao : json</text><!--MD5=[e75958d35815a3d093500ad3cdef0499]
class ginasios--><rect codeLine="29" fill="#FEFECE" filter="url(#f3sh2s41jbcr8)" height="103.3438" id="ginasios" style="stroke:#A80036;stroke-width:1.5;" width="127" x="523" y="519.6406"/><ellipse cx="559.15" cy="535.6406" fill="#ADD1B2" rx="11" ry="11" style="stroke:#A80036;stroke-width:1.0;"/><path d="M558.0094,536.4375 L558.0094,538.9375 L562.3375,538.9375 L562.3375,538.0156 Q562.3375,537.4063 562.5719,537.1406 Q562.8219,536.875 563.1969,536.875 Q563.5719,536.875 563.8063,537.1406 Q564.0406,537.4063 564.0406,538.0156 L564.0406,540.6406 L556.0406,540.6406 Q555.4156,540.6406 555.15,540.4063 Q554.9,540.1719 554.9,539.7813 Q554.9,539.4063 555.1656,539.1719 Q555.4313,538.9375 556.0406,538.9375 L556.3063,538.9375 L556.3063,532.2813 L556.0406,532.2813 Q555.4156,532.2813 555.15,532.0469 Q554.9,531.8125 554.9,531.4219 Q554.9,531.0469 555.15,530.8125 Q555.4156,530.5781 556.0406,530.5781 L563.6656,530.5781 L563.6656,533.1719 Q563.6656,533.7813 563.4313,534.0469 Q563.2125,534.2969 562.8219,534.2969 Q562.4469,534.2969 562.2125,534.0469 Q561.9781,533.7813 561.9781,533.1719 L561.9781,532.2813 L558.0094,532.2813 L558.0094,534.7344 L559.4938,534.7344 Q559.4938,534.0781 559.6188,533.8906 Q559.8844,533.4844 560.3531,533.4844 Q560.7281,533.4844 560.9625,533.75 Q561.1969,534 561.1969,534.6094 L561.1969,536.5781 Q561.1969,537.125 561.0719,537.3125 Q560.8063,537.7031 560.3531,537.7031 Q559.8844,537.7031 559.6188,537.2969 Q559.4938,537.1094 559.4938,536.4375 L558.0094,536.4375 Z " fill="#000000"/><text fill="#000000" font-family="sans-serif" font-size="12" lengthAdjust="spacing" textLength="48" x="577.85" y="540.5508">ginasios</text><line style="stroke:#A80036;stroke-width:1.5;" x1="524" x2="649" y1="551.6406" y2="551.6406"/><ellipse cx="534" cy="562.6406" fill="#000000" rx="3" ry="3" style="stroke:#000000;stroke-width:1.0;"/><text fill="#000000" font-family="sans-serif" font-size="11" lengthAdjust="spacing" textLength="101" x="543" y="567.0596">id : uuid «generated»</text><line style="stroke:#A80036;stroke-width:1.0;" x1="524" x2="649" y1="573.4766" y2="573.4766"/><ellipse cx="534" cy="584.4766" fill="#000000" rx="3" ry="3" style="stroke:#000000;stroke-width:1.0;"/><text fill="#000000" font-family="sans-serif" font-size="11" lengthAdjust="spacing" textLength="53" x="543" y="588.8955">nome : text</text><ellipse cx="534" cy="598.3125" fill="#000000" rx="3" ry="3" style="stroke:#000000;stroke-width:1.0;"/><text fill="#000000" font-family="sans-serif" font-size="11" lengthAdjust="spacing" textLength="59" x="543" y="602.7314">cidade : text</text><ellipse cx="534" cy="612.1484" fill="#000000" rx="3" ry="3" style="stroke:#000000;stroke-width:1.0;"/><text fill="#000000" font-family="sans-serif" font-size="11" lengthAdjust="spacing" textLength="60" x="543" y="616.5674">estado : text</text><!--MD5=[aa8cc025d10593a1c197d113d65cc045]
class tipo_pessoa--><rect codeLine="37" fill="#FEFECE" filter="url(#f3sh2s41jbcr8)" height="117.1797" id="tipo_pessoa" style="stroke:#A80036;stroke-width:1.5;" width="101" x="119" y="50.6406"/><ellipse cx="134" cy="66.6406" fill="#EB937F" rx="11" ry="11" style="stroke:#A80036;stroke-width:1.0;"/><path d="M132.8594,67.4375 L132.8594,69.9375 L137.1875,69.9375 L137.1875,69.0156 Q137.1875,68.4063 137.4219,68.1406 Q137.6719,67.875 138.0469,67.875 Q138.4219,67.875 138.6563,68.1406 Q138.8906,68.4063 138.8906,69.0156 L138.8906,71.6406 L130.8906,71.6406 Q130.2656,71.6406 130,71.4063 Q129.75,71.1719 129.75,70.7813 Q129.75,70.4063 130.0156,70.1719 Q130.2813,69.9375 130.8906,69.9375 L131.1563,69.9375 L131.1563,63.2813 L130.8906,63.2813 Q130.2656,63.2813 130,63.0469 Q129.75,62.8125 129.75,62.4219 Q129.75,62.0469 130,61.8125 Q130.2656,61.5781 130.8906,61.5781 L138.5156,61.5781 L138.5156,64.1719 Q138.5156,64.7813 138.2813,65.0469 Q138.0625,65.2969 137.6719,65.2969 Q137.2969,65.2969 137.0625,65.0469 Q136.8281,64.7813 136.8281,64.1719 L136.8281,63.2813 L132.8594,63.2813 L132.8594,65.7344 L134.3438,65.7344 Q134.3438,65.0781 134.4688,64.8906 Q134.7344,64.4844 135.2031,64.4844 Q135.5781,64.4844 135.8125,64.75 Q136.0469,65 136.0469,65.6094 L136.0469,67.5781 Q136.0469,68.125 135.9219,68.3125 Q135.6563,68.7031 135.2031,68.7031 Q134.7344,68.7031 134.4688,68.2969 Q134.3438,68.1094 134.3438,67.4375 L132.8594,67.4375 Z " fill="#000000"/><text fill="#000000" font-family="sans-serif" font-size="12" lengthAdjust="spacing" textLength="69" x="148" y="71.5508">tipo_pessoa</text><line style="stroke:#A80036;stroke-width:1.5;" x1="120" x2="219" y1="82.6406" y2="82.6406"/><text fill="#000000" font-family="sans-serif" font-size="11" lengthAdjust="spacing" textLength="35" x="125" y="98.0596">tecnico</text><text fill="#000000" font-family="sans-serif" font-size="11" lengthAdjust="spacing" textLength="26" x="125" y="111.8955">atleta</text><text fill="#000000" font-family="sans-serif" font-size="11" lengthAdjust="spacing" textLength="31" x="125" y="125.7314">arbitro</text><text fill="#000000" font-family="sans-serif" font-size="11" lengthAdjust="spacing" textLength="46" x="125" y="139.5674">auxiliares</text><text fill="#000000" font-family="sans-serif" font-size="11" lengthAdjust="spacing" textLength="50" x="125" y="153.4033">delegados</text><line style="stroke:#A80036;stroke-width:1.5;" x1="120" x2="219" y1="159.8203" y2="159.8203"/><!--MD5=[e6a178f45013a8558c7cbb6ec61759b5]
class pessoas--><rect codeLine="45" fill="#FEFECE" filter="url(#f3sh2s41jbcr8)" height="158.6875" id="pessoas" style="stroke:#A80036;stroke-width:1.5;" width="136" x="353.5" y="683.6406"/><ellipse cx="393.25" cy="699.6406" fill="#ADD1B2" rx="11" ry="11" style="stroke:#A80036;stroke-width:1.0;"/><path d="M392.1094,700.4375 L392.1094,702.9375 L396.4375,702.9375 L396.4375,702.0156 Q396.4375,701.4063 396.6719,701.1406 Q396.9219,700.875 397.2969,700.875 Q397.6719,700.875 397.9063,701.1406 Q398.1406,701.4063 398.1406,702.0156 L398.1406,704.6406 L390.1406,704.6406 Q389.5156,704.6406 389.25,704.4063 Q389,704.1719 389,703.7813 Q389,703.4063 389.2656,703.1719 Q389.5313,702.9375 390.1406,702.9375 L390.4063,702.9375 L390.4063,696.2813 L390.1406,696.2813 Q389.5156,696.2813 389.25,696.0469 Q389,695.8125 389,695.4219 Q389,695.0469 389.25,694.8125 Q389.5156,694.5781 390.1406,694.5781 L397.7656,694.5781 L397.7656,697.1719 Q397.7656,697.7813 397.5313,698.0469 Q397.3125,698.2969 396.9219,698.2969 Q396.5469,698.2969 396.3125,698.0469 Q396.0781,697.7813 396.0781,697.1719 L396.0781,696.2813 L392.1094,696.2813 L392.1094,698.7344 L393.5938,698.7344 Q393.5938,698.0781 393.7188,697.8906 Q393.9844,697.4844 394.4531,697.4844 Q394.8281,697.4844 395.0625,697.75 Q395.2969,698 395.2969,698.6094 L395.2969,700.5781 Q395.2969,701.125 395.1719,701.3125 Q394.9063,701.7031 394.4531,701.7031 Q393.9844,701.7031 393.7188,701.2969 Q393.5938,701.1094 393.5938,700.4375 L392.1094,700.4375 Z " fill="#000000"/><text fill="#000000" font-family="sans-serif" font-size="12" lengthAdjust="spacing" textLength="49" x="412.75" y="704.5508">pessoas</text><line style="stroke:#A80036;stroke-width:1.5;" x1="354.5" x2="488.5" y1="715.6406" y2="715.6406"/><ellipse cx="364.5" cy="726.6406" fill="#000000" rx="3" ry="3" style="stroke:#000000;stroke-width:1.0;"/><text fill="#000000" font-family="sans-serif" font-size="11" lengthAdjust="spacing" textLength="107" x="373.5" y="731.0596">id : uuid &lt;generated&gt;&gt;</text><line style="stroke:#A80036;stroke-width:1.0;" x1="354.5" x2="488.5" y1="737.4766" y2="737.4766"/><ellipse cx="364.5" cy="748.4766" fill="#000000" rx="3" ry="3" style="stroke:#000000;stroke-width:1.0;"/><text fill="#000000" font-family="sans-serif" font-size="11" lengthAdjust="spacing" textLength="53" x="373.5" y="752.8955">nome : text</text><ellipse cx="364.5" cy="762.3125" fill="#000000" rx="3" ry="3" style="stroke:#000000;stroke-width:1.0;"/><text fill="#000000" font-family="sans-serif" font-size="11" lengthAdjust="spacing" textLength="110" x="373.5" y="766.7314">documento : text «UQ»</text><ellipse cx="364.5" cy="776.1484" fill="#000000" rx="3" ry="3" style="stroke:#000000;stroke-width:1.0;"/><text fill="#000000" font-family="sans-serif" font-size="11" lengthAdjust="spacing" textLength="77" x="373.5" y="780.5674">genero : genero</text><ellipse cx="364.5" cy="789.9844" fill="#000000" rx="3" ry="3" style="stroke:#000000;stroke-width:1.0;"/><text fill="#000000" font-family="sans-serif" font-size="11" lengthAdjust="spacing" textLength="63" x="373.5" y="794.4033">idade : tinyint</text><ellipse cx="364.5" cy="803.8203" fill="#000000" rx="3" ry="3" style="stroke:#000000;stroke-width:1.0;"/><text fill="#000000" font-family="sans-serif" font-size="11" lengthAdjust="spacing" textLength="90" x="373.5" y="808.2393">id_time : uuid «FK»</text><ellipse cx="364.5" cy="817.6563" fill="#000000" rx="3" ry="3" style="stroke:#000000;stroke-width:1.0;"/><text fill="#000000" font-family="sans-serif" font-size="11" lengthAdjust="spacing" textLength="104" x="373.5" y="822.0752">documento_cbv : text</text><ellipse cx="364.5" cy="831.4922" fill="#000000" rx="3" ry="3" style="stroke:#000000;stroke-width:1.0;"/><text fill="#000000" font-family="sans-serif" font-size="11" lengthAdjust="spacing" textLength="85" x="373.5" y="835.9111">tipo : tipo_pessoa</text><!--MD5=[c217c7108b200a11e8d34e0fedc4d793]
class posicoes--><rect codeLine="57" fill="#FEFECE" filter="url(#f3sh2s41jbcr8)" height="117.1797" id="posicoes" style="stroke:#A80036;stroke-width:1.5;" width="83" x="7" y="273.6406"/><ellipse cx="22" cy="289.6406" fill="#EB937F" rx="11" ry="11" style="stroke:#A80036;stroke-width:1.0;"/><path d="M20.8594,290.4375 L20.8594,292.9375 L25.1875,292.9375 L25.1875,292.0156 Q25.1875,291.4063 25.4219,291.1406 Q25.6719,290.875 26.0469,290.875 Q26.4219,290.875 26.6563,291.1406 Q26.8906,291.4063 26.8906,292.0156 L26.8906,294.6406 L18.8906,294.6406 Q18.2656,294.6406 18,294.4063 Q17.75,294.1719 17.75,293.7813 Q17.75,293.4063 18.0156,293.1719 Q18.2813,292.9375 18.8906,292.9375 L19.1563,292.9375 L19.1563,286.2813 L18.8906,286.2813 Q18.2656,286.2813 18,286.0469 Q17.75,285.8125 17.75,285.4219 Q17.75,285.0469 18,284.8125 Q18.2656,284.5781 18.8906,284.5781 L26.5156,284.5781 L26.5156,287.1719 Q26.5156,287.7813 26.2813,288.0469 Q26.0625,288.2969 25.6719,288.2969 Q25.2969,288.2969 25.0625,288.0469 Q24.8281,287.7813 24.8281,287.1719 L24.8281,286.2813 L20.8594,286.2813 L20.8594,288.7344 L22.3438,288.7344 Q22.3438,288.0781 22.4688,287.8906 Q22.7344,287.4844 23.2031,287.4844 Q23.5781,287.4844 23.8125,287.75 Q24.0469,288 24.0469,288.6094 L24.0469,290.5781 Q24.0469,291.125 23.9219,291.3125 Q23.6563,291.7031 23.2031,291.7031 Q22.7344,291.7031 22.4688,291.2969 Q22.3438,291.1094 22.3438,290.4375 L20.8594,290.4375 Z " fill="#000000"/><text fill="#000000" font-family="sans-serif" font-size="12" lengthAdjust="spacing" textLength="51" x="36" y="294.5508">posicoes</text><line style="stroke:#A80036;stroke-width:1.5;" x1="8" x2="89" y1="305.6406" y2="305.6406"/><text fill="#000000" font-family="sans-serif" font-size="11" lengthAdjust="spacing" textLength="27" x="13" y="321.0596">ponta</text><text fill="#000000" font-family="sans-serif" font-size="11" lengthAdjust="spacing" textLength="33" x="13" y="334.8955">oposto</text><text fill="#000000" font-family="sans-serif" font-size="11" lengthAdjust="spacing" textLength="33" x="13" y="348.7314">central</text><text fill="#000000" font-family="sans-serif" font-size="11" lengthAdjust="spacing" textLength="26" x="13" y="362.5674">libero</text><text fill="#000000" font-family="sans-serif" font-size="11" lengthAdjust="spacing" textLength="51" x="13" y="376.4033">levantador</text><line style="stroke:#A80036;stroke-width:1.5;" x1="8" x2="89" y1="382.8203" y2="382.8203"/><!--MD5=[85f3b2c704c94541a8825e15b353cb74]
class atletas--><rect codeLine="65" fill="#FEFECE" filter="url(#f3sh2s41jbcr8)" height="89.5078" id="atletas" style="stroke:#A80036;stroke-width:1.5;" width="133" x="21" y="526.1406"/><ellipse cx="64.8" cy="542.1406" fill="#ADD1B2" rx="11" ry="11" style="stroke:#A80036;stroke-width:1.0;"/><path d="M63.6594,542.9375 L63.6594,545.4375 L67.9875,545.4375 L67.9875,544.5156 Q67.9875,543.9063 68.2219,543.6406 Q68.4719,543.375 68.8469,543.375 Q69.2219,543.375 69.4563,543.6406 Q69.6906,543.9063 69.6906,544.5156 L69.6906,547.1406 L61.6906,547.1406 Q61.0656,547.1406 60.8,546.9063 Q60.55,546.6719 60.55,546.2813 Q60.55,545.9063 60.8156,545.6719 Q61.0813,545.4375 61.6906,545.4375 L61.9563,545.4375 L61.9563,538.7813 L61.6906,538.7813 Q61.0656,538.7813 60.8,538.5469 Q60.55,538.3125 60.55,537.9219 Q60.55,537.5469 60.8,537.3125 Q61.0656,537.0781 61.6906,537.0781 L69.3156,537.0781 L69.3156,539.6719 Q69.3156,540.2813 69.0813,540.5469 Q68.8625,540.7969 68.4719,540.7969 Q68.0969,540.7969 67.8625,540.5469 Q67.6281,540.2813 67.6281,539.6719 L67.6281,538.7813 L63.6594,538.7813 L63.6594,541.2344 L65.1438,541.2344 Q65.1438,540.5781 65.2688,540.3906 Q65.5344,539.9844 66.0031,539.9844 Q66.3781,539.9844 66.6125,540.25 Q66.8469,540.5 66.8469,541.1094 L66.8469,543.0781 Q66.8469,543.625 66.7219,543.8125 Q66.4563,544.2031 66.0031,544.2031 Q65.5344,544.2031 65.2688,543.7969 Q65.1438,543.6094 65.1438,542.9375 L63.6594,542.9375 Z " fill="#000000"/><text fill="#000000" font-family="sans-serif" font-size="12" lengthAdjust="spacing" textLength="37" x="85.2" y="547.0508">atletas</text><line style="stroke:#A80036;stroke-width:1.5;" x1="22" x2="153" y1="558.1406" y2="558.1406"/><ellipse cx="32" cy="569.1406" fill="#000000" rx="3" ry="3" style="stroke:#000000;stroke-width:1.0;"/><text fill="#000000" font-family="sans-serif" font-size="11" lengthAdjust="spacing" textLength="107" x="41" y="573.5596">id_pessoa : uuid «FK»</text><line style="stroke:#A80036;stroke-width:1.0;" x1="22" x2="153" y1="579.9766" y2="579.9766"/><ellipse cx="32" cy="590.9766" fill="#000000" rx="3" ry="3" style="stroke:#000000;stroke-width:1.0;"/><text fill="#000000" font-family="sans-serif" font-size="11" lengthAdjust="spacing" textLength="82" x="41" y="595.3955">posicao: posicao</text><ellipse cx="32" cy="604.8125" fill="#000000" rx="3" ry="3" style="stroke:#000000;stroke-width:1.0;"/><text fill="#000000" font-family="sans-serif" font-size="11" lengthAdjust="spacing" textLength="73" x="41" y="609.2314">numero : tinyint</text><!--MD5=[bebb300f7705b79cc5ede10823594fa3]
class tecnicos--><rect codeLine="72" fill="#FEFECE" filter="url(#f3sh2s41jbcr8)" height="75.6719" id="tecnicos" style="stroke:#A80036;stroke-width:1.5;" width="130" x="189.5" y="533.1406"/><ellipse cx="227.9" cy="549.1406" fill="#ADD1B2" rx="11" ry="11" style="stroke:#A80036;stroke-width:1.0;"/><path d="M226.7594,549.9375 L226.7594,552.4375 L231.0875,552.4375 L231.0875,551.5156 Q231.0875,550.9063 231.3219,550.6406 Q231.5719,550.375 231.9469,550.375 Q232.3219,550.375 232.5563,550.6406 Q232.7906,550.9063 232.7906,551.5156 L232.7906,554.1406 L224.7906,554.1406 Q224.1656,554.1406 223.9,553.9063 Q223.65,553.6719 223.65,553.2813 Q223.65,552.9063 223.9156,552.6719 Q224.1813,552.4375 224.7906,552.4375 L225.0563,552.4375 L225.0563,545.7813 L224.7906,545.7813 Q224.1656,545.7813 223.9,545.5469 Q223.65,545.3125 223.65,544.9219 Q223.65,544.5469 223.9,544.3125 Q224.1656,544.0781 224.7906,544.0781 L232.4156,544.0781 L232.4156,546.6719 Q232.4156,547.2813 232.1813,547.5469 Q231.9625,547.7969 231.5719,547.7969 Q231.1969,547.7969 230.9625,547.5469 Q230.7281,547.2813 230.7281,546.6719 L230.7281,545.7813 L226.7594,545.7813 L226.7594,548.2344 L228.2438,548.2344 Q228.2438,547.5781 228.3688,547.3906 Q228.6344,546.9844 229.1031,546.9844 Q229.4781,546.9844 229.7125,547.25 Q229.9469,547.5 229.9469,548.1094 L229.9469,550.0781 Q229.9469,550.625 229.8219,550.8125 Q229.5563,551.2031 229.1031,551.2031 Q228.6344,551.2031 228.3688,550.7969 Q228.2438,550.6094 228.2438,549.9375 L226.7594,549.9375 Z " fill="#000000"/><text fill="#000000" font-family="sans-serif" font-size="12" lengthAdjust="spacing" textLength="46" x="247.1" y="554.0508">tecnicos</text><line style="stroke:#A80036;stroke-width:1.5;" x1="190.5" x2="318.5" y1="565.1406" y2="565.1406"/><ellipse cx="200.5" cy="576.1406" fill="#000000" rx="3" ry="3" style="stroke:#000000;stroke-width:1.0;"/><text fill="#000000" font-family="sans-serif" font-size="11" lengthAdjust="spacing" textLength="104" x="209.5" y="580.5596">id_pessoa: uuid «FK»</text><line style="stroke:#A80036;stroke-width:1.0;" x1="190.5" x2="318.5" y1="586.9766" y2="586.9766"/><ellipse cx="200.5" cy="597.9766" fill="#000000" rx="3" ry="3" style="stroke:#000000;stroke-width:1.0;"/><text fill="#000000" font-family="sans-serif" font-size="11" lengthAdjust="spacing" textLength="103" x="209.5" y="602.3955">documento_cref: text</text><!--MD5=[4639502732463b23010fad0c76ac0ad9]
class arbitros--><rect codeLine="78" fill="#FEFECE" filter="url(#f3sh2s41jbcr8)" height="61.8359" id="arbitros" style="stroke:#A80036;stroke-width:1.5;" width="133" x="610" y="427.6406"/><ellipse cx="651.55" cy="443.6406" fill="#ADD1B2" rx="11" ry="11" style="stroke:#A80036;stroke-width:1.0;"/><path d="M650.4094,444.4375 L650.4094,446.9375 L654.7375,446.9375 L654.7375,446.0156 Q654.7375,445.4063 654.9719,445.1406 Q655.2219,444.875 655.5969,444.875 Q655.9719,444.875 656.2063,445.1406 Q656.4406,445.4063 656.4406,446.0156 L656.4406,448.6406 L648.4406,448.6406 Q647.8156,448.6406 647.55,448.4063 Q647.3,448.1719 647.3,447.7813 Q647.3,447.4063 647.5656,447.1719 Q647.8313,446.9375 648.4406,446.9375 L648.7063,446.9375 L648.7063,440.2813 L648.4406,440.2813 Q647.8156,440.2813 647.55,440.0469 Q647.3,439.8125 647.3,439.4219 Q647.3,439.0469 647.55,438.8125 Q647.8156,438.5781 648.4406,438.5781 L656.0656,438.5781 L656.0656,441.1719 Q656.0656,441.7813 655.8313,442.0469 Q655.6125,442.2969 655.2219,442.2969 Q654.8469,442.2969 654.6125,442.0469 Q654.3781,441.7813 654.3781,441.1719 L654.3781,440.2813 L650.4094,440.2813 L650.4094,442.7344 L651.8938,442.7344 Q651.8938,442.0781 652.0188,441.8906 Q652.2844,441.4844 652.7531,441.4844 Q653.1281,441.4844 653.3625,441.75 Q653.5969,442 653.5969,442.6094 L653.5969,444.5781 Q653.5969,445.125 653.4719,445.3125 Q653.2063,445.7031 652.7531,445.7031 Q652.2844,445.7031 652.0188,445.2969 Q651.8938,445.1094 651.8938,444.4375 L650.4094,444.4375 Z " fill="#000000"/><text fill="#000000" font-family="sans-serif" font-size="12" lengthAdjust="spacing" textLength="42" x="671.45" y="448.5508">arbitros</text><line style="stroke:#A80036;stroke-width:1.5;" x1="611" x2="742" y1="459.6406" y2="459.6406"/><ellipse cx="621" cy="470.6406" fill="#000000" rx="3" ry="3" style="stroke:#000000;stroke-width:1.0;"/><text fill="#000000" font-family="sans-serif" font-size="11" lengthAdjust="spacing" textLength="107" x="630" y="475.0596">id_pessoa : uuid «FK»</text><line style="stroke:#A80036;stroke-width:1.0;" x1="611" x2="742" y1="481.4766" y2="481.4766"/><!--MD5=[4bc3f05678e75d8182003bb4fc9ae813]
class tipo_auxiliar--><rect codeLine="83" fill="#FEFECE" filter="url(#f3sh2s41jbcr8)" height="131.0156" id="tipo_auxiliar" style="stroke:#A80036;stroke-width:1.5;" width="102" x="125.5" y="266.6406"/><ellipse cx="142.3" cy="282.6406" fill="#EB937F" rx="11" ry="11" style="stroke:#A80036;stroke-width:1.0;"/><path d="M141.1594,283.4375 L141.1594,285.9375 L145.4875,285.9375 L145.4875,285.0156 Q145.4875,284.4063 145.7219,284.1406 Q145.9719,283.875 146.3469,283.875 Q146.7219,283.875 146.9563,284.1406 Q147.1906,284.4063 147.1906,285.0156 L147.1906,287.6406 L139.1906,287.6406 Q138.5656,287.6406 138.3,287.4063 Q138.05,287.1719 138.05,286.7813 Q138.05,286.4063 138.3156,286.1719 Q138.5813,285.9375 139.1906,285.9375 L139.4563,285.9375 L139.4563,279.2813 L139.1906,279.2813 Q138.5656,279.2813 138.3,279.0469 Q138.05,278.8125 138.05,278.4219 Q138.05,278.0469 138.3,277.8125 Q138.5656,277.5781 139.1906,277.5781 L146.8156,277.5781 L146.8156,280.1719 Q146.8156,280.7813 146.5813,281.0469 Q146.3625,281.2969 145.9719,281.2969 Q145.5969,281.2969 145.3625,281.0469 Q145.1281,280.7813 145.1281,280.1719 L145.1281,279.2813 L141.1594,279.2813 L141.1594,281.7344 L142.6438,281.7344 Q142.6438,281.0781 142.7688,280.8906 Q143.0344,280.4844 143.5031,280.4844 Q143.8781,280.4844 144.1125,280.75 Q144.3469,281 144.3469,281.6094 L144.3469,283.5781 Q144.3469,284.125 144.2219,284.3125 Q143.9563,284.7031 143.5031,284.7031 Q143.0344,284.7031 142.7688,284.2969 Q142.6438,284.1094 142.6438,283.4375 L141.1594,283.4375 Z " fill="#000000"/><text fill="#000000" font-family="sans-serif" font-size="12" lengthAdjust="spacing" textLength="66" x="156.7" y="287.5508">tipo_auxiliar</text><line style="stroke:#A80036;stroke-width:1.5;" x1="126.5" x2="226.5" y1="298.6406" y2="298.6406"/><text fill="#000000" font-family="sans-serif" font-size="11" lengthAdjust="spacing" textLength="90" x="131.5" y="314.0596">assistente_medico</text><text fill="#000000" font-family="sans-serif" font-size="11" lengthAdjust="spacing" textLength="75" x="131.5" y="327.8955">auxiliar_tecnico</text><text fill="#000000" font-family="sans-serif" font-size="11" lengthAdjust="spacing" textLength="86" x="131.5" y="341.7314">preparador_fisico</text><text fill="#000000" font-family="sans-serif" font-size="11" lengthAdjust="spacing" textLength="66" x="131.5" y="355.5674">fisioterapeuta</text><text fill="#000000" font-family="sans-serif" font-size="11" lengthAdjust="spacing" textLength="34" x="131.5" y="369.4033">medico</text><text fill="#000000" font-family="sans-serif" font-size="11" lengthAdjust="spacing" textLength="55" x="131.5" y="383.2393">massagista</text><line style="stroke:#A80036;stroke-width:1.5;" x1="126.5" x2="226.5" y1="389.6563" y2="389.6563"/><!--MD5=[f3d7988de18a56095dc7a1a9b85653a6]
class auxiliares--><rect codeLine="92" fill="#FEFECE" filter="url(#f3sh2s41jbcr8)" height="75.6719" id="auxiliares" style="stroke:#A80036;stroke-width:1.5;" width="133" x="355" y="533.1406"/><ellipse cx="391.6" cy="549.1406" fill="#ADD1B2" rx="11" ry="11" style="stroke:#A80036;stroke-width:1.0;"/><path d="M390.4594,549.9375 L390.4594,552.4375 L394.7875,552.4375 L394.7875,551.5156 Q394.7875,550.9063 395.0219,550.6406 Q395.2719,550.375 395.6469,550.375 Q396.0219,550.375 396.2563,550.6406 Q396.4906,550.9063 396.4906,551.5156 L396.4906,554.1406 L388.4906,554.1406 Q387.8656,554.1406 387.6,553.9063 Q387.35,553.6719 387.35,553.2813 Q387.35,552.9063 387.6156,552.6719 Q387.8813,552.4375 388.4906,552.4375 L388.7563,552.4375 L388.7563,545.7813 L388.4906,545.7813 Q387.8656,545.7813 387.6,545.5469 Q387.35,545.3125 387.35,544.9219 Q387.35,544.5469 387.6,544.3125 Q387.8656,544.0781 388.4906,544.0781 L396.1156,544.0781 L396.1156,546.6719 Q396.1156,547.2813 395.8813,547.5469 Q395.6625,547.7969 395.2719,547.7969 Q394.8969,547.7969 394.6625,547.5469 Q394.4281,547.2813 394.4281,546.6719 L394.4281,545.7813 L390.4594,545.7813 L390.4594,548.2344 L391.9438,548.2344 Q391.9438,547.5781 392.0688,547.3906 Q392.3344,546.9844 392.8031,546.9844 Q393.1781,546.9844 393.4125,547.25 Q393.6469,547.5 393.6469,548.1094 L393.6469,550.0781 Q393.6469,550.625 393.5219,550.8125 Q393.2563,551.2031 392.8031,551.2031 Q392.3344,551.2031 392.0688,550.7969 Q391.9438,550.6094 391.9438,549.9375 L390.4594,549.9375 Z " fill="#000000"/><text fill="#000000" font-family="sans-serif" font-size="12" lengthAdjust="spacing" textLength="53" x="410.4" y="554.0508">auxiliares</text><line style="stroke:#A80036;stroke-width:1.5;" x1="356" x2="487" y1="565.1406" y2="565.1406"/><ellipse cx="366" cy="576.1406" fill="#000000" rx="3" ry="3" style="stroke:#000000;stroke-width:1.0;"/><text fill="#000000" font-family="sans-serif" font-size="11" lengthAdjust="spacing" textLength="107" x="375" y="580.5596">id_pessoa : uuid «FK»</text><line style="stroke:#A80036;stroke-width:1.0;" x1="356" x2="487" y1="586.9766" y2="586.9766"/><text fill="#000000" font-family="sans-serif" font-size="11" lengthAdjust="spacing" textLength="83" x="361" y="602.3955">tipo : tipo_auxiliar</text><!--MD5=[a29c90aaa07b86ac42821910f697760c]
class delegados--><rect codeLine="98" fill="#FEFECE" filter="url(#f3sh2s41jbcr8)" height="61.8359" id="delegados" style="stroke:#A80036;stroke-width:1.5;" width="130" x="748.5" y="427.6406"/><ellipse cx="781.05" cy="443.6406" fill="#ADD1B2" rx="11" ry="11" style="stroke:#A80036;stroke-width:1.0;"/><path d="M779.9094,444.4375 L779.9094,446.9375 L784.2375,446.9375 L784.2375,446.0156 Q784.2375,445.4063 784.4719,445.1406 Q784.7219,444.875 785.0969,444.875 Q785.4719,444.875 785.7063,445.1406 Q785.9406,445.4063 785.9406,446.0156 L785.9406,448.6406 L777.9406,448.6406 Q777.3156,448.6406 777.05,448.4063 Q776.8,448.1719 776.8,447.7813 Q776.8,447.4063 777.0656,447.1719 Q777.3313,446.9375 777.9406,446.9375 L778.2063,446.9375 L778.2063,440.2813 L777.9406,440.2813 Q777.3156,440.2813 777.05,440.0469 Q776.8,439.8125 776.8,439.4219 Q776.8,439.0469 777.05,438.8125 Q777.3156,438.5781 777.9406,438.5781 L785.5656,438.5781 L785.5656,441.1719 Q785.5656,441.7813 785.3313,442.0469 Q785.1125,442.2969 784.7219,442.2969 Q784.3469,442.2969 784.1125,442.0469 Q783.8781,441.7813 783.8781,441.1719 L783.8781,440.2813 L779.9094,440.2813 L779.9094,442.7344 L781.3938,442.7344 Q781.3938,442.0781 781.5188,441.8906 Q781.7844,441.4844 782.2531,441.4844 Q782.6281,441.4844 782.8625,441.75 Q783.0969,442 783.0969,442.6094 L783.0969,444.5781 Q783.0969,445.125 782.9719,445.3125 Q782.7063,445.7031 782.2531,445.7031 Q781.7844,445.7031 781.5188,445.2969 Q781.3938,445.1094 781.3938,444.4375 L779.9094,444.4375 Z " fill="#000000"/><text fill="#000000" font-family="sans-serif" font-size="12" lengthAdjust="spacing" textLength="59" x="798.95" y="448.5508">delegados</text><line style="stroke:#A80036;stroke-width:1.5;" x1="749.5" x2="877.5" y1="459.6406" y2="459.6406"/><ellipse cx="759.5" cy="470.6406" fill="#000000" rx="3" ry="3" style="stroke:#000000;stroke-width:1.0;"/><text fill="#000000" font-family="sans-serif" font-size="11" lengthAdjust="spacing" textLength="104" x="768.5" y="475.0596">id_pessoa: uuid «FK»</text><line style="stroke:#A80036;stroke-width:1.0;" x1="749.5" x2="877.5" y1="481.4766" y2="481.4766"/><!--MD5=[5ff5758d564abc29b77e80269da222e5]
class partidas--><rect codeLine="103" fill="#FEFECE" filter="url(#f3sh2s41jbcr8)" height="158.6875" id="partidas" style="stroke:#A80036;stroke-width:1.5;" width="168" x="542.5" y="29.6406"/><ellipse cx="599.75" cy="45.6406" fill="#ADD1B2" rx="11" ry="11" style="stroke:#A80036;stroke-width:1.0;"/><path d="M598.6094,46.4375 L598.6094,48.9375 L602.9375,48.9375 L602.9375,48.0156 Q602.9375,47.4063 603.1719,47.1406 Q603.4219,46.875 603.7969,46.875 Q604.1719,46.875 604.4063,47.1406 Q604.6406,47.4063 604.6406,48.0156 L604.6406,50.6406 L596.6406,50.6406 Q596.0156,50.6406 595.75,50.4063 Q595.5,50.1719 595.5,49.7813 Q595.5,49.4063 595.7656,49.1719 Q596.0313,48.9375 596.6406,48.9375 L596.9063,48.9375 L596.9063,42.2813 L596.6406,42.2813 Q596.0156,42.2813 595.75,42.0469 Q595.5,41.8125 595.5,41.4219 Q595.5,41.0469 595.75,40.8125 Q596.0156,40.5781 596.6406,40.5781 L604.2656,40.5781 L604.2656,43.1719 Q604.2656,43.7813 604.0313,44.0469 Q603.8125,44.2969 603.4219,44.2969 Q603.0469,44.2969 602.8125,44.0469 Q602.5781,43.7813 602.5781,43.1719 L602.5781,42.2813 L598.6094,42.2813 L598.6094,44.7344 L600.0938,44.7344 Q600.0938,44.0781 600.2188,43.8906 Q600.4844,43.4844 600.9531,43.4844 Q601.3281,43.4844 601.5625,43.75 Q601.7969,44 601.7969,44.6094 L601.7969,46.5781 Q601.7969,47.125 601.6719,47.3125 Q601.4063,47.7031 600.9531,47.7031 Q600.4844,47.7031 600.2188,47.2969 Q600.0938,47.1094 600.0938,46.4375 L598.6094,46.4375 Z " fill="#000000"/><text fill="#000000" font-family="sans-serif" font-size="12" lengthAdjust="spacing" textLength="45" x="620.25" y="50.5508">partidas</text><line style="stroke:#A80036;stroke-width:1.5;" x1="543.5" x2="709.5" y1="61.6406" y2="61.6406"/><ellipse cx="553.5" cy="72.6406" fill="#000000" rx="3" ry="3" style="stroke:#000000;stroke-width:1.0;"/><text fill="#000000" font-family="sans-serif" font-size="11" lengthAdjust="spacing" textLength="101" x="562.5" y="77.0596">id : uuid «generated»</text><line style="stroke:#A80036;stroke-width:1.0;" x1="543.5" x2="709.5" y1="83.4766" y2="83.4766"/><ellipse cx="553.5" cy="94.4766" fill="#000000" rx="3" ry="3" style="stroke:#000000;stroke-width:1.0;"/><text fill="#000000" font-family="sans-serif" font-size="11" lengthAdjust="spacing" textLength="115" x="562.5" y="98.8955">id_delegado : uuid «FK»</text><ellipse cx="553.5" cy="108.3125" fill="#000000" rx="3" ry="3" style="stroke:#000000;stroke-width:1.0;"/><text fill="#000000" font-family="sans-serif" font-size="11" lengthAdjust="spacing" textLength="102" x="562.5" y="112.7314">id_arbitro : uuid «FK»</text><ellipse cx="553.5" cy="122.1484" fill="#000000" rx="3" ry="3" style="stroke:#000000;stroke-width:1.0;"/><text fill="#000000" font-family="sans-serif" font-size="11" lengthAdjust="spacing" textLength="105" x="562.5" y="126.5674">id_ginasio : uuid «FK»</text><ellipse cx="553.5" cy="135.9844" fill="#000000" rx="3" ry="3" style="stroke:#000000;stroke-width:1.0;"/><text fill="#000000" font-family="sans-serif" font-size="11" lengthAdjust="spacing" textLength="121" x="562.5" y="140.4033">comecou_em : timestamp</text><ellipse cx="553.5" cy="149.8203" fill="#000000" rx="3" ry="3" style="stroke:#000000;stroke-width:1.0;"/><text fill="#000000" font-family="sans-serif" font-size="11" lengthAdjust="spacing" textLength="117" x="562.5" y="154.2393">finalizou_em : timestamp</text><ellipse cx="553.5" cy="163.6563" fill="#000000" rx="3" ry="3" style="stroke:#000000;stroke-width:1.0;"/><text fill="#000000" font-family="sans-serif" font-size="11" lengthAdjust="spacing" textLength="142" x="562.5" y="168.0752">id_time_ganhador : uuid «FK»</text><ellipse cx="553.5" cy="177.4922" fill="#000000" rx="3" ry="3" style="stroke:#000000;stroke-width:1.0;"/><text fill="#000000" font-family="sans-serif" font-size="11" lengthAdjust="spacing" textLength="140" x="562.5" y="181.9111">id_time_perdedor : uuid «FK»</text><!--MD5=[add0cf45860a55c4d4d29cb9abd4e34d]
reverse link competicoes to times--><path codeLine="115" d="M335.42,175.7406 C338.8,195.4206 342.9,216.9906 347.5,236.6406 C349.78,246.3906 352.49,256.6106 355.3,266.5906 " fill="none" id="competicoes-backto-times" style="stroke:#A80036;stroke-width:1.0;"/><line style="stroke:#A80036;stroke-width:1.0;" x1="335.3991" x2="328.1534" y1="175.6194" y2="168.7274"/><line style="stroke:#A80036;stroke-width:1.0;" x1="335.3991" x2="339.9866" y1="175.6194" y2="166.7338"/><line style="stroke:#A80036;stroke-width:1.0;" x1="335.3991" x2="334.07" y1="175.6194" y2="167.7306"/><ellipse cx="336.3959" cy="181.5361" rx="4" ry="4" style="stroke:#A80036;stroke-width:1.0;fill:none;"/><text fill="#000000" font-family="sans-serif" font-size="13" lengthAdjust="spacing" textLength="34" x="316.9988" y="255.6009">&lt;= 12</text><!--MD5=[39c042c378c5eff967ad08dd9171e53c]
reverse link times to atletas--><path codeLine="116" d="M295.82,376.1206 C279.17,384.0306 261.51,391.6606 244.5,397.6406 C186.52,418.0306 151.52,382.7806 109.5,427.6406 C85.2,453.5806 81.09,494.5906 82.25,525.9706 " fill="none" id="times-backto-atletas" style="stroke:#A80036;stroke-width:1.0;"/><line style="stroke:#A80036;stroke-width:1.0;" x1="296.1812" x2="300.7884" y1="375.9394" y2="367.064"/><line style="stroke:#A80036;stroke-width:1.0;" x1="296.1812" x2="305.9916" y1="375.9394" y2="377.8773"/><line style="stroke:#A80036;stroke-width:1.0;" x1="296.1812" x2="303.39" y1="375.9394" y2="372.4706"/><ellipse cx="290.7745" cy="378.541" rx="4" ry="4" style="stroke:#A80036;stroke-width:1.0;fill:none;"/><text fill="#000000" font-family="sans-serif" font-size="13" lengthAdjust="spacing" textLength="223" x="110.5" y="464.1357">no mínimo 12 para o time estar regular</text><text fill="#000000" font-family="sans-serif" font-size="13" lengthAdjust="spacing" textLength="34" x="44.843" y="515.3887">&lt;= 22</text><!--MD5=[cb9282cd8c61518d193eeef9a4118062]
link times to tecnicos--><path codeLine="117" d="M370.96,397.6506 C366.67,427.2106 358.4,461.7906 342.5,489.6406 C334.49,503.6706 323.18,516.6306 311.33,527.8706 " fill="none" id="times-to-tecnicos" style="stroke:#A80036;stroke-width:1.0;"/><line style="stroke:#A80036;stroke-width:1.0;" x1="311.5119" x2="306.0965" y1="533.1471" y2="527.2587"/><line style="stroke:#A80036;stroke-width:1.0;" x1="313.7201" x2="308.3047" y1="531.1164" y2="525.2279"/><line style="stroke:#A80036;stroke-width:1.0;" x1="311.7484" x2="305.86" y1="527.4952" y2="532.9106"/><text fill="#000000" font-family="sans-serif" font-size="13" lengthAdjust="spacing" textLength="7" x="363.0806" y="419.2043">1</text><text fill="#000000" font-family="sans-serif" font-size="13" lengthAdjust="spacing" textLength="7" x="307.3851" y="522.2316">1</text><!--MD5=[541db321f5882041d4dcd6e314ab1229]
reverse link times to auxiliares--><path codeLine="118" d="M389.63,405.9206 C397.8,448.0206 407.73,499.2106 414.32,533.1306 " fill="none" id="times-backto-auxiliares" style="stroke:#A80036;stroke-width:1.0;"/><line style="stroke:#A80036;stroke-width:1.0;" x1="389.6004" x2="382.1808" y1="405.7529" y2="399.0484"/><line style="stroke:#A80036;stroke-width:1.0;" x1="389.6004" x2="393.9592" y1="405.7529" y2="396.7528"/><line style="stroke:#A80036;stroke-width:1.0;" x1="389.6004" x2="388.07" y1="405.7529" y2="397.9006"/><ellipse cx="390.7482" cy="411.6421" rx="4" ry="4" style="stroke:#A80036;stroke-width:1.0;fill:none;"/><text fill="#000000" font-family="sans-serif" font-size="13" lengthAdjust="spacing" textLength="5" x="407.5353" y="522.2053">*</text><!--MD5=[5bba68f94536404f8e9771fe869c9307]
reverse link times to ginasios--><path codeLine="119" d="M438,403.3406 C471.16,440.5906 511.16,485.5106 541.28,519.3506 " fill="none" id="times-backto-ginasios" style="stroke:#A80036;stroke-width:1.0;"/><line style="stroke:#A80036;stroke-width:1.0;" x1="432.8336" x2="438.8074" y1="403.5481" y2="398.2271"/><line style="stroke:#A80036;stroke-width:1.0;" x1="434.8289" x2="440.8028" y1="405.7883" y2="400.4673"/><line style="stroke:#A80036;stroke-width:1.0;" x1="438.481" x2="433.16" y1="403.8745" y2="397.9006"/><text fill="#000000" font-family="sans-serif" font-size="13" lengthAdjust="spacing" textLength="7" x="431.7453" y="419.0196">1</text><text fill="#000000" font-family="sans-serif" font-size="13" lengthAdjust="spacing" textLength="7" x="527.7333" y="508.812">1</text><!--MD5=[2b4fb163778add7a685fb9ef7e2bb3ca]
reverse link partidas to arbitros--><path codeLine="120" d="M638.88,196.1906 C649.72,271.5306 664.85,376.6906 672.18,427.6206 " fill="none" id="partidas-backto-arbitros" style="stroke:#A80036;stroke-width:1.0;"/><line style="stroke:#A80036;stroke-width:1.0;" x1="634.4624" x2="642.3804" y1="193.521" y2="192.3782"/><line style="stroke:#A80036;stroke-width:1.0;" x1="634.891" x2="642.8089" y1="196.4902" y2="195.3474"/><line style="stroke:#A80036;stroke-width:1.0;" x1="638.9928" x2="637.85" y1="196.9086" y2="188.9906"/><text fill="#000000" font-family="sans-serif" font-size="13" lengthAdjust="spacing" textLength="7" x="631.5001" y="209.7883">1</text><text fill="#000000" font-family="sans-serif" font-size="13" lengthAdjust="spacing" textLength="7" x="663.4694" y="416.6365">1</text><!--MD5=[5d782613613ef1d6f0b04836f9f5b000]
reverse link partidas to delegados--><path codeLine="121" d="M672.32,195.2806 C712.89,270.6806 769.83,376.4806 797.35,427.6206 " fill="none" id="partidas-backto-delegados" style="stroke:#A80036;stroke-width:1.0;"/><line style="stroke:#A80036;stroke-width:1.0;" x1="667.2985" x2="674.3465" y1="194.4071" y2="190.6221"/><line style="stroke:#A80036;stroke-width:1.0;" x1="668.7179" x2="675.7659" y1="197.0501" y2="193.2651"/><line style="stroke:#A80036;stroke-width:1.0;" x1="672.715" x2="668.93" y1="196.0386" y2="188.9906"/><text fill="#000000" font-family="sans-serif" font-size="13" lengthAdjust="spacing" textLength="7" x="665.1539" y="209.7883">1</text><text fill="#000000" font-family="sans-serif" font-size="13" lengthAdjust="spacing" textLength="7" x="786.0516" y="416.6365">1</text><!--MD5=[f7b36b3ca10a04de5be0d941d7700365]
reverse link partidas to ginasios--><path codeLine="122" d="M619.06,195.7306 C610.79,290.8306 597.71,441.2406 590.92,519.3306 " fill="none" id="partidas-backto-ginasios" style="stroke:#A80036;stroke-width:1.0;"/><line style="stroke:#A80036;stroke-width:1.0;" x1="615.3417" x2="623.3123" y1="192.3329" y2="193.0189"/><line style="stroke:#A80036;stroke-width:1.0;" x1="615.0845" x2="623.055" y1="195.3218" y2="196.0078"/><line style="stroke:#A80036;stroke-width:1.0;" x1="618.984" x2="619.67" y1="196.6612" y2="188.6906"/><text fill="#000000" font-family="sans-serif" font-size="13" lengthAdjust="spacing" textLength="7" x="611.7823" y="209.7381">1</text><text fill="#000000" font-family="sans-serif" font-size="13" lengthAdjust="spacing" textLength="7" x="584.0436" y="508.7893">1</text><!--MD5=[f71160b3671e565786d2591493628dc1]
link partidas to times--><path codeLine="123" d="M534.32,139.3906 C472.53,161.0306 399.17,191.3506 380.5,218.6406 C372.56,230.2406 368.69,244.2006 367.23,258.2706 " fill="none" id="partidas-times" style="stroke:#A80036;stroke-width:1.0;"/><line style="stroke:#A80036;stroke-width:1.0;" x1="367.201" x2="372.6147" y1="258.581" y2="266.9889"/><line style="stroke:#A80036;stroke-width:1.0;" x1="367.201" x2="360.6453" y1="258.581" y2="266.1324"/><line style="stroke:#A80036;stroke-width:1.0;" x1="367.201" x2="366.63" y1="258.581" y2="266.5606"/><ellipse cx="367.6292" cy="252.5963" rx="4" ry="4" style="stroke:#A80036;stroke-width:1.0;fill:none;"/><line style="stroke:#A80036;stroke-width:1.0;fill:none;" x1="537.0921" x2="539.7075" y1="134.1981" y2="141.7585"/><line style="stroke:#A80036;stroke-width:1.0;fill:none;" x1="534.2569" x2="536.8724" y1="135.1789" y2="142.7393"/><line style="stroke:#A80036;stroke-width:1.0;fill:none;" x1="534.6196" x2="542.18" y1="139.286" y2="136.6706"/><text fill="#000000" font-family="sans-serif" font-size="13" lengthAdjust="spacing" textLength="178" x="381.5" y="233.1357">time vencedor e time derrotado</text><text fill="#000000" font-family="sans-serif" font-size="13" lengthAdjust="spacing" textLength="7" x="527.633" y="135.8726">1</text><text fill="#000000" font-family="sans-serif" font-size="13" lengthAdjust="spacing" textLength="7" x="358.1997" y="255.5675">2</text><!--MD5=[7219f91607be3f5f27fd67a14e97b5a8]
reverse link atletas to pessoas--><path codeLine="125" d="M160.56,616.2606 C164.25,618.4306 167.92,620.5606 171.5,622.6406 C232.57,658.0206 302.81,697.0706 353.26,724.8406 " fill="none" id="atletas-backto-pessoas" style="stroke:#A80036;stroke-width:1.0;"/><line style="stroke:#A80036;stroke-width:1.0;" x1="155.748" x2="159.8063" y1="618.0569" y2="611.1627"/><line style="stroke:#A80036;stroke-width:1.0;" x1="158.3333" x2="162.3916" y1="619.5787" y2="612.6845"/><line style="stroke:#A80036;stroke-width:1.0;" x1="161.2242" x2="154.33" y1="616.6389" y2="612.5806"/><!--MD5=[f4ea2c3fe9f1a93329328851c575e449]
reverse link tecnicos to pessoas--><path codeLine="126" d="M291.85,614.6406 C310,635.2806 332.37,660.7406 353.4,684.6606 " fill="none" id="tecnicos-backto-pessoas" style="stroke:#A80036;stroke-width:1.0;"/><line style="stroke:#A80036;stroke-width:1.0;" x1="286.7324" x2="292.7449" y1="614.8655" y2="609.5882"/><line style="stroke:#A80036;stroke-width:1.0;" x1="288.7114" x2="294.7239" y1="617.1202" y2="611.8429"/><line style="stroke:#A80036;stroke-width:1.0;" x1="292.3773" x2="287.1" y1="615.2331" y2="609.2206"/><!--MD5=[1c1db4c379452604db1fa78c94e31d72]
reverse link auxiliares to pessoas--><path codeLine="127" d="M421.5,616.3806 C421.5,636.3606 421.5,660.5806 421.5,683.4806 " fill="none" id="auxiliares-backto-pessoas" style="stroke:#A80036;stroke-width:1.0;"/><line style="stroke:#A80036;stroke-width:1.0;" x1="417.5" x2="425.5" y1="613.2206" y2="613.2206"/><line style="stroke:#A80036;stroke-width:1.0;" x1="417.5" x2="425.5" y1="616.2206" y2="616.2206"/><line style="stroke:#A80036;stroke-width:1.0;" x1="421.5" x2="421.5" y1="617.2206" y2="609.2206"/><!--MD5=[609556a8c2d89a72693bd093a3017a83]
reverse link arbitros to pessoas--><path codeLine="128" d="M684.04,497.0606 C689.03,532.1906 690.93,584.8606 667.5,622.6406 C627.91,686.4806 547.78,723.8406 489.7,743.5706 " fill="none" id="arbitros-backto-pessoas" style="stroke:#A80036;stroke-width:1.0;"/><line style="stroke:#A80036;stroke-width:1.0;" x1="679.5905" x2="687.4986" y1="494.3992" y2="493.1901"/><line style="stroke:#A80036;stroke-width:1.0;" x1="680.0439" x2="687.952" y1="497.3648" y2="496.1557"/><line style="stroke:#A80036;stroke-width:1.0;" x1="684.1491" x2="682.94" y1="497.7487" y2="489.8406"/><!--MD5=[2d03a3bb6867830b12c11900d091aee6]
reverse link delegados to pessoas--><path codeLine="129" d="M792.17,496.0806 C771.43,530.2506 738.08,582.0106 703.5,622.6406 C647.65,688.2606 553.55,725.9806 489.55,745.2606 " fill="none" id="delegados-backto-pessoas" style="stroke:#A80036;stroke-width:1.0;"/><line style="stroke:#A80036;stroke-width:1.0;" x1="790.3982" x2="797.2466" y1="491.2672" y2="495.4024"/><line style="stroke:#A80036;stroke-width:1.0;" x1="788.8475" x2="795.6959" y1="493.8354" y2="497.9705"/><line style="stroke:#A80036;stroke-width:1.0;" x1="791.7548" x2="795.89" y1="496.759" y2="489.9106"/><!--MD5=[5006a44f641bd5a3dc6ad91245e5c614]
link genero to tipo_pessoa--><!--MD5=[2dd0eae2b431123372dd794c2dc41ee2]
link genero to posicoes--><!--MD5=[d9ab35757bf73b14463767eb4434aeb2]
link posicoes to tipo_auxiliar--><!--MD5=[c8303d2273be726183587a68d820ec5d]
@startuml er
title ER - Equipes

enum genero{
	masculino
	feminino
}

entity competicoes {
	* id : uuid <<generated>>
	- -
	* genero : genero
	* comeca_em : timestamp
	nome : text
	serie : text = A
}

entity times {
	* id : uuid <<generated>>
	- -
	* nome : text
	url_brasao : text
	* id_ginasio : uuid <<FK>>  
	* apta : boolean = false
	descricao_aptidao : json
	'min 12 per tournament'
	'max 22 per tounament'
}

entity ginasios {
	* id : uuid <<generated>>
	- -
	* nome : text
	* cidade : text
	* estado : text
}

enum tipo_pessoa {
	tecnico 
	atleta
	arbitro
	auxiliares
	delegados
}

entity pessoas {
	* id : uuid <generated>>
	- -
	* nome : text
	* documento : text <<UQ>>
	* genero : genero
	* idade : tinyint
	* id_time : uuid <<FK>>
	* documento_cbv : text
	* tipo : tipo_pessoa
}

enum posicoes {
	ponta
	oposto
	central
	libero
	levantador
}

entity atletas{
	* id_pessoa : uuid <<FK>>
	- -
	* posicao: posicao
	* numero : tinyint
}

entity tecnicos{
	* id_pessoa: uuid <<FK>>
	- -
	* documento_cref: text
}

entity arbitros {
	* id_pessoa : uuid <<FK>>
	- -
}

enum tipo_auxiliar {
	assistente_medico
	auxiliar_tecnico
	preparador_fisico
	fisioterapeuta
	medico
	massagista
}

entity auxiliares {
	* id_pessoa : uuid <<FK>>
	- -
	tipo : tipo_auxiliar
}

entity delegados {
	* id_pessoa: uuid <<FK>>
	- -
}

entity partidas {
	* id : uuid <<generated>>
	- -
	* id_delegado : uuid <<FK>>
	* id_arbitro : uuid <<FK>>
	* id_ginasio : uuid <<FK>>
	* comecou_em : timestamp
	* finalizou_em : timestamp
	* id_time_ganhador : uuid <<FK>>
	* id_time_perdedor : uuid <<FK>>
}

competicoes }o- - "<= 12" times
times }o- - "<= 22" atletas : no mínimo 12 para o time estar regular
times "1" - -|| "1" tecnicos
times }o- - "*" auxiliares
times "1" ||- - "1" ginasios
partidas "1" ||- - "1" arbitros
partidas "1" ||- - "1" delegados
partidas "1" ||- - "1" ginasios
partidas "1" ||- -o{ "2" times : time vencedor e time derrotado

atletas ||- - pessoas
tecnicos ||- - pessoas
auxiliares ||- - pessoas
arbitros ||- - pessoas
delegados ||- - pessoas

@enduml

@startuml er
title ER - Equipes

enum genero{
	masculino
	feminino
}

entity competicoes {
	* id : uuid <<generated>>
	- -
	* genero : genero
	* comeca_em : timestamp
	nome : text
	serie : text = A
}

entity times {
	* id : uuid <<generated>>
	- -
	* nome : text
	url_brasao : text
	* id_ginasio : uuid <<FK>>  
	* apta : boolean = false
	descricao_aptidao : json
}

entity ginasios {
	* id : uuid <<generated>>
	- -
	* nome : text
	* cidade : text
	* estado : text
}

enum tipo_pessoa {
	tecnico 
	atleta
	arbitro
	auxiliares
	delegados
}

entity pessoas {
	* id : uuid <generated>>
	- -
	* nome : text
	* documento : text <<UQ>>
	* genero : genero
	* idade : tinyint
	* id_time : uuid <<FK>>
	* documento_cbv : text
	* tipo : tipo_pessoa
}

enum posicoes {
	ponta
	oposto
	central
	libero
	levantador
}

entity atletas{
	* id_pessoa : uuid <<FK>>
	- -
	* posicao: posicao
	* numero : tinyint
}

entity tecnicos{
	* id_pessoa: uuid <<FK>>
	- -
	* documento_cref: text
}

entity arbitros {
	* id_pessoa : uuid <<FK>>
	- -
}

enum tipo_auxiliar {
	assistente_medico
	auxiliar_tecnico
	preparador_fisico
	fisioterapeuta
	medico
	massagista
}

entity auxiliares {
	* id_pessoa : uuid <<FK>>
	- -
	tipo : tipo_auxiliar
}

entity delegados {
	* id_pessoa: uuid <<FK>>
	- -
}

entity partidas {
	* id : uuid <<generated>>
	- -
	* id_delegado : uuid <<FK>>
	* id_arbitro : uuid <<FK>>
	* id_ginasio : uuid <<FK>>
	* comecou_em : timestamp
	* finalizou_em : timestamp
	* id_time_ganhador : uuid <<FK>>
	* id_time_perdedor : uuid <<FK>>
}

competicoes }o- - "<= 12" times
times }o- - "<= 22" atletas : no mínimo 12 para o time estar regular
times "1" - -|| "1" tecnicos
times }o- - "*" auxiliares
times "1" ||- - "1" ginasios
partidas "1" ||- - "1" arbitros
partidas "1" ||- - "1" delegados
partidas "1" ||- - "1" ginasios
partidas "1" ||- -o{ "2" times : time vencedor e time derrotado

atletas ||- - pessoas
tecnicos ||- - pessoas
auxiliares ||- - pessoas
arbitros ||- - pessoas
delegados ||- - pessoas

@enduml

PlantUML version 1.2022.0(Tue Jan 11 13:16:42 BRT 2022)
(GPL source distribution)
Java Runtime: OpenJDK Runtime Environment
JVM: OpenJDK 64-Bit Server VM
Default Encoding: UTF-8
Language: pt
Country: BR
--></g></svg>