<?xml version="1.0" encoding="UTF-8" standalone="no"?>
<!DOCTYPE svg PUBLIC "-//W3C//DTD SVG 1.1//EN"
 "http://www.w3.org/Graphics/SVG/1.1/DTD/svg11.dtd">
<!-- Generated by graphviz version 3.0.0 (20220226.1711)
 -->
<!-- Title: dependencies Pages: 1 -->
<svg width="851pt" height="174pt"
 viewBox="0.00 0.00 851.00 173.80" xmlns="http://www.w3.org/2000/svg" xmlns:xlink="http://www.w3.org/1999/xlink">
<g id="graph0" class="graph" transform="scale(1 1) rotate(0) translate(4 169.8)">
<title>dependencies</title>
<polygon fill="white" stroke="transparent" points="-4,4 -4,-169.8 847,-169.8 847,4 -4,4"/>
<text text-anchor="middle" x="421.5" y="-8.2" font-family="sans-serif" font-size="14.00">dependencies</text>
<g id="clust1" class="cluster">
<title>cluster_AppModule</title>
<polygon fill="none" stroke="black" stroke-dasharray="1,5" points="8,-32.8 8,-157.8 835,-157.8 835,-32.8 8,-32.8"/>
</g>
<g id="clust3" class="cluster">
<title>cluster_AppModule_imports</title>
<polygon fill="none" stroke="black" points="16,-40.8 16,-92.8 827,-92.8 827,-40.8 16,-40.8"/>
</g>
<!-- CoreModule -->
<g id="node1" class="node">
<title>CoreModule</title>
<polygon fill="#8dd3c7" stroke="black" points="819.27,-84.8 816.27,-88.8 795.27,-88.8 792.27,-84.8 732.73,-84.8 732.73,-48.8 819.27,-48.8 819.27,-84.8"/>
<text text-anchor="middle" x="776" y="-62.6" font-family="Times,serif" font-size="14.00">CoreModule</text>
</g>
<!-- AppModule -->
<g id="node8" class="node">
<title>AppModule</title>
<polygon fill="#8dd3c7" stroke="black" points="452.66,-149.8 449.66,-153.8 428.66,-153.8 425.66,-149.8 369.34,-149.8 369.34,-113.8 452.66,-113.8 452.66,-149.8"/>
<text text-anchor="middle" x="411" y="-127.6" font-family="Times,serif" font-size="14.00">AppModule</text>
</g>
<!-- CoreModule&#45;&gt;AppModule -->
<g id="edge1" class="edge">
<title>CoreModule&#45;&gt;AppModule</title>
<path fill="none" stroke="black" d="M776,-85.09C776,-107.01 776,-140.8 776,-140.8 776,-140.8 462.87,-140.8 462.87,-140.8"/>
<polygon fill="black" stroke="black" points="462.87,-137.3 452.87,-140.8 462.87,-144.3 462.87,-137.3"/>
</g>
<!-- EquipeModule -->
<g id="node2" class="node">
<title>EquipeModule</title>
<polygon fill="#8dd3c7" stroke="black" points="714.71,-84.8 711.71,-88.8 690.71,-88.8 687.71,-84.8 615.29,-84.8 615.29,-48.8 714.71,-48.8 714.71,-84.8"/>
<text text-anchor="middle" x="665" y="-62.6" font-family="Times,serif" font-size="14.00">EquipeModule</text>
</g>
<!-- EquipeModule&#45;&gt;AppModule -->
<g id="edge2" class="edge">
<title>EquipeModule&#45;&gt;AppModule</title>
<path fill="none" stroke="black" d="M665,-84.91C665,-104.14 665,-131.8 665,-131.8 665,-131.8 462.94,-131.8 462.94,-131.8"/>
<polygon fill="black" stroke="black" points="462.94,-128.3 452.94,-131.8 462.94,-135.3 462.94,-128.3"/>
</g>
<!-- EstatisticaModule -->
<g id="node3" class="node">
<title>EstatisticaModule</title>
<polygon fill="#8dd3c7" stroke="black" points="597.59,-84.8 594.59,-88.8 573.59,-88.8 570.59,-84.8 480.41,-84.8 480.41,-48.8 597.59,-48.8 597.59,-84.8"/>
<text text-anchor="middle" x="539" y="-62.6" font-family="Times,serif" font-size="14.00">EstatisticaModule</text>
</g>
<!-- EstatisticaModule&#45;&gt;AppModule -->
<g id="edge3" class="edge">
<title>EstatisticaModule&#45;&gt;AppModule</title>
<path fill="none" stroke="black" d="M539,-84.83C539,-101.2 539,-122.8 539,-122.8 539,-122.8 462.91,-122.8 462.91,-122.8"/>
<polygon fill="black" stroke="black" points="462.91,-119.3 452.91,-122.8 462.91,-126.3 462.91,-119.3"/>
</g>
<!-- GinasioModule -->
<g id="node4" class="node">
<title>GinasioModule</title>
<polygon fill="#8dd3c7" stroke="black" points="462.6,-84.8 459.6,-88.8 438.6,-88.8 435.6,-84.8 359.4,-84.8 359.4,-48.8 462.6,-48.8 462.6,-84.8"/>
<text text-anchor="middle" x="411" y="-62.6" font-family="Times,serif" font-size="14.00">GinasioModule</text>
</g>
<!-- GinasioModule&#45;&gt;AppModule -->
<g id="edge4" class="edge">
<title>GinasioModule&#45;&gt;AppModule</title>
<path fill="none" stroke="black" d="M411,-84.91C411,-84.91 411,-103.79 411,-103.79"/>
<polygon fill="black" stroke="black" points="407.5,-103.79 411,-113.79 414.5,-103.79 407.5,-103.79"/>
</g>
<!-- LigaModule -->
<g id="node5" class="node">
<title>LigaModule</title>
<polygon fill="#8dd3c7" stroke="black" points="341.71,-84.8 338.71,-88.8 317.71,-88.8 314.71,-84.8 256.29,-84.8 256.29,-48.8 341.71,-48.8 341.71,-84.8"/>
<text text-anchor="middle" x="299" y="-62.6" font-family="Times,serif" font-size="14.00">LigaModule</text>
</g>
<!-- LigaModule&#45;&gt;AppModule -->
<g id="edge5" class="edge">
<title>LigaModule&#45;&gt;AppModule</title>
<path fill="none" stroke="black" d="M299,-84.83C299,-101.2 299,-122.8 299,-122.8 299,-122.8 359.3,-122.8 359.3,-122.8"/>
<polygon fill="black" stroke="black" points="359.3,-126.3 369.3,-122.8 359.3,-119.3 359.3,-126.3"/>
</g>
<!-- PartidaModule -->
<g id="node6" class="node">
<title>PartidaModule</title>
<polygon fill="#8dd3c7" stroke="black" points="238.71,-84.8 235.71,-88.8 214.71,-88.8 211.71,-84.8 139.29,-84.8 139.29,-48.8 238.71,-48.8 238.71,-84.8"/>
<text text-anchor="middle" x="189" y="-62.6" font-family="Times,serif" font-size="14.00">PartidaModule</text>
</g>
<!-- PartidaModule&#45;&gt;AppModule -->
<g id="edge6" class="edge">
<title>PartidaModule&#45;&gt;AppModule</title>
<path fill="none" stroke="black" d="M189,-84.91C189,-104.14 189,-131.8 189,-131.8 189,-131.8 359.24,-131.8 359.24,-131.8"/>
<polygon fill="black" stroke="black" points="359.24,-135.3 369.24,-131.8 359.24,-128.3 359.24,-135.3"/>
</g>
<!-- PessoaModule -->
<g id="node7" class="node">
<title>PessoaModule</title>
<polygon fill="#8dd3c7" stroke="black" points="121.66,-84.8 118.66,-88.8 97.66,-88.8 94.66,-84.8 24.34,-84.8 24.34,-48.8 121.66,-48.8 121.66,-84.8"/>
<text text-anchor="middle" x="73" y="-62.6" font-family="Times,serif" font-size="14.00">PessoaModule</text>
</g>
<!-- PessoaModule&#45;&gt;AppModule -->
<g id="edge7" class="edge">
<title>PessoaModule&#45;&gt;AppModule</title>
<path fill="none" stroke="black" d="M73,-85.09C73,-107.01 73,-140.8 73,-140.8 73,-140.8 359.22,-140.8 359.22,-140.8"/>
<polygon fill="black" stroke="black" points="359.22,-144.3 369.22,-140.8 359.22,-137.3 359.22,-144.3"/>
</g>
</g>
</svg>
