<?xml version="1.0" encoding="UTF-8" standalone="no"?>
<!DOCTYPE svg PUBLIC "-//W3C//DTD SVG 1.1//EN"
 "http://www.w3.org/Graphics/SVG/1.1/DTD/svg11.dtd">
<!-- Generated by graphviz version 3.0.0 (20220226.1711)
 -->
<!-- Title: dependencies Pages: 1 -->
<svg width="716pt" height="174pt"
 viewBox="0.00 0.00 716.00 173.80" xmlns="http://www.w3.org/2000/svg" xmlns:xlink="http://www.w3.org/1999/xlink">
<g id="graph0" class="graph" transform="scale(1 1) rotate(0) translate(4 169.8)">
<title>dependencies</title>
<polygon fill="white" stroke="transparent" points="-4,4 -4,-169.8 712,-169.8 712,4 -4,4"/>
<text text-anchor="middle" x="354" y="-8.2" font-family="sans-serif" font-size="14.00">dependencies</text>
<g id="clust1" class="cluster">
<title>cluster_AppModule</title>
<polygon fill="none" stroke="black" stroke-dasharray="1,5" points="8,-32.8 8,-157.8 700,-157.8 700,-32.8 8,-32.8"/>
</g>
<g id="clust3" class="cluster">
<title>cluster_AppModule_imports</title>
<polygon fill="none" stroke="black" points="16,-40.8 16,-92.8 692,-92.8 692,-40.8 16,-40.8"/>
</g>
<!-- CoreModule -->
<g id="node1" class="node">
<title>CoreModule</title>
<polygon fill="#8dd3c7" stroke="black" points="684.27,-84.8 681.27,-88.8 660.27,-88.8 657.27,-84.8 597.73,-84.8 597.73,-48.8 684.27,-48.8 684.27,-84.8"/>
<text text-anchor="middle" x="641" y="-62.6" font-family="Times,serif" font-size="14.00">CoreModule</text>
</g>
<!-- AppModule -->
<g id="node7" class="node">
<title>AppModule</title>
<polygon fill="#8dd3c7" stroke="black" points="396.66,-149.8 393.66,-153.8 372.66,-153.8 369.66,-149.8 313.34,-149.8 313.34,-113.8 396.66,-113.8 396.66,-149.8"/>
<text text-anchor="middle" x="355" y="-127.6" font-family="Times,serif" font-size="14.00">AppModule</text>
</g>
<!-- CoreModule&#45;&gt;AppModule -->
<g id="edge1" class="edge">
<title>CoreModule&#45;&gt;AppModule</title>
<path fill="none" stroke="black" d="M641,-85.08C641,-106.12 641,-137.8 641,-137.8 641,-137.8 406.89,-137.8 406.89,-137.8"/>
<polygon fill="black" stroke="black" points="406.89,-134.3 396.89,-137.8 406.89,-141.3 406.89,-134.3"/>
</g>
<!-- EquipeModule -->
<g id="node2" class="node">
<title>EquipeModule</title>
<polygon fill="#8dd3c7" stroke="black" points="579.71,-84.8 576.71,-88.8 555.71,-88.8 552.71,-84.8 480.29,-84.8 480.29,-48.8 579.71,-48.8 579.71,-84.8"/>
<text text-anchor="middle" x="530" y="-62.6" font-family="Times,serif" font-size="14.00">EquipeModule</text>
</g>
<!-- EquipeModule&#45;&gt;AppModule -->
<g id="edge2" class="edge">
<title>EquipeModule&#45;&gt;AppModule</title>
<path fill="none" stroke="black" d="M530,-84.82C530,-102.17 530,-125.8 530,-125.8 530,-125.8 406.92,-125.8 406.92,-125.8"/>
<polygon fill="black" stroke="black" points="406.92,-122.3 396.92,-125.8 406.92,-129.3 406.92,-122.3"/>
</g>
<!-- GinasioModule -->
<g id="node3" class="node">
<title>GinasioModule</title>
<polygon fill="#8dd3c7" stroke="black" points="462.6,-84.8 459.6,-88.8 438.6,-88.8 435.6,-84.8 359.4,-84.8 359.4,-48.8 462.6,-48.8 462.6,-84.8"/>
<text text-anchor="middle" x="411" y="-62.6" font-family="Times,serif" font-size="14.00">GinasioModule</text>
</g>
<!-- GinasioModule&#45;&gt;AppModule -->
<g id="edge3" class="edge">
<title>GinasioModule&#45;&gt;AppModule</title>
<path fill="none" stroke="black" d="M378.14,-84.91C378.14,-84.91 378.14,-103.79 378.14,-103.79"/>
<polygon fill="black" stroke="black" points="374.64,-103.79 378.14,-113.79 381.64,-103.79 374.64,-103.79"/>
</g>
<!-- LigaModule -->
<g id="node4" class="node">
<title>LigaModule</title>
<polygon fill="#8dd3c7" stroke="black" points="341.71,-84.8 338.71,-88.8 317.71,-88.8 314.71,-84.8 256.29,-84.8 256.29,-48.8 341.71,-48.8 341.71,-84.8"/>
<text text-anchor="middle" x="299" y="-62.6" font-family="Times,serif" font-size="14.00">LigaModule</text>
</g>
<!-- LigaModule&#45;&gt;AppModule -->
<g id="edge4" class="edge">
<title>LigaModule&#45;&gt;AppModule</title>
<path fill="none" stroke="black" d="M327.39,-84.91C327.39,-84.91 327.39,-103.79 327.39,-103.79"/>
<polygon fill="black" stroke="black" points="323.89,-103.79 327.39,-113.79 330.89,-103.79 323.89,-103.79"/>
</g>
<!-- PartidaModule -->
<g id="node5" class="node">
<title>PartidaModule</title>
<polygon fill="#8dd3c7" stroke="black" points="238.71,-84.8 235.71,-88.8 214.71,-88.8 211.71,-84.8 139.29,-84.8 139.29,-48.8 238.71,-48.8 238.71,-84.8"/>
<text text-anchor="middle" x="189" y="-62.6" font-family="Times,serif" font-size="14.00">PartidaModule</text>
</g>
<!-- PartidaModule&#45;&gt;AppModule -->
<g id="edge5" class="edge">
<title>PartidaModule&#45;&gt;AppModule</title>
<path fill="none" stroke="black" d="M189,-84.82C189,-102.17 189,-125.8 189,-125.8 189,-125.8 303.11,-125.8 303.11,-125.8"/>
<polygon fill="black" stroke="black" points="303.11,-129.3 313.11,-125.8 303.11,-122.3 303.11,-129.3"/>
</g>
<!-- PessoaModule -->
<g id="node6" class="node">
<title>PessoaModule</title>
<polygon fill="#8dd3c7" stroke="black" points="121.66,-84.8 118.66,-88.8 97.66,-88.8 94.66,-84.8 24.34,-84.8 24.34,-48.8 121.66,-48.8 121.66,-84.8"/>
<text text-anchor="middle" x="73" y="-62.6" font-family="Times,serif" font-size="14.00">PessoaModule</text>
</g>
<!-- PessoaModule&#45;&gt;AppModule -->
<g id="edge6" class="edge">
<title>PessoaModule&#45;&gt;AppModule</title>
<path fill="none" stroke="black" d="M73,-85.08C73,-106.12 73,-137.8 73,-137.8 73,-137.8 303.09,-137.8 303.09,-137.8"/>
<polygon fill="black" stroke="black" points="303.09,-141.3 313.09,-137.8 303.09,-134.3 303.09,-141.3"/>
</g>
</g>
</svg>
