<?xml version="1.0" encoding="UTF-8" standalone="no"?>
<!DOCTYPE svg PUBLIC "-//W3C//DTD SVG 1.1//EN"
 "http://www.w3.org/Graphics/SVG/1.1/DTD/svg11.dtd">
<!-- Generated by graphviz version 3.0.0 (20220226.1711)
 -->
<!-- Title: dependencies Pages: 1 -->
<svg width="422pt" height="247pt"
 viewBox="0.00 0.00 422.00 246.80" xmlns="http://www.w3.org/2000/svg" xmlns:xlink="http://www.w3.org/1999/xlink">
<g id="graph0" class="graph" transform="scale(1 1) rotate(0) translate(4 242.8)">
<title>dependencies</title>
<polygon fill="white" stroke="transparent" points="-4,4 -4,-242.8 418,-242.8 418,4 -4,4"/>
<text text-anchor="middle" x="207" y="-8.2" font-family="sans-serif" font-size="14.00">dependencies</text>
<g id="clust1" class="cluster">
<title>cluster_EquipeModule</title>
<polygon fill="none" stroke="black" stroke-dasharray="1,5" points="8,-32.8 8,-230.8 406,-230.8 406,-32.8 8,-32.8"/>
</g>
<g id="clust6" class="cluster">
<title>cluster_EquipeModule_providers</title>
<polygon fill="none" stroke="black" points="248,-40.8 248,-92.8 398,-92.8 398,-40.8 248,-40.8"/>
</g>
<g id="clust4" class="cluster">
<title>cluster_EquipeModule_exports</title>
<polygon fill="none" stroke="black" points="130,-170.8 130,-222.8 248,-222.8 248,-170.8 130,-170.8"/>
</g>
<g id="clust3" class="cluster">
<title>cluster_EquipeModule_imports</title>
<polygon fill="none" stroke="black" points="16,-40.8 16,-92.8 240,-92.8 240,-40.8 16,-40.8"/>
</g>
<!-- CoreModule -->
<g id="node1" class="node">
<title>CoreModule</title>
<polygon fill="#8dd3c7" stroke="black" points="232.27,-84.8 229.27,-88.8 208.27,-88.8 205.27,-84.8 145.73,-84.8 145.73,-48.8 232.27,-48.8 232.27,-84.8"/>
<text text-anchor="middle" x="189" y="-62.6" font-family="Times,serif" font-size="14.00">CoreModule</text>
</g>
<!-- EquipeModule -->
<g id="node3" class="node">
<title>EquipeModule</title>
<polygon fill="#8dd3c7" stroke="black" points="238.71,-149.8 235.71,-153.8 214.71,-153.8 211.71,-149.8 139.29,-149.8 139.29,-113.8 238.71,-113.8 238.71,-149.8"/>
<text text-anchor="middle" x="189" y="-127.6" font-family="Times,serif" font-size="14.00">EquipeModule</text>
</g>
<!-- CoreModule&#45;&gt;EquipeModule -->
<g id="edge1" class="edge">
<title>CoreModule&#45;&gt;EquipeModule</title>
<path fill="none" stroke="black" d="M189,-84.91C189,-84.91 189,-103.79 189,-103.79"/>
<polygon fill="black" stroke="black" points="185.5,-103.79 189,-113.79 192.5,-103.79 185.5,-103.79"/>
</g>
<!-- GinasioModule -->
<g id="node2" class="node">
<title>GinasioModule</title>
<polygon fill="#8dd3c7" stroke="black" points="127.6,-84.8 124.6,-88.8 103.6,-88.8 100.6,-84.8 24.4,-84.8 24.4,-48.8 127.6,-48.8 127.6,-84.8"/>
<text text-anchor="middle" x="76" y="-62.6" font-family="Times,serif" font-size="14.00">GinasioModule</text>
</g>
<!-- GinasioModule&#45;&gt;EquipeModule -->
<g id="edge2" class="edge">
<title>GinasioModule&#45;&gt;EquipeModule</title>
<path fill="none" stroke="black" d="M76,-84.91C76,-104.14 76,-131.8 76,-131.8 76,-131.8 129.11,-131.8 129.11,-131.8"/>
<polygon fill="black" stroke="black" points="129.11,-135.3 139.11,-131.8 129.11,-128.3 129.11,-135.3"/>
</g>
<!-- EquipeService  -->
<g id="node4" class="node">
<title>EquipeService </title>
<polygon fill="#fb8072" stroke="black" points="239.63,-214.8 138.37,-214.8 138.37,-178.8 239.63,-178.8 239.63,-214.8"/>
<text text-anchor="middle" x="189" y="-192.6" font-family="Times,serif" font-size="14.00">EquipeService </text>
</g>
<!-- EquipeModule&#45;&gt;EquipeService  -->
<g id="edge3" class="edge">
<title>EquipeModule&#45;&gt;EquipeService </title>
<path fill="none" stroke="black" stroke-dasharray="5,2" d="M189,-149.91C189,-149.91 189,-168.79 189,-168.79"/>
<polygon fill="black" stroke="black" points="185.5,-168.79 189,-178.79 192.5,-168.79 185.5,-168.79"/>
</g>
<!-- EquipeService -->
<g id="node5" class="node">
<title>EquipeService</title>
<ellipse fill="#fdb462" stroke="black" cx="323" cy="-66.8" rx="67.19" ry="18"/>
<text text-anchor="middle" x="323" y="-62.6" font-family="Times,serif" font-size="14.00">EquipeService</text>
</g>
<!-- EquipeService&#45;&gt;EquipeModule -->
<g id="edge4" class="edge">
<title>EquipeService&#45;&gt;EquipeModule</title>
<path fill="none" stroke="black" d="M323,-84.91C323,-104.14 323,-131.8 323,-131.8 323,-131.8 248.9,-131.8 248.9,-131.8"/>
<polygon fill="black" stroke="black" points="248.9,-128.3 238.9,-131.8 248.9,-135.3 248.9,-128.3"/>
</g>
</g>
</svg>
