<?xml version="1.0" encoding="UTF-8" standalone="no"?>
<!DOCTYPE svg PUBLIC "-//W3C//DTD SVG 1.1//EN"
 "http://www.w3.org/Graphics/SVG/1.1/DTD/svg11.dtd">
<!-- Generated by graphviz version 3.0.0 (20220226.1711)
 -->
<!-- Title: dependencies Pages: 1 -->
<svg width="422pt" height="247pt"
 viewBox="0.00 0.00 422.00 246.80" xmlns="http://www.w3.org/2000/svg" xmlns:xlink="http://www.w3.org/1999/xlink">
<g id="graph0" class="graph" transform="scale(1 1) rotate(0) translate(4 242.8)">
<title>dependencies</title>
<polygon fill="white" stroke="transparent" points="-4,4 -4,-242.8 418,-242.8 418,4 -4,4"/>
<text text-anchor="middle" x="207" y="-8.2" font-family="sans-serif" font-size="14.00">dependencies</text>
<g id="clust1" class="cluster">
<title>cluster_EquipeModule</title>
<polygon fill="none" stroke="black" stroke-dasharray="1,5" points="8,-32.8 8,-230.8 406,-230.8 406,-32.8 8,-32.8"/>
</g>
<g id="clust3" class="cluster">
<title>cluster_EquipeModule_imports</title>
<polygon fill="none" stroke="black" points="174,-40.8 174,-92.8 398,-92.8 398,-40.8 174,-40.8"/>
</g>
<g id="clust6" class="cluster">
<title>cluster_EquipeModule_providers</title>
<polygon fill="none" stroke="black" points="16,-40.8 16,-92.8 166,-92.8 166,-40.8 16,-40.8"/>
</g>
<g id="clust4" class="cluster">
<title>cluster_EquipeModule_exports</title>
<polygon fill="none" stroke="black" points="175,-170.8 175,-222.8 293,-222.8 293,-170.8 175,-170.8"/>
</g>
<!-- CoreModule -->
<g id="node1" class="node">
<title>CoreModule</title>
<polygon fill="#8dd3c7" stroke="black" points="390.27,-84.8 387.27,-88.8 366.27,-88.8 363.27,-84.8 303.73,-84.8 303.73,-48.8 390.27,-48.8 390.27,-84.8"/>
<text text-anchor="middle" x="347" y="-62.6" font-family="Times,serif" font-size="14.00">CoreModule</text>
</g>
<!-- EquipeModule -->
<g id="node3" class="node">
<title>EquipeModule</title>
<polygon fill="#8dd3c7" stroke="black" points="283.71,-149.8 280.71,-153.8 259.71,-153.8 256.71,-149.8 184.29,-149.8 184.29,-113.8 283.71,-113.8 283.71,-149.8"/>
<text text-anchor="middle" x="234" y="-127.6" font-family="Times,serif" font-size="14.00">EquipeModule</text>
</g>
<!-- CoreModule&#45;&gt;EquipeModule -->
<g id="edge1" class="edge">
<title>CoreModule&#45;&gt;EquipeModule</title>
<path fill="none" stroke="black" d="M347,-84.91C347,-104.14 347,-131.8 347,-131.8 347,-131.8 293.89,-131.8 293.89,-131.8"/>
<polygon fill="black" stroke="black" points="293.89,-128.3 283.89,-131.8 293.89,-135.3 293.89,-128.3"/>
</g>
<!-- GinasioModule -->
<g id="node2" class="node">
<title>GinasioModule</title>
<polygon fill="#8dd3c7" stroke="black" points="285.6,-84.8 282.6,-88.8 261.6,-88.8 258.6,-84.8 182.4,-84.8 182.4,-48.8 285.6,-48.8 285.6,-84.8"/>
<text text-anchor="middle" x="234" y="-62.6" font-family="Times,serif" font-size="14.00">GinasioModule</text>
</g>
<!-- GinasioModule&#45;&gt;EquipeModule -->
<g id="edge2" class="edge">
<title>GinasioModule&#45;&gt;EquipeModule</title>
<path fill="none" stroke="black" d="M234,-84.91C234,-84.91 234,-103.79 234,-103.79"/>
<polygon fill="black" stroke="black" points="230.5,-103.79 234,-113.79 237.5,-103.79 230.5,-103.79"/>
</g>
<!-- EquipeService  -->
<g id="node4" class="node">
<title>EquipeService </title>
<polygon fill="#fb8072" stroke="black" points="284.63,-214.8 183.37,-214.8 183.37,-178.8 284.63,-178.8 284.63,-214.8"/>
<text text-anchor="middle" x="234" y="-192.6" font-family="Times,serif" font-size="14.00">EquipeService </text>
</g>
<!-- EquipeModule&#45;&gt;EquipeService  -->
<g id="edge3" class="edge">
<title>EquipeModule&#45;&gt;EquipeService </title>
<path fill="none" stroke="black" stroke-dasharray="5,2" d="M234,-149.91C234,-149.91 234,-168.79 234,-168.79"/>
<polygon fill="black" stroke="black" points="230.5,-168.79 234,-178.79 237.5,-168.79 230.5,-168.79"/>
</g>
<!-- EquipeService -->
<g id="node5" class="node">
<title>EquipeService</title>
<ellipse fill="#fdb462" stroke="black" cx="91" cy="-66.8" rx="67.19" ry="18"/>
<text text-anchor="middle" x="91" y="-62.6" font-family="Times,serif" font-size="14.00">EquipeService</text>
</g>
<!-- EquipeService&#45;&gt;EquipeModule -->
<g id="edge4" class="edge">
<title>EquipeService&#45;&gt;EquipeModule</title>
<path fill="none" stroke="black" d="M91,-84.91C91,-104.14 91,-131.8 91,-131.8 91,-131.8 174.39,-131.8 174.39,-131.8"/>
<polygon fill="black" stroke="black" points="174.39,-135.3 184.39,-131.8 174.39,-128.3 174.39,-135.3"/>
</g>
</g>
</svg>
