<?xml version="1.0" encoding="UTF-8" standalone="no"?>
<!DOCTYPE svg PUBLIC "-//W3C//DTD SVG 1.1//EN"
 "http://www.w3.org/Graphics/SVG/1.1/DTD/svg11.dtd">
<!-- Generated by graphviz version 3.0.0 (20220226.1711)
 -->
<!-- Title: dependencies Pages: 1 -->
<svg width="678pt" height="247pt"
 viewBox="0.00 0.00 678.00 246.80" xmlns="http://www.w3.org/2000/svg" xmlns:xlink="http://www.w3.org/1999/xlink">
<g id="graph0" class="graph" transform="scale(1 1) rotate(0) translate(4 242.8)">
<title>dependencies</title>
<polygon fill="white" stroke="transparent" points="-4,4 -4,-242.8 674,-242.8 674,4 -4,4"/>
<text text-anchor="middle" x="335" y="-8.2" font-family="sans-serif" font-size="14.00">dependencies</text>
<g id="clust1" class="cluster">
<title>cluster_LigaModule</title>
<polygon fill="none" stroke="black" stroke-dasharray="1,5" points="8,-32.8 8,-230.8 662,-230.8 662,-32.8 8,-32.8"/>
</g>
<g id="clust4" class="cluster">
<title>cluster_LigaModule_exports</title>
<polygon fill="none" stroke="black" points="195,-170.8 195,-222.8 299,-222.8 299,-170.8 195,-170.8"/>
</g>
<g id="clust6" class="cluster">
<title>cluster_LigaModule_providers</title>
<polygon fill="none" stroke="black" points="244,-40.8 244,-92.8 654,-92.8 654,-40.8 244,-40.8"/>
</g>
<g id="clust3" class="cluster">
<title>cluster_LigaModule_imports</title>
<polygon fill="none" stroke="black" points="16,-40.8 16,-92.8 236,-92.8 236,-40.8 16,-40.8"/>
</g>
<!-- CoreModule -->
<g id="node1" class="node">
<title>CoreModule</title>
<polygon fill="#8dd3c7" stroke="black" points="228.27,-84.8 225.27,-88.8 204.27,-88.8 201.27,-84.8 141.73,-84.8 141.73,-48.8 228.27,-48.8 228.27,-84.8"/>
<text text-anchor="middle" x="185" y="-62.6" font-family="Times,serif" font-size="14.00">CoreModule</text>
</g>
<!-- LigaModule -->
<g id="node3" class="node">
<title>LigaModule</title>
<polygon fill="#8dd3c7" stroke="black" points="289.71,-149.8 286.71,-153.8 265.71,-153.8 262.71,-149.8 204.29,-149.8 204.29,-113.8 289.71,-113.8 289.71,-149.8"/>
<text text-anchor="middle" x="247" y="-127.6" font-family="Times,serif" font-size="14.00">LigaModule</text>
</g>
<!-- CoreModule&#45;&gt;LigaModule -->
<g id="edge1" class="edge">
<title>CoreModule&#45;&gt;LigaModule</title>
<path fill="none" stroke="black" d="M216.39,-84.91C216.39,-84.91 216.39,-103.79 216.39,-103.79"/>
<polygon fill="black" stroke="black" points="212.89,-103.79 216.39,-113.79 219.89,-103.79 212.89,-103.79"/>
</g>
<!-- EquipeModule -->
<g id="node2" class="node">
<title>EquipeModule</title>
<polygon fill="#8dd3c7" stroke="black" points="123.71,-84.8 120.71,-88.8 99.71,-88.8 96.71,-84.8 24.29,-84.8 24.29,-48.8 123.71,-48.8 123.71,-84.8"/>
<text text-anchor="middle" x="74" y="-62.6" font-family="Times,serif" font-size="14.00">EquipeModule</text>
</g>
<!-- EquipeModule&#45;&gt;LigaModule -->
<g id="edge2" class="edge">
<title>EquipeModule&#45;&gt;LigaModule</title>
<path fill="none" stroke="black" d="M74,-84.91C74,-104.14 74,-131.8 74,-131.8 74,-131.8 194.24,-131.8 194.24,-131.8"/>
<polygon fill="black" stroke="black" points="194.24,-135.3 204.24,-131.8 194.24,-128.3 194.24,-135.3"/>
</g>
<!-- LigaService  -->
<g id="node4" class="node">
<title>LigaService </title>
<polygon fill="#fb8072" stroke="black" points="290.63,-214.8 203.37,-214.8 203.37,-178.8 290.63,-178.8 290.63,-214.8"/>
<text text-anchor="middle" x="247" y="-192.6" font-family="Times,serif" font-size="14.00">LigaService </text>
</g>
<!-- LigaModule&#45;&gt;LigaService  -->
<g id="edge3" class="edge">
<title>LigaModule&#45;&gt;LigaService </title>
<path fill="none" stroke="black" stroke-dasharray="5,2" d="M247,-149.91C247,-149.91 247,-168.79 247,-168.79"/>
<polygon fill="black" stroke="black" points="243.5,-168.79 247,-178.79 250.5,-168.79 243.5,-168.79"/>
</g>
<!-- ClassificacaoGeneratorService -->
<g id="node5" class="node">
<title>ClassificacaoGeneratorService</title>
<ellipse fill="#fdb462" stroke="black" cx="516" cy="-66.8" rx="130.16" ry="18"/>
<text text-anchor="middle" x="516" y="-62.6" font-family="Times,serif" font-size="14.00">ClassificacaoGeneratorService</text>
</g>
<!-- ClassificacaoGeneratorService&#45;&gt;LigaModule -->
<g id="edge4" class="edge">
<title>ClassificacaoGeneratorService&#45;&gt;LigaModule</title>
<path fill="none" stroke="black" d="M516,-84.91C516,-104.14 516,-131.8 516,-131.8 516,-131.8 299.62,-131.8 299.62,-131.8"/>
<polygon fill="black" stroke="black" points="299.62,-128.3 289.62,-131.8 299.62,-135.3 299.62,-128.3"/>
</g>
<!-- LigaService -->
<g id="node6" class="node">
<title>LigaService</title>
<ellipse fill="#fdb462" stroke="black" cx="310" cy="-66.8" rx="57.88" ry="18"/>
<text text-anchor="middle" x="310" y="-62.6" font-family="Times,serif" font-size="14.00">LigaService</text>
</g>
<!-- LigaService&#45;&gt;LigaModule -->
<g id="edge5" class="edge">
<title>LigaService&#45;&gt;LigaModule</title>
<path fill="none" stroke="black" d="M270.96,-80.27C270.96,-80.27 270.96,-103.66 270.96,-103.66"/>
<polygon fill="black" stroke="black" points="267.46,-103.66 270.96,-113.66 274.46,-103.66 267.46,-103.66"/>
</g>
</g>
</svg>
