<?xml version="1.0" encoding="UTF-8" standalone="no"?>
<!DOCTYPE svg PUBLIC "-//W3C//DTD SVG 1.1//EN"
 "http://www.w3.org/Graphics/SVG/1.1/DTD/svg11.dtd">
<!-- Generated by graphviz version 5.0.0 (20220707.1540)
 -->
<!-- Title: dependencies Pages: 1 -->
<svg width="1686pt" height="247pt"
 viewBox="0.00 0.00 1686.00 246.80" xmlns="http://www.w3.org/2000/svg" xmlns:xlink="http://www.w3.org/1999/xlink">
<g id="graph0" class="graph" transform="scale(1 1) rotate(0) translate(4 242.8)">
<title>dependencies</title>
<polygon fill="white" stroke="transparent" points="-4,4 -4,-242.8 1682,-242.8 1682,4 -4,4"/>
<text text-anchor="middle" x="839" y="-8.2" font-family="sans-serif" font-size="14.00">dependencies</text>
<g id="clust1" class="cluster">
<title>cluster_LigaModule</title>
<polygon fill="none" stroke="black" stroke-dasharray="1,5" points="8,-32.8 8,-230.8 1670,-230.8 1670,-32.8 8,-32.8"/>
</g>
<g id="clust4" class="cluster">
<title>cluster_LigaModule_exports</title>
<polygon fill="none" stroke="black" points="991,-170.8 991,-222.8 1095,-222.8 1095,-170.8 991,-170.8"/>
</g>
<g id="clust3" class="cluster">
<title>cluster_LigaModule_imports</title>
<polygon fill="none" stroke="black" points="1189,-40.8 1189,-92.8 1662,-92.8 1662,-40.8 1189,-40.8"/>
</g>
<g id="clust6" class="cluster">
<title>cluster_LigaModule_providers</title>
<polygon fill="none" stroke="black" points="16,-40.8 16,-92.8 1181,-92.8 1181,-40.8 16,-40.8"/>
</g>
<!-- CoreModule -->
<g id="node1" class="node">
<title>CoreModule</title>
<polygon fill="#8dd3c7" stroke="black" points="1654.27,-84.8 1651.27,-88.8 1630.27,-88.8 1627.27,-84.8 1567.73,-84.8 1567.73,-48.8 1654.27,-48.8 1654.27,-84.8"/>
<text text-anchor="middle" x="1611" y="-62.6" font-family="Times,serif" font-size="14.00">CoreModule</text>
</g>
<!-- LigaModule -->
<g id="node5" class="node">
<title>LigaModule</title>
<polygon fill="#8dd3c7" stroke="black" points="1085.71,-149.8 1082.71,-153.8 1061.71,-153.8 1058.71,-149.8 1000.29,-149.8 1000.29,-113.8 1085.71,-113.8 1085.71,-149.8"/>
<text text-anchor="middle" x="1043" y="-127.6" font-family="Times,serif" font-size="14.00">LigaModule</text>
</g>
<!-- CoreModule&#45;&gt;LigaModule -->
<g id="edge1" class="edge">
<title>CoreModule&#45;&gt;LigaModule</title>
<path fill="none" stroke="black" d="M1611,-84.81C1611,-107.29 1611,-142.8 1611,-142.8 1611,-142.8 1095.69,-142.8 1095.69,-142.8"/>
<polygon fill="black" stroke="black" points="1095.69,-139.3 1085.69,-142.8 1095.69,-146.3 1095.69,-139.3"/>
</g>
<!-- EquipeModule -->
<g id="node2" class="node">
<title>EquipeModule</title>
<polygon fill="#8dd3c7" stroke="black" points="1549.71,-84.8 1546.71,-88.8 1525.71,-88.8 1522.71,-84.8 1450.29,-84.8 1450.29,-48.8 1549.71,-48.8 1549.71,-84.8"/>
<text text-anchor="middle" x="1500" y="-62.6" font-family="Times,serif" font-size="14.00">EquipeModule</text>
</g>
<!-- EquipeModule&#45;&gt;LigaModule -->
<g id="edge2" class="edge">
<title>EquipeModule&#45;&gt;LigaModule</title>
<path fill="none" stroke="black" d="M1500,-84.93C1500,-105.37 1500,-135.8 1500,-135.8 1500,-135.8 1095.99,-135.8 1095.99,-135.8"/>
<polygon fill="black" stroke="black" points="1095.99,-132.3 1085.99,-135.8 1095.99,-139.3 1095.99,-132.3"/>
</g>
<!-- PartidaModule -->
<g id="node3" class="node">
<title>PartidaModule</title>
<polygon fill="#8dd3c7" stroke="black" points="1432.71,-84.8 1429.71,-88.8 1408.71,-88.8 1405.71,-84.8 1333.29,-84.8 1333.29,-48.8 1432.71,-48.8 1432.71,-84.8"/>
<text text-anchor="middle" x="1383" y="-62.6" font-family="Times,serif" font-size="14.00">PartidaModule</text>
</g>
<!-- PartidaModule&#45;&gt;LigaModule -->
<g id="edge3" class="edge">
<title>PartidaModule&#45;&gt;LigaModule</title>
<path fill="none" stroke="black" d="M1383,-85.07C1383,-103.36 1383,-128.8 1383,-128.8 1383,-128.8 1095.72,-128.8 1095.72,-128.8"/>
<polygon fill="black" stroke="black" points="1095.72,-125.3 1085.72,-128.8 1095.72,-132.3 1095.72,-125.3"/>
</g>
<!-- PontuacaoModule -->
<g id="node4" class="node">
<title>PontuacaoModule</title>
<polygon fill="#8dd3c7" stroke="black" points="1314.87,-84.8 1311.87,-88.8 1290.87,-88.8 1287.87,-84.8 1197.13,-84.8 1197.13,-48.8 1314.87,-48.8 1314.87,-84.8"/>
<text text-anchor="middle" x="1256" y="-62.6" font-family="Times,serif" font-size="14.00">PontuacaoModule</text>
</g>
<!-- PontuacaoModule&#45;&gt;LigaModule -->
<g id="edge4" class="edge">
<title>PontuacaoModule&#45;&gt;LigaModule</title>
<path fill="none" stroke="black" d="M1256,-84.81C1256,-100.85 1256,-121.8 1256,-121.8 1256,-121.8 1095.85,-121.8 1095.85,-121.8"/>
<polygon fill="black" stroke="black" points="1095.85,-118.3 1085.85,-121.8 1095.85,-125.3 1095.85,-118.3"/>
</g>
<!-- LigaService  -->
<g id="node6" class="node">
<title>LigaService </title>
<polygon fill="#fb8072" stroke="black" points="1086.63,-214.8 999.37,-214.8 999.37,-178.8 1086.63,-178.8 1086.63,-214.8"/>
<text text-anchor="middle" x="1043" y="-192.6" font-family="Times,serif" font-size="14.00">LigaService </text>
</g>
<!-- LigaModule&#45;&gt;LigaService  -->
<g id="edge5" class="edge">
<title>LigaModule&#45;&gt;LigaService </title>
<path fill="none" stroke="black" stroke-dasharray="5,2" d="M1043,-149.91C1043,-149.91 1043,-168.79 1043,-168.79"/>
<polygon fill="black" stroke="black" points="1039.5,-168.79 1043,-178.79 1046.5,-168.79 1039.5,-168.79"/>
</g>
<!-- ClassificacaoGeneratorService -->
<g id="node7" class="node">
<title>ClassificacaoGeneratorService</title>
<ellipse fill="#fdb462" stroke="black" cx="1043" cy="-66.8" rx="130.16" ry="18"/>
<text text-anchor="middle" x="1043" y="-62.6" font-family="Times,serif" font-size="14.00">ClassificacaoGeneratorService</text>
</g>
<!-- ClassificacaoGeneratorService&#45;&gt;LigaModule -->
<g id="edge6" class="edge">
<title>ClassificacaoGeneratorService&#45;&gt;LigaModule</title>
<path fill="none" stroke="black" d="M1043,-84.91C1043,-84.91 1043,-103.79 1043,-103.79"/>
<polygon fill="black" stroke="black" points="1039.5,-103.79 1043,-113.79 1046.5,-103.79 1039.5,-103.79"/>
</g>
<!-- FinalGeneratorService -->
<g id="node8" class="node">
<title>FinalGeneratorService</title>
<ellipse fill="#fdb462" stroke="black" cx="796" cy="-66.8" rx="98.4" ry="18"/>
<text text-anchor="middle" x="796" y="-62.6" font-family="Times,serif" font-size="14.00">FinalGeneratorService</text>
</g>
<!-- FinalGeneratorService&#45;&gt;LigaModule -->
<g id="edge7" class="edge">
<title>FinalGeneratorService&#45;&gt;LigaModule</title>
<path fill="none" stroke="black" d="M796,-84.81C796,-100.85 796,-121.8 796,-121.8 796,-121.8 990.26,-121.8 990.26,-121.8"/>
<polygon fill="black" stroke="black" points="990.26,-125.3 1000.26,-121.8 990.26,-118.3 990.26,-125.3"/>
</g>
<!-- LigaService -->
<g id="node9" class="node">
<title>LigaService</title>
<ellipse fill="#fdb462" stroke="black" cx="622" cy="-66.8" rx="57.88" ry="18"/>
<text text-anchor="middle" x="622" y="-62.6" font-family="Times,serif" font-size="14.00">LigaService</text>
</g>
<!-- LigaService&#45;&gt;LigaModule -->
<g id="edge8" class="edge">
<title>LigaService&#45;&gt;LigaModule</title>
<path fill="none" stroke="black" d="M622,-85.07C622,-103.36 622,-128.8 622,-128.8 622,-128.8 990.32,-128.8 990.32,-128.8"/>
<polygon fill="black" stroke="black" points="990.32,-132.3 1000.32,-128.8 990.32,-125.3 990.32,-132.3"/>
</g>
<!-- QuartaDeFinalGeneratorService -->
<g id="node10" class="node">
<title>QuartaDeFinalGeneratorService</title>
<ellipse fill="#fdb462" stroke="black" cx="410" cy="-66.8" rx="135.97" ry="18"/>
<text text-anchor="middle" x="410" y="-62.6" font-family="Times,serif" font-size="14.00">QuartaDeFinalGeneratorService</text>
</g>
<!-- QuartaDeFinalGeneratorService&#45;&gt;LigaModule -->
<g id="edge9" class="edge">
<title>QuartaDeFinalGeneratorService&#45;&gt;LigaModule</title>
<path fill="none" stroke="black" d="M410,-84.93C410,-105.37 410,-135.8 410,-135.8 410,-135.8 989.99,-135.8 989.99,-135.8"/>
<polygon fill="black" stroke="black" points="989.99,-139.3 999.99,-135.8 989.99,-132.3 989.99,-139.3"/>
</g>
<!-- SemifinalGeneratorService -->
<g id="node11" class="node">
<title>SemifinalGeneratorService</title>
<ellipse fill="#fdb462" stroke="black" cx="140" cy="-66.8" rx="116.29" ry="18"/>
<text text-anchor="middle" x="140" y="-62.6" font-family="Times,serif" font-size="14.00">SemifinalGeneratorService</text>
</g>
<!-- SemifinalGeneratorService&#45;&gt;LigaModule -->
<g id="edge10" class="edge">
<title>SemifinalGeneratorService&#45;&gt;LigaModule</title>
<path fill="none" stroke="black" d="M140,-84.81C140,-107.29 140,-142.8 140,-142.8 140,-142.8 990.36,-142.8 990.36,-142.8"/>
<polygon fill="black" stroke="black" points="990.36,-146.3 1000.36,-142.8 990.36,-139.3 990.36,-146.3"/>
</g>
</g>
</svg>
