<?xml version="1.0" encoding="UTF-8" standalone="no"?>
<!DOCTYPE svg PUBLIC "-//W3C//DTD SVG 1.1//EN"
 "http://www.w3.org/Graphics/SVG/1.1/DTD/svg11.dtd">
<!-- Generated by graphviz version 3.0.0 (20220226.1711)
 -->
<!-- Title: dependencies Pages: 1 -->
<svg width="1783pt" height="247pt"
 viewBox="0.00 0.00 1783.00 246.80" xmlns="http://www.w3.org/2000/svg" xmlns:xlink="http://www.w3.org/1999/xlink">
<g id="graph0" class="graph" transform="scale(1 1) rotate(0) translate(4 242.8)">
<title>dependencies</title>
<polygon fill="white" stroke="transparent" points="-4,4 -4,-242.8 1779,-242.8 1779,4 -4,4"/>
<text text-anchor="middle" x="887.5" y="-8.2" font-family="sans-serif" font-size="14.00">dependencies</text>
<g id="clust1" class="cluster">
<title>cluster_LigaModule</title>
<polygon fill="none" stroke="black" stroke-dasharray="1,5" points="8,-32.8 8,-230.8 1767,-230.8 1767,-32.8 8,-32.8"/>
</g>
<g id="clust6" class="cluster">
<title>cluster_LigaModule_providers</title>
<polygon fill="none" stroke="black" points="361,-40.8 361,-92.8 1759,-92.8 1759,-40.8 361,-40.8"/>
</g>
<g id="clust3" class="cluster">
<title>cluster_LigaModule_imports</title>
<polygon fill="none" stroke="black" points="16,-40.8 16,-92.8 353,-92.8 353,-40.8 16,-40.8"/>
</g>
<g id="clust4" class="cluster">
<title>cluster_LigaModule_exports</title>
<polygon fill="none" stroke="black" points="703,-170.8 703,-222.8 807,-222.8 807,-170.8 703,-170.8"/>
</g>
<!-- CoreModule -->
<g id="node1" class="node">
<title>CoreModule</title>
<polygon fill="#8dd3c7" stroke="black" points="345.27,-84.8 342.27,-88.8 321.27,-88.8 318.27,-84.8 258.73,-84.8 258.73,-48.8 345.27,-48.8 345.27,-84.8"/>
<text text-anchor="middle" x="302" y="-62.6" font-family="Times,serif" font-size="14.00">CoreModule</text>
</g>
<!-- LigaModule -->
<g id="node4" class="node">
<title>LigaModule</title>
<polygon fill="#8dd3c7" stroke="black" points="797.71,-149.8 794.71,-153.8 773.71,-153.8 770.71,-149.8 712.29,-149.8 712.29,-113.8 797.71,-113.8 797.71,-149.8"/>
<text text-anchor="middle" x="755" y="-127.6" font-family="Times,serif" font-size="14.00">LigaModule</text>
</g>
<!-- CoreModule&#45;&gt;LigaModule -->
<g id="edge1" class="edge">
<title>CoreModule&#45;&gt;LigaModule</title>
<path fill="none" stroke="black" d="M302,-85.07C302,-103.36 302,-128.8 302,-128.8 302,-128.8 702.38,-128.8 702.38,-128.8"/>
<polygon fill="black" stroke="black" points="702.38,-132.3 712.38,-128.8 702.38,-125.3 702.38,-132.3"/>
</g>
<!-- EquipeModule -->
<g id="node2" class="node">
<title>EquipeModule</title>
<polygon fill="#8dd3c7" stroke="black" points="240.71,-84.8 237.71,-88.8 216.71,-88.8 213.71,-84.8 141.29,-84.8 141.29,-48.8 240.71,-48.8 240.71,-84.8"/>
<text text-anchor="middle" x="191" y="-62.6" font-family="Times,serif" font-size="14.00">EquipeModule</text>
</g>
<!-- EquipeModule&#45;&gt;LigaModule -->
<g id="edge2" class="edge">
<title>EquipeModule&#45;&gt;LigaModule</title>
<path fill="none" stroke="black" d="M191,-84.93C191,-105.37 191,-135.8 191,-135.8 191,-135.8 702.15,-135.8 702.15,-135.8"/>
<polygon fill="black" stroke="black" points="702.15,-139.3 712.15,-135.8 702.15,-132.3 702.15,-139.3"/>
</g>
<!-- PartidaModule -->
<g id="node3" class="node">
<title>PartidaModule</title>
<polygon fill="#8dd3c7" stroke="black" points="123.71,-84.8 120.71,-88.8 99.71,-88.8 96.71,-84.8 24.29,-84.8 24.29,-48.8 123.71,-48.8 123.71,-84.8"/>
<text text-anchor="middle" x="74" y="-62.6" font-family="Times,serif" font-size="14.00">PartidaModule</text>
</g>
<!-- PartidaModule&#45;&gt;LigaModule -->
<g id="edge3" class="edge">
<title>PartidaModule&#45;&gt;LigaModule</title>
<path fill="none" stroke="black" d="M74,-84.81C74,-107.29 74,-142.8 74,-142.8 74,-142.8 702.14,-142.8 702.14,-142.8"/>
<polygon fill="black" stroke="black" points="702.14,-146.3 712.14,-142.8 702.14,-139.3 702.14,-146.3"/>
</g>
<!-- LigaService  -->
<g id="node5" class="node">
<title>LigaService </title>
<polygon fill="#fb8072" stroke="black" points="798.63,-214.8 711.37,-214.8 711.37,-178.8 798.63,-178.8 798.63,-214.8"/>
<text text-anchor="middle" x="755" y="-192.6" font-family="Times,serif" font-size="14.00">LigaService </text>
</g>
<!-- LigaModule&#45;&gt;LigaService  -->
<g id="edge4" class="edge">
<title>LigaModule&#45;&gt;LigaService </title>
<path fill="none" stroke="black" stroke-dasharray="5,2" d="M755,-149.91C755,-149.91 755,-168.79 755,-168.79"/>
<polygon fill="black" stroke="black" points="751.5,-168.79 755,-178.79 758.5,-168.79 751.5,-168.79"/>
</g>
<!-- ClassificacaoGeneratorService -->
<g id="node6" class="node">
<title>ClassificacaoGeneratorService</title>
<ellipse fill="#fdb462" stroke="black" cx="1621" cy="-66.8" rx="130.16" ry="18"/>
<text text-anchor="middle" x="1621" y="-62.6" font-family="Times,serif" font-size="14.00">ClassificacaoGeneratorService</text>
</g>
<!-- ClassificacaoGeneratorService&#45;&gt;LigaModule -->
<g id="edge5" class="edge">
<title>ClassificacaoGeneratorService&#45;&gt;LigaModule</title>
<path fill="none" stroke="black" d="M1621,-84.81C1621,-107.29 1621,-142.8 1621,-142.8 1621,-142.8 807.65,-142.8 807.65,-142.8"/>
<polygon fill="black" stroke="black" points="807.65,-139.3 797.65,-142.8 807.65,-146.3 807.65,-139.3"/>
</g>
<!-- FinalGeneratorService -->
<g id="node7" class="node">
<title>FinalGeneratorService</title>
<ellipse fill="#fdb462" stroke="black" cx="1374" cy="-66.8" rx="98.4" ry="18"/>
<text text-anchor="middle" x="1374" y="-62.6" font-family="Times,serif" font-size="14.00">FinalGeneratorService</text>
</g>
<!-- FinalGeneratorService&#45;&gt;LigaModule -->
<g id="edge6" class="edge">
<title>FinalGeneratorService&#45;&gt;LigaModule</title>
<path fill="none" stroke="black" d="M1374,-84.93C1374,-105.37 1374,-135.8 1374,-135.8 1374,-135.8 808.04,-135.8 808.04,-135.8"/>
<polygon fill="black" stroke="black" points="808.04,-132.3 798.04,-135.8 808.04,-139.3 808.04,-132.3"/>
</g>
<!-- LigaService -->
<g id="node8" class="node">
<title>LigaService</title>
<ellipse fill="#fdb462" stroke="black" cx="1200" cy="-66.8" rx="57.88" ry="18"/>
<text text-anchor="middle" x="1200" y="-62.6" font-family="Times,serif" font-size="14.00">LigaService</text>
</g>
<!-- LigaService&#45;&gt;LigaModule -->
<g id="edge7" class="edge">
<title>LigaService&#45;&gt;LigaModule</title>
<path fill="none" stroke="black" d="M1200,-85.07C1200,-103.36 1200,-128.8 1200,-128.8 1200,-128.8 807.67,-128.8 807.67,-128.8"/>
<polygon fill="black" stroke="black" points="807.67,-125.3 797.67,-128.8 807.67,-132.3 807.67,-125.3"/>
</g>
<!-- PontuacaoEquipeService -->
<g id="node9" class="node">
<title>PontuacaoEquipeService</title>
<ellipse fill="#fdb462" stroke="black" cx="1017" cy="-66.8" rx="107.65" ry="18"/>
<text text-anchor="middle" x="1017" y="-62.6" font-family="Times,serif" font-size="14.00">PontuacaoEquipeService</text>
</g>
<!-- PontuacaoEquipeService&#45;&gt;LigaModule -->
<g id="edge8" class="edge">
<title>PontuacaoEquipeService&#45;&gt;LigaModule</title>
<path fill="none" stroke="black" d="M1017,-84.81C1017,-100.85 1017,-121.8 1017,-121.8 1017,-121.8 807.68,-121.8 807.68,-121.8"/>
<polygon fill="black" stroke="black" points="807.68,-118.3 797.68,-121.8 807.68,-125.3 807.68,-118.3"/>
</g>
<!-- QuartaDeFinalGeneratorService -->
<g id="node10" class="node">
<title>QuartaDeFinalGeneratorService</title>
<ellipse fill="#fdb462" stroke="black" cx="755" cy="-66.8" rx="135.97" ry="18"/>
<text text-anchor="middle" x="755" y="-62.6" font-family="Times,serif" font-size="14.00">QuartaDeFinalGeneratorService</text>
</g>
<!-- QuartaDeFinalGeneratorService&#45;&gt;LigaModule -->
<g id="edge9" class="edge">
<title>QuartaDeFinalGeneratorService&#45;&gt;LigaModule</title>
<path fill="none" stroke="black" d="M755,-84.91C755,-84.91 755,-103.79 755,-103.79"/>
<polygon fill="black" stroke="black" points="751.5,-103.79 755,-113.79 758.5,-103.79 751.5,-103.79"/>
</g>
<!-- SemifinalGeneratorService -->
<g id="node11" class="node">
<title>SemifinalGeneratorService</title>
<ellipse fill="#fdb462" stroke="black" cx="485" cy="-66.8" rx="116.29" ry="18"/>
<text text-anchor="middle" x="485" y="-62.6" font-family="Times,serif" font-size="14.00">SemifinalGeneratorService</text>
</g>
<!-- SemifinalGeneratorService&#45;&gt;LigaModule -->
<g id="edge10" class="edge">
<title>SemifinalGeneratorService&#45;&gt;LigaModule</title>
<path fill="none" stroke="black" d="M485,-84.81C485,-100.85 485,-121.8 485,-121.8 485,-121.8 702.22,-121.8 702.22,-121.8"/>
<polygon fill="black" stroke="black" points="702.22,-125.3 712.22,-121.8 702.22,-118.3 702.22,-125.3"/>
</g>
</g>
</svg>
