<?xml version="1.0" encoding="UTF-8" standalone="no"?>
<!DOCTYPE svg PUBLIC "-//W3C//DTD SVG 1.1//EN"
 "http://www.w3.org/Graphics/SVG/1.1/DTD/svg11.dtd">
<!-- Generated by graphviz version 3.0.0 (20220226.1711)
 -->
<!-- Title: dependencies Pages: 1 -->
<svg width="1686pt" height="247pt"
 viewBox="0.00 0.00 1686.00 246.80" xmlns="http://www.w3.org/2000/svg" xmlns:xlink="http://www.w3.org/1999/xlink">
<g id="graph0" class="graph" transform="scale(1 1) rotate(0) translate(4 242.8)">
<title>dependencies</title>
<polygon fill="white" stroke="transparent" points="-4,4 -4,-242.8 1682,-242.8 1682,4 -4,4"/>
<text text-anchor="middle" x="839" y="-8.2" font-family="sans-serif" font-size="14.00">dependencies</text>
<g id="clust1" class="cluster">
<title>cluster_LigaModule</title>
<polygon fill="none" stroke="black" stroke-dasharray="1,5" points="8,-32.8 8,-230.8 1670,-230.8 1670,-32.8 8,-32.8"/>
</g>
<g id="clust4" class="cluster">
<title>cluster_LigaModule_exports</title>
<polygon fill="none" stroke="black" points="569,-170.8 569,-222.8 673,-222.8 673,-170.8 569,-170.8"/>
</g>
<g id="clust6" class="cluster">
<title>cluster_LigaModule_providers</title>
<polygon fill="none" stroke="black" points="497,-40.8 497,-92.8 1662,-92.8 1662,-40.8 497,-40.8"/>
</g>
<g id="clust3" class="cluster">
<title>cluster_LigaModule_imports</title>
<polygon fill="none" stroke="black" points="16,-40.8 16,-92.8 489,-92.8 489,-40.8 16,-40.8"/>
</g>
<!-- CoreModule -->
<g id="node1" class="node">
<title>CoreModule</title>
<polygon fill="#8dd3c7" stroke="black" points="481.27,-84.8 478.27,-88.8 457.27,-88.8 454.27,-84.8 394.73,-84.8 394.73,-48.8 481.27,-48.8 481.27,-84.8"/>
<text text-anchor="middle" x="438" y="-62.6" font-family="Times,serif" font-size="14.00">CoreModule</text>
</g>
<!-- LigaModule -->
<g id="node5" class="node">
<title>LigaModule</title>
<polygon fill="#8dd3c7" stroke="black" points="663.71,-149.8 660.71,-153.8 639.71,-153.8 636.71,-149.8 578.29,-149.8 578.29,-113.8 663.71,-113.8 663.71,-149.8"/>
<text text-anchor="middle" x="621" y="-127.6" font-family="Times,serif" font-size="14.00">LigaModule</text>
</g>
<!-- CoreModule&#45;&gt;LigaModule -->
<g id="edge1" class="edge">
<title>CoreModule&#45;&gt;LigaModule</title>
<path fill="none" stroke="black" d="M438,-84.81C438,-100.85 438,-121.8 438,-121.8 438,-121.8 568.09,-121.8 568.09,-121.8"/>
<polygon fill="black" stroke="black" points="568.09,-125.3 578.09,-121.8 568.09,-118.3 568.09,-125.3"/>
</g>
<!-- EquipeModule -->
<g id="node2" class="node">
<title>EquipeModule</title>
<polygon fill="#8dd3c7" stroke="black" points="376.71,-84.8 373.71,-88.8 352.71,-88.8 349.71,-84.8 277.29,-84.8 277.29,-48.8 376.71,-48.8 376.71,-84.8"/>
<text text-anchor="middle" x="327" y="-62.6" font-family="Times,serif" font-size="14.00">EquipeModule</text>
</g>
<!-- EquipeModule&#45;&gt;LigaModule -->
<g id="edge2" class="edge">
<title>EquipeModule&#45;&gt;LigaModule</title>
<path fill="none" stroke="black" d="M327,-85.07C327,-103.36 327,-128.8 327,-128.8 327,-128.8 568.25,-128.8 568.25,-128.8"/>
<polygon fill="black" stroke="black" points="568.25,-132.3 578.25,-128.8 568.25,-125.3 568.25,-132.3"/>
</g>
<!-- PartidaModule -->
<g id="node3" class="node">
<title>PartidaModule</title>
<polygon fill="#8dd3c7" stroke="black" points="259.71,-84.8 256.71,-88.8 235.71,-88.8 232.71,-84.8 160.29,-84.8 160.29,-48.8 259.71,-48.8 259.71,-84.8"/>
<text text-anchor="middle" x="210" y="-62.6" font-family="Times,serif" font-size="14.00">PartidaModule</text>
</g>
<!-- PartidaModule&#45;&gt;LigaModule -->
<g id="edge3" class="edge">
<title>PartidaModule&#45;&gt;LigaModule</title>
<path fill="none" stroke="black" d="M210,-84.93C210,-105.37 210,-135.8 210,-135.8 210,-135.8 568.18,-135.8 568.18,-135.8"/>
<polygon fill="black" stroke="black" points="568.18,-139.3 578.18,-135.8 568.18,-132.3 568.18,-139.3"/>
</g>
<!-- PontuacaoModule -->
<g id="node4" class="node">
<title>PontuacaoModule</title>
<polygon fill="#8dd3c7" stroke="black" points="141.87,-84.8 138.87,-88.8 117.87,-88.8 114.87,-84.8 24.13,-84.8 24.13,-48.8 141.87,-48.8 141.87,-84.8"/>
<text text-anchor="middle" x="83" y="-62.6" font-family="Times,serif" font-size="14.00">PontuacaoModule</text>
</g>
<!-- PontuacaoModule&#45;&gt;LigaModule -->
<g id="edge4" class="edge">
<title>PontuacaoModule&#45;&gt;LigaModule</title>
<path fill="none" stroke="black" d="M83,-84.81C83,-107.29 83,-142.8 83,-142.8 83,-142.8 568.33,-142.8 568.33,-142.8"/>
<polygon fill="black" stroke="black" points="568.33,-146.3 578.33,-142.8 568.33,-139.3 568.33,-146.3"/>
</g>
<!-- LigaService  -->
<g id="node6" class="node">
<title>LigaService </title>
<polygon fill="#fb8072" stroke="black" points="664.63,-214.8 577.37,-214.8 577.37,-178.8 664.63,-178.8 664.63,-214.8"/>
<text text-anchor="middle" x="621" y="-192.6" font-family="Times,serif" font-size="14.00">LigaService </text>
</g>
<!-- LigaModule&#45;&gt;LigaService  -->
<g id="edge5" class="edge">
<title>LigaModule&#45;&gt;LigaService </title>
<path fill="none" stroke="black" stroke-dasharray="5,2" d="M621,-149.91C621,-149.91 621,-168.79 621,-168.79"/>
<polygon fill="black" stroke="black" points="617.5,-168.79 621,-178.79 624.5,-168.79 617.5,-168.79"/>
</g>
<!-- ClassificacaoGeneratorService -->
<g id="node7" class="node">
<title>ClassificacaoGeneratorService</title>
<ellipse fill="#fdb462" stroke="black" cx="1524" cy="-66.8" rx="130.16" ry="18"/>
<text text-anchor="middle" x="1524" y="-62.6" font-family="Times,serif" font-size="14.00">ClassificacaoGeneratorService</text>
</g>
<!-- ClassificacaoGeneratorService&#45;&gt;LigaModule -->
<g id="edge6" class="edge">
<title>ClassificacaoGeneratorService&#45;&gt;LigaModule</title>
<path fill="none" stroke="black" d="M1524,-84.81C1524,-107.29 1524,-142.8 1524,-142.8 1524,-142.8 673.64,-142.8 673.64,-142.8"/>
<polygon fill="black" stroke="black" points="673.64,-139.3 663.64,-142.8 673.64,-146.3 673.64,-139.3"/>
</g>
<!-- FinalGeneratorService -->
<g id="node8" class="node">
<title>FinalGeneratorService</title>
<ellipse fill="#fdb462" stroke="black" cx="1277" cy="-66.8" rx="98.4" ry="18"/>
<text text-anchor="middle" x="1277" y="-62.6" font-family="Times,serif" font-size="14.00">FinalGeneratorService</text>
</g>
<!-- FinalGeneratorService&#45;&gt;LigaModule -->
<g id="edge7" class="edge">
<title>FinalGeneratorService&#45;&gt;LigaModule</title>
<path fill="none" stroke="black" d="M1277,-84.93C1277,-105.37 1277,-135.8 1277,-135.8 1277,-135.8 673.79,-135.8 673.79,-135.8"/>
<polygon fill="black" stroke="black" points="673.79,-132.3 663.79,-135.8 673.79,-139.3 673.79,-132.3"/>
</g>
<!-- LigaService -->
<g id="node9" class="node">
<title>LigaService</title>
<ellipse fill="#fdb462" stroke="black" cx="1103" cy="-66.8" rx="57.88" ry="18"/>
<text text-anchor="middle" x="1103" y="-62.6" font-family="Times,serif" font-size="14.00">LigaService</text>
</g>
<!-- LigaService&#45;&gt;LigaModule -->
<g id="edge8" class="edge">
<title>LigaService&#45;&gt;LigaModule</title>
<path fill="none" stroke="black" d="M1103,-85.07C1103,-103.36 1103,-128.8 1103,-128.8 1103,-128.8 673.77,-128.8 673.77,-128.8"/>
<polygon fill="black" stroke="black" points="673.77,-125.3 663.77,-128.8 673.77,-132.3 673.77,-125.3"/>
</g>
<!-- QuartaDeFinalGeneratorService -->
<g id="node10" class="node">
<title>QuartaDeFinalGeneratorService</title>
<ellipse fill="#fdb462" stroke="black" cx="891" cy="-66.8" rx="135.97" ry="18"/>
<text text-anchor="middle" x="891" y="-62.6" font-family="Times,serif" font-size="14.00">QuartaDeFinalGeneratorService</text>
</g>
<!-- QuartaDeFinalGeneratorService&#45;&gt;LigaModule -->
<g id="edge9" class="edge">
<title>QuartaDeFinalGeneratorService&#45;&gt;LigaModule</title>
<path fill="none" stroke="black" d="M891,-84.81C891,-100.85 891,-121.8 891,-121.8 891,-121.8 673.78,-121.8 673.78,-121.8"/>
<polygon fill="black" stroke="black" points="673.78,-118.3 663.78,-121.8 673.78,-125.3 673.78,-118.3"/>
</g>
<!-- SemifinalGeneratorService -->
<g id="node11" class="node">
<title>SemifinalGeneratorService</title>
<ellipse fill="#fdb462" stroke="black" cx="621" cy="-66.8" rx="116.29" ry="18"/>
<text text-anchor="middle" x="621" y="-62.6" font-family="Times,serif" font-size="14.00">SemifinalGeneratorService</text>
</g>
<!-- SemifinalGeneratorService&#45;&gt;LigaModule -->
<g id="edge10" class="edge">
<title>SemifinalGeneratorService&#45;&gt;LigaModule</title>
<path fill="none" stroke="black" d="M621,-84.91C621,-84.91 621,-103.79 621,-103.79"/>
<polygon fill="black" stroke="black" points="617.5,-103.79 621,-113.79 624.5,-103.79 617.5,-103.79"/>
</g>
</g>
</svg>
