<?xml version="1.0" encoding="UTF-8" standalone="no"?>
<!DOCTYPE svg PUBLIC "-//W3C//DTD SVG 1.1//EN"
 "http://www.w3.org/Graphics/SVG/1.1/DTD/svg11.dtd">
<!-- Generated by graphviz version 3.0.0 (20220226.1711)
 -->
<!-- Title: dependencies Pages: 1 -->
<svg width="1201pt" height="247pt"
 viewBox="0.00 0.00 1201.00 246.80" xmlns="http://www.w3.org/2000/svg" xmlns:xlink="http://www.w3.org/1999/xlink">
<g id="graph0" class="graph" transform="scale(1 1) rotate(0) translate(4 242.8)">
<title>dependencies</title>
<polygon fill="white" stroke="transparent" points="-4,4 -4,-242.8 1197,-242.8 1197,4 -4,4"/>
<text text-anchor="middle" x="596.5" y="-8.2" font-family="sans-serif" font-size="14.00">dependencies</text>
<g id="clust1" class="cluster">
<title>cluster_LigaModule</title>
<polygon fill="none" stroke="black" stroke-dasharray="1,5" points="8,-32.8 8,-230.8 1185,-230.8 1185,-32.8 8,-32.8"/>
</g>
<g id="clust4" class="cluster">
<title>cluster_LigaModule_exports</title>
<polygon fill="none" stroke="black" points="467,-170.8 467,-222.8 571,-222.8 571,-170.8 467,-170.8"/>
</g>
<g id="clust6" class="cluster">
<title>cluster_LigaModule_providers</title>
<polygon fill="none" stroke="black" points="244,-40.8 244,-92.8 1177,-92.8 1177,-40.8 244,-40.8"/>
</g>
<g id="clust3" class="cluster">
<title>cluster_LigaModule_imports</title>
<polygon fill="none" stroke="black" points="16,-40.8 16,-92.8 236,-92.8 236,-40.8 16,-40.8"/>
</g>
<!-- CoreModule -->
<g id="node1" class="node">
<title>CoreModule</title>
<polygon fill="#8dd3c7" stroke="black" points="228.27,-84.8 225.27,-88.8 204.27,-88.8 201.27,-84.8 141.73,-84.8 141.73,-48.8 228.27,-48.8 228.27,-84.8"/>
<text text-anchor="middle" x="185" y="-62.6" font-family="Times,serif" font-size="14.00">CoreModule</text>
</g>
<!-- LigaModule -->
<g id="node3" class="node">
<title>LigaModule</title>
<polygon fill="#8dd3c7" stroke="black" points="561.71,-149.8 558.71,-153.8 537.71,-153.8 534.71,-149.8 476.29,-149.8 476.29,-113.8 561.71,-113.8 561.71,-149.8"/>
<text text-anchor="middle" x="519" y="-127.6" font-family="Times,serif" font-size="14.00">LigaModule</text>
</g>
<!-- CoreModule&#45;&gt;LigaModule -->
<g id="edge1" class="edge">
<title>CoreModule&#45;&gt;LigaModule</title>
<path fill="none" stroke="black" d="M185,-84.82C185,-102.17 185,-125.8 185,-125.8 185,-125.8 466.36,-125.8 466.36,-125.8"/>
<polygon fill="black" stroke="black" points="466.36,-129.3 476.36,-125.8 466.36,-122.3 466.36,-129.3"/>
</g>
<!-- EquipeModule -->
<g id="node2" class="node">
<title>EquipeModule</title>
<polygon fill="#8dd3c7" stroke="black" points="123.71,-84.8 120.71,-88.8 99.71,-88.8 96.71,-84.8 24.29,-84.8 24.29,-48.8 123.71,-48.8 123.71,-84.8"/>
<text text-anchor="middle" x="74" y="-62.6" font-family="Times,serif" font-size="14.00">EquipeModule</text>
</g>
<!-- EquipeModule&#45;&gt;LigaModule -->
<g id="edge2" class="edge">
<title>EquipeModule&#45;&gt;LigaModule</title>
<path fill="none" stroke="black" d="M74,-85.08C74,-106.12 74,-137.8 74,-137.8 74,-137.8 466.33,-137.8 466.33,-137.8"/>
<polygon fill="black" stroke="black" points="466.33,-141.3 476.33,-137.8 466.33,-134.3 466.33,-141.3"/>
</g>
<!-- LigaService  -->
<g id="node4" class="node">
<title>LigaService </title>
<polygon fill="#fb8072" stroke="black" points="562.63,-214.8 475.37,-214.8 475.37,-178.8 562.63,-178.8 562.63,-214.8"/>
<text text-anchor="middle" x="519" y="-192.6" font-family="Times,serif" font-size="14.00">LigaService </text>
</g>
<!-- LigaModule&#45;&gt;LigaService  -->
<g id="edge3" class="edge">
<title>LigaModule&#45;&gt;LigaService </title>
<path fill="none" stroke="black" stroke-dasharray="5,2" d="M519,-149.91C519,-149.91 519,-168.79 519,-168.79"/>
<polygon fill="black" stroke="black" points="515.5,-168.79 519,-178.79 522.5,-168.79 515.5,-168.79"/>
</g>
<!-- ClassificacaoGeneratorService -->
<g id="node5" class="node">
<title>ClassificacaoGeneratorService</title>
<ellipse fill="#fdb462" stroke="black" cx="1039" cy="-66.8" rx="130.16" ry="18"/>
<text text-anchor="middle" x="1039" y="-62.6" font-family="Times,serif" font-size="14.00">ClassificacaoGeneratorService</text>
</g>
<!-- ClassificacaoGeneratorService&#45;&gt;LigaModule -->
<g id="edge4" class="edge">
<title>ClassificacaoGeneratorService&#45;&gt;LigaModule</title>
<path fill="none" stroke="black" d="M1039,-85.08C1039,-106.12 1039,-137.8 1039,-137.8 1039,-137.8 572,-137.8 572,-137.8"/>
<polygon fill="black" stroke="black" points="572,-134.3 562,-137.8 572,-141.3 572,-134.3"/>
</g>
<!-- LigaService -->
<g id="node6" class="node">
<title>LigaService</title>
<ellipse fill="#fdb462" stroke="black" cx="833" cy="-66.8" rx="57.88" ry="18"/>
<text text-anchor="middle" x="833" y="-62.6" font-family="Times,serif" font-size="14.00">LigaService</text>
</g>
<!-- LigaService&#45;&gt;LigaModule -->
<g id="edge5" class="edge">
<title>LigaService&#45;&gt;LigaModule</title>
<path fill="none" stroke="black" d="M833,-84.82C833,-102.17 833,-125.8 833,-125.8 833,-125.8 571.67,-125.8 571.67,-125.8"/>
<polygon fill="black" stroke="black" points="571.67,-122.3 561.67,-125.8 571.67,-129.3 571.67,-122.3"/>
</g>
<!-- PontuacaoEquipeService -->
<g id="node7" class="node">
<title>PontuacaoEquipeService</title>
<ellipse fill="#fdb462" stroke="black" cx="650" cy="-66.8" rx="107.65" ry="18"/>
<text text-anchor="middle" x="650" y="-62.6" font-family="Times,serif" font-size="14.00">PontuacaoEquipeService</text>
</g>
<!-- PontuacaoEquipeService&#45;&gt;LigaModule -->
<g id="edge6" class="edge">
<title>PontuacaoEquipeService&#45;&gt;LigaModule</title>
<path fill="none" stroke="black" d="M552.02,-74.26C552.02,-74.26 552.02,-103.64 552.02,-103.64"/>
<polygon fill="black" stroke="black" points="548.52,-103.64 552.02,-113.64 555.52,-103.64 548.52,-103.64"/>
</g>
<!-- QuartaDeFinalGeneratorService -->
<g id="node8" class="node">
<title>QuartaDeFinalGeneratorService</title>
<ellipse fill="#fdb462" stroke="black" cx="388" cy="-66.8" rx="135.97" ry="18"/>
<text text-anchor="middle" x="388" y="-62.6" font-family="Times,serif" font-size="14.00">QuartaDeFinalGeneratorService</text>
</g>
<!-- QuartaDeFinalGeneratorService&#45;&gt;LigaModule -->
<g id="edge7" class="edge">
<title>QuartaDeFinalGeneratorService&#45;&gt;LigaModule</title>
<path fill="none" stroke="black" d="M500.19,-77.24C500.19,-77.24 500.19,-103.77 500.19,-103.77"/>
<polygon fill="black" stroke="black" points="496.69,-103.77 500.19,-113.77 503.69,-103.77 496.69,-103.77"/>
</g>
</g>
</svg>
