<?xml version="1.0" encoding="UTF-8" standalone="no"?>
<!DOCTYPE svg PUBLIC "-//W3C//DTD SVG 1.1//EN"
 "http://www.w3.org/Graphics/SVG/1.1/DTD/svg11.dtd">
<!-- Generated by graphviz version 3.0.0 (20220226.1711)
 -->
<!-- Title: dependencies Pages: 1 -->
<svg width="678pt" height="247pt"
 viewBox="0.00 0.00 678.00 246.80" xmlns="http://www.w3.org/2000/svg" xmlns:xlink="http://www.w3.org/1999/xlink">
<g id="graph0" class="graph" transform="scale(1 1) rotate(0) translate(4 242.8)">
<title>dependencies</title>
<polygon fill="white" stroke="transparent" points="-4,4 -4,-242.8 674,-242.8 674,4 -4,4"/>
<text text-anchor="middle" x="335" y="-8.2" font-family="sans-serif" font-size="14.00">dependencies</text>
<g id="clust1" class="cluster">
<title>cluster_LigaModule</title>
<polygon fill="none" stroke="black" stroke-dasharray="1,5" points="8,-32.8 8,-230.8 662,-230.8 662,-32.8 8,-32.8"/>
</g>
<g id="clust3" class="cluster">
<title>cluster_LigaModule_imports</title>
<polygon fill="none" stroke="black" points="434,-40.8 434,-92.8 654,-92.8 654,-40.8 434,-40.8"/>
</g>
<g id="clust6" class="cluster">
<title>cluster_LigaModule_providers</title>
<polygon fill="none" stroke="black" points="16,-40.8 16,-92.8 426,-92.8 426,-40.8 16,-40.8"/>
</g>
<g id="clust4" class="cluster">
<title>cluster_LigaModule_exports</title>
<polygon fill="none" stroke="black" points="338,-170.8 338,-222.8 442,-222.8 442,-170.8 338,-170.8"/>
</g>
<!-- CoreModule -->
<g id="node1" class="node">
<title>CoreModule</title>
<polygon fill="#8dd3c7" stroke="black" points="646.27,-84.8 643.27,-88.8 622.27,-88.8 619.27,-84.8 559.73,-84.8 559.73,-48.8 646.27,-48.8 646.27,-84.8"/>
<text text-anchor="middle" x="603" y="-62.6" font-family="Times,serif" font-size="14.00">CoreModule</text>
</g>
<!-- LigaModule -->
<g id="node3" class="node">
<title>LigaModule</title>
<polygon fill="#8dd3c7" stroke="black" points="432.71,-149.8 429.71,-153.8 408.71,-153.8 405.71,-149.8 347.29,-149.8 347.29,-113.8 432.71,-113.8 432.71,-149.8"/>
<text text-anchor="middle" x="390" y="-127.6" font-family="Times,serif" font-size="14.00">LigaModule</text>
</g>
<!-- CoreModule&#45;&gt;LigaModule -->
<g id="edge1" class="edge">
<title>CoreModule&#45;&gt;LigaModule</title>
<path fill="none" stroke="black" d="M603,-84.91C603,-104.14 603,-131.8 603,-131.8 603,-131.8 442.85,-131.8 442.85,-131.8"/>
<polygon fill="black" stroke="black" points="442.85,-128.3 432.85,-131.8 442.85,-135.3 442.85,-128.3"/>
</g>
<!-- EquipeModule -->
<g id="node2" class="node">
<title>EquipeModule</title>
<polygon fill="#8dd3c7" stroke="black" points="541.71,-84.8 538.71,-88.8 517.71,-88.8 514.71,-84.8 442.29,-84.8 442.29,-48.8 541.71,-48.8 541.71,-84.8"/>
<text text-anchor="middle" x="492" y="-62.6" font-family="Times,serif" font-size="14.00">EquipeModule</text>
</g>
<!-- EquipeModule&#45;&gt;LigaModule -->
<g id="edge2" class="edge">
<title>EquipeModule&#45;&gt;LigaModule</title>
<path fill="none" stroke="black" d="M442.16,-66.8C432.52,-66.8 425.34,-66.8 425.34,-66.8 425.34,-66.8 425.34,-103.69 425.34,-103.69"/>
<polygon fill="black" stroke="black" points="421.84,-103.69 425.34,-113.69 428.84,-103.69 421.84,-103.69"/>
</g>
<!-- LigaService  -->
<g id="node4" class="node">
<title>LigaService </title>
<polygon fill="#fb8072" stroke="black" points="433.63,-214.8 346.37,-214.8 346.37,-178.8 433.63,-178.8 433.63,-214.8"/>
<text text-anchor="middle" x="390" y="-192.6" font-family="Times,serif" font-size="14.00">LigaService </text>
</g>
<!-- LigaModule&#45;&gt;LigaService  -->
<g id="edge3" class="edge">
<title>LigaModule&#45;&gt;LigaService </title>
<path fill="none" stroke="black" stroke-dasharray="5,2" d="M390,-149.91C390,-149.91 390,-168.79 390,-168.79"/>
<polygon fill="black" stroke="black" points="386.5,-168.79 390,-178.79 393.5,-168.79 386.5,-168.79"/>
</g>
<!-- ClassificacaoGeneratorService -->
<g id="node5" class="node">
<title>ClassificacaoGeneratorService</title>
<ellipse fill="#fdb462" stroke="black" cx="288" cy="-66.8" rx="130.16" ry="18"/>
<text text-anchor="middle" x="288" y="-62.6" font-family="Times,serif" font-size="14.00">ClassificacaoGeneratorService</text>
</g>
<!-- ClassificacaoGeneratorService&#45;&gt;LigaModule -->
<g id="edge4" class="edge">
<title>ClassificacaoGeneratorService&#45;&gt;LigaModule</title>
<path fill="none" stroke="black" d="M382.74,-79.33C382.74,-79.33 382.74,-103.65 382.74,-103.65"/>
<polygon fill="black" stroke="black" points="379.24,-103.65 382.74,-113.65 386.24,-103.65 379.24,-103.65"/>
</g>
<!-- LigaService -->
<g id="node6" class="node">
<title>LigaService</title>
<ellipse fill="#fdb462" stroke="black" cx="82" cy="-66.8" rx="57.88" ry="18"/>
<text text-anchor="middle" x="82" y="-62.6" font-family="Times,serif" font-size="14.00">LigaService</text>
</g>
<!-- LigaService&#45;&gt;LigaModule -->
<g id="edge5" class="edge">
<title>LigaService&#45;&gt;LigaModule</title>
<path fill="none" stroke="black" d="M82,-84.91C82,-104.14 82,-131.8 82,-131.8 82,-131.8 337.17,-131.8 337.17,-131.8"/>
<polygon fill="black" stroke="black" points="337.17,-135.3 347.17,-131.8 337.17,-128.3 337.17,-135.3"/>
</g>
</g>
</svg>
